<?xml version="1.0" standalone="no"?>
<!DOCTYPE svg PUBLIC "-//W3C//DTD SVG 20010904//EN"
 "http://www.w3.org/TR/2001/REC-SVG-20010904/DTD/svg10.dtd">
<svg version="1.0" xmlns="http://www.w3.org/2000/svg"
 width="520.000000pt" height="520.000000pt" viewBox="0 0 520.000000 520.000000"
 preserveAspectRatio="xMidYMid meet">
<metadata>
Created by potrace 1.11, written by Peter Selinger 2001-2013
</metadata>
<g transform="translate(0.000000,520.000000) scale(0.100000,-0.100000)"
fill="#000000" stroke="none">
<path d="M3264 5020 c-6 -6 -36 -11 -67 -11 -31 -1 -57 -4 -57 -8 0 -3 -19 -7
-43 -9 -51 -3 -69 -6 -82 -14 -5 -3 -27 -5 -47 -4 -20 1 -35 -1 -32 -6 5 -8
-7 -10 -53 -11 -13 0 -23 -4 -23 -9 0 -5 -4 -7 -8 -4 -5 3 -27 -2 -51 -10 -23
-8 -47 -12 -52 -9 -5 4 -9 2 -9 -4 0 -6 -7 -7 -17 -4 -9 4 -14 2 -11 -3 4 -5
-4 -10 -15 -10 -30 -2 -78 -14 -91 -22 -6 -3 -17 -8 -23 -9 -30 -7 -48 -12
-50 -13 -2 -2 -6 -3 -10 -4 -5 -1 -12 -4 -18 -7 -5 -3 -17 -5 -25 -4 -8 0 -21
-5 -28 -12 -8 -7 -17 -11 -22 -8 -5 3 -11 1 -15 -5 -4 -6 -11 -8 -16 -5 -5 4
-9 2 -9 -3 0 -5 -6 -9 -12 -10 -38 -3 -54 -8 -66 -20 -8 -7 -17 -10 -22 -7 -5
3 -11 1 -15 -5 -4 -6 -11 -8 -16 -5 -5 4 -9 1 -9 -5 0 -7 -7 -10 -15 -6 -8 3
-15 2 -15 -3 0 -7 -43 -24 -46 -18 0 1 -8 -4 -17 -11 -9 -8 -20 -11 -26 -8 -5
3 -11 2 -13 -3 -1 -4 -34 -23 -73 -41 -76 -36 -78 -37 -101 -39 -8 0 -12 -5
-9 -11 3 -5 0 -7 -8 -4 -8 3 -17 -2 -21 -11 -3 -9 -10 -14 -15 -10 -5 3 -12 1
-16 -5 -4 -6 -11 -8 -16 -5 -5 4 -9 1 -9 -5 0 -6 -4 -8 -10 -5 -5 3 -10 1 -10
-4 0 -6 -5 -11 -10 -11 -6 0 -28 -11 -49 -24 -21 -14 -42 -22 -45 -19 -3 4 -6
1 -6 -6 0 -8 -7 -11 -15 -7 -9 3 -15 0 -15 -10 0 -8 -5 -12 -10 -9 -6 3 -13
-1 -16 -9 -3 -9 -10 -14 -14 -11 -5 3 -11 1 -15 -5 -4 -6 -11 -8 -16 -5 -5 4
-9 1 -9 -5 0 -6 -12 -15 -26 -20 -14 -6 -42 -22 -61 -38 -20 -15 -39 -26 -42
-26 -13 3 -40 -23 -33 -31 4 -5 2 -5 -4 -2 -6 4 -37 -11 -68 -33 -31 -22 -56
-37 -56 -35 0 2 -12 -7 -26 -20 -15 -14 -32 -22 -38 -18 -6 3 -8 3 -4 -2 5 -5
-9 -20 -30 -34 -20 -14 -46 -33 -56 -43 -10 -9 -24 -14 -30 -11 -6 3 -8 3 -4
-2 7 -8 -13 -27 -37 -36 -5 -2 -21 -16 -36 -31 -14 -16 -32 -28 -38 -28 -7 0
-9 -4 -6 -10 3 -5 1 -10 -5 -10 -11 0 -54 -36 -122 -101 -20 -20 -40 -34 -43
-31 -3 3 -5 1 -5 -5 0 -18 -60 -74 -72 -67 -7 4 -8 3 -4 -4 4 -7 3 -12 -3 -12
-5 0 -13 -9 -16 -20 -3 -11 -14 -20 -22 -20 -9 0 -13 -3 -10 -7 4 -3 -8 -17
-25 -30 -18 -12 -28 -23 -23 -23 6 0 -1 -10 -15 -23 -14 -13 -41 -42 -60 -66
-19 -23 -44 -53 -55 -66 -11 -12 -28 -33 -37 -46 -33 -47 -53 -72 -73 -94 -11
-12 -28 -38 -39 -58 -10 -20 -27 -45 -38 -57 -10 -11 -16 -20 -13 -20 4 0 -3
-12 -14 -26 -12 -15 -21 -33 -21 -41 0 -8 -4 -12 -9 -9 -5 4 -12 -7 -16 -24
-4 -16 -11 -30 -16 -30 -5 0 -11 -11 -15 -25 -3 -14 -11 -25 -16 -25 -6 0 -8
-6 -5 -14 3 -8 -1 -17 -10 -20 -9 -4 -13 -9 -10 -13 4 -3 -3 -19 -15 -36 -13
-18 -16 -27 -7 -22 9 5 8 1 -4 -12 -9 -11 -14 -23 -10 -26 3 -4 1 -7 -5 -7 -7
0 -12 -8 -12 -19 0 -10 -7 -24 -15 -31 -8 -7 -13 -16 -10 -20 3 -4 -3 -25 -12
-46 -9 -22 -18 -48 -20 -58 -2 -11 -7 -24 -12 -30 -4 -6 -7 -21 -6 -33 1 -12
-2 -20 -7 -17 -4 3 -9 -5 -10 -18 -2 -36 -3 -42 -15 -63 -5 -11 -9 -30 -8 -42
1 -13 -1 -23 -5 -23 -3 0 -6 -8 -7 -17 0 -10 -4 -36 -8 -58 -11 -58 -17 -407
-7 -401 5 3 9 -1 9 -9 0 -8 -5 -11 -10 -8 -6 4 -7 1 -1 -8 5 -8 9 -22 10 -31
1 -10 2 -19 3 -20 2 -2 4 -14 7 -28 7 -43 36 -134 48 -149 6 -8 10 -16 9 -17
-6 -10 11 -63 18 -58 8 4 11 -10 8 -32 0 -4 4 -10 10 -14 6 -3 13 -17 16 -30
2 -12 11 -30 20 -40 8 -9 15 -21 15 -26 0 -6 8 -19 18 -30 10 -10 26 -36 35
-56 10 -21 22 -38 28 -38 6 0 8 -3 6 -7 -7 -11 19 -33 29 -25 4 4 4 2 1 -4 -3
-6 14 -32 38 -59 25 -26 45 -52 45 -58 0 -6 3 -8 6 -5 3 4 21 -9 41 -28 19
-19 55 -48 79 -66 24 -17 44 -35 44 -40 0 -5 4 -6 10 -3 5 3 20 -3 32 -15 13
-11 33 -23 45 -26 13 -4 23 -10 23 -16 0 -5 4 -7 9 -3 5 3 16 -2 24 -10 9 -8
25 -15 37 -15 14 0 19 -4 14 -12 -5 -8 -2 -9 9 -5 9 3 22 1 29 -6 7 -7 24 -14
38 -16 14 -1 28 -8 32 -15 5 -8 8 -7 8 3 0 10 3 11 14 2 7 -6 25 -12 40 -13
14 -1 26 -5 26 -9 0 -4 14 -6 30 -5 17 1 30 -2 30 -7 0 -4 5 -5 10 -2 6 3 16
3 22 -2 7 -4 42 -8 78 -8 36 0 71 -4 78 -9 6 -4 12 -4 12 1 0 4 44 8 98 8 53
-1 105 3 116 8 13 7 16 6 11 -3 -6 -9 -3 -9 12 -1 11 6 23 7 27 4 3 -3 6 -2 6
3 0 5 17 10 38 10 20 1 48 4 62 8 14 3 37 7 53 8 15 1 27 6 27 10 0 4 11 8 24
8 13 0 42 7 65 15 23 8 43 14 46 15 3 0 6 0 8 1 1 0 15 3 30 5 15 3 44 14 63
25 20 11 33 15 30 10 -3 -5 5 -4 18 2 13 7 22 15 20 19 -3 4 2 5 11 2 8 -4 25
0 38 8 12 8 30 14 40 12 9 -1 15 2 11 7 -3 5 0 10 5 10 20 3 26 5 47 17 12 6
24 8 28 5 3 -3 6 -1 6 5 0 7 4 12 9 12 5 0 20 4 33 9 13 5 27 9 32 9 5 0 13 7
18 16 5 9 13 14 19 11 5 -4 9 -1 9 4 0 6 3 11 8 10 18 -3 51 14 45 24 -3 6 -1
7 6 3 6 -4 18 0 27 8 8 9 24 16 35 16 11 0 17 5 14 10 -3 5 0 10 7 10 8 0 35
13 61 30 26 16 47 26 47 22 0 -4 5 1 11 11 5 9 17 17 24 17 8 0 15 4 15 10 0
5 11 12 25 16 14 3 25 10 25 15 0 5 7 9 15 9 8 0 15 4 15 8 0 4 9 8 20 9 11 1
20 -4 20 -13 0 -8 5 -14 10 -14 6 0 10 -6 10 -13 0 -7 9 -23 20 -35 12 -12 18
-22 14 -22 -4 0 5 -11 20 -25 15 -14 24 -25 20 -25 -3 0 5 -15 20 -34 14 -19
26 -38 26 -42 0 -4 10 -15 22 -25 11 -11 17 -19 13 -19 -5 0 0 -7 11 -16 10
-8 12 -13 4 -9 -8 4 -4 -3 9 -14 13 -12 19 -21 15 -21 -5 0 -1 -5 9 -11 9 -6
15 -14 12 -20 -4 -5 1 -12 9 -15 9 -3 16 -12 16 -20 0 -8 5 -14 10 -14 6 0 10
-7 10 -15 0 -8 5 -15 10 -15 6 0 10 -5 10 -11 0 -6 6 -17 13 -24 28 -32 37
-45 32 -45 -2 0 4 -10 15 -22 10 -13 20 -27 22 -33 1 -5 10 -19 20 -30 9 -11
16 -22 15 -25 -1 -3 10 -19 26 -35 15 -16 27 -33 27 -37 0 -3 6 -13 13 -20 7
-7 29 -39 50 -70 21 -31 45 -65 55 -74 9 -10 15 -19 12 -21 -5 -4 17 -35 53
-74 9 -10 18 -22 19 -26 7 -34 12 -43 25 -43 9 0 13 -6 9 -15 -3 -9 0 -15 10
-15 8 0 13 -4 9 -9 -3 -6 3 -14 12 -20 10 -6 14 -11 8 -11 -7 0 -7 -3 0 -8 12
-8 75 -98 75 -106 0 -6 24 -36 48 -62 7 -8 10 -19 6 -25 -4 -7 -3 -9 3 -6 6 4
13 0 17 -8 10 -28 31 -15 108 64 42 43 79 76 82 73 3 -3 6 1 6 8 0 7 15 28 33
45 17 18 51 54 74 81 22 27 52 61 65 76 12 16 40 46 61 69 20 22 37 45 37 50
0 5 5 9 10 9 6 0 10 4 10 10 0 5 10 19 23 32 12 13 31 36 42 52 11 15 26 34
33 42 7 8 11 14 8 14 -3 0 2 8 12 18 36 38 62 72 54 72 -4 0 1 5 11 11 9 6 15
14 12 20 -4 5 -1 9 5 9 6 0 8 5 4 12 -4 7 -3 8 5 4 6 -4 14 0 18 11 4 10 11
23 15 28 26 32 75 104 87 128 8 15 18 27 23 27 4 0 8 6 8 13 0 7 8 22 18 33
16 19 23 31 55 87 6 12 14 24 17 27 18 16 48 68 43 74 -3 3 -1 6 5 6 7 0 12 6
12 14 0 7 7 19 15 26 9 7 13 15 11 17 -3 3 4 14 15 26 10 11 19 27 19 34 0 7
5 13 12 13 6 0 8 3 5 6 -4 4 1 19 11 33 10 14 24 40 32 56 8 17 17 32 20 35 8
7 60 119 59 126 0 4 3 10 8 13 8 6 52 95 54 109 0 4 8 15 16 25 9 9 12 17 7
17 -5 0 0 7 10 15 11 9 14 15 7 15 -8 0 -5 10 8 29 11 15 18 31 14 35 -3 3 -1
6 5 6 7 0 11 3 10 7 -3 12 14 57 23 63 4 3 10 18 13 34 3 16 9 32 14 35 5 3 8
14 6 24 -1 9 2 17 7 17 5 0 9 7 9 15 0 8 4 23 9 33 14 25 24 56 23 65 -1 4 2
7 8 7 5 0 7 7 3 16 -3 9 -1 19 5 23 6 3 12 18 14 33 2 15 7 30 11 34 4 4 7 18
7 31 0 12 5 23 11 23 6 0 9 9 6 20 -3 11 -1 20 5 20 5 0 7 4 3 9 -3 5 -1 12 5
16 6 4 8 10 5 15 -3 5 -1 11 5 15 6 4 8 11 4 16 -3 5 -1 15 4 22 5 7 8 20 7
30 -2 9 1 17 6 17 4 0 6 7 3 15 -4 8 -1 15 4 15 6 0 9 9 7 20 -2 11 0 22 6 25
5 4 9 11 9 16 0 6 -4 8 -10 4 -5 -3 -3 6 4 20 8 15 13 39 12 55 -1 16 2 27 6
24 4 -3 8 -2 9 3 2 18 9 100 11 131 2 17 6 32 9 32 3 0 4 16 2 36 -2 19 0 33
5 30 4 -2 9 4 9 15 1 11 -2 17 -7 14 -9 -6 -8 14 2 30 10 17 9 377 -2 370 -6
-3 -10 -1 -10 4 0 6 5 11 10 11 6 0 10 5 10 11 0 5 -3 8 -7 6 -5 -3 -8 11 -7
31 0 21 -4 43 -9 50 -6 8 -5 12 2 12 7 0 9 5 6 10 -6 10 -15 45 -20 85 -2 11
-4 20 -5 20 -3 0 -12 50 -13 72 -1 12 -4 20 -7 18 -3 -2 -12 23 -19 56 -8 32
-18 59 -23 59 -5 0 -6 5 -3 10 4 6 -1 24 -9 42 -9 17 -16 37 -16 45 0 7 -5 13
-12 13 -6 0 -9 3 -5 6 3 4 -5 26 -18 50 -13 23 -25 51 -27 61 -3 19 -12 32
-43 65 -11 11 -14 18 -8 14 12 -6 -56 102 -81 131 -29 33 -36 43 -32 43 18 0
-224 243 -276 278 -21 13 -38 29 -38 33 0 5 -5 9 -12 9 -6 0 -26 11 -44 25
-18 14 -37 25 -43 25 -6 0 -11 5 -11 11 0 5 -4 8 -9 4 -5 -3 -16 2 -24 10 -9
8 -23 15 -31 15 -9 0 -16 4 -16 10 0 5 -3 9 -7 8 -5 -1 -26 6 -47 15 -22 10
-46 15 -53 12 -8 -2 -11 -1 -8 4 6 11 -31 25 -44 17 -5 -4 -11 -1 -13 4 -2 6
-10 12 -18 13 -8 2 -21 7 -29 11 -10 7 -12 5 -6 -5 6 -10 3 -10 -11 2 -10 8
-26 15 -34 14 -8 0 -18 4 -22 10 -5 6 -8 4 -8 -5 0 -11 -2 -12 -8 -2 -5 7 -25
13 -45 14 -20 1 -37 5 -37 10 0 5 -11 6 -25 4 -13 -3 -27 -1 -29 3 -3 4 -19 6
-35 5 -18 -1 -31 3 -31 9 0 7 -5 5 -10 -3 -6 -9 -10 -10 -10 -3 0 18 -480 19
-480 1 0 -10 -2 -10 -9 1 -6 9 -10 10 -16 2 -5 -8 -11 -9 -19 -2 -8 7 -16 7
-22 1z m-360 -582 c-5 -7 -3 -8 7 -2 19 12 257 15 265 3 3 -5 13 -5 25 1 15 9
21 7 25 -5 5 -12 9 -13 20 -4 10 8 14 8 14 1 0 -6 7 -9 15 -6 8 4 23 0 32 -7
12 -10 15 -10 9 -1 -4 6 -2 12 3 12 6 0 11 -4 11 -10 0 -5 14 -10 30 -10 17 0
30 -4 30 -9 0 -5 12 -8 27 -8 15 0 29 -6 31 -12 2 -6 12 -11 22 -11 10 0 35
-9 54 -21 20 -12 36 -17 36 -12 0 4 5 0 11 -9 5 -10 17 -18 24 -18 8 0 15 -5
15 -11 0 -5 5 -7 10 -4 6 3 10 1 10 -5 0 -6 5 -8 10 -5 6 3 10 -1 10 -9 0 -9
7 -16 15 -16 9 0 18 -7 21 -15 3 -8 14 -17 25 -20 10 -4 19 -13 19 -21 0 -8 4
-13 8 -10 5 3 17 -7 28 -21 10 -15 25 -32 32 -39 6 -7 12 -17 12 -23 0 -6 5
-11 11 -11 6 0 9 -6 6 -14 -3 -8 1 -17 9 -20 8 -3 14 -15 14 -26 0 -11 5 -20
11 -20 6 0 9 -6 6 -12 -2 -7 3 -22 12 -32 13 -16 13 -18 1 -11 -12 6 -13 5 -2
-6 6 -7 12 -23 12 -36 0 -13 3 -23 8 -23 4 0 8 -25 9 -56 1 -30 7 -61 13 -69
6 -7 7 -16 2 -19 -5 -3 -9 -28 -9 -56 -1 -35 2 -48 11 -43 6 4 5 -1 -2 -10 -8
-9 -11 -25 -7 -37 3 -11 2 -20 -2 -20 -5 0 -8 -21 -7 -47 1 -27 -1 -52 -5 -58
-7 -13 -18 -65 -23 -112 -1 -7 -5 -13 -9 -13 -5 0 -6 -7 -2 -16 3 -9 0 -20 -8
-25 -12 -7 -12 -9 1 -9 11 0 12 -3 3 -8 -6 -4 -14 -19 -16 -32 -5 -29 -14 -57
-28 -84 -8 -13 -7 -16 1 -11 7 4 5 -4 -4 -17 -9 -14 -13 -28 -9 -31 3 -4 1 -7
-6 -7 -8 0 -11 -8 -8 -19 3 -12 -1 -22 -10 -25 -8 -3 -12 -10 -9 -15 4 -5 0
-15 -7 -23 -7 -7 -12 -23 -11 -35 1 -12 -3 -20 -7 -17 -8 5 -13 -10 -10 -28 0
-5 -4 -8 -9 -8 -6 0 -10 -5 -10 -10 0 -19 -53 -130 -62 -130 -5 0 -6 -4 -3
-10 3 -5 1 -10 -4 -10 -6 0 -11 -9 -11 -20 0 -11 -5 -20 -11 -20 -6 0 -8 -7
-5 -16 3 -8 2 -12 -4 -9 -6 3 -10 0 -10 -8 0 -8 -7 -20 -15 -27 -8 -7 -12 -16
-9 -21 3 -5 0 -9 -5 -9 -6 0 -11 -6 -11 -14 0 -8 -7 -17 -16 -20 -8 -3 -12
-10 -9 -16 3 -5 1 -10 -4 -10 -6 0 -11 -7 -11 -15 0 -7 -6 -18 -14 -22 -8 -4
-15 -10 -15 -13 0 -18 -15 -39 -24 -33 -5 3 -7 2 -4 -4 4 -5 -3 -19 -13 -31
-11 -12 -20 -25 -20 -31 0 -5 -7 -11 -15 -15 -8 -3 -15 -13 -15 -21 0 -9 -4
-13 -10 -10 -5 3 -10 1 -10 -5 0 -14 -76 -110 -83 -104 -3 3 -8 -4 -12 -15 -3
-12 -11 -21 -16 -21 -5 0 -9 -7 -9 -16 0 -10 -6 -14 -15 -10 -8 3 -15 0 -15
-7 0 -15 -121 -133 -132 -129 -4 1 -8 -3 -8 -8 0 -6 -27 -30 -60 -54 -32 -24
-57 -46 -55 -50 3 -3 2 -4 -2 -1 -3 3 -17 -5 -30 -17 -19 -18 -23 -19 -23 -5
0 9 -5 17 -10 17 -6 0 -16 12 -23 28 -6 15 -19 35 -28 45 -9 9 -22 30 -30 45
-8 15 -22 36 -31 46 -10 11 -18 26 -18 33 0 7 -4 13 -10 13 -5 0 -10 9 -10 20
0 11 -7 20 -16 20 -8 0 -12 4 -9 10 3 6 1 10 -4 10 -6 0 -11 5 -11 10 0 12
-72 124 -82 128 -5 2 -8 10 -8 17 0 8 -6 18 -14 22 -14 8 -16 12 -16 34 0 5
-5 7 -12 3 -7 -5 -9 -2 -5 9 3 9 0 18 -9 21 -8 3 -14 12 -14 21 0 8 -4 15 -9
15 -5 0 -12 8 -16 19 -3 10 -14 29 -25 41 -11 12 -17 27 -14 31 3 5 2 9 -3 9
-4 0 -19 17 -33 38 -14 20 -29 40 -35 44 -7 5 -7 8 0 8 7 0 7 3 0 8 -11 8 -26
30 -55 85 -11 20 -25 37 -30 37 -6 0 -10 7 -10 15 0 9 -6 12 -15 9 -8 -4 -15
-12 -15 -20 0 -8 -4 -14 -10 -14 -5 0 -10 -7 -10 -16 0 -8 -4 -12 -10 -9 -5 3
-10 0 -10 -7 0 -8 -13 -28 -30 -46 -16 -18 -31 -36 -32 -40 -11 -31 -209 -239
-298 -312 -23 -19 -50 -44 -61 -54 -10 -11 -19 -16 -19 -11 0 4 -11 -4 -25
-19 -14 -15 -25 -23 -25 -19 0 4 -7 0 -14 -10 -8 -10 -17 -18 -20 -17 -4 0
-30 -14 -59 -33 -28 -18 -71 -41 -94 -51 -24 -11 -43 -23 -43 -28 0 -5 -4 -7
-8 -4 -5 3 -20 -1 -35 -9 -15 -8 -27 -11 -27 -8 0 3 -7 0 -15 -7 -8 -7 -30
-14 -47 -16 -18 -2 -35 -10 -40 -17 -6 -9 -8 -8 -8 3 0 13 -1 13 -10 0 -5 -8
-10 -11 -10 -6 0 6 -5 5 -12 -2 -16 -16 -31 -15 -22 1 5 9 4 9 -6 0 -11 -10
-17 -10 -29 0 -12 9 -13 9 -7 0 8 -14 7 -14 -67 -16 -27 -1 -51 1 -54 6 -2 4
-9 7 -14 7 -6 0 -8 -4 -5 -9 4 -5 -3 -7 -14 -4 -11 3 -18 8 -16 12 3 4 -11 6
-29 6 -20 -1 -32 2 -28 8 4 6 0 8 -10 4 -9 -3 -17 -2 -19 3 -2 4 -12 10 -23
12 -11 1 -27 11 -36 21 -9 9 -20 17 -25 17 -14 1 -64 48 -64 60 0 6 -5 8 -10
5 -6 -3 -10 1 -10 9 0 9 -3 16 -8 16 -8 0 -16 13 -50 83 -13 26 -20 52 -17 57
3 6 0 10 -7 10 -8 0 -15 10 -16 23 -3 27 -10 62 -12 62 -1 0 -3 44 -5 97 -1
54 1 96 4 94 3 -2 5 10 5 27 -1 18 1 36 4 42 3 5 7 16 8 25 3 16 11 51 14 60
1 3 3 10 4 15 6 30 20 72 28 82 5 7 6 18 2 24 -4 8 -3 9 4 5 8 -5 12 0 12 13
0 11 6 26 13 33 8 7 13 21 11 30 -1 9 4 19 12 22 8 3 14 13 14 23 1 19 24 56
31 48 3 -2 5 4 6 15 1 10 18 41 37 69 20 28 34 51 31 51 -6 0 22 35 49 61 11
11 16 19 11 19 -4 0 4 11 19 25 15 14 24 25 20 25 -4 0 5 11 19 24 14 13 23
27 19 30 -3 4 4 9 16 13 12 3 20 9 17 13 -3 5 8 20 25 33 16 14 30 30 30 36 0
6 5 11 11 11 5 0 7 5 4 10 -4 6 -2 9 3 8 5 -2 30 19 56 45 26 27 52 45 58 41
6 -4 8 -3 5 3 -6 9 73 85 109 106 8 5 11 13 8 19 -4 6 -3 8 3 5 6 -4 21 3 35
16 36 33 98 79 98 73 0 -4 8 2 18 12 10 9 29 24 42 32 13 8 31 22 40 31 9 9
24 15 33 13 10 -1 14 2 11 8 -3 5 3 12 15 15 12 3 21 10 21 15 0 5 4 7 9 4 5
-3 12 1 15 10 3 8 10 13 15 10 5 -4 11 -2 13 3 1 5 9 11 17 13 8 2 23 11 33
21 10 10 23 15 28 12 6 -4 10 -2 10 3 0 7 45 33 60 34 3 0 16 9 29 19 13 11
30 19 37 19 8 0 14 4 14 10 0 5 3 10 8 9 15 -2 52 14 52 22 0 5 3 8 8 8 20 -3
32 2 26 13 -4 6 -3 8 3 5 13 -8 83 20 83 33 0 6 5 10 11 10 5 0 7 -6 4 -12 -4
-7 -1 -6 7 2 7 9 20 15 28 15 8 -1 21 3 29 9 7 6 20 11 29 12 8 2 18 6 21 11
3 4 17 9 31 11 13 1 27 6 30 10 3 4 16 9 30 11 14 1 27 6 30 10 3 4 13 7 23 8
34 1 38 3 32 13 -3 6 1 7 10 4 8 -4 23 0 32 7 14 12 16 12 8 -1 -7 -12 -6 -13
6 -3 9 7 30 13 47 15 18 1 32 5 32 9 0 3 12 7 28 8 38 3 65 7 82 15 8 3 36 7
62 9 26 1 50 6 54 10 11 11 16 8 8 -5z"/>
</g>
</svg>
