<svg xmlns="http://www.w3.org/2000/svg" xmlns:xlink="http://www.w3.org/1999/xlink" width="137" height="53" viewBox="0 0 137 53">
    <defs>
        <path id="a" d="M0 9.401V.336h9.082V9.4H0z"/>
        <path id="c" d="M28.773 41.12H.547V.526h28.226z"/>
        <path id="e" d="M30.634.21v26.217H.436V.21h30.198z"/>
        <path id="g" d="M6.832.304H.104v8.397h6.728V.304z"/>
        <path id="i" d="M6.937.367H.163v9.129h6.774V.367z"/>
    </defs>
    <g fill="none" fill-rule="evenodd">
        <g transform="translate(0 29.194)">
            <mask id="b" fill="#fff">
                <use xlink:href="#a"/>
            </mask>
            <path fill="#1CAEC1" d="M3.251 9.401C1.201 9.401 0 7.901 0 5.881 0 3.282 2.569.335 5.25.335c1.884 0 3.832 1.043 3.832 3.352 0 3.86-3.03 5.713-5.83 5.713" mask="url(#b)"/>
        </g>
        <g transform="translate(10.703 11.329)">
            <mask id="d" fill="#fff">
                <use xlink:href="#c"/>
            </mask>
            <path fill="#1CAEC1" d="M21.51 23.393c.914-3.627 2.168-13.619 2.168-17.322 0-1.616-.398-3.287-1.999-3.287-1.715 0-2.515.861-3.367 2.478-.632-1.5-2.8-4.735-6.681-4.735C4.199.527.547 9.594.547 16.063c0 4.969 3.251 9.066 8.115 9.066 3.251 0 6.394-1.907 8.391-3.926l-.74 4.445c-4.05 1.502-12.166 5.428-12.166 10.514 0 2.54 1.65 4.958 5.251 4.958 6.968 0 10.4-10.384 11.54-14.258 1.935-1.279 5.89-4.434 7.835-6.33a11.44 11.44 0 0 1-.465-1.844c-1.791.922-5.968 4.168-6.798 4.705m-10.228-4.33c-1.368 0-2.4-.979-2.4-3.405 0-2.713.863-5.884 2.346-5.884 1.428 0 2.284 1.67 3.768 1.67.4 0 .8-.116 1.256-.35-.687 3.939-2.622 7.969-4.97 7.969m.116 15.703c-.568 0-1.137-.626-1.137-1.318 0-1.448 2.905-3.01 5.369-4.277-.685 2.426-2.173 5.595-4.232 5.595" mask="url(#d)"/>
        </g>
        <path fill="#E23A43" d="M52.029 34.67c-4.11 0-6.332-2.075-6.332-5.376.569 1.046 2.453 2.089 5.032 2.089 2.9 0 6.897-4.735 6.897-10.747 0-3.576-2.115-7.501-6.456-7.501-7.535 0-12.332 7.788-12.332 14.725 0 .735.058 1.456.173 2.157.105.634.262 1.251.465 1.844 1.338 3.928 4.808 6.787 10.609 6.787 5.54 0 10.12-3.854 12.165-6.477.04-.795.094-1.676.16-2.608-1.213.649-5.08 5.107-10.381 5.107m-2.334-14.089c.675 0 1.034.457 1.034 1.331 0 2.361-2.58 4.84-4.925 5.543 0-3.35 2.061-6.874 3.891-6.874"/>
        <path fill="#E7A41B" d="M106.552 30.149c-.068.077-.134.149-.21.242-1.365 1.798-3.938 3.352-5.244 3.352-.86 0-1.034-.233-1.083-1.329-.18-2.075 1.933-5.832 1.933-10.28 0-2.882-1.993-5.66-4.746-5.66-3.423 0-5.651.925-8.567 3.821-.447-2.83-1.935-6.469-5.756-6.469-5.598 0-8.177 3.573-10.741 7.683.507-2.309.736-4.395.736-6.588 0-2.255-1.762-3.35-3.483-3.35-3.543 0-5.373 2.829-5.889 6.638-.368 2.896-.822 7.54-1.091 11.353-.067.933-.12 1.816-.161 2.61-.07 1.402-.096 2.534-.056 3.188.176 2.714 1.026 3.64 3.04 3.64 1.65 0 3.07-2.14 4.221-4.447 4.113-8.49 6.743-11.14 8.961-11.14 1.085 0 1.781 1.33 1.781 2.074 0 1.095-.8 6.586-.696 8.204.118 2.022.405 3.978 3.027 3.978 3.14 0 4.001-3.116 5.823-6.977 1.883-3.993 3.262-6.705 4.98-6.705 1.022 0 1.369.574 1.42 1.734.11 1.735-.62 4.97-.62 7.449 0 2.138 1.138 4.094 3.992 4.094 3.525 0 6.89-3.177 8.658-5.32a21.216 21.216 0 0 1-.229-1.795"/>
        <g transform="translate(105.987 11.88)">
            <mask id="f" fill="#fff">
                <use xlink:href="#e"/>
            </mask>
            <path fill="#1CAEC1" d="M30.007 17.649c-1.092 0-3.95 4.384-6.458 4.384-1.257 0-1.6-.978-1.71-2.36-.287-4.097 2.395-11.845 2.226-13.802-.174-2.309-.69-3.754-3.203-3.754-3.369 0-4.052 6.35-5.537 11.959-1.034 3.573-2.458 6.339-4.344 6.339-1.194 0-1.762-1.095-1.884-2.595-.284-3.17 2.511-10.044 2.229-14.024C11.1 1.136 9.562.21 6.696.21 2.363.21-.088 10.254.53 17.885c.01.13.023.253.034.383.056.634.13 1.233.229 1.796.728 4.175 2.644 6.363 6.086 6.363 3.363 0 6.218-2.372 9.074-7.107.291 4.33 2.973 6.183 5.486 6.183 4.964 0 9.254-6.811 9.194-7.398 0-.285-.233-.456-.627-.456" mask="url(#f)"/>
        </g>
        <path fill="#1CAEC1" d="M22.223 6.061c-.694.77-1.33.881-2.079.899-3.478.205-6.35 1.434-8.682 4.023-1.702 1.872-1.959 3.276-1.972 5.114 0 .181-.03.61-.241.852-.274.295-.679.256-.97-.02-.141-.123-.31-.43-.3-.802-.177-3.236 1.443-5.887 3.637-8.313 2.943-3.252 8.094-6.34 10.585-4.04.548.51.773 1.463.022 2.287M112.733 40.661c.435-.327.769-.324 1.156-.255 1.8.253 3.387-.095 4.836-1.175 1.057-.799 1.318-1.49 1.505-2.422.028-.09.079-.307.214-.407.165-.132.377-.067.494.102a.574.574 0 0 1 .073.446c-.229 1.668-1.316 2.859-2.68 3.88-1.822 1.363-4.759 2.428-5.808 1.002-.226-.314-.248-.831.21-1.17"/>
        <g transform="translate(25.688)">
            <mask id="h" fill="#fff">
                <use xlink:href="#g"/>
            </mask>
            <path fill="#1CAEC1" d="M3.193 5.141c-.713 0-1.134.333-1.134.941 0 .626.421.937 1.273.937 1.051 0 1.473-.406 1.473-1.43V5.14H3.193zm1.661 3.473v-.712c-.364.353-.535.474-.843.61a3.212 3.212 0 0 1-1.156.189c-1.736 0-2.75-.948-2.75-2.562 0-1.48 1.061-2.403 2.778-2.403h1.922V3.33c0-.92-.458-1.292-1.545-1.292-.726 0-1.052.142-1.533.675L.434 1.433C.903.967 1.119.788 1.52.595 1.992.4 2.555.304 3.32.304c2.34 0 3.513.976 3.513 2.904v5.406H4.854z" mask="url(#h)"/>
        </g>
        <path fill="#1CAEC1" d="M39.383 8.615V2.21h-1.96v1.972c0 3.52-.947 4.432-2.604 4.432h-.974V6.803h.255c.685 0 1.355-.123 1.355-3.073V.398h5.955v8.217h-2.027zM45.506 4.972v2.04h1.561c.653 0 1.055-.4 1.055-1.034 0-.608-.402-1.006-1.055-1.006h-1.56zm1.933 3.642h-3.921V.399h2.044v2.958h1.877c1.606 0 2.693 1.074 2.693 2.621 0 1.556-1.096 2.636-2.693 2.636zM52 1v9h2.14V2.986h2.714V10H59V1zM64.947 1l-2.875 5.35V1H60v9h2.072l2.875-5.5V10H67V1zM74.848 1v3.399h-2.714V1H70v9h2.134V6.395h2.714V10H77V1z"/>
        <g transform="translate(78)">
            <mask id="j" fill="#fff">
                <use xlink:href="#i"/>
            </mask>
            <path fill="#1CAEC1" d="M3.282 5.625c-.726 0-1.141.363-1.141 1.024 0 .68.415 1.019 1.283 1.019 1.047 0 1.471-.443 1.471-1.556v-.487H3.282zm1.66 3.777v-.774c-.359.383-.527.515-.848.663-.308.132-.685.205-1.156.205-1.743 0-2.775-1.03-2.775-2.786 0-1.61 1.08-2.612 2.798-2.612h1.934v-.442c0-1-.454-1.405-1.557-1.405-.717 0-1.049.156-1.527.734L.493 1.595c.474-.508.702-.704 1.1-.913C2.064.47 2.633.367 3.41.367c2.348 0 3.528 1.06 3.528 3.157v5.878H4.943z" mask="url(#j)"/>
        </g>
    </g>
</svg>
