<?xml version="1.0" encoding="UTF-8"?>
<svg width="23px" height="22px" viewBox="0 0 23 22" version="1.1" xmlns="http://www.w3.org/2000/svg" xmlns:xlink="http://www.w3.org/1999/xlink">
    <!-- Generator: Sketch 41.1 (35376) - http://www.bohemiancoding.com/sketch -->
    <title>basket_alpina</title>
    <desc>Created with Sketch.</desc>
    <defs></defs>
    <g id="Page-1" stroke="none" stroke-width="1" fill="none" fill-rule="evenodd">
        <g id="basket_alpina" fill="#677377">
            <g id="Group">
                <g transform="translate(11.500000, 11.000000) scale(-1, 1) translate(-11.500000, -11.000000) " id="Shape">
                    <path d="M13.90625,21.4898551 C12.8552708,21.4898551 12,20.6172309 12,19.5449275 C12,18.4726242 12.8552708,17.6 13.90625,17.6 C14.9572292,17.6 15.8125,18.4726242 15.8125,19.5449275 C15.8125,20.6172309 14.9572292,21.4898551 13.90625,21.4898551 Z"></path>
                    <path d="M4.90625,21.4898551 C3.85527083,21.4898551 3,20.6172309 3,19.5449275 C3,18.4726242 3.85527083,17.6 4.90625,17.6 C5.95722917,17.6 6.8125,18.4726242 6.8125,19.5449275 C6.8125,20.6172309 5.95722917,21.4898551 4.90625,21.4898551 Z"></path>
                    <path d="M15.09375,16.1333333 L2.875,16.1333333 C2.53575,16.1333333 2.24321875,15.8920667 2.1720625,15.554 L0.0158125,5.28733333 C-0.02946875,5.071 0.02371875,4.8444 0.1595625,4.6728 C0.296125,4.49973333 0.5016875,4.4 0.71875,4.4 L16.516875,4.4 L17.2636563,0.5896 C17.3312188,0.2464 17.6259063,0 17.96875,0 L22.28125,0 C22.6787188,0 23,0.328533333 23,0.733333333 C23,1.13813333 22.6787188,1.46666667 22.28125,1.46666667 L18.5574063,1.46666667 L15.798125,15.5437333 C15.7312813,15.8862 15.4365938,16.1333333 15.09375,16.1333333 Z M3.45646875,14.6666667 L14.5050938,14.6666667 L16.229375,5.86666667 L1.60784375,5.86666667 L3.45646875,14.6666667 Z"></path>
                </g>
            </g>
        </g>
    </g>
</svg>