<svg id="SvgjsSvg1000" xmlns="http://www.w3.org/2000/svg" version="1.1" xmlns:xlink="http://www.w3.org/1999/xlink" xmlns:svgjs="http://svgjs.com/svgjs" width="25" height="26" viewBox="0 0 25 26"><title>Фигура 16</title><desc>Created with Avocode.</desc><defs id="SvgjsDefs1001"><clipPath id="SvgjsClipPath1009"><path id="SvgjsPath1008" d="M283.691 48.948C283.691 50.087 282.76099999999997 51.0101 281.614 51.0101C280.46599999999995 51.0101 279.537 50.087 279.537 48.948C279.537 47.807900000000004 280.46599999999995 46.8855 281.614 46.8855C282.76099999999997 46.8855 283.691 47.807900000000004 283.691 48.948ZM292.691 48.948C292.691 50.087 291.76099999999997 51.0101 290.614 51.0101C289.467 51.0101 288.537 50.087 288.537 48.948C288.537 47.807900000000004 289.467 46.8855 290.614 46.8855C291.76099999999997 46.8855 292.691 47.807900000000004 292.691 48.948ZM293.997 43.9462L297.892 32.9461C298.209 32.0527 297.54 31.1152 296.586 31.1152L281.144 31.1152C280.79 31.1152 280.493 30.8484 280.455 30.4984L280.221 28.2252C280.15 27.5237 279.55400000000003 26.9906 278.844 26.9906L274.69 26.9906C274.308 26.9906 273.998 27.2986 273.998 27.6779L273.998 29.053C273.998 29.4324 274.308 29.7408 274.69 29.7408L276.96999999999997 29.7408C277.325 29.7408 277.621 30.0075 277.65799999999996 30.3576L279.025 43.6304C279.096 44.3322 279.69199999999995 44.865700000000004 280.40299999999996 44.865700000000004L292.69199999999995 44.865700000000004C293.27899999999994 44.865700000000004 293.80199999999996 44.4966 293.99699999999996 43.946200000000005Z " fill="#ffffff"></path></clipPath></defs><path id="SvgjsPath1007" d="M283.691 48.948C283.691 50.087 282.76099999999997 51.0101 281.614 51.0101C280.46599999999995 51.0101 279.537 50.087 279.537 48.948C279.537 47.807900000000004 280.46599999999995 46.8855 281.614 46.8855C282.76099999999997 46.8855 283.691 47.807900000000004 283.691 48.948ZM292.691 48.948C292.691 50.087 291.76099999999997 51.0101 290.614 51.0101C289.467 51.0101 288.537 50.087 288.537 48.948C288.537 47.807900000000004 289.467 46.8855 290.614 46.8855C291.76099999999997 46.8855 292.691 47.807900000000004 292.691 48.948ZM293.997 43.9462L297.892 32.9461C298.209 32.0527 297.54 31.1152 296.586 31.1152L281.144 31.1152C280.79 31.1152 280.493 30.8484 280.455 30.4984L280.221 28.2252C280.15 27.5237 279.55400000000003 26.9906 278.844 26.9906L274.69 26.9906C274.308 26.9906 273.998 27.2986 273.998 27.6779L273.998 29.053C273.998 29.4324 274.308 29.7408 274.69 29.7408L276.96999999999997 29.7408C277.325 29.7408 277.621 30.0075 277.65799999999996 30.3576L279.025 43.6304C279.096 44.3322 279.69199999999995 44.865700000000004 280.40299999999996 44.865700000000004L292.69199999999995 44.865700000000004C293.27899999999994 44.865700000000004 293.80199999999996 44.4966 293.99699999999996 43.946200000000005Z " fill-opacity="0" fill="#ffffff" stroke-dasharray="0" stroke-linejoin="miter" stroke-linecap="butt" stroke-opacity="1" stroke="#677377" stroke-miterlimit="50" stroke-width="6" clip-path="url(&quot;#SvgjsClipPath1009&quot;)" transform="matrix(1,0,0,1,-273,-26)"></path></svg>