<svg id="SvgjsSvg1015" xmlns="http://www.w3.org/2000/svg" version="1.1" xmlns:xlink="http://www.w3.org/1999/xlink" xmlns:svgjs="http://svgjs.com/svgjs" width="25" height="26" viewBox="0 0 25 26"><title>Фигура 16</title><desc>Created with Avocode.</desc><defs id="SvgjsDefs1016"><clipPath id="SvgjsClipPath1019"><path id="SvgjsPath1018" d="M283.691 48.948C283.691 50.0869 282.76099999999997 51.0099 281.614 51.0099C280.46599999999995 51.0099 279.537 50.0869 279.537 48.948C279.537 47.807900000000004 280.46599999999995 46.8855 281.614 46.8855C282.76099999999997 46.8855 283.691 47.807900000000004 283.691 48.948ZM292.691 48.948C292.691 50.0869 291.76099999999997 51.0099 290.614 51.0099C289.467 51.0099 288.537 50.0869 288.537 48.948C288.537 47.807900000000004 289.467 46.8855 290.614 46.8855C291.76099999999997 46.8855 292.691 47.807900000000004 292.691 48.948ZM293.997 43.9463L297.892 32.9463C298.209 32.0528 297.54 31.1153 296.586 31.1153L281.144 31.1153C280.79 31.1153 280.493 30.848300000000002 280.455 30.4981L280.221 28.2253C280.15 27.5237 279.55400000000003 26.9906 278.844 26.9906L274.69 26.9906C274.308 26.9906 273.998 27.2984 273.998 27.6779L273.998 29.0531C273.998 29.4326 274.308 29.7407 274.69 29.7407L276.96999999999997 29.7407C277.325 29.7407 277.621 30.0076 277.65799999999996 30.357400000000002L279.025 43.6302C279.096 44.332300000000004 279.69199999999995 44.865700000000004 280.40299999999996 44.865700000000004L292.69199999999995 44.865700000000004C293.27899999999994 44.865700000000004 293.80199999999996 44.49680000000001 293.99699999999996 43.9463Z " fill="#ffffff"></path></clipPath></defs><path id="SvgjsPath1017" d="M283.691 48.948C283.691 50.0869 282.76099999999997 51.0099 281.614 51.0099C280.46599999999995 51.0099 279.537 50.0869 279.537 48.948C279.537 47.807900000000004 280.46599999999995 46.8855 281.614 46.8855C282.76099999999997 46.8855 283.691 47.807900000000004 283.691 48.948ZM292.691 48.948C292.691 50.0869 291.76099999999997 51.0099 290.614 51.0099C289.467 51.0099 288.537 50.0869 288.537 48.948C288.537 47.807900000000004 289.467 46.8855 290.614 46.8855C291.76099999999997 46.8855 292.691 47.807900000000004 292.691 48.948ZM293.997 43.9463L297.892 32.9463C298.209 32.0528 297.54 31.1153 296.586 31.1153L281.144 31.1153C280.79 31.1153 280.493 30.848300000000002 280.455 30.4981L280.221 28.2253C280.15 27.5237 279.55400000000003 26.9906 278.844 26.9906L274.69 26.9906C274.308 26.9906 273.998 27.2984 273.998 27.6779L273.998 29.0531C273.998 29.4326 274.308 29.7407 274.69 29.7407L276.96999999999997 29.7407C277.325 29.7407 277.621 30.0076 277.65799999999996 30.357400000000002L279.025 43.6302C279.096 44.332300000000004 279.69199999999995 44.865700000000004 280.40299999999996 44.865700000000004L292.69199999999995 44.865700000000004C293.27899999999994 44.865700000000004 293.80199999999996 44.49680000000001 293.99699999999996 43.9463Z " fill-opacity="0" fill="#ffffff" stroke-dasharray="0" stroke-linejoin="miter" stroke-linecap="butt" stroke-opacity="1" stroke="#677377" stroke-miterlimit="50" stroke-width="6" clip-path="url(&quot;#SvgjsClipPath1019&quot;)" transform="matrix(1,0,0,1,-273,-26)"></path></svg>