<svg id="SvgjsSvg1025" xmlns="http://www.w3.org/2000/svg" version="1.1" xmlns:xlink="http://www.w3.org/1999/xlink" xmlns:svgjs="http://svgjs.com/svgjs" width="132" height="37" viewBox="0 0 132 37"><title>Фигура 28</title><desc>Created with Avocode.</desc><defs id="SvgjsDefs1026"></defs><path id="SvgjsPath1027" d="M127.95516 22.58875C122.83838 18.005950000000002 111.89998 19.89199 103.41000000000001 25.599400000000003C94.90910000000001 31.307800000000004 91.50290000000001 39.302400000000006 93.60870000000001 44.6287C96.58860000000001 52.144800000000004 104.58900000000001 52.4728 113.08700000000002 46.7685L120.08700000000002 56.99850000000001C127.51900000000002 49.9346 138.52900000000002 32.061800000000005 127.95700000000002 22.59040000000001C127.95639000000003 22.58985000000001 127.95577000000002 22.58930000000001 127.95516000000002 22.588750000000008ZM110.624 36.3713C106.762 42.0791 101.243 44.078199999999995 99.1883 40.8786C97.1259 37.677099999999996 100.056 31.9985 105.719 28.179C111.39 24.3815 117.88999999999999 22.9373 121.341 26.3467C124.829 29.7976 120.845 39.6097 115.18299999999999 43.4204ZM161.124 39.1099L161.124 27.003300000000003L152.305 27.003300000000003L152.305 31.908400000000004C152.305 36.251200000000004 151.309 36.43770000000001 150.29000000000002 36.43770000000001L149.92000000000002 36.43770000000001L149.92000000000002 39.10990000000001L151.35600000000002 39.10990000000001C153.80900000000003 39.10990000000001 155.22100000000003 37.76300000000001 155.22100000000003 32.58000000000001L155.22100000000003 29.677800000000012L158.11400000000003 29.677800000000012L158.11400000000003 39.10990000000001ZM199.653 39.1099L199.653 27.003300000000003L196.623 27.003300000000003L192.386 34.20740000000001L192.386 27.003300000000007L189.355 27.003300000000007L189.355 39.10990000000001L192.386 39.10990000000001L196.623 31.71960000000001L196.623 39.10990000000001ZM224.998 39.1099L224.998 31.141700000000004C224.998 28.305200000000003 223.265 26.863600000000005 219.79299999999998 26.863600000000005C218.659 26.863600000000005 217.82299999999998 27.003300000000007 217.128 27.305100000000007C216.52999999999997 27.584000000000007 216.201 27.840600000000006 215.50699999999998 28.538600000000006L217.42999999999998 30.418900000000008C218.152 29.62890000000001 218.63699999999997 29.41830000000001 219.70099999999996 29.41830000000001C221.31999999999996 29.41830000000001 221.99199999999996 29.97550000000001 221.99199999999996 31.32510000000001L221.99199999999996 31.929400000000008L219.14299999999997 31.929400000000008C216.59899999999996 31.929400000000008 215.02199999999996 33.276900000000005 215.02199999999996 35.462500000000006C215.02199999999996 37.832800000000006 216.52999999999997 39.226600000000005 219.09699999999995 39.226600000000005C219.79299999999995 39.226600000000005 220.34699999999995 39.1332 220.80999999999995 38.9483C221.27399999999994 38.7633 221.52799999999993 38.5763 222.05799999999994 38.0649L222.05799999999994 39.1099ZM147.946 39.1099L147.946 31.141700000000004C147.946 28.305200000000003 146.213 26.863600000000005 142.739 26.863600000000005C141.607 26.863600000000005 140.776 27.003300000000007 140.077 27.305100000000007C139.477 27.584000000000007 139.154 27.840600000000006 138.456 28.538600000000006L140.378 30.418900000000008C141.09799999999998 29.62890000000001 141.58499999999998 29.41830000000001 142.64899999999997 29.41830000000001C144.26699999999997 29.41830000000001 144.93899999999996 29.97550000000001 144.93899999999996 31.32510000000001L144.93899999999996 31.929400000000008L142.09199999999996 31.929400000000008C139.54699999999997 31.929400000000008 137.97299999999996 33.276900000000005 137.97299999999996 35.462500000000006C137.97299999999996 37.832800000000006 139.47699999999995 39.226600000000005 142.04699999999997 39.226600000000005C142.73899999999998 39.226600000000005 143.29499999999996 39.1332 143.75999999999996 38.9483C144.22199999999995 38.7633 144.47799999999995 38.5763 145.00999999999996 38.0649L145.00999999999996 39.1099ZM212.695 39.1099L212.695 27.003300000000003L209.661 27.003300000000003L209.661 31.581200000000003L205.796 31.581200000000003L205.796 27.003300000000003L202.76399999999998 27.003300000000003L202.76399999999998 39.1099L205.796 39.1099L205.796 34.2539L209.661 34.2539L209.661 39.1099ZM186.244 39.1099L186.244 27.003300000000003L176.315 27.003300000000003L176.315 39.1099L179.347 39.1099L179.347 29.677800000000005L183.21300000000002 29.677800000000005L183.21300000000002 39.1099ZM170.061 39.1099C172.424 39.1099 174.065 37.5082 174.065 35.2299C174.065 32.952 172.445 31.374200000000002 170.061 31.374200000000002L167.282 31.374200000000002L167.282 27.003300000000003L164.25 27.003300000000003L164.25 39.1099ZM203.385 52.211L203.385 45.5791L202.017 45.5791L202.017 51.0591L200.039 51.0591L200.039 45.5791L198.68499999999997 45.5791L198.68499999999997 51.0591L196.69599999999997 51.0591L196.69599999999997 45.5791L195.33999999999997 45.5791L195.33999999999997 52.211ZM150.487 49.82L150.61686 49.82L149.704 52.211L151.121 52.211L151.54000000000002 51.038399999999996L154.01800000000003 51.038399999999996L154.42800000000003 52.211L155.84700000000004 52.211L153.30200000000005 45.5791L152.23600000000005 45.5791L151.45065000000005 47.636109999999995L151.36800000000005 47.4021ZM177.793 52.211L177.793 45.5791L173.455 45.5791L173.455 48.590999999999994C173.455 50.66459999999999 172.959 51.059099999999994 172.262 51.059099999999994L172.071 51.059099999999994L172.071 52.21099999999999L172.60999999999999 52.21099999999999C174.058 52.21099999999999 174.76899999999998 51.44679999999999 174.76899999999998 48.66209999999999L174.76899999999998 46.73099999999999L176.43599999999998 46.73099999999999L176.43599999999998 52.210999999999984ZM189.558 52.211L189.558 45.5791L188.343 45.5791L185.629 49.824099999999994L185.629 45.5791L184.273 45.5791L184.273 52.211L185.483 52.211L188.19400000000002 47.9559L188.19400000000002 52.211ZM144.231 52.211L144.231 45.5791L139.156 45.5791L139.156 52.211L140.517 52.211L140.517 46.730999999999995L142.876 46.730999999999995L142.876 52.211ZM164.299 52.211C165.709 52.211 166.559 51.3558 166.559 50.1446C166.559 48.9314 165.7 48.0759 164.299 48.0759L162.875 48.0759L162.875 46.730999999999995L166.121 46.730999999999995L166.121 45.5791L161.51000000000002 45.5791L161.51000000000002 52.211ZM213.991 52.211L213.991 51.0591L210.76600000000002 51.0591L210.76600000000002 49.4428L213.52100000000002 49.4428L213.52100000000002 48.292699999999996L210.76600000000002 48.292699999999996L210.76600000000002 46.730999999999995L213.991 46.730999999999995L213.991 45.5791L209.406 45.5791L209.406 52.211ZM169.505 33.7422C170.475 33.7422 171.07999999999998 34.3238 171.07999999999998 35.229899999999994C171.07999999999998 36.15839999999999 170.475 36.74009999999999 169.505 36.74009999999999L167.192 36.74009999999999L167.192 33.74219999999999ZM221.992 33.9973L221.992 34.648700000000005C221.992 36.15840000000001 221.36499999999998 36.762600000000006 219.814 36.762600000000006C218.541 36.762600000000006 217.917 36.298300000000005 217.917 35.36990000000001C217.917 34.48650000000001 218.541 33.99730000000001 219.607 33.99730000000001ZM144.939 33.9973L144.939 34.648700000000005C144.939 36.15840000000001 144.31199999999998 36.762600000000006 142.761 36.762600000000006C141.489 36.762600000000006 140.867 36.298300000000005 140.867 35.36990000000001C140.867 34.48650000000001 141.489 33.99730000000001 142.55599999999998 33.99730000000001ZM164.231 49.2312C164.838 49.2312 165.201 49.5998 165.201 50.144600000000004C165.201 50.691 164.838 51.0591 164.231 51.0591L162.875 51.0591L162.875 49.2312ZM151.96941 49.82L152.222 49.82L152.09786 49.46853L152.804 47.536300000000004L153.655 49.947L151.923 49.947ZM219.956 45.5791L219.956 52.211L221.314 52.211L221.314 49.7155L222.658 49.7155C224.004 49.7155 224.95299999999997 48.8559 224.95299999999997 47.6439C224.95299999999997 46.4364 223.99899999999997 45.579100000000004 222.658 45.579100000000004ZM221.314 48.5488L221.314 46.731L222.589 46.731C223.192 46.731 223.597 47.0976 223.597 47.6439C223.597 48.198800000000006 223.192 48.5488 222.589 48.5488Z " fill="#677377" fill-opacity="1" transform="matrix(1,0,0,1,-93,-20)"></path></svg>