<?xml version="1.0" encoding="utf-8"?>
<!-- Generator: Adobe Illustrator 21.0.1, SVG Export Plug-In . SVG Version: 6.00 Build 0)  -->
<svg version="1.1" id="Layer_1" xmlns="http://www.w3.org/2000/svg" xmlns:xlink="http://www.w3.org/1999/xlink" x="0px" y="0px"
	 viewBox="0 0 300 280.7" style="enable-background:new 0 0 300 280.7;" xml:space="preserve">
<style type="text/css">
	.st0{fill:#FFFFFF;}
</style>
<path class="st0" d="M247.7,256.7c-5.4-6.7-9.7-13.3-13.2-19.2c0,0,0,0,0,0C274,214,300,174.7,300,130C300,58.2,232.8,0,150,0
	S0,58.2,0,130s67.2,130,150,130c9.3,0,18.3-0.7,27.2-2.1c0,0,0,0,0,0c11.8,5.1,26,10.3,42.2,14.5c19.5,5,37.2,7.4,52,8.3
	C264.1,274.7,255.8,266.8,247.7,256.7z"/>
</svg>
