<?xml version="1.0" standalone="no"?>
<!DOCTYPE svg PUBLIC "-//W3C//DTD SVG 1.1//EN" "http://www.w3.org/Graphics/SVG/1.1/DTD/svg11.dtd" >
<svg xmlns="http://www.w3.org/2000/svg">
<metadata></metadata>
<defs>
<font id="gt_walsheim_pro_trialblack" horiz-adv-x="339" >
<font-face units-per-em="1000" ascent="750" descent="-250" />
<missing-glyph horiz-adv-x="235" />
<glyph horiz-adv-x="0" />
<glyph horiz-adv-x="333" />
<glyph unicode=" "  horiz-adv-x="235" />
<glyph unicode="&#x09;" horiz-adv-x="235" />
<glyph unicode="&#xa0;" horiz-adv-x="235" />
<glyph unicode="!" horiz-adv-x="324" d="M40 108q0 50 35 85t86 35q52 0 87.5 -35t35.5 -85t-35.5 -85t-87.5 -35q-51 0 -86 35t-35 85z" />
<glyph unicode="," horiz-adv-x="327" d="M33 107q0 50 34.5 85.5t83.5 35.5q61 0 98.5 -43t37.5 -111q0 -132 -63 -190t-185 -59v75q70 0 108 30q31 27 36 68q-7 -10 -32 -10q-53 0 -85.5 34.5t-32.5 84.5z" />
<glyph unicode="-" d="M306 384v-148h-273v148h273z" />
<glyph unicode="." horiz-adv-x="324" d="M40 108q0 50 35 85t86 35q52 0 87.5 -35t35.5 -85t-35.5 -85t-87.5 -35q-51 0 -86 35t-35 85z" />
<glyph unicode="0" horiz-adv-x="652" d="M38 238v224q0 107 78.5 181t209.5 74q129 0 208.5 -74t79.5 -181v-224q0 -107 -79.5 -181t-208.5 -74q-131 0 -209.5 74t-78.5 181zM406 238v224q0 36 -22.5 61t-57.5 25q-36 0 -58 -25t-22 -61v-224q0 -36 22 -61t58 -25q35 0 57.5 25t22.5 61z" />
<glyph unicode="1" horiz-adv-x="443" d="M29 434v137q103 0 140 31t37 98h176v-700h-209v434h-144z" />
<glyph unicode="2" horiz-adv-x="628" d="M44 0q0 84 12.5 145.5t38.5 103.5t55.5 68.5t75.5 53.5q102 60 125 81q31 29 31 64q0 30 -16.5 45.5t-42.5 15.5q-68 0 -68 -87h-209q0 44 15 83t46.5 72t86.5 52.5t127 19.5t129 -20t95.5 -69.5t38.5 -123.5t-47.5 -128t-129.5 -100q-44 -26 -59 -35t-34.5 -24.5 t-24.5 -27.5t-5 -29h296v-160h-536z" />
<glyph unicode="3" horiz-adv-x="634" d="M31 237h208q0 -99 77 -99q33 0 50.5 22.5t17.5 54.5q0 76 -80 76h-79v150h78q44 0 61.5 17t17.5 52q0 67 -61 67q-38 0 -52.5 -22t-14.5 -65h-208q0 44 12.5 81.5t41.5 72t85.5 54t134.5 19.5q74 0 131.5 -18.5t96.5 -65t39 -115.5q0 -56 -33.5 -100t-78.5 -57 q50 -15 84 -61t34 -110q0 -99 -78.5 -153t-189.5 -54q-155 0 -224.5 69.5t-69.5 184.5z" />
<glyph unicode="4" horiz-adv-x="663" d="M353 0v177h-303v523h208v-354h95v177h209v-177h73v-169h-73v-177h-209z" />
<glyph unicode="5" horiz-adv-x="663" d="M62 292v408h522v-150h-328v-118q41 54 135 54q112 0 171 -72t59 -168q0 -113 -77 -188t-212 -75t-212 74.5t-77 185.5h198q0 -40 25 -68t66 -28t66 28.5t25 70.5q0 40 -24.5 68.5t-64.5 28.5q-60 0 -86 -51h-186z" />
<glyph unicode="6" horiz-adv-x="631" d="M314 -15q-134 0 -211.5 75t-77.5 187q0 85 41 146l205 307h231l-133 -196q39 -8 69 -24q78 -24 122 -87.5t44 -145.5q0 -112 -78 -187t-212 -75zM314 151q41 0 66 27.5t25 68.5t-25 68.5t-66 27.5t-66 -27.5t-25 -68.5t25 -68.5t66 -27.5z" />
<glyph unicode="7" horiz-adv-x="583" d="M31 700h560l-298 -700h-223l227 530h-266v170z" />
<glyph unicode="8" horiz-adv-x="644" d="M322 -17q-133 0 -210 61t-77 153q0 60 37.5 107.5t86.5 57.5q-44 14 -75 56.5t-31 95.5q0 88 72 145.5t197 57.5t197 -58t72 -145q0 -53 -31 -95.5t-75 -56.5q50 -14 87 -59.5t37 -105.5q0 -91 -77 -152.5t-210 -61.5zM322 433q35 0 55.5 21t20.5 51q0 29 -20.5 50 t-55.5 21t-55.5 -20.5t-20.5 -50.5t20.5 -51t55.5 -21zM322 124q40 0 64 23.5t24 57.5q0 33 -24 57t-64 24q-41 0 -65 -23.5t-24 -57.5t24 -57.5t65 -23.5z" />
<glyph unicode="9" horiz-adv-x="631" d="M317 715q134 0 211.5 -75t77.5 -187q0 -83 -42 -146l-204 -307h-231l132 196q-108 14 -171 85.5t-63 171.5q0 112 78 187t212 75zM317 549q-41 0 -66 -27.5t-25 -68.5t25 -68.5t66 -27.5t66 27.5t25 68.5t-25 68.5t-66 27.5z" />
<glyph unicode=":" horiz-adv-x="324" d="M40 108q0 50 35 85t86 35q52 0 87.5 -35t35.5 -85t-35.5 -85t-87.5 -35q-51 0 -86 35t-35 85z" />
<glyph unicode=";" horiz-adv-x="327" d="M33 107q0 50 34.5 85.5t83.5 35.5q61 0 98.5 -43t37.5 -111q0 -132 -63 -190t-185 -59v75q70 0 108 30q31 27 36 68q-7 -10 -32 -10q-53 0 -85.5 34.5t-32.5 84.5z" />
<glyph unicode="?" horiz-adv-x="324" d="M40 108q0 50 35 85t86 35q52 0 87.5 -35t35.5 -85t-35.5 -85t-87.5 -35q-51 0 -86 35t-35 85z" />
<glyph unicode="A" horiz-adv-x="748" d="M744 0h-232l-24 81h-235l-24 -81h-225l258 700h218zM445 232l-74 258l-74 -258h148z" />
<glyph unicode="B" horiz-adv-x="668" d="M52 0v700h343q55 0 97 -13t66.5 -32.5t39.5 -46t20 -49.5t5 -48q0 -61 -38 -104t-84 -52q42 -4 84.5 -47t42.5 -113q0 -32 -9.5 -62t-32.5 -62t-71 -51.5t-116 -19.5h-347zM332 289h-71v-143h71q44 0 64.5 20.5t20.5 51.5q0 27 -19.5 49t-65.5 22zM261 425h69 q44 0 64.5 20.5t20.5 50.5q0 28 -18.5 49t-66.5 21h-69v-141z" />
<glyph unicode="C" horiz-adv-x="801" d="M557 276h220q-18 -127 -115.5 -211t-252.5 -84q-174 0 -278.5 108t-104.5 261q0 98 44 181.5t131.5 135.5t201.5 52q163 0 260 -86.5t112 -220.5h-218q-9 52 -47.5 85t-100.5 33q-80 0 -125 -52t-45 -128q0 -78 47 -129t127 -51q56 0 95 30.5t49 75.5z" />
<glyph unicode="D" horiz-adv-x="739" d="M61 700h286q167 0 266.5 -103t99.5 -247t-99 -247t-267 -103h-286v700zM332 524h-63v-348h63q76 0 122 51.5t46 122.5t-46 122.5t-122 51.5z" />
<glyph unicode="E" horiz-adv-x="566" d="M512 544h-243v-122h243v-149h-243v-117h243v-156h-451v700h451v-156z" />
<glyph unicode="F" horiz-adv-x="561" d="M512 530h-243v-155h243v-164h-243v-211h-208v700h451v-170z" />
<glyph unicode="G" horiz-adv-x="831" d="M426 251v137h394v-137h-67q-20 -124 -111 -197t-242 -73q-174 0 -273.5 106t-99.5 263q0 98 43 181t129.5 135.5t199.5 52.5q148 0 243 -75.5t105 -186.5h-230q-6 33 -37.5 58.5t-82.5 25.5q-79 0 -118.5 -56t-39.5 -138q0 -86 44 -140.5t127 -54.5q56 0 90 27.5t42 71.5 h-116z" />
<glyph unicode="H" horiz-adv-x="734" d="M464 0v261h-195v-261h-208v700h208v-266h195v266h209v-700h-209z" />
<glyph unicode="I" horiz-adv-x="332" d="M61 0v700h210v-700h-210z" />
<glyph unicode="J" horiz-adv-x="629" d="M579 700v-446q0 -271 -284 -271q-140 0 -211.5 75t-71.5 197h208q0 -43 19.5 -70.5t55.5 -27.5t55.5 25t19.5 72v446h209z" />
<glyph unicode="K" horiz-adv-x="710" d="M463 0l-194 285v-285h-208v700h208v-286l194 286h244l-257 -350l257 -350h-244z" />
<glyph unicode="L" horiz-adv-x="477" d="M269 178h183v-178h-391v700h208v-522z" />
<glyph unicode="M" horiz-adv-x="942" d="M881 700v-700h-202v434l-127 -434h-154l-135 434v-434h-202v700h265l148 -452l149 452h258z" />
<glyph unicode="N" horiz-adv-x="771" d="M273 700l228 -415v415h209v-700h-212l-229 401v-401h-208v700h212z" />
<glyph unicode="O" horiz-adv-x="811" d="M405 -19q-173 0 -276 108.5t-103 260.5t103 260.5t276 108.5q116 0 204.5 -52.5t132 -135.5t43.5 -181t-43.5 -181t-132 -135.5t-204.5 -52.5zM405 171q77 0 123 53t46 126t-46 126t-123 53q-76 0 -122.5 -53t-46.5 -126t46.5 -126t122.5 -53z" />
<glyph unicode="P" horiz-adv-x="673" d="M61 0v700h336q117 0 190 -76t73 -185q0 -108 -73 -184t-190 -76h-128v-179h-208zM355 340q41 0 67 28.5t26 70.5t-25.5 70.5t-66.5 28.5h-87v-198h86z" />
<glyph unicode="Q" horiz-adv-x="811" d="M785 350q0 -97 -45.5 -180.5t-127.5 -130.5l60 -78q-183 -93 -184 -93l-83 113q-173 0 -276 108.5t-103 260.5t103 260.5t276 108.5q116 0 204.5 -52.5t132 -135.5t43.5 -181zM405 171q77 0 123 53t46 126t-46 126t-123 53q-76 0 -122.5 -53t-46.5 -126t46.5 -126 t122.5 -53z" />
<glyph unicode="R" horiz-adv-x="698" d="M61 0v700h336q117 0 190 -76t73 -185q0 -71 -34 -131.5t-94 -94.5l140 -213h-245l-119 179h-39v-179h-208zM355 340q41 0 67 28.5t26 70.5t-25.5 70.5t-66.5 28.5h-87v-198h86z" />
<glyph unicode="S" horiz-adv-x="644" d="M34 236h208q0 -47 24 -73t64 -26q32 0 50.5 16t18.5 44q0 27 -22.5 43.5t-83.5 40.5q-32 12 -43 16.5t-39 16.5t-39 18.5l-33 19.5t-31.5 23.5t-23.5 27t-19.5 32.5t-10.5 37t-5 44q0 101 80.5 152t196.5 51q74 0 129 -19.5t85 -53.5t44.5 -72.5t14.5 -82.5h-208 q0 87 -69 87q-27 0 -45.5 -14t-18.5 -41q0 -26 23 -44t73 -36q30 -11 41.5 -15t39 -15t40 -17.5t35 -19.5t33 -23.5t26 -27t22 -33t12 -37.5t5.5 -45q0 -108 -76.5 -168.5t-209.5 -60.5t-210.5 67t-77.5 188z" />
<glyph unicode="T" horiz-adv-x="536" d="M164 0v522h-144v178h496v-178h-144v-522h-208z" />
<glyph unicode="U" horiz-adv-x="673" d="M44 243v457h208v-455q0 -36 24 -62t60 -26q37 0 61 25.5t24 62.5v455h208v-457q0 -116 -79 -189t-214 -73q-134 0 -213 73t-79 189z" />
<glyph unicode="V" horiz-adv-x="720" d="M730 700l-264 -700h-218l-258 700h225l142 -479l141 479h232z" />
<glyph unicode="W" horiz-adv-x="1088" d="M660 0l-116 381l-117 -381h-181l-252 700h220l124 -418l123 418h166l122 -418l125 418h220l-252 -700h-182z" />
<glyph unicode="X" horiz-adv-x="655" d="M328 500l101 200h227l-208 -350l208 -350h-227l-101 200l-101 -200h-228l208 350l-208 350h228z" />
<glyph unicode="Y" horiz-adv-x="683" d="M692 700l-347 -700h-234l121 247l-235 453h244l113 -249l106 249h232z" />
<glyph unicode="Z" horiz-adv-x="687" d="M56 530v170h611l-322 -530h303v-170h-628l323 530h-287z" />
<glyph unicode="_" d="M306 384v-148h-273v148h273z" />
<glyph unicode="a" horiz-adv-x="668" d="M414 497h196v-497h-196v74q-15 -33 -58.5 -60t-93.5 -27q-102 0 -166.5 72t-64.5 189t64.5 189t166.5 72q51 0 94.5 -26.5t57.5 -59.5v74zM320 150q41 0 67.5 28.5t26.5 69.5t-26.5 69.5t-67.5 28.5q-40 0 -66 -28.5t-26 -69.5t26 -69.5t66 -28.5z" />
<glyph unicode="b" horiz-adv-x="668" d="M254 74v-74h-196v700h196v-277q14 33 57.5 59.5t93.5 26.5q102 0 166.5 -72t64.5 -189t-64.5 -189t-166.5 -72q-50 0 -93 27t-58 60zM347 150q40 0 66.5 28.5t26.5 69.5t-26 69.5t-67 28.5t-67 -28.5t-26 -69.5t26.5 -69.5t66.5 -28.5z" />
<glyph unicode="c" horiz-adv-x="617" d="M589 290h-196q-12 59 -80 59q-44 0 -67 -29t-23 -72t23.5 -71.5t69.5 -28.5q60 0 76 53h197q-11 -95 -83 -155t-194 -60q-134 0 -209.5 75.5t-75.5 186.5q0 112 75 187.5t209 75.5q125 0 196.5 -63t81.5 -158z" />
<glyph unicode="d" horiz-adv-x="668" d="M414 0v74q-15 -33 -58.5 -60t-93.5 -27q-102 0 -166.5 72t-64.5 189t64.5 189t166.5 72q51 0 94.5 -26.5t57.5 -59.5v277h196v-700h-196zM320 150q41 0 67.5 28.5t26.5 69.5t-26.5 69.5t-67.5 28.5q-40 0 -66 -28.5t-26 -69.5t26 -69.5t66 -28.5z" />
<glyph unicode="e" horiz-adv-x="623" d="M310 389q-39 0 -63 -23t-24 -64h172q0 40 -23 63.5t-62 23.5zM585 207h-362q4 -92 91 -92q65 0 79 50h190q-13 -79 -84 -129t-184 -50q-134 0 -211 71t-77 191q0 114 74 188.5t210 74.5q129 0 204.5 -68t75.5 -162q0 -39 -6 -74z" />
<glyph unicode="f" horiz-adv-x="402" d="M389 701v-128q-24 6 -46 6q-56 0 -56 -50v-32h102v-137h-102v-360h-196v360h-78v137h78v27q0 61 16 101.5t46.5 58.5t60.5 24.5t73 6.5q63 0 102 -14z" />
<glyph unicode="g" horiz-adv-x="666" d="M322 346q-41 0 -67 -28.5t-26 -69.5t26.5 -69.5t66.5 -28.5t66.5 28.5t26.5 69.5t-26 69.5t-67 28.5zM611 497v-469q0 -136 -84 -193q-73 -51 -208 -51q-141 0 -205 52q-78 60 -79 142h197q2 -26 25.5 -45.5t61.5 -19.5q45 0 70.5 23t25.5 68v77q-19 -32 -59.5 -53.5 t-90.5 -21.5q-104 0 -168 64.5t-64 177.5q0 118 61.5 189.5t165.5 71.5q53 0 94.5 -22.5t60.5 -63.5v74h196z" />
<glyph unicode="h" horiz-adv-x="626" d="M58 0v700h186v-276q20 39 61.5 62t97.5 23q84 0 124 -45q46 -48 46 -172v-292h-186v252q0 94 -68 94q-75 0 -75 -103v-243h-186z" />
<glyph unicode="i" horiz-adv-x="312" d="M58 0v497h196v-497h-196zM40 647q0 48 33.5 81.5t81.5 33.5q49 0 82.5 -33.5t33.5 -81.5q0 -47 -33.5 -80t-82.5 -33q-48 0 -81.5 33t-33.5 80z" />
<glyph unicode="j" horiz-adv-x="312" d="M254 497v-537q0 -102 -42 -139t-122 -37q-79 0 -119 14v138q23 -4 41 -4q46 0 46 49v516h196zM40 647q0 48 33.5 81.5t81.5 33.5q49 0 82.5 -33.5t33.5 -81.5q0 -47 -33.5 -80t-82.5 -33q-48 0 -81.5 33t-33.5 80z" />
<glyph unicode="k" horiz-adv-x="610" d="M608 497l-180 -249l180 -248h-229l-125 199v-199h-196v700h196v-403l126 200h228z" />
<glyph unicode="l" horiz-adv-x="312" d="M58 0v700h196v-700h-196z" />
<glyph unicode="m" horiz-adv-x="920" d="M867 0h-187v259q0 87 -59 87q-66 0 -66 -98v-248h-186v259q0 87 -59 87q-66 0 -66 -104v-242h-186v497h186v-73q17 37 56 61t92 24q112 0 146 -90q48 90 158 90q51 0 86 -16t53 -46.5t25 -65.5t7 -83v-298z" />
<glyph unicode="n" horiz-adv-x="646" d="M58 0v497h196v-73q20 40 62.5 62.5t101.5 22.5q88 0 130 -47q45 -47 45 -168v-294h-196v252q0 94 -68 94q-75 0 -75 -103v-243h-196z" />
<glyph unicode="o" horiz-adv-x="631" d="M315 -14q-134 0 -211.5 75t-77.5 187q0 113 77.5 188t211.5 75t212 -75t78 -188q0 -112 -78 -187t-212 -75zM315 150q42 0 67.5 28t25.5 70q0 43 -25.5 70.5t-67.5 27.5q-41 0 -67 -27.5t-26 -70.5q0 -41 26 -69.5t67 -28.5z" />
<glyph unicode="p" horiz-adv-x="668" d="M254 497v-73q14 33 57.5 59t93.5 26q102 0 166.5 -72t64.5 -188q0 -117 -64.5 -189t-166.5 -72q-50 0 -93.5 26.5t-57.5 59.5v-277h-196v700h196zM347 347q-40 0 -66.5 -28.5t-26.5 -69.5t26.5 -69.5t66.5 -28.5t66.5 28.5t26.5 69.5t-26.5 69.5t-66.5 28.5z" />
<glyph unicode="q" horiz-adv-x="668" d="M414 424v73h197v-700h-197v277q-14 -33 -57 -59.5t-94 -26.5q-102 0 -166.5 72t-64.5 189q0 116 64.5 188t166.5 72q51 0 94 -26t57 -59zM321 347q-40 0 -66.5 -28.5t-26.5 -69.5t26.5 -69.5t66.5 -28.5t66.5 28.5t26.5 69.5t-26.5 69.5t-66.5 28.5z" />
<glyph unicode="r" horiz-adv-x="457" d="M454 500v-179q-33 9 -67 9q-133 0 -133 -155v-175h-196v497h196v-79q18 37 58.5 63t90.5 26q29 0 51 -7z" />
<glyph unicode="s" horiz-adv-x="566" d="M352 305q47 -11 73.5 -20t55 -26t41 -42.5t12.5 -63.5q0 -167 -249 -167q-256 0 -256 180h196q0 -60 64 -60q50 0 50 36q0 20 -20.5 30t-93.5 30q-38 9 -57 14.5t-48.5 18t-43.5 26.5t-25.5 37.5t-11.5 54.5q0 83 62 120.5t188 37.5q238 0 238 -166h-195q0 53 -52 53 q-46 0 -46 -35q0 -18 21 -28t78 -25q12 -3 19 -5z" />
<glyph unicode="t" horiz-adv-x="415" d="M400 139v-139q-54 -10 -122 -10q-33 0 -55.5 2.5t-50.5 12.5t-45 28t-29 52t-12 81v194h-73v137h73v145h197v-145h112v-137h-112v-150q0 -43 17 -59t47 -16q21 0 53 4z" />
<glyph unicode="u" horiz-adv-x="646" d="M392 497h196v-497h-196v74q-20 -40 -62.5 -63t-101.5 -23q-88 0 -130 47q-46 48 -46 168v294h197v-252q0 -94 68 -94q75 0 75 103v243z" />
<glyph unicode="v" horiz-adv-x="609" d="M-5 497h204l104 -296l107 296h204l-225 -497h-172z" />
<glyph unicode="w" horiz-adv-x="853" d="M502 0l-76 267l-75 -267h-175l-178 497h198l79 -277l64 277h175l64 -277l79 277h198l-178 -497h-175z" />
<glyph unicode="x" horiz-adv-x="583" d="M409 251l179 -251h-227l-70 131l-69 -131h-227l178 251l-175 246h227l66 -126l67 126h227z" />
<glyph unicode="y" horiz-adv-x="652" d="M322 -216q-138 0 -200 50q-69 58 -70 144h197q2 -31 21.5 -49t53.5 -18q39 0 57.5 20t18.5 67v90q-42 -84 -156 -84q-91 0 -138 52q-46 48 -46 162v279h197v-252q0 -94 68 -94q75 0 75 103v243h196v-478q0 -122 -75 -182q-36 -29 -81 -41t-118 -12z" />
<glyph unicode="z" horiz-adv-x="523" d="M33 497h476l-202 -335h189v-162h-482l204 335h-185v162z" />
<glyph unicode="&#xad;" d="M306 384v-148h-273v148h273z" />
<glyph unicode="&#x401;" horiz-adv-x="566" d="M512 544h-243v-122h243v-149h-243v-117h243v-156h-451v700h451v-156z" />
<glyph unicode="&#x403;" horiz-adv-x="498" d="M61 0v700h434v-178h-226v-522h-208z" />
<glyph unicode="&#x404;" horiz-adv-x="790" d="M545 276h219q-16 -127 -109 -211t-244 -84q-181 0 -283 105t-102 264t101.5 264t281.5 105q151 0 244.5 -84t108.5 -213h-220q-8 48 -46 78t-98 30q-62 0 -101.5 -35t-48.5 -92h215v-112h-214q11 -57 49.5 -89t99.5 -32q62 0 100.5 30t46.5 76z" />
<glyph unicode="&#x405;" horiz-adv-x="644" d="M34 236h208q0 -47 24 -73t64 -26q32 0 50.5 16t18.5 44q0 27 -22.5 43.5t-83.5 40.5q-32 12 -43 16.5t-39 16.5t-39 18.5l-33 19.5t-31.5 23.5t-23.5 27t-19.5 32.5t-10.5 37t-5 44q0 101 80.5 152t196.5 51q74 0 129 -19.5t85 -53.5t44.5 -72.5t14.5 -82.5h-208 q0 87 -69 87q-27 0 -45.5 -14t-18.5 -41q0 -26 23 -44t73 -36q30 -11 41.5 -15t39 -15t40 -17.5t35 -19.5t33 -23.5t26 -27t22 -33t12 -37.5t5.5 -45q0 -108 -76.5 -168.5t-209.5 -60.5t-210.5 67t-77.5 188z" />
<glyph unicode="&#x406;" horiz-adv-x="332" d="M61 0v700h210v-700h-210z" />
<glyph unicode="&#x407;" horiz-adv-x="332" d="M61 0v700h210v-700h-210z" />
<glyph unicode="&#x408;" horiz-adv-x="629" d="M579 700v-446q0 -271 -284 -271q-140 0 -211.5 75t-71.5 197h208q0 -43 19.5 -70.5t55.5 -27.5t55.5 25t19.5 72v446h209z" />
<glyph unicode="&#x409;" horiz-adv-x="760" d="M10 -17v158h46q49 0 49 40v519h594v-700h-208v526h-178v-368q0 -98 -51 -136.5t-144 -38.5h-108z" />
<glyph unicode="&#x40a;" horiz-adv-x="734" d="M464 0v261h-195v-261h-208v700h208v-266h195v266h209v-700h-209z" />
<glyph unicode="&#x40c;" horiz-adv-x="714" d="M269 700v-272h14q47 0 87 71l57 101q32 57 73.5 81t104.5 24h70v-181h-22q-27 0 -46 -10t-36 -38l-36 -56q-32 -53 -82 -71l252 -349h-244l-192 299v-299h-208v700h208z" />
<glyph unicode="&#x40e;" horiz-adv-x="683" d="M692 700l-347 -700h-234l121 247l-235 453h244l113 -249l106 249h232z" />
<glyph unicode="&#x40f;" horiz-adv-x="721" d="M454 -105h-188v105h-205v700h208v-526h182v526h209v-700h-206v-105z" />
<glyph unicode="&#x410;" horiz-adv-x="748" d="M744 0h-232l-24 81h-235l-24 -81h-225l258 700h218zM445 232l-74 258l-74 -258h148z" />
<glyph unicode="&#x411;" horiz-adv-x="672" d="M579 700v-156h-310v-119h163q91 0 148 -59.5t57 -147.5q0 -91 -57 -154.5t-148 -63.5h-371v700h518zM347 289h-78v-144h78q36 0 57 20.5t21 52.5q0 30 -19 50.5t-59 20.5z" />
<glyph unicode="&#x412;" horiz-adv-x="677" d="M61 0v700h342q68 0 116 -18.5t71 -49.5t32.5 -60t9.5 -61q0 -61 -38 -104t-84 -52q42 -4 84.5 -47t42.5 -113q0 -32 -9.5 -62t-32.5 -62t-71 -51.5t-116 -19.5h-347zM341 289h-72v-143h72q44 0 64 20.5t20 51.5q0 27 -19 49t-65 22zM269 425h70q44 0 64 20.5t20 50.5 q0 28 -18.5 49t-65.5 21h-70v-141z" />
<glyph unicode="&#x413;" horiz-adv-x="498" d="M61 0v700h434v-178h-226v-522h-208z" />
<glyph unicode="&#x414;" horiz-adv-x="812" d="M200 -105h-188v273h10q75 0 122 63q48 64 48 162v307h520v-532h73v-273h-188v105h-397v-105zM273 168h248v364h-145v-58q0 -130 -21 -200t-82 -106z" />
<glyph unicode="&#x415;" horiz-adv-x="566" d="M512 544h-243v-122h243v-149h-243v-117h243v-156h-451v700h451v-156z" />
<glyph unicode="&#x416;" horiz-adv-x="1056" d="M427 299l-183 -299h-239l250 351q-54 16 -83 68l-33 62q-28 50 -81 50h-21v174h62q134 0 186 -102l51 -101q23 -45 40.5 -63.5t42.5 -18.5h8v280h202v-280h8q25 0 42.5 18.5t40.5 63.5l51 101q52 102 186 102h62v-174h-21q-53 0 -81 -50l-33 -62q-29 -52 -83 -68 l250 -351h-239l-183 299v-299h-202v299z" />
<glyph unicode="&#x417;" horiz-adv-x="654" d="M21 237h219q0 -92 81 -92q36 0 54 20t18 50q0 40 -21.5 58.5t-68.5 18.5h-77v142h76q90 0 90 73q0 30 -18.5 46.5t-50.5 16.5q-75 0 -75 -80h-219q0 44 14 81.5t45.5 72t92 54t143.5 19.5q126 0 206.5 -47.5t80.5 -151.5q0 -59 -37.5 -103t-86.5 -54q54 -12 91 -58 t37 -113t-42 -115t-105.5 -70t-139.5 -22q-307 0 -307 254z" />
<glyph unicode="&#x418;" horiz-adv-x="748" d="M479 0v388l-210 -340v-48h-208v700h208v-388l210 340v48h208v-700h-208z" />
<glyph unicode="&#x419;" horiz-adv-x="748" d="M479 0v388l-210 -340v-48h-208v700h208v-388l210 340v48h208v-700h-208z" />
<glyph unicode="&#x41a;" horiz-adv-x="714" d="M269 700v-272h14q47 0 87 71l57 101q32 57 73.5 81t104.5 24h70v-181h-22q-27 0 -46 -10t-36 -38l-36 -56q-32 -53 -82 -71l252 -349h-244l-192 299v-299h-208v700h208z" />
<glyph unicode="&#x41b;" horiz-adv-x="760" d="M10 -17v158h46q49 0 49 40v519h594v-700h-208v526h-178v-368q0 -98 -51 -136.5t-144 -38.5h-108z" />
<glyph unicode="&#x41c;" horiz-adv-x="942" d="M881 700v-700h-202v434l-127 -434h-154l-135 434v-434h-202v700h265l148 -452l149 452h258z" />
<glyph unicode="&#x41d;" horiz-adv-x="734" d="M464 0v261h-195v-261h-208v700h208v-266h195v266h209v-700h-209z" />
<glyph unicode="&#x41e;" horiz-adv-x="811" d="M405 -19q-173 0 -276 108.5t-103 260.5t103 260.5t276 108.5q116 0 204.5 -52.5t132 -135.5t43.5 -181t-43.5 -181t-132 -135.5t-204.5 -52.5zM405 171q77 0 123 53t46 126t-46 126t-123 53q-76 0 -122.5 -53t-46.5 -126t46.5 -126t122.5 -53z" />
<glyph unicode="&#x41f;" horiz-adv-x="733" d="M464 526h-195v-526h-208v700h611v-700h-208v526z" />
<glyph unicode="&#x420;" horiz-adv-x="673" d="M61 0v700h336q117 0 190 -76t73 -185q0 -108 -73 -184t-190 -76h-128v-179h-208zM355 340q41 0 67 28.5t26 70.5t-25.5 70.5t-66.5 28.5h-87v-198h86z" />
<glyph unicode="&#x421;" horiz-adv-x="801" d="M557 276h220q-18 -127 -115.5 -211t-252.5 -84q-174 0 -278.5 108t-104.5 261q0 98 44 181.5t131.5 135.5t201.5 52q163 0 260 -86.5t112 -220.5h-218q-9 52 -47.5 85t-100.5 33q-80 0 -125 -52t-45 -128q0 -78 47 -129t127 -51q56 0 95 30.5t49 75.5z" />
<glyph unicode="&#x422;" horiz-adv-x="536" d="M164 0v522h-144v178h496v-178h-144v-522h-208z" />
<glyph unicode="&#x423;" horiz-adv-x="683" d="M692 700l-347 -700h-234l121 247l-235 453h244l113 -249l106 249h232z" />
<glyph unicode="&#x424;" horiz-adv-x="873" d="M554 59h-24v-59h-187v59h-24q-136 0 -216.5 86.5t-80.5 206.5q0 118 80.5 203.5t216.5 85.5h24v59h187v-59h24q136 0 216.5 -85.5t80.5 -203.5q0 -120 -80.5 -206.5t-216.5 -86.5zM320 227h23v246h-23q-46 0 -72.5 -33.5t-26.5 -87.5q0 -55 26.5 -90t72.5 -35zM553 473 h-23v-246h23q46 0 72.5 35t26.5 90q0 54 -26.5 87.5t-72.5 33.5z" />
<glyph unicode="&#x425;" horiz-adv-x="669" d="M334 500l101 200h228l-208 -350l208 -350h-228l-101 200l-101 -200h-227l208 350l-208 350h227z" />
<glyph unicode="&#x426;" horiz-adv-x="771" d="M754 -105h-188v105h-505v700h208v-526h182v526h208v-526h95v-279z" />
<glyph unicode="&#x427;" horiz-adv-x="673" d="M612 0h-209v194h-145q-104 0 -170 63.5t-66 161.5v281h208v-236q0 -120 106 -120h67v356h209v-700z" />
<glyph unicode="&#x428;" horiz-adv-x="1070" d="M1009 0h-948v700h206v-526h165v526h206v-526h164v526h207v-700z" />
<glyph unicode="&#x429;" horiz-adv-x="1120" d="M1104 -105h-193v105h-850v700h206v-526h165v526h206v-526h164v526h207v-526h95v-279z" />
<glyph unicode="&#x42a;" horiz-adv-x="734" d="M427 289h-78v-144h78q36 0 57 20.5t21 52.5q0 30 -19 50.5t-59 20.5zM10 522v178h339v-265h163q91 0 148 -62.5t57 -154.5q0 -91 -57 -154.5t-148 -63.5h-371v522h-131z" />
<glyph unicode="&#x42b;" horiz-adv-x="935" d="M61 700h208v-265h155q91 0 148 -62.5t57 -154.5q0 -91 -57 -154.5t-148 -63.5h-363v700zM339 289h-70v-144h70q36 0 57 20.5t21 52.5q0 30 -19 50.5t-59 20.5zM666 0v700h208v-700h-208z" />
<glyph unicode="&#x42c;" horiz-adv-x="654" d="M61 700h208v-265h163q91 0 148 -62.5t57 -154.5q0 -91 -57 -154.5t-148 -63.5h-371v700zM347 289h-78v-144h78q36 0 57 20.5t21 52.5q0 30 -19 50.5t-59 20.5z" />
<glyph unicode="&#x42d;" horiz-adv-x="793" d="M329 291v111h217q-10 59 -48.5 93.5t-97.5 34.5q-66 0 -105 -32.5t-49 -85.5h-218q15 134 109.5 220.5t253.5 86.5q174 0 275 -104t101 -265q0 -162 -102 -265.5t-280 -103.5q-151 0 -246 84t-113 211h219q11 -46 52 -76t101 -30q123 0 146 121h-215z" />
<glyph unicode="&#x42e;" horiz-adv-x="1111" d="M706 -19q-145 0 -239.5 78.5t-122.5 201.5h-75v-261h-208v700h208v-266h74q26 124 121.5 204.5t241.5 80.5q173 0 276 -108.5t103 -260.5t-103 -260.5t-276 -108.5zM706 171q76 0 122.5 53t46.5 126t-46.5 126t-122.5 53q-77 0 -123 -53t-46 -126t46 -126t123 -53z" />
<glyph unicode="&#x42f;" horiz-adv-x="698" d="M637 700v-700h-208v179h-38l-120 -179h-245l141 213q-60 34 -94.5 94t-34.5 132q0 109 73 185t190 76h336zM343 340h86v198h-87q-41 0 -66.5 -28.5t-25.5 -70.5t26 -70.5t67 -28.5z" />
<glyph unicode="&#x430;" horiz-adv-x="662" d="M408 497h197v-497h-197v74q-14 -33 -57.5 -60t-93.5 -27q-102 0 -166.5 72t-64.5 189t64.5 189t166.5 72q51 0 94 -26.5t57 -59.5v74zM315 150q40 0 66.5 28.5t26.5 69.5t-26 69.5t-67 28.5t-67 -28.5t-26 -69.5t26.5 -69.5t66.5 -28.5z" />
<glyph unicode="&#x431;" horiz-adv-x="641" d="M615 235q0 -106 -74.5 -177.5t-202.5 -71.5q-129 0 -206 71q-47 41 -74.5 113.5t-27.5 160.5q0 116 27.5 180.5t77.5 110.5q83 78 267 78h152v-166h-147q-106 0 -156 -47q-56 -53 -59 -144q45 131 191 131q107 0 169.5 -70t62.5 -169zM336 140q41 0 67 28.5t26 69.5 q0 43 -25.5 70.5t-67.5 27.5t-67.5 -27.5t-25.5 -70.5t25.5 -70.5t67.5 -27.5z" />
<glyph unicode="&#x432;" horiz-adv-x="589" d="M58 0v497h347q46 0 78.5 -13t48 -33.5t22 -40.5t6.5 -41q0 -50 -37.5 -80t-98.5 -33q145 -6 145 -122q0 -21 -8 -42t-26 -43t-56.5 -35.5t-91.5 -13.5h-329zM311 208h-64v-107h64q27 0 42 14.5t15 38.5t-15 39t-42 15zM247 292h62q27 0 41.5 14t14.5 38t-14.5 38.5 t-40.5 14.5h-63v-105z" />
<glyph unicode="&#x433;" horiz-adv-x="410" d="M58 497h345v-154h-160v-343h-185v497z" />
<glyph unicode="&#x434;" horiz-adv-x="666" d="M180 -105h-163v251h16q51 0 77.5 30.5t26.5 81.5v239h446v-351h53v-251h-163v105h-293v-105zM248 146h173v206h-127v-88q0 -94 -46 -118z" />
<glyph unicode="&#x435;" horiz-adv-x="623" d="M585 207h-362q4 -92 90 -92q32 0 53 14t26 36h190q-12 -79 -82.5 -129t-184.5 -50q-135 0 -211.5 71t-76.5 191q0 114 74 188.5t209 74.5q129 0 204.5 -68t75.5 -162q0 -45 -5 -74zM310 389q-40 0 -63.5 -23t-23.5 -64h172q0 40 -23 63.5t-62 23.5z" />
<glyph unicode="&#x436;" horiz-adv-x="849" d="M336 201l-123 -201h-208l180 249q-38 12 -56 44l-17 28q-20 35 -60 35h-23v146h62q57 0 90 -16.5t58 -62.5l40 -75q22 -42 50 -42h7v191h177v-191h6q28 0 51 42l40 75q25 46 57.5 62.5t90.5 16.5h62v-146h-23q-41 0 -61 -35l-16 -28q-19 -32 -57 -44l181 -249h-208 l-123 201v-201h-177v201z" />
<glyph unicode="&#x437;" horiz-adv-x="549" d="M17 169h198q0 -61 57 -61q21 0 34 11.5t13 30.5q0 55 -77 55h-54v99h51q79 0 79 53q0 19 -13.5 30.5t-34.5 11.5q-51 0 -51 -58h-195q0 72 57.5 121t195.5 49q103 0 168.5 -36t65.5 -107q0 -54 -32 -81.5t-79 -32.5q51 -4 83 -33.5t32 -84.5q0 -72 -72.5 -112.5 t-168.5 -40.5q-257 0 -257 186z" />
<glyph unicode="&#x438;" horiz-adv-x="655" d="M412 0v265l-169 -231v-34h-185v497h185v-274l169 232v42h185v-497h-185z" />
<glyph unicode="&#x439;" horiz-adv-x="655" d="M412 0v265l-169 -231v-34h-185v497h185v-274l169 232v42h185v-497h-185z" />
<glyph unicode="&#x43a;" horiz-adv-x="601" d="M243 497v-198h9q18 0 31 12t32 44l43 72q25 42 59 58.5t92 16.5h55v-149h-18q-39 0 -60 -34l-20 -31q-19 -31 -59 -39l187 -249h-223l-128 201v-201h-185v497h185z" />
<glyph unicode="&#x43b;" horiz-adv-x="648" d="M13 -16v156h28q44 0 44 40v317h505v-497h-185v343h-137v-184q0 -88 -43.5 -131.5t-143.5 -43.5h-68z" />
<glyph unicode="&#x43c;" horiz-adv-x="882" d="M824 497v-497h-181v367l-122 -367h-154l-128 367v-367h-181v497h286l99 -310l99 310h282z" />
<glyph unicode="&#x43d;" horiz-adv-x="633" d="M390 0v173h-147v-173h-185v497h185v-170h147v170h185v-497h-185z" />
<glyph unicode="&#x43e;" horiz-adv-x="631" d="M315 -14q-134 0 -211.5 75t-77.5 187q0 113 77.5 188t211.5 75t212 -75t78 -188q0 -112 -78 -187t-212 -75zM315 150q42 0 67.5 28t25.5 70q0 43 -25.5 70.5t-67.5 27.5q-41 0 -67 -27.5t-26 -70.5q0 -41 26 -69.5t67 -28.5z" />
<glyph unicode="&#x43f;" horiz-adv-x="630" d="M572 497v-497h-186v343h-143v-343h-185v497h514z" />
<glyph unicode="&#x440;" horiz-adv-x="668" d="M254 497v-73q14 33 57.5 59t93.5 26q102 0 166.5 -72t64.5 -188q0 -117 -64.5 -189t-166.5 -72q-50 0 -93.5 26.5t-57.5 59.5v-277h-196v700h196zM347 347q-40 0 -66.5 -28.5t-26.5 -69.5t26.5 -69.5t66.5 -28.5t66.5 28.5t26.5 69.5t-26.5 69.5t-66.5 28.5z" />
<glyph unicode="&#x441;" horiz-adv-x="617" d="M589 290h-196q-12 59 -80 59q-44 0 -67 -29t-23 -72t23.5 -71.5t69.5 -28.5q60 0 76 53h197q-11 -95 -83 -155t-194 -60q-134 0 -209.5 75.5t-75.5 186.5q0 112 75 187.5t209 75.5q125 0 196.5 -63t81.5 -158z" />
<glyph unicode="&#x442;" horiz-adv-x="476" d="M10 497h456v-154h-135v-343h-186v343h-135v154z" />
<glyph unicode="&#x443;" horiz-adv-x="652" d="M322 -216q-138 0 -200 50q-69 58 -70 144h197q2 -31 21.5 -49t53.5 -18q39 0 57.5 20t18.5 67v90q-42 -84 -156 -84q-91 0 -138 52q-46 48 -46 162v279h197v-252q0 -94 68 -94q75 0 75 103v243h196v-478q0 -122 -75 -182q-36 -29 -81 -41t-118 -12z" />
<glyph unicode="&#x444;" horiz-adv-x="735" d="M300 -202v190q-126 2 -200 77.5t-74 182.5q0 108 73.5 183.5t200.5 78.5v190h135v-190q126 -3 200 -78.5t74 -183.5t-73 -183t-201 -77v-190h-135zM533 248q0 44 -26 73t-70 30h-2v-206h2q44 0 70 29.5t26 73.5zM202 248q0 -44 26.5 -73.5t70.5 -29.5h1v206h-1 q-45 -1 -71 -30t-26 -73z" />
<glyph unicode="&#x445;" horiz-adv-x="605" d="M421 251l178 -251h-227l-70 131l-69 -131h-227l179 251l-176 246h227l66 -126l67 126h227z" />
<glyph unicode="&#x446;" horiz-adv-x="669" d="M646 -95h-167v95h-421v497h185v-343h142v343h185v-343h76v-249z" />
<glyph unicode="&#x447;" horiz-adv-x="577" d="M520 0h-186v131h-125q-87 0 -134.5 44t-47.5 129v193h185v-167q0 -68 70 -68h52v235h186v-497z" />
<glyph unicode="&#x448;" horiz-adv-x="900" d="M537 497v-343h130v343h175v-497h-784v497h175v-343h130v343h174z" />
<glyph unicode="&#x449;" horiz-adv-x="941" d="M918 -95h-167v95h-693v497h175v-343h130v343h174v-343h130v343h175v-343h76v-249z" />
<glyph unicode="&#x44a;" horiz-adv-x="633" d="M126 0v356h-114v141h297v-152h115q102 0 145.5 -49t43.5 -123q0 -31 -9 -59t-29.5 -55t-59 -43t-91.5 -16h-298zM374 227h-65v-114h64q28 0 44 16t16 41t-16 41t-43 16z" />
<glyph unicode="&#x44b;" horiz-adv-x="832" d="M578 0v497h196v-497h-196zM58 0v497h183v-152h115q102 0 145.5 -49t43.5 -123q0 -31 -9 -59t-29.5 -55t-59 -43t-91.5 -16h-298zM306 227h-65v-114h64q27 0 43 16t16 41t-15.5 41t-42.5 16z" />
<glyph unicode="&#x44c;" horiz-adv-x="565" d="M58 0v497h183v-152h115q102 0 145.5 -49t43.5 -123q0 -31 -9 -59t-29.5 -55t-59 -43t-91.5 -16h-298zM306 227h-65v-114h64q27 0 43 16t16 41t-15.5 41t-42.5 16z" />
<glyph unicode="&#x44d;" horiz-adv-x="622" d="M223 290h-196q8 99 83.5 160t198.5 61q139 0 213 -75t74 -188q0 -112 -74 -187t-213 -75q-124 0 -199 59t-83 156h197q13 -73 91 -73q83 0 89 79h-134v80h134q-7 82 -88 82q-79 0 -93 -79z" />
<glyph unicode="&#x44e;" horiz-adv-x="876" d="M560 150q42 0 67.5 28t25.5 70q0 43 -25.5 70.5t-67.5 27.5t-67.5 -27.5t-25.5 -70.5q0 -41 26 -69.5t67 -28.5zM291 172h-48v-172h-185v497h185v-171h48q23 83 92.5 134t176.5 51q134 0 212 -75t78 -188q0 -112 -78 -187t-212 -75q-107 0 -177 51.5t-92 134.5z" />
<glyph unicode="&#x44f;" horiz-adv-x="584" d="M14 0l113 156q-103 44 -103 156q0 77 52.5 131t135.5 54h315v-497h-190v128h-31l-84 -128h-208zM267 250h70v124h-71q-26 0 -43 -18t-17 -44t17 -44t44 -18z" />
<glyph unicode="&#x451;" horiz-adv-x="623" d="M585 207h-362q4 -92 90 -92q32 0 53 14t26 36h190q-12 -79 -82.5 -129t-184.5 -50q-135 0 -211.5 71t-76.5 191q0 114 74 188.5t209 74.5q129 0 204.5 -68t75.5 -162q0 -45 -5 -74zM310 389q-40 0 -63.5 -23t-23.5 -64h172q0 40 -23 63.5t-62 23.5z" />
<glyph unicode="&#x453;" horiz-adv-x="410" d="M58 497h345v-154h-160v-343h-185v497z" />
<glyph unicode="&#x454;" horiz-adv-x="624" d="M595 290h-196q-14 79 -93 79q-41 0 -63.5 -22t-24.5 -60h134v-80h-134q5 -79 89 -79q78 0 91 73h197q-8 -97 -83 -156t-199 -59q-139 0 -213 75t-74 187q0 113 74 188t213 75q123 0 198.5 -61t83.5 -160z" />
<glyph unicode="&#x455;" horiz-adv-x="566" d="M352 305q47 -11 73.5 -20t55 -26t41 -42.5t12.5 -63.5q0 -167 -249 -167q-129 0 -192.5 47t-63.5 133h196q0 -60 64 -60q50 0 50 36q0 20 -20.5 30t-93.5 30q-38 9 -57 14.5t-48.5 18t-43.5 26.5t-25.5 37.5t-11.5 54.5q0 83 62 120.5t188 37.5q238 0 238 -166h-195 q0 53 -52 53q-46 0 -46 -35q0 -18 21 -28t78 -25q12 -3 19 -5z" />
<glyph unicode="&#x457;" horiz-adv-x="0" />
<glyph unicode="&#x458;" horiz-adv-x="312" d="M254 497v-537q0 -102 -42 -139t-122 -37q-79 0 -119 14v138q23 -4 41 -4q46 0 46 49v516h196zM40 647q0 48 33.5 81.5t81.5 33.5q49 0 82.5 -33.5t33.5 -81.5q0 -47 -33.5 -80t-82.5 -33q-48 0 -81.5 33t-33.5 80z" />
<glyph unicode="&#x459;" horiz-adv-x="648" d="M13 -16v156h28q44 0 44 40v317h505v-497h-185v343h-137v-184q0 -88 -43.5 -131.5t-143.5 -43.5h-68z" />
<glyph unicode="&#x45a;" horiz-adv-x="633" d="M390 0v173h-147v-173h-185v497h185v-170h147v170h185v-497h-185z" />
<glyph unicode="&#x45c;" horiz-adv-x="601" d="M243 497v-198h9q18 0 31 12t32 44l43 72q25 42 59 58.5t92 16.5h55v-149h-18q-39 0 -60 -34l-20 -31q-19 -31 -59 -39l187 -249h-223l-128 201v-201h-185v497h185z" />
<glyph unicode="&#x45e;" horiz-adv-x="652" d="M322 -216q-138 0 -200 50q-69 58 -70 144h197q2 -31 21.5 -49t53.5 -18q39 0 57.5 20t18.5 67v90q-42 -84 -156 -84q-91 0 -138 52q-46 48 -46 162v279h197v-252q0 -94 68 -94q75 0 75 103v243h196v-478q0 -122 -75 -182q-36 -29 -81 -41t-118 -12z" />
<glyph unicode="&#x490;" horiz-adv-x="498" d="M61 0v700h434v-178h-226v-522h-208z" />
<glyph unicode="&#x491;" horiz-adv-x="410" d="M58 497h345v-154h-160v-343h-185v497z" />
<glyph unicode="&#x2000;" horiz-adv-x="381" />
<glyph unicode="&#x2001;" horiz-adv-x="762" />
<glyph unicode="&#x2002;" horiz-adv-x="381" />
<glyph unicode="&#x2003;" horiz-adv-x="762" />
<glyph unicode="&#x2004;" horiz-adv-x="254" />
<glyph unicode="&#x2005;" horiz-adv-x="190" />
<glyph unicode="&#x2006;" horiz-adv-x="127" />
<glyph unicode="&#x2007;" horiz-adv-x="127" />
<glyph unicode="&#x2008;" horiz-adv-x="95" />
<glyph unicode="&#x2009;" horiz-adv-x="152" />
<glyph unicode="&#x200a;" horiz-adv-x="42" />
<glyph unicode="&#x2010;" d="M306 384v-148h-273v148h273z" />
<glyph unicode="&#x2011;" d="M306 384v-148h-273v148h273z" />
<glyph unicode="&#x2012;" d="M306 384v-148h-273v148h273z" />
<glyph unicode="&#x2013;" d="M306 384v-148h-273v148h273z" />
<glyph unicode="&#x2014;" d="M306 384v-148h-273v148h273z" />
<glyph unicode="&#x202f;" horiz-adv-x="152" />
<glyph unicode="&#x205f;" horiz-adv-x="190" />
<glyph unicode="&#x25fc;" horiz-adv-x="495" d="M0 495h495v-495h-495v495z" />
<glyph unicode="&#xfb01;" horiz-adv-x="714" d="M389 701v-128q-24 6 -46 6q-56 0 -56 -50v-32h102v-137h-102v-360h-196v360h-78v137h78v27q0 61 16 101.5t46.5 58.5t60.5 24.5t73 6.5q63 0 102 -14zM460 0v497h196v-497h-196zM442 647q0 48 33.5 81.5t81.5 33.5q49 0 82.5 -33.5t33.5 -81.5q0 -47 -33.5 -80t-82.5 -33 q-48 0 -81.5 33t-33.5 80z" />
</font>
</defs>
</svg>
