<?xml version="1.0" standalone="no"?>
<!DOCTYPE svg PUBLIC "-//W3C//DTD SVG 1.1//EN" "http://www.w3.org/Graphics/SVG/1.1/DTD/svg11.dtd" >
<svg>
<metadata>
Created by FontForge 20110222 at Fri Apr 18 02:19:17 2014
 By Orthosie Webhosting
Copyright (c) ParaType, Inc., 1992. All rights reserved.
</metadata>
<defs>
<font id="FreeSetBook" horiz-adv-x="556" >
  <font-face 
    font-family="FreeSetBook"
    font-weight="400"
    font-stretch="normal"
    units-per-em="1000"
    panose-1="2 11 5 3 4 5 4 2 2 4"
    ascent="800"
    descent="-200"
    x-height="510"
    cap-height="700"
    bbox="-409 -248 998 1006"
    underline-thickness="50"
    underline-position="-50"
    unicode-range="U+0020-FB02"
  />
<missing-glyph horiz-adv-x="233" 
 />
    <glyph glyph-name="IJ" unicode="IJ" horiz-adv-x="660" 
d="M94 0v700h100v-700h-100zM292 2v86q36 -10 63 -10q61 0 88 32q26 29 26 105v485h100v-517q0 -99 -55 -148q-50 -45 -144 -45q-47 0 -78 12z" />
    <glyph glyph-name="ij" unicode="ij" horiz-adv-x="520" 
d="M80 0v510h94v-510h-94zM180 720v-106h-106v106h106zM226 -220l3 81q17 -3 28 -3h10q33 2 49 27q18 29 18 81v544h94v-530q0 -111 -34 -156q-37 -48 -124 -48q-24 0 -44 4zM434 720v-106h-106v106h106z" />
    <glyph glyph-name="afii10017.var.accented" unicode="&#x410;`" horiz-adv-x="722" 
d="M12 0l298 700h105l295 -700h-109l-71 177h-342l-71 -177h-105zM498 259l-139 347l-139 -347h278zM340 870h130l-114 -120h-96z" />
    <glyph glyph-name="afii10022.var.accented" unicode="&#x415;`" 
d="M94 0v700h391v-88h-291v-205h265v-88h-265v-231h291v-88h-391zM320 870h130l-114 -120h-96z" />
    <glyph glyph-name="afii10026.var.accented" unicode="&#x418;`" horiz-adv-x="745" 
d="M94 0v700h100v-477l-3 -87h5q23 46 63 110l280 454h112v-700h-100v477l3 87h-5q-16 -34 -63 -110l-280 -454h-112zM361 870h130l-114 -120h-96z" />
    <glyph glyph-name="afii10032.var.accented" unicode="&#x41e;`" horiz-adv-x="778" 
d="M389 710q158 0 250 -106q86 -98 86 -254q0 -157 -86 -255q-91 -105 -250 -105t-250 105q-86 98 -86 255q0 156 86 254q92 106 250 106zM389 622q-109 0 -171 -80q-59 -75 -59 -192t59 -192q62 -80 171 -80t171 80q59 75 59 192t-59 192q-62 80 -171 80zM368 870h130
l-114 -120h-96z" />
    <glyph glyph-name="afii10037.var.accented" unicode="&#x423;`" horiz-adv-x="581" 
d="M15 700h113l182 -394h7l171 394h97l-266 -599q-25 -57 -60 -83q-36 -28 -88 -28q-39 0 -83 14l11 87q32 -13 60 -13q27 0 47 14q8 5 18 18.5t14 23.5l23 57zM320 870h130l-114 -120h-96z" />
    <glyph glyph-name="afii10045.var.accented" unicode="&#x42b;`" horiz-adv-x="831" 
d="M94 0v700h100v-282h54q48 0 72 -1t68.5 -11.5t72.5 -31.5q35 -26 57 -70t22 -97q0 -96 -61 -151q-63 -56 -205 -56h-180zM194 330v-242h69q99 0 135 30q36 31 36 90q0 55 -35 88q-18 16 -46.5 24.5t-43 9t-44.5 0.5h-71zM637 0v700h100v-700h-100zM394 870h130l-114 -120
h-96z" />
    <glyph glyph-name="afii10047.var.accented" unicode="&#x42d;`" horiz-adv-x="632" 
d="M62 583l-8 97q67 30 160 30q143 0 239 -75q126 -100 126 -284q0 -147 -87 -246q-101 -115 -293 -115q-80 0 -146 25l6 97q74 -34 143 -34q133 0 204 76q60 65 67 165h-284v88h284q-15 103 -90 161q-69 54 -180 54q-76 0 -141 -39zM285 870h130l-114 -120h-96z" />
    <glyph glyph-name="afii10048.var.accented" unicode="&#x42e;`" horiz-adv-x="1030" 
d="M194 407h120q12 117 81 197q90 106 246 106q157 0 250 -106q86 -98 86 -254q0 -157 -86 -255q-91 -105 -250 -105q-155 0 -246 105q-77 89 -84 224h-117v-319h-100v700h100v-293zM641 622q-109 0 -171 -80q-59 -75 -59 -192t59 -192q62 -80 171 -80t171 80q59 75 59 192
t-59 192q-62 80 -171 80zM494 870h130l-114 -120h-96z" />
    <glyph glyph-name="afii10049.var.accented" unicode="&#x42f;`" horiz-adv-x="627" 
d="M533 700v-700h-100v280h-113l-146 -280h-120l168 300q-61 20 -96 62q-43 53 -43 129q0 99 70 157q62 52 178 52h202zM433 362v250h-108q-63 0 -98 -30q-38 -33 -38 -93q0 -53 33 -86q41 -41 133 -41h78zM352 870h130l-114 -120h-96z" />
    <glyph glyph-name="afii10023.var.accented" unicode="&#x401;`" horiz-adv-x="531" 
d="M94 0v700h391v-88h-291v-205h265v-88h-265v-231h291v-88h-391zM126 862h108v-105h-108v105zM345 862h108v-105h-108v105zM252 862l89 144h109l-131 -144h-67z" />
    <glyph glyph-name="afii10065.var.accented" unicode="&#x430;`" 
d="M109 392l-6 82q73 44 176 44q100 0 150 -50q30 -30 39 -67.5t9 -90.5v-207q0 -78 4 -103h-88v69h-2q-57 -77 -167 -77q-73 0 -122 36q-56 41 -56 116q0 91 80 136q58 34 193 34q30 0 64 -2v28q0 49 -30 75q-31 27 -93 27q-81 0 -151 -50zM383 199v44q-36 2 -54 2
q-105 0 -146 -28q-37 -25 -37 -68q0 -38 27 -59q28 -22 73 -22q65 0 103 40q34 36 34 91zM212 610l78 130h120l-118 -130h-80z" />
    <glyph glyph-name="afii10070.var.accented" unicode="&#x435;`" 
d="M510 234h-364q2 -68 43 -113q48 -53 128 -53q82 0 154 51v-94l-14 -5q-3 -1 -14.5 -5.5t-17.5 -6.5t-20 -5.5t-26 -5.5t-30.5 -3.5t-38.5 -1.5q-130 0 -198 73q-66 70 -66 192q0 133 79 203q64 58 160 58q111 0 169 -72q56 -69 56 -185v-27zM146 304h264q1 53 -29 92
q-37 46 -101 46t-102 -51q-27 -38 -32 -87zM212 610l78 130h120l-118 -130h-80z" />
    <glyph glyph-name="afii10074.var.accented" unicode="&#x438;`" horiz-adv-x="622" 
d="M174 510v-385l274 385h94v-510h-94v385l-274 -385h-94v510h94zM245 610l78 130h120l-118 -130h-80z" />
    <glyph glyph-name="afii10080.var.accented" unicode="&#x43e;`" horiz-adv-x="610" 
d="M305 518q121 0 193 -80q66 -73 66 -183t-66 -183q-72 -80 -193 -80t-193 80q-66 73 -66 183t66 183q72 80 193 80zM305 442q-72 0 -120 -60q-39 -51 -39 -127q0 -77 39 -127q45 -60 120 -60t120 60q39 50 39 127t-39 127q-45 60 -120 60zM239 610l78 130h120l-118 -130
h-80z" />
    <glyph glyph-name="afii10085.var.accented" unicode="&#x443;`" horiz-adv-x="492" 
d="M36 -217l6 77q27 -8 45 -8q37 0 64 27q25 25 41 79l6 22l-12 38l-179 492h103l140 -419h2l137 419h95l-191 -529q-40 -110 -67 -144q-48 -61 -131 -61q-28 0 -54 6zM193 610l78 130h120l-118 -130h-80z" />
    <glyph glyph-name="afii10093.var.accented" unicode="&#x44b;`" horiz-adv-x="742" 
d="M80 510h94v-195h105q100 0 152 -39q57 -43 57 -121q0 -70 -48 -113q-48 -42 -142 -42h-218v510zM174 239v-163h122q55 0 79 26q19 20 19 55q0 39 -24 59q-26 23 -89 23h-107zM568 0v510h94v-510h-94zM305 610l78 130h120l-118 -130h-80z" />
    <glyph glyph-name="afii10095.var.accented" unicode="&#x44d;`" horiz-adv-x="487" 
d="M57 422l-8 76q64 20 130 20q112 0 180 -60q82 -72 82 -199q0 -119 -64 -190q-70 -77 -204 -77q-65 0 -128 21l7 83q58 -28 121 -28q89 0 132 52q36 43 36 108h-205v74h201q-3 54 -35 91q-43 49 -129 49q-56 0 -116 -20zM157 610l78 130h120l-118 -130h-80z" />
    <glyph glyph-name="afii10096.var.accented" unicode="&#x44e;`" horiz-adv-x="822" 
d="M174 303h91q12 95 82 156q67 59 170 59q121 0 193 -80q66 -73 66 -183t-66 -183q-74 -80 -193 -80q-125 0 -196 84q-51 60 -59 151h-88v-227h-94v510h94v-207zM517 442q-72 0 -120 -60q-39 -51 -39 -127q0 -77 39 -127q45 -60 120 -60t120 60q39 50 39 127t-39 127
q-45 60 -120 60zM345 610l78 130h120l-118 -130h-80z" />
    <glyph glyph-name="afii10097.var.accented" unicode="&#x44f;`" horiz-adv-x="526" 
d="M446 510v-510h-94v201h-93l-103 -201h-111l120 218q-49 10 -79 46q-31 37 -31 95q0 65 52 110q50 41 117 41h222zM352 439h-105q-44 0 -69 -25q-23 -23 -23 -59q0 -35 23 -58q25 -26 69 -26h105v168zM217 610l78 130h120l-118 -130h-80z" />
    <glyph glyph-name="afii10071.var.accented" unicode="&#x451;`" 
d="M510 234h-364q2 -68 43 -113q48 -53 128 -53q82 0 154 51v-94l-14 -5q-3 -1 -14.5 -5.5t-17.5 -6.5t-20 -5.5t-26 -5.5t-30.5 -3.5t-38.5 -1.5q-130 0 -198 73q-66 70 -66 192q0 133 79 203q64 58 160 58q111 0 169 -72q56 -69 56 -185v-27zM146 304h264q1 53 -29 92
q-37 46 -101 46t-102 -51q-27 -38 -32 -87zM108 700h109v-105h-109v105zM346 700h108v-105h-108v105zM243 700l89 144h109l-131 -144h-67z" />
    <glyph glyph-name="fi" unicode="fi" horiz-adv-x="652" 
d="M128 0v434h-111v76h111v47q0 35 2 57.5t13.5 55t33.5 53.5q41 39 119 39q27 0 66 -6l-4 -76q-24 6 -45 6q-44 0 -66 -22q-25 -25 -25 -99v-55h141v-76h-141v-434h-94zM468 0v510h94v-510h-94zM568 720v-106h-106v106h106z" />
    <glyph glyph-name="fl" unicode="fl" horiz-adv-x="643" 
d="M128 0v434h-111v76h111v47q0 35 2 57.5t13.5 55t33.5 53.5q41 39 119 39q27 0 66 -6l-4 -76q-24 6 -45 6q-44 0 -66 -22q-25 -25 -25 -99v-55h141v-76h-141v-434h-94zM469 0v762h94v-762h-94z" />
    <glyph glyph-name=".notdef" horiz-adv-x="233" 
 />
    <glyph glyph-name=".null" horiz-adv-x="0" 
 />
    <glyph glyph-name="nonmarkingreturn" horiz-adv-x="333" 
 />
    <glyph glyph-name="space" unicode=" " horiz-adv-x="233" 
 />
    <glyph glyph-name="exclam" unicode="!" horiz-adv-x="389" 
d="M251 700l-16 -504h-80l-16 504h112zM139 0v112h112v-112h-112z" />
    <glyph glyph-name="quotedbl" unicode="&#x22;" 
d="M309 455v245h88v-245h-88zM159 455v245h88v-245h-88z" />
    <glyph glyph-name="numbersign" unicode="#" 
d="M94 0l29 208h-95v76h106l18 130h-96v76h107l29 208h76l-29 -208h118l29 208h76l-29 -208h95v-76h-106l-18 -130h95v-76h-106l-29 -208h-76l29 208h-118l-29 -208h-76zM328 284l18 130h-118l-18 -130h118z" />
    <glyph glyph-name="dollar" unicode="$" 
d="M247 435v180q-32 -5 -52 -25q-24 -24 -24 -67q0 -30 19.5 -49.5t56.5 -38.5zM305 290v-206q37 8 61 42q19 28 19 67q0 34 -25 61q-21 24 -55 36zM247 -106v94h-12q-84 0 -152 29l12 96q61 -37 138 -37h14v243l-35 17q-70 34 -105 71q-42 44 -42 113q0 79 56 133
q52 50 126 54v99h58v-96q80 -1 143 -25l-14 -92q-50 29 -119 29h-10v-217l58 -32q65 -36 91 -68q37 -45 37 -110q0 -83 -55 -142q-53 -56 -131 -61v-98h-58z" />
    <glyph glyph-name="percent" unicode="%" horiz-adv-x="1000" 
d="M260 310q-80 0 -115 57t-35 143q0 92 33 146t117 54q150 0 150 -200q0 -86 -35 -143t-115 -57zM260 380q62 0 62 130v7q0 25 -1 40t-6 37.5t-19 34t-36 11.5t-35.5 -13t-19 -37.5t-6.5 -40t-1 -39.5q0 -130 62 -130zM247 -22l433 742h72l-433 -742h-72zM740 -12
q-80 0 -115 57t-35 143q0 92 33 146t117 54q150 0 150 -200q0 -86 -35 -143t-115 -57zM740 58q62 0 62 130v7q0 25 -1 40t-6 37.5t-19 34t-36 11.5t-35.5 -13t-19 -37.5t-6.5 -40t-1 -39.5q0 -130 62 -130z" />
    <glyph glyph-name="ampersand" unicode="&#x26;" horiz-adv-x="722" 
d="M554 377h94q-6 -78 -26 -132.5t-54 -106.5l122 -138h-125l-57 68q-71 -78 -200 -78q-103 0 -164 53t-61 140q0 141 156 204q-35 42 -53.5 78t-18.5 81q0 80 51 122t131 42q74 0 123.5 -40t49.5 -118q0 -61 -44 -107t-109 -75l142 -162q36 57 43 169zM455 131l-168 197
q-33 -22 -50.5 -37t-32.5 -42t-15 -59q0 -55 40.5 -89.5t96.5 -34.5q72 0 129 65zM323 426q41 19 73 50.5t32 71.5q0 86 -83 86q-36 0 -60 -23.5t-24 -66.5q0 -50 62 -118z" />
    <glyph glyph-name="quotesingle" unicode="'" horiz-adv-x="278" 
d="M95 455v245h88v-245h-88z" />
    <glyph glyph-name="parenleft" unicode="(" horiz-adv-x="333" 
d="M319 -140h-90q-164 227 -164 448q0 212 164 448h90q-154 -252 -154 -448q0 -201 154 -448z" />
    <glyph glyph-name="parenright" unicode=")" horiz-adv-x="333" 
d="M14 756h90q164 -227 164 -448q0 -212 -164 -448h-90q154 252 154 448q0 201 -154 448z" />
    <glyph glyph-name="asterisk" unicode="*" 
d="M359 310l-81 138l-82 -138l-74 50l110 123l-160 33l28 85l151 -62l-16 159h91l-15 -159l146 62l27 -85l-157 -33l107 -123z" />
    <glyph glyph-name="plus" unicode="+" horiz-adv-x="600" 
d="M47 209v88h209v209h88v-209h209v-88h-209v-209h-88v209h-209z" />
    <glyph glyph-name="comma" unicode="," horiz-adv-x="278" 
d="M52 -133l63 245h111l-85 -245h-89z" />
    <glyph glyph-name="hyphen" unicode="-" horiz-adv-x="420" 
d="M80 334h260v-100h-260v100z" />
    <glyph glyph-name="period" unicode="." horiz-adv-x="278" 
d="M83 0v112h112v-112h-112z" />
    <glyph glyph-name="slash" unicode="/" horiz-adv-x="278" 
d="M-25 -12l240 722h88l-240 -722h-88z" />
    <glyph glyph-name="zero" unicode="0" 
d="M278 710q126 0 187 -115q50 -96 50 -245q0 -155 -50 -246q-61 -114 -187 -114t-187 114q-50 91 -50 246q0 149 50 245q61 115 187 115zM278 628q-61 0 -95 -70q-36 -75 -36 -208t36 -208q34 -70 95 -70t95 70q36 75 36 208t-36 208q-34 70 -95 70z" />
    <glyph glyph-name="one" unicode="1" 
d="M269 0v585l-107 -93l-53 68l171 140h89v-700h-100z" />
    <glyph glyph-name="two" unicode="2" 
d="M50 0v107l131 118q67 60 126 135q20 26 31.5 42.5t24.5 48.5t13 61q0 49 -33 82q-34 34 -101 34q-76 0 -160 -45l-10 86q88 41 183 41q89 0 145 -38q82 -55 82 -159q0 -31 -6.5 -58t-23 -53t-24.5 -37t-28 -36q-6 -7 -18 -22.5t-17.5 -22.5t-17.5 -20.5t-27.5 -29.5
t-37.5 -37q-48 -48 -92 -86l-33 -29h335v-82h-442z" />
    <glyph glyph-name="three" unicode="3" 
d="M145 323v82h56q81 0 128 31q45 29 45 83q0 51 -36 80q-37 29 -101 29q-77 0 -155 -38l-6 89q91 31 175 31q101 0 160 -45q69 -52 69 -140q0 -67 -42 -109q-40 -42 -108 -54v-2q70 -13 112 -55q44 -46 44 -119q0 -93 -67 -144q-69 -52 -196 -52q-87 0 -172 27l6 92
q77 -37 153 -37q82 0 126 33q44 31 44 88q0 71 -56 104q-43 26 -118 26h-61z" />
    <glyph glyph-name="four" unicode="4" 
d="M344 241v377h-2l-222 -377h224zM344 0v159h-325v83l282 458h143v-459h88v-82h-88v-159h-100z" />
    <glyph glyph-name="five" unicode="5" 
d="M478 700v-82h-290l-6 -186q50 10 75 10q105 0 170 -58q71 -64 71 -158q0 -103 -68 -166q-76 -70 -203 -70q-77 0 -146 23l3 94q67 -35 140 -35q81 0 128 45q40 39 40 94q0 72 -52 114q-45 35 -123 35q-69 0 -129 -26l6 366h384z" />
    <glyph glyph-name="six" unicode="6" 
d="M479 688l-14 -89q-58 29 -124 29q-80 0 -133 -60q-29 -34 -46 -87.5t-16 -105.5h3q55 64 152 64q93 0 150 -57q60 -60 60 -161q0 -103 -61 -166q-65 -65 -163 -65q-139 0 -197 118q-38 77 -38 216q0 161 59 262q72 124 233 124q71 0 135 -22zM405 219q0 50 -27 90
q-33 48 -90 48q-56 0 -91 -35q-39 -39 -39 -103q0 -59 31 -100q35 -47 92 -47q63 0 98 51q26 40 26 96z" />
    <glyph glyph-name="seven" unicode="7" 
d="M491 700v-82l-258 -618h-110l266 618h-340v82h442z" />
    <glyph glyph-name="eight" unicode="8" 
d="M186 368v2q-63 23 -96 65q-35 43 -35 109q0 84 83 133q56 33 137 33q101 0 163 -48q59 -47 59 -113q0 -67 -41 -113q-29 -33 -85 -62q60 -21 99 -61q48 -51 48 -123q0 -94 -65 -146q-67 -54 -172 -54q-103 0 -174 55q-69 54 -69 140q0 81 60 134q33 29 88 49zM269 416
l30 -13q50 35 71 64.5t21 65.5q0 49 -38 74q-31 21 -80 21q-50 0 -86 -29q-32 -26 -32 -69q0 -36 34 -65q33 -29 80 -49zM260 331l-31 -20q-21 -13 -30.5 -20t-25 -22.5t-22.5 -34.5t-7 -43q0 -53 40 -86t101 -33q57 0 91 31q36 34 36 88q0 26 -8.5 45.5t-23.5 32
t-33.5 22.5t-40.5 20q-7 3 -10 4z" />
    <glyph glyph-name="nine" unicode="9" 
d="M77 12l14 88q54 -28 119 -28q99 0 150 76q50 73 50 177h-3q-61 -65 -150 -65q-101 0 -157 63q-55 61 -55 154q0 110 68 175q62 58 156 58q134 0 191 -108q44 -83 44 -226q0 -148 -46 -241q-71 -145 -241 -145q-76 0 -140 22zM151 481q0 -53 28 -92q34 -47 92 -47t94 42
q33 37 33 96q0 62 -36 106q-36 42 -87 42q-55 0 -88 -39q-36 -41 -36 -108z" />
    <glyph glyph-name="colon" unicode=":" horiz-adv-x="278" 
d="M195 510v-112h-112v112h112zM83 0v112h112v-112h-112z" />
    <glyph glyph-name="semicolon" unicode=";" horiz-adv-x="278" 
d="M20 -133l63 245h112l-85 -245h-90zM195 510v-112h-112v112h112z" />
    <glyph glyph-name="less" unicode="&#x3c;" horiz-adv-x="600" 
d="M554 514v-88l-394 -173l394 -173v-88l-508 223v76z" />
    <glyph glyph-name="equal" unicode="=" horiz-adv-x="600" 
d="M47 314v88h506v-88h-506zM47 104v88h506v-88h-506z" />
    <glyph glyph-name="greater" unicode="&#x3e;" horiz-adv-x="600" 
d="M46 514l508 -223v-76l-508 -223v88l394 173l-394 173v88z" />
    <glyph glyph-name="question" unicode="?" horiz-adv-x="500" 
d="M204 194v21q0 46 14 77q14 32 48 71l11 13q26 31 36.5 44t23.5 42t13 57q0 51 -36 82q-32 27 -85 27q-79 0 -148 -43l-7 92q75 33 166 33q92 0 146 -41q31 -23 50.5 -61t19.5 -82q0 -33 -13.5 -65t-25 -47t-39.5 -48l-25 -30q-33 -40 -47 -76q-8 -19 -8 -48v-18h-94z
M195 0v112h112v-112h-112z" />
    <glyph glyph-name="at" unicode="@" horiz-adv-x="800" 
d="M366 217q52 0 90 53t38 110q0 36 -22.5 60t-54.5 24q-56 0 -94.5 -50t-38.5 -106q0 -40 22 -65.5t60 -25.5zM615 532l-67 -254q-8 -28 -8 -42q2 -25 18 -25q45 0 83.5 56.5t38.5 130.5q0 113 -75.5 177.5t-189.5 64.5q-125 0 -204 -84t-79 -209q0 -138 81 -213.5
t212 -75.5q63 0 120.5 24t96.5 65h76q-49 -75 -127.5 -117t-169.5 -42q-160 0 -265.5 97t-105.5 264q0 160 106 260.5t260 100.5q136 0 235 -84t99 -213q0 -67 -26 -123t-64.5 -88t-77 -49.5t-69.5 -17.5q-24 0 -40.5 14.5t-17.5 41.5h-2q-54 -56 -109 -56q-62 0 -105 47
t-43 113q0 99 60.5 175t154.5 76q73 0 114 -66l15 52h75z" />
    <glyph glyph-name="A" unicode="A" horiz-adv-x="722" 
d="M12 0l298 700h105l295 -700h-109l-71 177h-342l-71 -177h-105zM498 259l-139 347l-139 -347h278z" />
    <glyph glyph-name="B" unicode="B" horiz-adv-x="602" 
d="M94 0v700h189q126 0 188 -48q57 -44 57 -128q0 -66 -35 -107q-38 -45 -109 -60v-2q70 -5 115 -48q47 -45 47 -120q0 -86 -54 -132q-64 -55 -212 -55h-186zM194 319v-237h75q106 0 144 39q27 29 27 77q0 71 -60 101q-40 20 -121 20h-65zM194 618v-217h55q116 0 152 35
q27 26 27 74q0 55 -36 82q-34 26 -93 26h-105z" />
    <glyph glyph-name="C" unicode="C" horiz-adv-x="625" 
d="M579 680l-8 -97q-66 39 -144 39q-100 0 -171 -56q-97 -76 -97 -216q0 -111 66 -186q74 -86 212 -86q67 0 137 33l6 -96q-66 -25 -146 -25q-184 0 -285 103q-96 100 -96 258q0 183 130 283q99 76 244 76q88 0 152 -30z" />
    <glyph glyph-name="D" unicode="D" horiz-adv-x="733" 
d="M94 0v700h206q168 0 271 -98q101 -95 101 -254q0 -126 -61 -213q-95 -135 -311 -135h-206zM194 612v-524h105q150 0 217 86q50 63 50 166q0 130 -73 203q-71 69 -182 69h-117z" />
    <glyph glyph-name="E" unicode="E" horiz-adv-x="554" 
d="M94 0v700h391v-88h-291v-205h265v-88h-265v-231h291v-88h-391z" />
    <glyph glyph-name="F" unicode="F" horiz-adv-x="511" 
d="M94 0v700h371v-88h-271v-205h259v-88h-259v-319h-100z" />
    <glyph glyph-name="G" unicode="G" horiz-adv-x="722" 
d="M627 675l-8 -100q-33 22 -79 34q-51 13 -106 13q-112 0 -183 -60q-92 -78 -92 -215q0 -110 72 -189q74 -80 200 -80q46 0 89 8l14 3v212h-147v82h247v-362q-94 -31 -203 -31q-167 0 -267 90q-111 100 -111 273q0 165 115 267q101 90 258 90q40 0 124 -12q38 -9 77 -23z
" />
    <glyph glyph-name="H" unicode="H" horiz-adv-x="722" 
d="M94 0v700h100v-293h334v293h100v-700h-100v319h-334v-319h-100z" />
    <glyph glyph-name="I" unicode="I" horiz-adv-x="288" 
d="M94 0v700h100v-700h-100z" />
    <glyph glyph-name="J" unicode="J" horiz-adv-x="389" 
d="M21 2v86q36 -10 63 -10q61 0 88 32q26 29 26 105v485h100v-517q0 -99 -55 -148q-50 -45 -144 -45q-47 0 -78 12z" />
    <glyph glyph-name="K" unicode="K" horiz-adv-x="667" 
d="M94 0v700h100v-308l298 308h133l-328 -331l354 -369h-146l-311 343v-343h-100z" />
    <glyph glyph-name="L" unicode="L" horiz-adv-x="506" 
d="M94 0v700h100v-612h292v-88h-392z" />
    <glyph glyph-name="M" unicode="M" horiz-adv-x="952" 
d="M94 0v700h165l219 -582l215 582h165v-700h-100v606h-2l-231 -606h-98l-231 606h-2v-606h-100z" />
    <glyph glyph-name="N" unicode="N" horiz-adv-x="722" 
d="M88 0v700h136l308 -564h2v564h100v-700h-128l-316 576h-2v-576h-100z" />
    <glyph glyph-name="O" unicode="O" horiz-adv-x="778" 
d="M389 710q158 0 250 -106q86 -98 86 -254q0 -157 -86 -255q-91 -105 -250 -105t-250 105q-86 98 -86 255q0 156 86 254q92 106 250 106zM389 622q-109 0 -171 -80q-59 -75 -59 -192t59 -192q62 -80 171 -80t171 80q59 75 59 192t-59 192q-62 80 -171 80z" />
    <glyph glyph-name="P" unicode="P" 
d="M183 612v-244h99q68 0 106 35q34 32 34 86q0 61 -45 94q-40 29 -109 29h-85zM83 0v700h183q126 0 192 -51q70 -54 70 -156q0 -84 -47 -139q-64 -74 -200 -74h-98v-280h-100z" />
    <glyph glyph-name="Q" unicode="Q" horiz-adv-x="778" 
d="M575 -126l-130 120q-3 0 -9.5 -1t-9.5 -1q-12 -2 -17 -2h-20q-164 6 -250 105q-86 98 -86 255q0 155 86 254q92 106 250 106t250 -106q86 -99 86 -254q0 -129 -61 -222q-47 -73 -127 -108l162 -146h-124zM389 622q-109 0 -171 -80q-59 -75 -59 -192t59 -192
q62 -80 171 -80t171 80q59 75 59 192t-59 192q-62 80 -171 80z" />
    <glyph glyph-name="R" unicode="R" horiz-adv-x="611" 
d="M83 0v700h171q147 0 207 -44q64 -47 64 -139q0 -72 -46 -117q-40 -40 -98 -49v-2q25 -10 38 -24q16 -17 30 -46l132 -279h-114l-107 243q-20 44 -46 57q-21 11 -71 11h-60v-311h-100zM183 612v-213h85q78 0 117 34q34 29 34 75q0 59 -46 85q-34 19 -94 19h-96z" />
    <glyph glyph-name="S" unicode="S" horiz-adv-x="500" 
d="M420 685l-14 -92q-64 29 -131 29q-50 0 -80 -17q-42 -24 -42 -75q0 -30 22 -55q9 -10 19 -18t22 -15t20 -11t21 -10t18 -8l26 -13q90 -44 121 -93q31 -48 31 -112q0 -94 -68 -151q-65 -54 -177 -54q-74 0 -153 29l10 92q75 -33 145 -33q65 0 102 35q35 32 35 79
q0 48 -37 79q-15 13 -94 53l-43 22q-70 36 -98 76q-28 41 -28 99q0 97 74 148q59 41 150 41q83 0 149 -25z" />
    <glyph glyph-name="T" unicode="T" 
d="M228 0v612h-217v88h534v-88h-217v-612h-100z" />
    <glyph glyph-name="U" unicode="U" horiz-adv-x="722" 
d="M632 700v-410q0 -146 -73 -225q-69 -75 -198 -75t-198 75q-73 79 -73 225v410h100v-397q0 -110 37 -163q44 -62 134 -62t134 62q37 53 37 163v397h100z" />
    <glyph glyph-name="V" unicode="V" horiz-adv-x="667" 
d="M661 700l-267 -700h-125l-263 700h112l215 -612h2l221 612h105z" />
    <glyph glyph-name="W" unicode="W" horiz-adv-x="1000" 
d="M213 0l-211 700h110l167 -600h2l149 600h142l151 -600h2l167 600h106l-215 -700h-129l-152 612h-2l-153 -612h-134z" />
    <glyph glyph-name="X" unicode="X" horiz-adv-x="667" 
d="M8 0l257 364l-234 336h120l186 -269l185 269h114l-235 -334l258 -366h-126l-206 297l-199 -297h-120z" />
    <glyph glyph-name="Y" unicode="Y" horiz-adv-x="667" 
d="M284 0v293l-273 407h117l208 -314l203 314h117l-272 -407v-293h-100z" />
    <glyph glyph-name="Z" unicode="Z" 
d="M32 0v90l362 522h-350v88h465v-90l-361 -522h367v-88h-483z" />
    <glyph glyph-name="bracketleft" unicode="[" horiz-adv-x="333" 
d="M95 -140v896h189v-70h-101v-756h101v-70h-189z" />
    <glyph glyph-name="backslash" unicode="\" horiz-adv-x="278" 
d="M215 -12l-240 722h88l240 -722h-88z" />
    <glyph glyph-name="bracketright" unicode="]" horiz-adv-x="333" 
d="M238 756v-896h-189v70h101v756h-101v70h189z" />
    <glyph glyph-name="asciicircum" unicode="^" horiz-adv-x="600" 
d="M60 295l199 405h82l199 -405h-90l-150 313l-150 -313h-90z" />
    <glyph glyph-name="underscore" unicode="_" horiz-adv-x="500" 
d="M0 -125v50h500v-50h-500z" />
    <glyph glyph-name="grave" unicode="`" horiz-adv-x="278" 
d="M127 740l78 -130h-80l-118 130h120z" />
    <glyph glyph-name="a" unicode="a" 
d="M109 392l-6 82q73 44 176 44q100 0 150 -50q30 -30 39 -67.5t9 -90.5v-207q0 -78 4 -103h-88v69h-2q-57 -77 -167 -77q-73 0 -122 36q-56 41 -56 116q0 91 80 136q58 34 193 34q30 0 64 -2v28q0 49 -30 75q-31 27 -93 27q-81 0 -151 -50zM383 199v44q-36 2 -54 2
q-105 0 -146 -28q-37 -25 -37 -68q0 -38 27 -59q28 -22 73 -22q65 0 103 40q34 36 34 91z" />
    <glyph glyph-name="b" unicode="b" horiz-adv-x="611" 
d="M80 0v762h94v-322h2q25 35 59 53q48 25 105 25q111 0 172 -79q53 -69 53 -175q0 -112 -49 -184q-59 -88 -170 -88q-60 0 -112 27q-38 20 -62 53h-2v-72h-90zM174 254q0 -74 37 -127q41 -59 113 -59q64 0 103 55q38 52 38 140q0 75 -34 124q-39 55 -106 55q-65 0 -107 -50
q-44 -53 -44 -138z" />
    <glyph glyph-name="c" unicode="c" horiz-adv-x="444" 
d="M412 498l-8 -78q-50 22 -102 22q-60 0 -105 -39q-27 -24 -43 -64t-16 -84q0 -79 39 -128q48 -59 131 -59q57 0 101 29l7 -84q-48 -21 -118 -21q-117 0 -192 82q-68 73 -68 185q0 127 88 200q71 59 172 59q58 0 114 -20z" />
    <glyph glyph-name="d" unicode="d" horiz-adv-x="611" 
d="M437 762h94v-762h-90v72h-2q-23 -31 -59 -51q-52 -29 -113 -29q-103 0 -163 75q-58 72 -58 194q0 121 68 193q60 64 152 64q66 0 112 -27q35 -20 57 -51h2v322zM437 254q0 75 -37 128q-43 60 -114 60q-64 0 -102 -49q-38 -50 -38 -136q0 -74 32 -125q40 -64 109 -64
q66 0 107 51q43 54 43 135z" />
    <glyph glyph-name="e" unicode="e" 
d="M510 234h-364q2 -68 43 -113q48 -53 128 -53q82 0 154 51v-94l-14 -5q-3 -1 -14.5 -5.5t-17.5 -6.5t-20 -5.5t-26 -5.5t-30.5 -3.5t-38.5 -1.5q-130 0 -198 73q-66 70 -66 192q0 133 79 203q64 58 160 58q111 0 169 -72q56 -69 56 -185v-27zM146 304h264q1 53 -29 92
q-37 46 -101 46t-102 -51q-27 -38 -32 -87z" />
    <glyph glyph-name="f" unicode="f" horiz-adv-x="373" 
d="M128 0v434h-111v76h111v47q0 35 2 57.5t13.5 55t33.5 53.5q41 39 119 39q27 0 66 -6l-4 -76q-24 6 -45 6q-44 0 -66 -22q-25 -25 -25 -99v-55h141v-76h-141v-434h-94z" />
    <glyph glyph-name="g" unicode="g" horiz-adv-x="611" 
d="M531 510v-490q0 -119 -63 -180q-66 -64 -200 -64q-86 0 -183 35l10 87q89 -46 178 -46q86 0 128 54q36 46 36 121v52h-2q-29 -39 -73 -59q-43 -20 -98 -20q-99 0 -159 70q-59 71 -59 181q0 115 61 188q64 79 174 79q60 0 100 -24q38 -20 61 -60h2v76h87zM288 76
q72 0 113 56q36 49 36 122q0 81 -38 133q-39 55 -109 55q-66 0 -107 -55q-37 -52 -37 -131q0 -78 38 -127q41 -53 104 -53z" />
    <glyph glyph-name="h" unicode="h" horiz-adv-x="604" 
d="M80 0v762h94v-325h2q25 37 67 59q43 22 97 22q96 0 144 -56q47 -55 47 -159v-303h-94v264q0 104 -32 144q-28 34 -83 34q-60 0 -100 -44q-48 -53 -48 -162v-236h-94z" />
    <glyph glyph-name="i" unicode="i" horiz-adv-x="254" 
d="M80 0v510h94v-510h-94zM180 720v-106h-106v106h106z" />
    <glyph glyph-name="j" unicode="j" horiz-adv-x="254" 
d="M-28 -220l3 81q16 -3 28 -3h10q33 2 49 27q18 29 18 81v544h94v-530q0 -111 -34 -156q-37 -48 -124 -48q-24 0 -44 4zM180 720v-106h-106v106h106z" />
    <glyph glyph-name="k" unicode="k" horiz-adv-x="546" 
d="M80 0v762h94v-459l208 207h122l-235 -221l264 -289h-127l-232 262v-262h-94z" />
    <glyph glyph-name="l" unicode="l" horiz-adv-x="254" 
d="M80 0v762h94v-762h-94z" />
    <glyph glyph-name="m" unicode="m" horiz-adv-x="884" 
d="M79 0v510h88v-74h2q25 42 68 62q42 20 90 20q52 0 89 -24q41 -27 60 -75q27 51 74 77q40 22 93 22q83 0 127 -54q41 -51 41 -137v-327h-94v304q0 74 -25 106q-23 32 -69 32q-58 0 -94 -49q-37 -50 -37 -136v-257h-94v304q0 71 -24 104q-26 34 -70 34q-58 0 -94 -49
q-37 -49 -37 -136v-257h-94z" />
    <glyph glyph-name="n" unicode="n" horiz-adv-x="604" 
d="M80 0v510h94v-73h2q25 37 67 59q43 22 97 22q96 0 144 -56q47 -55 47 -159v-303h-94v264q0 106 -32 144q-28 34 -83 34q-60 0 -100 -44q-48 -53 -48 -162v-236h-94z" />
    <glyph glyph-name="o" unicode="o" horiz-adv-x="610" 
d="M305 518q121 0 193 -80q66 -73 66 -183t-66 -183q-72 -80 -193 -80t-193 80q-66 73 -66 183t66 183q72 80 193 80zM305 442q-72 0 -120 -60q-39 -51 -39 -127q0 -77 39 -127q45 -60 120 -60t120 60q39 50 39 127t-39 127q-45 60 -120 60z" />
    <glyph glyph-name="p" unicode="p" horiz-adv-x="611" 
d="M80 510h90v-73h2q58 81 169 81q103 0 162 -68q62 -72 62 -191q0 -118 -59 -192q-60 -75 -160 -75q-65 0 -112 25q-37 19 -58 50h-2v-291h-94v734zM174 254q0 -79 39 -131q40 -55 109 -55q57 0 96 43q47 52 47 151q0 88 -42 136q-37 44 -98 44q-72 0 -114 -60
q-37 -52 -37 -128z" />
    <glyph glyph-name="q" unicode="q" horiz-adv-x="611" 
d="M531 510v-734h-94v291h-2q-21 -31 -58 -50q-47 -25 -112 -25q-100 0 -160 75q-59 74 -59 192q0 119 62 191q60 68 162 68q111 0 169 -81h2v73h90zM437 254q0 76 -37 128q-42 60 -114 60q-61 0 -98 -44q-42 -48 -42 -136q0 -99 47 -151q39 -43 96 -43q69 0 109 55
q39 52 39 131z" />
    <glyph glyph-name="r" unicode="r" horiz-adv-x="379" 
d="M80 510h88v-83h2q20 42 57 66.5t79 24.5q22 0 50 -5l9 -2v-84q-24 9 -52 9q-55 0 -90 -42q-49 -57 -49 -166v-228h-94v510z" />
    <glyph glyph-name="s" unicode="s" horiz-adv-x="406" 
d="M48 20l5 83q62 -35 119 -35q48 0 75 25q19 17 19 46q0 26 -25 46q-25 19 -68 40l-20 9q-64 28 -91 69q-17 27 -17 62q0 68 45 109q49 44 135 44q61 0 117 -20l-8 -80q-19 11 -43 17q-30 7 -55 7q-39 0 -62 -13q-29 -17 -29 -47q0 -9 2.5 -17t5.5 -14t10.5 -13t11.5 -10.5
t15 -9l15 -7.5t17 -8t15 -7l15 -7q70 -33 92 -65q22 -34 22 -79q0 -68 -52 -112q-49 -41 -133 -41q-71 0 -133 28z" />
    <glyph glyph-name="t" unicode="t" horiz-adv-x="375" 
d="M118 628l94 30v-148h141v-76h-141v-275q0 -42 22 -66q23 -25 61 -25q31 0 60 18v-80q-40 -14 -83 -14q-70 0 -110 34q-44 37 -44 114v294h-111v76h111v118z" />
    <glyph glyph-name="u" unicode="u" horiz-adv-x="604" 
d="M524 510v-510h-94v73h-2q-25 -37 -67 -59q-43 -22 -97 -22q-96 0 -144 56q-47 55 -47 159v303h94v-264q0 -106 32 -144q28 -34 83 -34q60 0 100 44q48 53 48 162v236h94z" />
    <glyph glyph-name="v" unicode="v" horiz-adv-x="500" 
d="M489 510l-183 -510h-112l-183 510h103l138 -416h2l141 416h94z" />
    <glyph glyph-name="w" unicode="w" horiz-adv-x="833" 
d="M821 510l-164 -510h-109l-132 428h-2l-129 -428h-109l-164 510h103l117 -422h2l130 422h111l128 -422h2l124 422h92z" />
    <glyph glyph-name="x" unicode="x" horiz-adv-x="500" 
d="M10 0l184 267l-166 243h117l111 -182l113 182h105l-164 -243l180 -267h-116l-126 200l-126 -200h-112z" />
    <glyph glyph-name="y" unicode="y" horiz-adv-x="488" 
d="M36 -217l6 77q21 -8 41 -8q41 0 68 29q28 29 41 77l6 22l-12 38l-179 492h103l140 -419h2l137 419h95l-191 -529q-38 -104 -67 -142q-49 -63 -131 -63q-28 0 -54 6z" />
    <glyph glyph-name="z" unicode="z" horiz-adv-x="500" 
d="M43 0v82l294 352h-280v76h389v-82l-294 -352h305v-76h-414z" />
    <glyph glyph-name="braceleft" unicode="{" horiz-adv-x="317" 
d="M209 610v-181q0 -60 -38 -94q-22 -21 -52 -26q30 -5 52 -26q38 -34 38 -94v-181q0 -42 17 -60q15 -16 41 -16q11 0 23 3l8 -69q-20 -4 -45 -4q-60 0 -93 31q-37 35 -37 108v174q0 91 -86 100v68q86 9 86 100v174q0 73 37 108q33 31 93 31q25 0 45 -4l-8 -69q-12 3 -23 3
q-26 0 -41 -16q-17 -18 -17 -60z" />
    <glyph glyph-name="bar" unicode="|" horiz-adv-x="222" 
d="M67 -12v762h88v-762h-88z" />
    <glyph glyph-name="braceright" unicode="}" horiz-adv-x="317" 
d="M108 429v181q0 42 -17 60q-15 16 -41 16q-11 0 -23 -3l-8 69q20 4 45 4q60 0 93 -31q37 -35 37 -108v-174q0 -91 86 -100v-68q-86 -9 -86 -100v-174q0 -73 -37 -108q-33 -31 -93 -31q-25 0 -45 4l8 69q12 -3 23 -3q26 0 41 16q17 18 17 60v181q0 60 38 94q22 21 52 26
q-30 5 -52 26q-38 34 -38 94z" />
    <glyph glyph-name="asciitilde" unicode="~" horiz-adv-x="600" 
d="M495 333l36 -70q-40 -85 -125 -85q-39 0 -111 31l-25 11q-58 26 -77 26q-47 0 -88 -73l-36 70q40 85 125 85q39 0 111 -31l25 -11q58 -26 77 -26q47 0 88 73z" />
    <glyph glyph-name="uni00A0" unicode="&#xa0;" horiz-adv-x="233" 
 />
    <glyph glyph-name="exclamdown" unicode="&#xa1;" horiz-adv-x="389" 
d="M251 0h-112l16 504h80zM139 700h112v-112h-112v112z" />
    <glyph glyph-name="cent" unicode="&#xa2;" 
d="M463 502l-8 -78q-50 22 -102 22q-62 0 -105 -40q-59 -54 -59 -151q0 -80 39 -131q46 -60 131 -60q57 0 101 29l7 -84q-47 -20 -98 -21v-94h-58v97q-93 13 -154 80q-68 75 -68 188q0 128 88 203q55 47 134 58v98h58v-97q51 -3 94 -19z" />
    <glyph glyph-name="sterling" unicode="&#xa3;" 
d="M59 0v88h91v260h-79v58h79v58q0 141 92 206q58 42 150 42q72 0 118 -19l-8 -93q-56 24 -100 24q-55 0 -89 -22q-63 -42 -63 -145v-51h161v-58h-161v-260h247v-88h-438z" />
    <glyph glyph-name="currency" unicode="&#xa4;" 
d="M24 146l56 57q-50 60 -50 146q0 90 50 148l-56 54l51 52l55 -55q66 49 148 49q84 0 150 -49l54 55l50 -52l-54 -54q48 -61 48 -148q0 -85 -48 -146l54 -57l-50 -51l-54 57q-60 -51 -150 -51q-88 0 -148 51l-55 -57zM118 349q0 -69 47 -117.5t113 -48.5q68 0 114 49
t46 117q0 67 -46 116.5t-114 49.5q-66 0 -113 -49t-47 -117z" />
    <glyph glyph-name="yen" unicode="&#xa5;" 
d="M229 0v162h-141v58h141v72l-8 16h-133v58h101l-183 332h111l164 -313l158 313h111l-181 -332h101v-58h-133l-8 -16v-72h141v-58h-141v-162h-100z" />
    <glyph glyph-name="brokenbar" unicode="&#xa6;" horiz-adv-x="222" 
d="M67 -12v277h88v-277h-88zM67 473v277h88v-277h-88z" />
    <glyph glyph-name="section" unicode="&#xa7;" 
d="M89 -94l9 91q69 -35 165 -35q46 0 80 22q39 25 39 69q0 31 -33 51q-10 6 -85 34l-62 24q-62 25 -90 62t-28 83q0 47 26 84q18 25 47 39q-26 14 -44 39q-25 33 -25 80q0 80 73 125q58 36 143 36q69 0 138 -19l-9 -91q-66 28 -122 28q-50 0 -83 -14q-46 -19 -46 -63
q0 -23 17 -42q20 -22 110 -53l31 -11q76 -27 109 -64q34 -38 34 -93q0 -71 -71 -119q64 -43 64 -113q0 -80 -63 -127q-65 -48 -163 -48q-90 0 -161 25zM314 217l45 -16q36 33 36 74q0 26 -16 47q-15 23 -52 36l-41 15q-58 21 -77 31q-37 -27 -37 -69q0 -35 22 -59
q4 -5 10 -9.5t11 -8t14 -8l14 -7t16.5 -7t16.5 -6t19 -6.5t19 -7z" />
    <glyph glyph-name="dieresis" unicode="&#xa8;" horiz-adv-x="278" 
d="M10 620v100h94v-100h-94zM174 620v100h94v-100h-94z" />
    <glyph glyph-name="copyright" unicode="&#xa9;" horiz-adv-x="879" 
d="M80 350q0 149 105.5 254.5t254.5 105.5t254 -105.5t105 -254.5q0 -147 -105.5 -253.5t-253.5 -106.5q-149 0 -254.5 106t-105.5 254zM145 350q0 -122 86.5 -208t208.5 -86t208 86t86 208t-86 208.5t-208 86.5q-121 0 -208 -86.5t-87 -208.5zM542 535l-3 -60
q-35 15 -88 15q-55 0 -86 -38.5t-31 -97.5q0 -66 34.5 -103t84.5 -37q45 0 87 17l5 -61q-45 -18 -98 -18q-97 0 -145.5 60.5t-48.5 141.5q0 86 52.5 141t135.5 55q56 0 101 -15z" />
    <glyph glyph-name="ordfeminine" unicode="&#xaa;" horiz-adv-x="360" 
d="M66 626l-3 63q61 21 124 21q67 0 104 -25q26 -18 34.5 -42t8.5 -60v-128l3 -59h-84v38h-2q-12 -22 -38 -34q-27 -12 -60 -12q-60 0 -90 21q-40 28 -40 75q0 58 56 84q38 18 136 18q20 0 37 -1v8q0 28 -20 44q-19 16 -58 16q-53 0 -108 -27zM252 506v28q-17 1 -52 1
q-55 0 -75 -14t-20 -40q0 -15 16 -26q14 -9 43 -9q45 0 67 17q21 15 21 43z" />
    <glyph glyph-name="guillemotleft" unicode="&#xab;" 
d="M194 67l-143 202l143 202h88l-130 -202l130 -202h-88zM396 67l-143 202l143 202h88l-130 -202l130 -202h-88z" />
    <glyph glyph-name="logicalnot" unicode="&#xac;" horiz-adv-x="600" 
d="M47 314v88h506v-298h-88v210h-418z" />
    <glyph glyph-name="uni00AD" unicode="&#xad;" horiz-adv-x="420" 
d="M80 334h260v-100h-260v100z" />
    <glyph glyph-name="registered" unicode="&#xae;" horiz-adv-x="879" 
d="M80 350q0 149 105.5 254.5t254.5 105.5t254 -105.5t105 -254.5q0 -147 -105.5 -253.5t-253.5 -106.5q-149 0 -254.5 106t-105.5 254zM145 350q0 -122 86.5 -208t208.5 -86t208 86t86 208t-86 208.5t-208 86.5q-121 0 -208 -86.5t-87 -208.5zM307 547h141q55 0 89 -24
q39 -28 39 -84q0 -36 -26 -61q-24 -22 -55 -28v-2q31 -9 43 -40l66 -157h-78l-59 138q-13 31 -50 31h-37v-169h-73v396zM380 489v-109h45q38 0 57 16t19 39q0 28 -19 42q-15 12 -51 12h-51z" />
    <glyph glyph-name="macron" unicode="&#xaf;" horiz-adv-x="278" 
d="M-9 652v70h296v-70h-296z" />
    <glyph glyph-name="degree" unicode="&#xb0;" horiz-adv-x="400" 
d="M57 567q0 59 42 101t101 42t101 -42t42 -101t-42 -101t-101 -42t-101 42t-42 101zM121 567q0 -32 23.5 -55.5t55.5 -23.5t55.5 23.5t23.5 55.5t-23.5 55.5t-55.5 23.5t-55.5 -23.5t-23.5 -55.5z" />
    <glyph glyph-name="plusminus" unicode="&#xb1;" horiz-adv-x="600" 
d="M47 271v88h209v147h88v-147h209v-88h-209v-147h-88v147h-209zM47 0v88h506v-88h-506z" />
    <glyph glyph-name="twosuperior" unicode="&#xb2;" horiz-adv-x="361" 
d="M31 282v76q3 3 28.5 23t43.5 35t45 40t44 45t30 43t13 41q0 27 -25 41t-55 14q-56 0 -104 -29l-6 74q59 25 125 25q64 0 108.5 -30t44.5 -91q0 -55 -72.5 -133t-119.5 -102v-2h199v-70h-299z" />
    <glyph glyph-name="threesuperior" unicode="&#xb3;" horiz-adv-x="361" 
d="M93 466v70h46q34 0 66.5 15t32.5 42q0 25 -28 36t-61 11q-46 0 -97 -22l-4 72q55 20 123 20q65 0 110 -28.5t45 -84.5q0 -39 -29.5 -63t-70.5 -32v-2q47 -6 75.5 -33t28.5 -72q0 -119 -185 -119q-55 0 -113 16l10 76q8 -8 36.5 -15t57.5 -7q23 0 44.5 4t41.5 16.5
t20 32.5q0 32 -31.5 49.5t-68.5 17.5h-49z" />
    <glyph glyph-name="acute" unicode="&#xb4;" horiz-adv-x="278" 
d="M73 610l78 130h120l-118 -130h-80z" />
    <glyph glyph-name="mu" unicode="&#xb5;" horiz-adv-x="611" 
d="M531 510v-510h-91v81h-2q-24 -43 -63 -67q-43 -26 -104 -26q-34 0 -61 11q-20 8 -36 24v-247h-94v734h94v-264q0 -35 0.5 -51t6 -42t17.5 -44q28 -45 84 -45q79 0 119 60q36 54 36 150v236h94z" />
    <glyph glyph-name="paragraph" unicode="&#xb6;" horiz-adv-x="600" 
d="M236 -112v445q-93 -5 -154.5 47t-61.5 132q0 52 20.5 90t47 56.5t64.5 28.5t59 11.5t45 1.5h271v-812h-88v740h-115v-740h-88z" />
    <glyph glyph-name="periodcentered" unicode="&#xb7;" horiz-adv-x="278" 
d="M83 247v112h112v-112h-112z" />
    <glyph glyph-name="cedilla" unicode="&#xb8;" horiz-adv-x="285" 
d="M100 9h57l-5 -40q36 -1 59 -24q24 -24 24 -67q0 -39 -31 -68q-28 -25 -81 -25q-37 0 -73 25l25 46q22 -17 45 -17q22 0 34 12t12 27q0 22 -12 32q-12 12 -37 12q-19 0 -29 -2z" />
    <glyph glyph-name="onesuperior" unicode="&#xb9;" horiz-adv-x="361" 
d="M154 282v346l-70 -55l-34 46l111 85h81v-422h-88z" />
    <glyph glyph-name="ordmasculine" unicode="&#xba;" horiz-adv-x="397" 
d="M198 388q-74 0 -123 45t-49 116q0 63 43.5 112t128.5 49q77 0 124.5 -45t47.5 -116q0 -70 -48.5 -115.5t-123.5 -45.5zM108 549q0 -47 22.5 -75t67.5 -28q90 0 90 103q0 53 -26 78t-64 25q-37 0 -63.5 -25.5t-26.5 -77.5z" />
    <glyph glyph-name="guillemotright" unicode="&#xbb;" 
d="M160 471l143 -202l-143 -202h-88l130 202l-130 202h88zM362 471l143 -202l-143 -202h-88l130 202l-130 202h88z" />
    <glyph glyph-name="onequarter" unicode="&#xbc;" horiz-adv-x="834" 
d="M143 -22l433 742h72l-433 -742h-72zM137 278v346l-70 -55l-34 46l111 85h81v-422h-88zM661 153v199h-2l-128 -199h130zM661 0v83h-212v61l184 278h116v-269h52v-70h-52v-83h-88z" />
    <glyph glyph-name="onehalf" unicode="&#xbd;" horiz-adv-x="834" 
d="M112 -22l433 742h72l-433 -742h-72zM137 279v346l-70 -55l-34 46l111 84h81v-421h-88zM502 0v76q3 3 28.5 23t43.5 35t45 40t44 45t30 43t13 41q0 27 -25 41t-55 14q-56 0 -104 -29l-6 74q59 25 125 25q64 0 108.5 -30t44.5 -91q0 -55 -72.5 -133t-119.5 -102v-2h199v-70
h-299z" />
    <glyph glyph-name="threequarters" unicode="&#xbe;" horiz-adv-x="834" 
d="M186 -22l433 742h72l-433 -742h-72zM93 466v70h46q34 0 66.5 15t32.5 42q0 25 -28 36t-61 11q-46 0 -97 -22l-4 72q55 20 123 20q65 0 110 -28.5t45 -84.5q0 -39 -29.5 -63t-70.5 -32v-2q47 -6 75.5 -33t28.5 -72q0 -119 -185 -119q-55 0 -113 16l10 76q8 -8 36.5 -15
t57.5 -7q23 0 44.5 4t41.5 16.5t20 32.5q0 32 -31.5 49.5t-68.5 17.5h-49zM661 153v199h-2l-128 -199h130zM661 0v83h-212v61l184 278h116v-269h52v-70h-52v-83h-88z" />
    <glyph glyph-name="questiondown" unicode="&#xbf;" horiz-adv-x="500" 
d="M296 506v-21q0 -46 -14 -77q-14 -32 -48 -71l-11 -13q-26 -31 -36.5 -44t-23.5 -42t-13 -57q0 -51 36 -82q32 -27 85 -27q79 0 148 43l7 -92q-75 -33 -166 -33q-92 0 -146 41q-31 23 -50.5 61t-19.5 82q0 33 13.5 65t25 47t39.5 48l25 30q33 40 47 76q8 19 8 48v18h94z
M305 700v-112h-112v112h112z" />
    <glyph glyph-name="Agrave" unicode="&#xc0;" horiz-adv-x="722" 
d="M12 0l298 700h105l295 -700h-109l-71 177h-342l-71 -177h-105zM498 259l-139 347l-139 -347h278zM245 870h130l80 -120h-96z" />
    <glyph glyph-name="Aacute" unicode="&#xc1;" horiz-adv-x="722" 
d="M12 0l298 700h105l295 -700h-109l-71 177h-342l-71 -177h-105zM498 259l-139 347l-139 -347h278zM340 870h130l-114 -120h-96z" />
    <glyph glyph-name="Acircumflex" unicode="&#xc2;" horiz-adv-x="722" 
d="M12 0l298 700h105l295 -700h-109l-71 177h-342l-71 -177h-105zM498 259l-139 347l-139 -347h278zM306 870h110l104 -120h-90l-69 70l-69 -70h-90z" />
    <glyph glyph-name="Atilde" unicode="&#xc3;" horiz-adv-x="722" 
d="M12 0l298 700h105l295 -700h-109l-71 177h-342l-71 -177h-105zM498 259l-139 347l-139 -347h278zM237 748h-46q3 41 24 73q26 39 72 39q23 0 53 -13l29 -12q52 -21 70 -21q25 0 36 18q7 12 10 28h46q-6 -42 -19 -66q-24 -46 -76 -46q-22 0 -54 13l-29 12q-52 21 -70 21
q-22 0 -34 -15q-8 -11 -12 -31z" />
    <glyph glyph-name="Adieresis" unicode="&#xc4;" horiz-adv-x="722" 
d="M12 0l298 700h105l295 -700h-109l-71 177h-342l-71 -177h-105zM498 259l-139 347l-139 -347h278zM199 852h106v-100h-106v100zM415 852h106v-100h-106v100z" />
    <glyph glyph-name="Aring" unicode="&#xc5;" horiz-adv-x="722" 
d="M12 0l298 700h105l295 -700h-109l-71 177h-342l-71 -177h-105zM498 259l-139 347l-139 -347h278zM260 827q0 41 30 71t71 30t71 -30t30 -71t-30 -71t-71 -30t-71 30t-30 71zM306 827q0 -24 15.5 -39.5t39.5 -15.5t39.5 15.5t15.5 39.5t-15.5 39.5t-39.5 15.5t-39.5 -15.5
t-15.5 -39.5z" />
    <glyph glyph-name="AE" unicode="&#xc6;" horiz-adv-x="944" 
d="M2 0l422 700h439v-88h-277l13 -206h246v-88h-241l14 -230h255v-88h-347l-11 176h-297l-105 -176h-111zM510 258l-22 370h-2l-220 -370h244z" />
    <glyph glyph-name="Ccedilla" unicode="&#xc7;" horiz-adv-x="625" 
d="M579 680l-8 -97q-66 39 -144 39q-100 0 -171 -56q-97 -76 -97 -216q0 -111 66 -186q74 -86 212 -86q67 0 137 33l6 -96q-68 -25 -143 -25l-3 -23q37 0 62 -25q26 -26 26 -70q0 -41 -33 -71q-30 -27 -85 -27q-39 0 -77 27l27 48q22 -18 47 -18q21 0 36 13q12 12 12 28
q0 24 -12 34q-12 12 -39 12q-21 0 -31 -2l11 77q-140 9 -229 100q-96 100 -96 258q0 181 130 282q100 77 244 77q88 0 152 -30z" />
    <glyph glyph-name="Egrave" unicode="&#xc8;" horiz-adv-x="554" 
d="M94 0v700h391v-88h-291v-205h265v-88h-265v-231h291v-88h-391zM170 870h130l80 -120h-96z" />
    <glyph glyph-name="Eacute" unicode="&#xc9;" horiz-adv-x="554" 
d="M94 0v700h391v-88h-291v-205h265v-88h-265v-231h291v-88h-391zM320 870h130l-114 -120h-96z" />
    <glyph glyph-name="Ecircumflex" unicode="&#xca;" horiz-adv-x="554" 
d="M94 0v700h391v-88h-291v-205h265v-88h-265v-231h291v-88h-391zM234 870h110l104 -120h-90l-69 70l-69 -70h-90z" />
    <glyph glyph-name="Edieresis" unicode="&#xcb;" horiz-adv-x="554" 
d="M94 0v700h391v-88h-291v-205h265v-88h-265v-231h291v-88h-391zM130 852h106v-100h-106v100zM346 852h106v-100h-106v100z" />
    <glyph glyph-name="Igrave" unicode="&#xcc;" horiz-adv-x="288" 
d="M94 0v700h100v-700h-100zM28 870h130l80 -120h-96z" />
    <glyph glyph-name="Iacute" unicode="&#xcd;" horiz-adv-x="288" 
d="M94 0v700h100v-700h-100zM123 870h130l-114 -120h-96z" />
    <glyph glyph-name="Icircumflex" unicode="&#xce;" horiz-adv-x="288" 
d="M94 0v700h100v-700h-100zM89 870h110l104 -120h-90l-69 70l-69 -70h-90z" />
    <glyph glyph-name="Idieresis" unicode="&#xcf;" horiz-adv-x="288" 
d="M94 0v700h100v-700h-100zM-18 852h106v-100h-106v100zM198 852h106v-100h-106v100z" />
    <glyph glyph-name="Eth" unicode="&#xd0;" horiz-adv-x="723" 
d="M183 612v-205h183v-64h-183v-255h105q268 0 268 264q0 113 -71.5 186.5t-186.5 73.5h-115zM83 0v343h-68v64h68v293h206q160 0 266.5 -93t106.5 -251q0 -174 -98.5 -265t-274.5 -91h-206z" />
    <glyph glyph-name="Ntilde" unicode="&#xd1;" horiz-adv-x="722" 
d="M88 0v700h136l308 -564h2v564h100v-700h-128l-316 576h-2v-576h-100zM246 748h-46q3 41 24 73q26 39 72 39q23 0 53 -13l29 -12q53 -21 70 -21q25 0 36 18q7 12 10 28h46q-6 -42 -19 -66q-24 -46 -76 -46q-21 0 -54 13l-29 12q-53 21 -70 21q-22 0 -34 -15
q-8 -11 -12 -31z" />
    <glyph glyph-name="Ograve" unicode="&#xd2;" horiz-adv-x="778" 
d="M389 710q158 0 250 -106q86 -98 86 -254q0 -157 -86 -255q-91 -105 -250 -105t-250 105q-86 98 -86 255q0 156 86 254q92 106 250 106zM389 622q-109 0 -171 -80q-59 -75 -59 -192t59 -192q62 -80 171 -80t171 80q59 75 59 192t-59 192q-62 80 -171 80zM273 870h130
l80 -120h-96z" />
    <glyph glyph-name="Oacute" unicode="&#xd3;" horiz-adv-x="778" 
d="M389 710q158 0 250 -106q86 -98 86 -254q0 -157 -86 -255q-91 -105 -250 -105t-250 105q-86 98 -86 255q0 156 86 254q92 106 250 106zM389 622q-109 0 -171 -80q-59 -75 -59 -192t59 -192q62 -80 171 -80t171 80q59 75 59 192t-59 192q-62 80 -171 80zM368 870h130
l-114 -120h-96z" />
    <glyph glyph-name="Ocircumflex" unicode="&#xd4;" horiz-adv-x="778" 
d="M389 710q158 0 250 -106q86 -98 86 -254q0 -157 -86 -255q-91 -105 -250 -105t-250 105q-86 98 -86 255q0 156 86 254q92 106 250 106zM389 622q-109 0 -171 -80q-59 -75 -59 -192t59 -192q62 -80 171 -80t171 80q59 75 59 192t-59 192q-62 80 -171 80zM334 870h110
l104 -120h-90l-69 70l-69 -70h-90z" />
    <glyph glyph-name="Otilde" unicode="&#xd5;" horiz-adv-x="778" 
d="M389 710q158 0 250 -106q86 -98 86 -254q0 -157 -86 -255q-91 -105 -250 -105t-250 105q-86 98 -86 255q0 156 86 254q92 106 250 106zM389 622q-109 0 -171 -80q-59 -75 -59 -192t59 -192q62 -80 171 -80t171 80q59 75 59 192t-59 192q-62 80 -171 80zM265 748h-46
q3 41 24 73q26 39 72 39q23 0 53 -13l29 -12q52 -21 70 -21q25 0 36 18q7 12 10 28h46q-6 -42 -19 -66q-24 -46 -76 -46q-22 0 -54 13l-29 12q-52 21 -70 21q-22 0 -34 -15q-8 -11 -12 -31z" />
    <glyph glyph-name="Odieresis" unicode="&#xd6;" horiz-adv-x="778" 
d="M389 710q158 0 250 -106q86 -98 86 -254q0 -157 -86 -255q-91 -105 -250 -105t-250 105q-86 98 -86 255q0 156 86 254q92 106 250 106zM389 622q-109 0 -171 -80q-59 -75 -59 -192t59 -192q62 -80 171 -80t171 80q59 75 59 192t-59 192q-62 80 -171 80zM227 852h106v-100
h-106v100zM443 852h106v-100h-106v100z" />
    <glyph glyph-name="multiply" unicode="&#xd7;" horiz-adv-x="600" 
d="M238 253l-170 170l62 62l170 -171l170 171l62 -62l-171 -170l171 -170l-62 -62l-170 171l-170 -171l-62 62z" />
    <glyph glyph-name="Oslash" unicode="&#xd8;" horiz-adv-x="726" 
d="M162 162l318 412q-60 51 -143 50q-74 0 -127.5 -39t-78 -100t-24.5 -134q0 -115 55 -189zM42 7l57 74q-98 98 -98 270q0 159 90 260t246 101q116 0 202 -62l53 69l36 -28l-54 -71q99 -101 99 -269q0 -162 -89.5 -261.5t-246.5 -99.5q-121 0 -203 61l-54 -70zM511 539
l-317 -411q56 -50 143 -50q113 0 171.5 79.5t58.5 193.5q0 112 -56 188z" />
    <glyph glyph-name="Ugrave" unicode="&#xd9;" horiz-adv-x="722" 
d="M632 700v-410q0 -146 -73 -225q-69 -75 -198 -75t-198 75q-73 79 -73 225v410h100v-397q0 -110 37 -163q44 -62 134 -62t134 62q37 53 37 163v397h100zM230 870h130l80 -120h-96z" />
    <glyph glyph-name="Uacute" unicode="&#xda;" horiz-adv-x="722" 
d="M632 700v-410q0 -146 -73 -225q-69 -75 -198 -75t-198 75q-73 79 -73 225v410h100v-397q0 -110 37 -163q44 -62 134 -62t134 62q37 53 37 163v397h100zM380 870h130l-114 -120h-96z" />
    <glyph glyph-name="Ucircumflex" unicode="&#xdb;" horiz-adv-x="722" 
d="M632 700v-410q0 -146 -73 -225q-69 -75 -198 -75t-198 75q-73 79 -73 225v410h100v-397q0 -110 37 -163q44 -62 134 -62t134 62q37 53 37 163v397h100zM306 870h110l104 -120h-90l-69 70l-69 -70h-90z" />
    <glyph glyph-name="Udieresis" unicode="&#xdc;" horiz-adv-x="722" 
d="M632 700v-410q0 -146 -73 -225q-69 -75 -198 -75t-198 75q-73 79 -73 225v410h100v-397q0 -110 37 -163q44 -62 134 -62t134 62q37 53 37 163v397h100zM199 852h106v-100h-106v100zM415 852h106v-100h-106v100z" />
    <glyph glyph-name="Yacute" unicode="&#xdd;" horiz-adv-x="667" 
d="M284 0v293l-273 407h117l208 -314l203 314h117l-272 -407v-293h-100zM312 870h130l-114 -120h-96z" />
    <glyph glyph-name="Thorn" unicode="&#xde;" 
d="M83 0v700h100v-104h83q56 0 101.5 -10.5t82.5 -34t57.5 -65t20.5 -99.5q0 -108 -70.5 -159t-176.5 -51h-98v-177h-100zM183 508v-243h99q55 0 97.5 30t42.5 93q0 41 -26.5 69.5t-59.5 39.5t-68 11h-85z" />
    <glyph glyph-name="germandbls" unicode="&#xdf;" horiz-adv-x="611" 
d="M174 0h-94v474q0 142 57.5 215t187.5 73q79 0 141 -52t62 -144q0 -127 -117 -163v-2q68 -8 108.5 -61.5t40.5 -122.5q0 -96 -59.5 -159.5t-161.5 -63.5q-49 0 -97 14v79q39 -17 79 -17q60 0 99.5 38t39.5 105q0 81 -48.5 112.5t-139.5 31.5v76q76 0 116 29t40 101
q0 51 -30 87t-82 36q-40 0 -69.5 -17.5t-44.5 -47.5t-21.5 -62.5t-6.5 -69.5v-489z" />
    <glyph glyph-name="agrave" unicode="&#xe0;" 
d="M109 392l-6 82q73 44 176 44q100 0 150 -50q30 -30 39 -67.5t9 -90.5v-207q0 -78 4 -103h-88v69h-2q-57 -77 -167 -77q-73 0 -122 36q-56 41 -56 116q0 91 80 136q58 34 193 34q30 0 64 -2v28q0 49 -30 75q-31 27 -93 27q-81 0 -151 -50zM383 199v44q-36 2 -54 2
q-105 0 -146 -28q-37 -25 -37 -68q0 -38 27 -59q28 -22 73 -22q65 0 103 40q34 36 34 91zM266 740l78 -130h-80l-118 130h120z" />
    <glyph glyph-name="aacute" unicode="&#xe1;" 
d="M109 392l-6 82q73 44 176 44q100 0 150 -50q30 -30 39 -67.5t9 -90.5v-207q0 -78 4 -103h-88v69h-2q-57 -77 -167 -77q-73 0 -122 36q-56 41 -56 116q0 91 80 136q58 34 193 34q30 0 64 -2v28q0 49 -30 75q-31 27 -93 27q-81 0 -151 -50zM383 199v44q-36 2 -54 2
q-105 0 -146 -28q-37 -25 -37 -68q0 -38 27 -59q28 -22 73 -22q65 0 103 40q34 36 34 91zM212 610l78 130h120l-118 -130h-80z" />
    <glyph glyph-name="acircumflex" unicode="&#xe2;" 
d="M109 392l-6 82q73 44 176 44q100 0 150 -50q30 -30 39 -67.5t9 -90.5v-207q0 -78 4 -103h-88v69h-2q-57 -77 -167 -77q-73 0 -122 36q-56 41 -56 116q0 91 80 136q58 34 193 34q30 0 64 -2v28q0 49 -30 75q-31 27 -93 27q-81 0 -151 -50zM383 199v44q-36 2 -54 2
q-105 0 -146 -28q-37 -25 -37 -68q0 -38 27 -59q28 -22 73 -22q65 0 103 40q34 36 34 91zM133 610l100 130h90l100 -130h-76l-69 84l-69 -84h-76z" />
    <glyph glyph-name="atilde" unicode="&#xe3;" 
d="M109 392l-6 82q73 44 176 44q100 0 150 -50q30 -30 39 -67.5t9 -90.5v-207q0 -78 4 -103h-88v69h-2q-57 -77 -167 -77q-73 0 -122 36q-56 41 -56 116q0 91 80 136q58 34 193 34q30 0 64 -2v28q0 49 -30 75q-31 27 -93 27q-81 0 -151 -50zM383 199v44q-36 2 -54 2
q-105 0 -146 -28q-37 -25 -37 -68q0 -38 27 -59q28 -22 73 -22q65 0 103 40q34 36 34 91zM159 586h-43q3 42 22 73q24 39 69 39q17 0 50 -13l28 -12q3 -1 13 -6t17 -7.5t17 -5t19 -2.5q24 0 34 18q7 13 10 28h44q-6 -39 -19 -66q-24 -46 -72 -46q-21 0 -51 13l-28 12
q-3 1 -13 6t-17 7.5t-17 5t-19 2.5q-22 0 -32 -15q-9 -13 -12 -31z" />
    <glyph glyph-name="adieresis" unicode="&#xe4;" 
d="M109 392l-6 82q73 44 176 44q100 0 150 -50q30 -30 39 -67.5t9 -90.5v-207q0 -78 4 -103h-88v69h-2q-57 -77 -167 -77q-73 0 -122 36q-56 41 -56 116q0 91 80 136q58 34 193 34q30 0 64 -2v28q0 49 -30 75q-31 27 -93 27q-81 0 -151 -50zM383 199v44q-36 2 -54 2
q-105 0 -146 -28q-37 -25 -37 -68q0 -38 27 -59q28 -22 73 -22q65 0 103 40q34 36 34 91zM149 620v100h94v-100h-94zM313 620v100h94v-100h-94z" />
    <glyph glyph-name="aring" unicode="&#xe5;" 
d="M109 392l-6 82q73 44 176 44q100 0 150 -50q30 -30 39 -67.5t9 -90.5v-207q0 -78 4 -103h-88v69h-2q-57 -77 -167 -77q-73 0 -122 36q-56 41 -56 116q0 91 80 136q58 34 193 34q30 0 64 -2v28q0 49 -30 75q-31 27 -93 27q-81 0 -151 -50zM383 199v44q-36 2 -54 2
q-105 0 -146 -28q-37 -25 -37 -68q0 -38 27 -59q28 -22 73 -22q65 0 103 40q34 36 34 91zM176 678q0 42 30 72t72 30t72 -30t30 -72t-30 -72t-72 -30t-72 30t-30 72zM216 678q0 -26 18 -44t44 -18t44 18t18 44t-18 44t-44 18t-44 -18t-18 -44z" />
    <glyph glyph-name="ae" unicode="&#xe6;" horiz-adv-x="889" 
d="M107 392l-5 78q78 48 169 48q55 0 103 -21.5t73 -66.5q50 88 177 88q62 0 107.5 -23t70 -64.5t35.5 -89.5t11 -107h-361q0 -70 47.5 -118.5t119.5 -48.5q74 0 141 52v-93q-75 -34 -146 -34q-47 0 -88.5 10t-78.5 37.5t-53 69.5h-2q-15 -56 -69 -86.5t-120 -30.5
q-77 0 -137 44t-60 117q0 40 17.5 70t43.5 47t61 27.5t64 13.5t60 3q30 0 64 -2.5t42 -2.5q0 69 -39.5 101.5t-104.5 32.5q-71 0 -142 -51zM141 150q0 -40 29.5 -61.5t70.5 -21.5q66 0 109 51.5t43 123.5q-4 0 -34 1.5t-56 1.5q-25 0 -48.5 -3.5t-51.5 -12.5t-45 -29
t-17 -50zM487 303h261q0 53 -35 96.5t-90 43.5q-60 0 -98 -40t-38 -100z" />
    <glyph glyph-name="ccedilla" unicode="&#xe7;" horiz-adv-x="444" 
d="M412 498l-8 -78q-50 22 -102 22q-60 0 -105 -39q-27 -24 -43 -64t-16 -84q0 -79 39 -128q48 -59 131 -59q57 0 101 29l7 -84q-40 -18 -100 -21l-3 -23q36 -1 59 -24q24 -24 24 -67q0 -39 -31 -68q-28 -25 -81 -25q-37 0 -73 25l25 46q22 -17 45 -17q22 0 34 12t12 27
q0 22 -12 32q-12 12 -37 12q-19 0 -29 -2l10 75q-91 13 -153 79q-68 73 -68 185q0 127 88 200q71 59 172 59q58 0 114 -20z" />
    <glyph glyph-name="egrave" unicode="&#xe8;" 
d="M510 234h-364q2 -68 43 -113q48 -53 128 -53q82 0 154 51v-94l-14 -5q-3 -1 -14.5 -5.5t-17.5 -6.5t-20 -5.5t-26 -5.5t-30.5 -3.5t-38.5 -1.5q-130 0 -198 73q-66 70 -66 192q0 133 79 203q64 58 160 58q111 0 169 -72q56 -69 56 -185v-27zM146 304h264q1 53 -29 92
q-37 46 -101 46t-102 -51q-27 -38 -32 -87zM287 740l78 -130h-80l-118 130h120z" />
    <glyph glyph-name="eacute" unicode="&#xe9;" 
d="M510 234h-364q2 -68 43 -113q48 -53 128 -53q82 0 154 51v-94l-14 -5q-3 -1 -14.5 -5.5t-17.5 -6.5t-20 -5.5t-26 -5.5t-30.5 -3.5t-38.5 -1.5q-130 0 -198 73q-66 70 -66 192q0 133 79 203q64 58 160 58q111 0 169 -72q56 -69 56 -185v-27zM146 304h264q1 53 -29 92
q-37 46 -101 46t-102 -51q-27 -38 -32 -87zM212 610l78 130h120l-118 -130h-80z" />
    <glyph glyph-name="ecircumflex" unicode="&#xea;" 
d="M510 234h-364q2 -68 43 -113q48 -53 128 -53q82 0 154 51v-94l-14 -5q-3 -1 -14.5 -5.5t-17.5 -6.5t-20 -5.5t-26 -5.5t-30.5 -3.5t-38.5 -1.5q-130 0 -198 73q-66 70 -66 192q0 133 79 203q64 58 160 58q111 0 169 -72q56 -69 56 -185v-27zM146 304h264q1 53 -29 92
q-37 46 -101 46t-102 -51q-27 -38 -32 -87zM133 610l100 130h90l100 -130h-76l-69 84l-69 -84h-76z" />
    <glyph glyph-name="edieresis" unicode="&#xeb;" 
d="M510 234h-364q2 -68 43 -113q48 -53 128 -53q82 0 154 51v-94l-14 -5q-3 -1 -14.5 -5.5t-17.5 -6.5t-20 -5.5t-26 -5.5t-30.5 -3.5t-38.5 -1.5q-130 0 -198 73q-66 70 -66 192q0 133 79 203q64 58 160 58q111 0 169 -72q56 -69 56 -185v-27zM146 304h264q1 53 -29 92
q-37 46 -101 46t-102 -51q-27 -38 -32 -87zM149 620v100h94v-100h-94zM313 620v100h94v-100h-94z" />
    <glyph glyph-name="igrave" unicode="&#xec;" horiz-adv-x="254" 
d="M80 0v510h94v-510h-94zM109 740l78 -130h-80l-118 130h120z" />
    <glyph glyph-name="iacute" unicode="&#xed;" horiz-adv-x="254" 
d="M80 0v510h94v-510h-94zM55 610l78 130h120l-118 -130h-80z" />
    <glyph glyph-name="icircumflex" unicode="&#xee;" horiz-adv-x="254" 
d="M80 0v510h94v-510h-94zM-24 610l100 130h90l100 -130h-76l-69 84l-69 -84h-76z" />
    <glyph glyph-name="idieresis" unicode="&#xef;" horiz-adv-x="254" 
d="M80 0v510h94v-510h-94zM-8 620v100h94v-100h-94zM156 620v100h94v-100h-94z" />
    <glyph glyph-name="eth" unicode="&#xf0;" horiz-adv-x="611" 
d="M146 255q0 -73 35 -123q22 -31 56 -48t71 -17q76 0 119 60q38 52 38 128q0 79 -45 134q-45 54 -114 54q-66 0 -109 -48q-51 -56 -51 -140zM108 587l110 58q-59 35 -125 57l72 53q87 -33 137 -65l122 65l46 -53l-104 -55q82 -60 132 -146q67 -114 67 -238q0 -113 -66 -188
q-74 -83 -193 -83q-123 0 -199 91q-61 74 -61 172q0 118 78 194q72 69 182 69q44 0 84 -21h2q-38 54 -109 106l-129 -68z" />
    <glyph glyph-name="ntilde" unicode="&#xf1;" horiz-adv-x="604" 
d="M80 0v510h94v-73h2q25 37 67 59q43 22 97 22q96 0 144 -56q47 -55 47 -159v-303h-94v264q0 106 -32 144q-28 34 -83 34q-60 0 -100 -44q-48 -53 -48 -162v-236h-94zM203 586h-43q3 42 22 73q24 39 69 39q17 0 50 -13l28 -12q3 -1 13 -6t17 -7.5t17 -5t19 -2.5q24 0 34 18
q7 13 10 28h44q-6 -39 -19 -66q-24 -46 -72 -46q-21 0 -51 13l-28 12q-3 1 -13 6t-17 7.5t-17 5t-19 2.5q-22 0 -32 -15q-9 -13 -12 -31z" />
    <glyph glyph-name="ograve" unicode="&#xf2;" horiz-adv-x="610" 
d="M305 518q121 0 193 -80q66 -73 66 -183t-66 -183q-72 -80 -193 -80t-193 80q-66 73 -66 183t66 183q72 80 193 80zM305 442q-72 0 -120 -60q-39 -51 -39 -127q0 -77 39 -127q45 -60 120 -60t120 60q39 50 39 127t-39 127q-45 60 -120 60zM293 740l78 -130h-80l-118 130
h120z" />
    <glyph glyph-name="oacute" unicode="&#xf3;" horiz-adv-x="610" 
d="M305 518q121 0 193 -80q66 -73 66 -183t-66 -183q-72 -80 -193 -80t-193 80q-66 73 -66 183t66 183q72 80 193 80zM305 442q-72 0 -120 -60q-39 -51 -39 -127q0 -77 39 -127q45 -60 120 -60t120 60q39 50 39 127t-39 127q-45 60 -120 60zM239 610l78 130h120l-118 -130
h-80z" />
    <glyph glyph-name="ocircumflex" unicode="&#xf4;" horiz-adv-x="610" 
d="M305 518q121 0 193 -80q66 -73 66 -183t-66 -183q-72 -80 -193 -80t-193 80q-66 73 -66 183t66 183q72 80 193 80zM305 442q-72 0 -120 -60q-39 -51 -39 -127q0 -77 39 -127q45 -60 120 -60t120 60q39 50 39 127t-39 127q-45 60 -120 60zM160 610l100 130h90l100 -130
h-76l-69 84l-69 -84h-76z" />
    <glyph glyph-name="otilde" unicode="&#xf5;" horiz-adv-x="610" 
d="M305 518q121 0 193 -80q66 -73 66 -183t-66 -183q-72 -80 -193 -80t-193 80q-66 73 -66 183t66 183q72 80 193 80zM305 442q-72 0 -120 -60q-39 -51 -39 -127q0 -77 39 -127q45 -60 120 -60t120 60q39 50 39 127t-39 127q-45 60 -120 60zM186 586h-43q3 42 22 73
q24 39 69 39q18 0 50 -13l28 -12q3 -1 13 -6t17 -7.5t17 -5t19 -2.5q24 0 34 18q7 13 10 28h44q-6 -39 -19 -66q-24 -46 -72 -46q-21 0 -51 13l-28 12q-3 1 -13 6t-17 7.5t-17 5t-19 2.5q-22 0 -32 -15q-9 -13 -12 -31z" />
    <glyph glyph-name="odieresis" unicode="&#xf6;" horiz-adv-x="610" 
d="M305 518q121 0 193 -80q66 -73 66 -183t-66 -183q-72 -80 -193 -80t-193 80q-66 73 -66 183t66 183q72 80 193 80zM305 442q-72 0 -120 -60q-39 -51 -39 -127q0 -77 39 -127q45 -60 120 -60t120 60q39 50 39 127t-39 127q-45 60 -120 60zM176 620v100h94v-100h-94z
M340 620v100h94v-100h-94z" />
    <glyph glyph-name="divide" unicode="&#xf7;" horiz-adv-x="600" 
d="M47 209v88h506v-88h-506zM224 441q0 31 23 54t54 23q29 0 52.5 -23t23.5 -54q0 -29 -23 -52.5t-52 -23.5q-32 0 -55 23t-23 53zM224 65q0 31 23 53.5t54 22.5q30 0 53 -23t23 -53q0 -29 -23 -53t-52 -24q-31 0 -54.5 23.5t-23.5 53.5z" />
    <glyph glyph-name="oslash" unicode="&#xf8;" horiz-adv-x="611" 
d="M179 137l224 269q-39 37 -97 37q-73 0 -116.5 -56t-43.5 -132q0 -69 33 -118zM429 376l-225 -271q41 -38 102 -38q77 0 118 56.5t41 131.5q0 69 -36 121zM64 -2l57 70q-75 75 -75 187q0 116 72 189.5t188 73.5q89 0 153 -45l53 64l30 -25l-53 -64q76 -73 76 -193
q0 -110 -73 -186.5t-186 -76.5q-88 0 -155 49l-57 -68z" />
    <glyph glyph-name="ugrave" unicode="&#xf9;" horiz-adv-x="604" 
d="M524 510v-510h-94v73h-2q-25 -37 -67 -59q-43 -22 -97 -22q-96 0 -144 56q-47 55 -47 159v303h94v-264q0 -106 32 -144q28 -34 83 -34q60 0 100 44q48 53 48 162v236h94zM290 740l78 -130h-80l-118 130h120z" />
    <glyph glyph-name="uacute" unicode="&#xfa;" horiz-adv-x="604" 
d="M524 510v-510h-94v73h-2q-25 -37 -67 -59q-43 -22 -97 -22q-96 0 -144 56q-47 55 -47 159v303h94v-264q0 -106 32 -144q28 -34 83 -34q60 0 100 44q48 53 48 162v236h94zM236 610l78 130h120l-118 -130h-80z" />
    <glyph glyph-name="ucircumflex" unicode="&#xfb;" horiz-adv-x="604" 
d="M524 510v-510h-94v73h-2q-25 -37 -67 -59q-43 -22 -97 -22q-96 0 -144 56q-47 55 -47 159v303h94v-264q0 -106 32 -144q28 -34 83 -34q60 0 100 44q48 53 48 162v236h94zM157 610l100 130h90l100 -130h-76l-69 84l-69 -84h-76z" />
    <glyph glyph-name="udieresis" unicode="&#xfc;" horiz-adv-x="604" 
d="M524 510v-510h-94v73h-2q-25 -37 -67 -59q-43 -22 -97 -22q-96 0 -144 56q-47 55 -47 159v303h94v-264q0 -106 32 -144q28 -34 83 -34q60 0 100 44q48 53 48 162v236h94zM173 620v100h94v-100h-94zM337 620v100h94v-100h-94z" />
    <glyph glyph-name="yacute" unicode="&#xfd;" horiz-adv-x="488" 
d="M36 -217l6 77q21 -8 41 -8q41 0 68 29q28 29 41 77l6 22l-12 38l-179 492h103l140 -419h2l137 419h95l-191 -529q-38 -104 -67 -142q-49 -63 -131 -63q-28 0 -54 6zM193 610l78 130h120l-118 -130h-80z" />
    <glyph glyph-name="thorn" unicode="&#xfe;" horiz-adv-x="611" 
d="M80 -203v946h94v-306h2q50 81 169 81q106 0 163 -73t57 -181q0 -114 -55.5 -193t-163.5 -79q-119 0 -170 81h-2v-276h-94zM465 257q2 76 -33.5 131t-106.5 55q-72 0 -111.5 -56t-39.5 -133q0 -72 38.5 -129.5t111.5 -57.5q69 0 106 60.5t35 129.5z" />
    <glyph glyph-name="ydieresis" unicode="&#xff;" horiz-adv-x="488" 
d="M36 -217l6 77q21 -8 41 -8q41 0 68 29q28 29 41 77l6 22l-12 38l-179 492h103l140 -419h2l137 419h95l-191 -529q-38 -104 -67 -142q-49 -63 -131 -63q-28 0 -54 6zM115 620v100h94v-100h-94zM279 620v100h94v-100h-94z" />
    <glyph glyph-name="Amacron" unicode="&#x100;" horiz-adv-x="722" 
d="M12 0l298 700h105l295 -700h-109l-71 177h-342l-71 -177h-105zM498 259l-139 347l-139 -347h278zM200 840h320v-70h-320v70z" />
    <glyph glyph-name="amacron" unicode="&#x101;" 
d="M109 392l-6 82q73 44 176 44q100 0 150 -50q30 -30 39 -67.5t9 -90.5v-207q0 -78 4 -103h-88v69h-2q-57 -77 -167 -77q-73 0 -122 36q-56 41 -56 116q0 91 80 136q58 34 193 34q30 0 64 -2v28q0 49 -30 75q-31 27 -93 27q-81 0 -151 -50zM383 199v44q-36 2 -54 2
q-105 0 -146 -28q-37 -25 -37 -68q0 -38 27 -59q28 -22 73 -22q65 0 103 40q34 36 34 91zM130 652v70h296v-70h-296z" />
    <glyph glyph-name="Abreve" unicode="&#x102;" horiz-adv-x="722" 
d="M12 0l298 700h105l295 -700h-109l-71 177h-342l-71 -177h-105zM498 259l-139 347l-139 -347h278zM193 870h70q19 -56 98 -56t98 56h70q-16 -62 -62 -94t-106 -32t-106 32t-62 94z" />
    <glyph glyph-name="abreve" unicode="&#x103;" 
d="M109 392l-6 82q73 44 176 44q100 0 150 -50q30 -30 39 -67.5t9 -90.5v-207q0 -78 4 -103h-88v69h-2q-57 -77 -167 -77q-73 0 -122 36q-56 41 -56 116q0 91 80 136q58 34 193 34q30 0 64 -2v28q0 49 -30 75q-31 27 -93 27q-81 0 -151 -50zM383 199v44q-36 2 -54 2
q-105 0 -146 -28q-37 -25 -37 -68q0 -38 27 -59q28 -22 73 -22q65 0 103 40q34 36 34 91zM124 740h60q15 -72 94 -72t94 72h60q-5 -65 -47.5 -103.5t-106.5 -38.5t-106.5 38.5t-47.5 103.5z" />
    <glyph glyph-name="Aogonek" unicode="&#x104;" horiz-adv-x="722" 
d="M12 0l298 700h105l295 -700q-52 -38 -73 -71q-19 -29 -19 -60q0 -28 16 -42q14 -13 35 -13q37 0 68 20l18 -43q-46 -32 -104 -32q-54 0 -83 24q-33 26 -33 76q0 41 27 77q33 42 79 64h-40l-71 177h-342l-71 -177h-105zM498 259l-139 347l-139 -347h278z" />
    <glyph glyph-name="aogonek" unicode="&#x105;" horiz-adv-x="525" 
d="M109 392l-6 82q73 44 176 44q100 0 150 -50q30 -30 39 -67.5t9 -90.5v-207q0 -78 4 -103q-52 -37 -71 -69q-18 -29 -18 -58q0 -27 15 -41q13 -13 34 -13q37 0 66 20l18 -42q-47 -31 -101 -31q-52 0 -81 23q-32 26 -32 66q0 50 26 83q32 41 77 62h-21v69h-2
q-57 -77 -167 -77q-73 0 -122 36q-56 41 -56 116q0 91 80 136q58 34 193 34q30 0 64 -2v28q0 49 -29 75q-31 28 -94 28q-81 0 -151 -51zM383 199v44q-36 2 -54 2q-105 0 -146 -28q-37 -25 -37 -68q0 -38 27 -59q28 -23 73 -23q64 0 103 41q34 36 34 91z" />
    <glyph glyph-name="Cacute" unicode="&#x106;" horiz-adv-x="625" 
d="M579 680l-8 -97q-66 39 -144 39q-100 0 -171 -56q-97 -76 -97 -216q0 -111 66 -186q74 -86 212 -86q67 0 137 33l6 -96q-66 -25 -146 -25q-184 0 -285 103q-96 100 -96 258q0 183 130 283q99 76 244 76q88 0 152 -30zM420 870h130l-114 -120h-96z" />
    <glyph glyph-name="cacute" unicode="&#x107;" horiz-adv-x="444" 
d="M412 498l-8 -78q-50 22 -102 22q-60 0 -105 -39q-27 -24 -43 -64t-16 -84q0 -79 39 -128q48 -59 131 -59q57 0 101 29l7 -84q-48 -21 -118 -21q-117 0 -192 82q-68 73 -68 185q0 127 88 200q71 59 172 59q58 0 114 -20zM193 610l78 130h120l-118 -130h-80z" />
    <glyph glyph-name="Ccircumflex" unicode="&#x108;" horiz-adv-x="625" 
d="M579 680l-8 -97q-66 39 -144 39q-100 0 -171 -56q-97 -76 -97 -216q0 -111 66 -186q74 -86 212 -86q67 0 137 33l6 -96q-66 -25 -146 -25q-184 0 -285 103q-96 100 -96 258q0 183 130 283q99 76 244 76q88 0 152 -30zM364 870h110l104 -120h-90l-69 70l-69 -70h-90z" />
    <glyph glyph-name="ccircumflex" unicode="&#x109;" horiz-adv-x="444" 
d="M412 498l-8 -78q-50 22 -102 22q-60 0 -105 -39q-27 -24 -43 -64t-16 -84q0 -79 39 -128q48 -59 131 -59q57 0 101 29l7 -84q-48 -21 -118 -21q-117 0 -192 82q-68 73 -68 185q0 127 88 200q71 59 172 59q58 0 114 -20zM154 611l100 130h90l100 -130h-76l-69 84l-69 -84
h-76z" />
    <glyph glyph-name="Cdotaccent" unicode="&#x10a;" horiz-adv-x="625" 
d="M579 680l-8 -97q-66 39 -144 39q-100 0 -171 -56q-97 -76 -97 -216q0 -111 66 -186q74 -86 212 -86q67 0 137 33l6 -96q-66 -25 -146 -25q-184 0 -285 103q-96 100 -96 258q0 183 130 283q99 76 244 76q88 0 152 -30zM472 854v-102h-112v102h112z" />
    <glyph glyph-name="cdotaccent" unicode="&#x10b;" horiz-adv-x="444" 
d="M412 498l-8 -78q-50 22 -102 22q-60 0 -105 -39q-27 -24 -43 -64t-16 -84q0 -79 39 -128q48 -59 131 -59q57 0 101 29l7 -84q-48 -21 -118 -21q-117 0 -192 82q-68 73 -68 185q0 127 88 200q71 59 172 59q58 0 114 -20zM332 720v-106h-106v106h106z" />
    <glyph glyph-name="Ccaron" unicode="&#x10c;" horiz-adv-x="625" 
d="M579 680l-8 -97q-66 39 -144 39q-100 0 -171 -56q-97 -76 -97 -216q0 -111 66 -186q74 -86 212 -86q67 0 137 33l6 -96q-66 -25 -146 -25q-184 0 -285 103q-96 100 -96 258q0 183 130 283q99 76 244 76q88 0 152 -30zM489 750h-110l-104 120h90l69 -70l69 70h90z" />
    <glyph glyph-name="ccaron" unicode="&#x10d;" horiz-adv-x="444" 
d="M412 498l-8 -78q-50 22 -102 22q-60 0 -105 -39q-27 -24 -43 -64t-16 -84q0 -79 39 -128q48 -59 131 -59q57 0 101 29l7 -84q-48 -21 -118 -21q-117 0 -192 82q-68 73 -68 185q0 127 88 200q71 59 172 59q58 0 114 -20zM412 738l-100 -130h-90l-100 130h76l69 -84l69 84
h76z" />
    <glyph glyph-name="Dcaron" unicode="&#x10e;" horiz-adv-x="733" 
d="M94 0v700h206q168 0 271 -98q101 -95 101 -254q0 -126 -61 -213q-95 -135 -311 -135h-206zM194 612v-524h105q150 0 217 86q50 63 50 166q0 130 -73 203q-71 69 -182 69h-117zM374 750h-110l-104 120h90l69 -70l69 70h90z" />
    <glyph glyph-name="dcaron" unicode="&#x10f;" horiz-adv-x="674" 
d="M437 762h94v-762h-90v72h-2q-23 -31 -59 -51q-52 -29 -113 -29q-103 0 -163 75q-58 72 -58 194q0 121 68 193q60 64 152 64q66 0 112 -27q35 -20 57 -51h2v322zM437 254q0 75 -37 128q-43 60 -114 60q-64 0 -102 -49q-38 -50 -38 -136q0 -74 32 -125q40 -64 109 -64
q66 0 107 51q43 54 43 135zM574 594l40 168h100l-70 -168h-70z" />
    <glyph glyph-name="Dcroat" unicode="&#x110;" horiz-adv-x="723" 
d="M183 612v-205h183v-64h-183v-255h105q268 0 268 264q0 113 -71.5 186.5t-186.5 73.5h-115zM83 0v343h-68v64h68v293h206q160 0 266.5 -93t106.5 -251q0 -174 -98.5 -265t-274.5 -91h-206z" />
    <glyph glyph-name="dcroat" unicode="&#x111;" horiz-adv-x="611" 
d="M437 762h94v-107h75v-54h-75v-601h-90v72h-2q-23 -31 -59 -51q-52 -29 -113 -29q-103 0 -163 75q-58 72 -58 194q0 121 68 193q60 64 152 64q66 0 112 -27q35 -20 57 -51h2v161h-203v54h203v107zM437 254q0 75 -37 128q-43 60 -114 60q-64 0 -102 -49q-38 -50 -38 -136
q0 -74 32 -125q40 -64 109 -64q66 0 107 51q43 54 43 135z" />
    <glyph glyph-name="Emacron" unicode="&#x112;" horiz-adv-x="554" 
d="M94 0v700h391v-88h-291v-205h265v-88h-265v-231h291v-88h-391zM130 840h320v-70h-320v70z" />
    <glyph glyph-name="emacron" unicode="&#x113;" 
d="M510 234h-364q2 -68 43 -113q48 -53 128 -53q82 0 154 51v-94l-14 -5q-3 -1 -14.5 -5.5t-17.5 -6.5t-20 -5.5t-26 -5.5t-30.5 -3.5t-38.5 -1.5q-130 0 -198 73q-66 70 -66 192q0 133 79 203q64 58 160 58q111 0 169 -72q56 -69 56 -185v-27zM146 304h264q1 53 -29 92
q-37 46 -101 46t-102 -51q-27 -38 -32 -87zM130 652v70h296v-70h-296z" />
    <glyph glyph-name="Edotaccent" unicode="&#x116;" horiz-adv-x="554" 
d="M94 0v700h391v-88h-291v-205h265v-88h-265v-231h291v-88h-391zM348 854v-102h-112v102h112z" />
    <glyph glyph-name="edotaccent" unicode="&#x117;" 
d="M510 234h-364q2 -68 43 -113q48 -53 128 -53q82 0 154 51v-94l-14 -5q-3 -1 -14.5 -5.5t-17.5 -6.5t-20 -5.5t-26 -5.5t-30.5 -3.5t-38.5 -1.5q-130 0 -198 73q-66 70 -66 192q0 133 79 203q64 58 160 58q111 0 169 -72q56 -69 56 -185v-27zM146 304h264q1 53 -29 92
q-37 46 -101 46t-102 -51q-27 -38 -32 -87zM331 720v-106h-106v106h106z" />
    <glyph glyph-name="Eogonek" unicode="&#x118;" horiz-adv-x="554" 
d="M94 0v700h391v-88h-291v-205h265v-88h-265v-231h291v-88h-45q-52 -38 -73 -71q-19 -29 -19 -60q0 -28 16 -42q14 -13 35 -13q37 0 68 20l18 -43q-46 -32 -104 -32q-54 0 -83 24q-33 26 -33 76q0 41 27 77q33 42 79 64h-277z" />
    <glyph glyph-name="eogonek" unicode="&#x119;" 
d="M510 234h-364q2 -68 43 -113q48 -53 128 -53q49 0 107 25q23 9 47 26v-94l-14 -5l-6 -2q-17 -8 -30 -18q-14 -10 -20 -16q-28 -24 -45 -53q-8 -13 -12 -25q-6 -16 -6 -33q0 -27 15 -41q13 -13 34 -13q37 0 66 20l18 -42q-47 -31 -101 -31q-53 0 -81 23q-32 25 -32 66
q0 50 26 83q26 34 64 56q-24 -2 -37 -2q-130 0 -198 73q-66 70 -66 192q0 133 79 203q64 58 160 58q111 0 169 -72q56 -69 56 -185v-27zM146 304h264q1 53 -29 92q-18 22 -45 35q-23 11 -56 11q-64 0 -102 -51q-16 -20 -24 -48q-7 -22 -8 -39z" />
    <glyph glyph-name="Ecaron" unicode="&#x11a;" horiz-adv-x="554" 
d="M94 0v700h391v-88h-291v-205h265v-88h-265v-231h291v-88h-391zM344 750h-110l-104 120h90l69 -70l69 70h90z" />
    <glyph glyph-name="ecaron" unicode="&#x11b;" 
d="M510 234h-364q2 -68 43 -113q48 -53 128 -53q82 0 154 51v-94l-14 -5q-3 -1 -14.5 -5.5t-17.5 -6.5t-20 -5.5t-26 -5.5t-30.5 -3.5t-38.5 -1.5q-130 0 -198 73q-66 70 -66 192q0 133 79 203q64 58 160 58q111 0 169 -72q56 -69 56 -185v-27zM146 304h264q1 53 -29 92
q-37 46 -101 46t-102 -51q-27 -38 -32 -87zM423 740l-100 -130h-90l-100 130h76l69 -84l69 84h76z" />
    <glyph glyph-name="Gcircumflex" unicode="&#x11c;" horiz-adv-x="722" 
d="M627 675l-8 -100q-33 22 -79 34q-51 13 -106 13q-112 0 -183 -60q-92 -78 -92 -215q0 -110 72 -189q74 -80 200 -80q46 0 89 8l14 3v212h-147v82h247v-362q-94 -31 -203 -31q-167 0 -267 90q-111 100 -111 273q0 165 115 267q101 90 258 90q40 0 124 -12q38 -9 77 -23z
M364 870h110l104 -120h-90l-69 70l-69 -70h-90z" />
    <glyph glyph-name="gcircumflex" unicode="&#x11d;" horiz-adv-x="611" 
d="M531 510v-490q0 -119 -63 -180q-66 -64 -200 -64q-86 0 -183 35l10 87q89 -46 178 -46q86 0 128 54q36 46 36 121v52h-2q-29 -39 -73 -59q-43 -20 -98 -20q-99 0 -159 70q-59 71 -59 181q0 115 61 188q64 79 174 79q60 0 100 -24q38 -20 61 -60h2v76h87zM288 76
q72 0 113 56q36 49 36 122q0 81 -38 133q-39 55 -109 55q-66 0 -107 -55q-37 -52 -37 -131q0 -78 38 -127q41 -53 104 -53zM134 610l100 130h90l100 -130h-76l-69 84l-69 -84h-76z" />
    <glyph glyph-name="Gbreve" unicode="&#x11e;" horiz-adv-x="722" 
d="M627 675l-8 -100q-33 22 -79 34q-51 13 -106 13q-112 0 -183 -60q-92 -78 -92 -215q0 -110 72 -189q74 -80 200 -80q46 0 89 8l14 3v212h-147v82h247v-362q-94 -31 -203 -31q-167 0 -267 90q-111 100 -111 273q0 165 115 267q101 90 258 90q40 0 124 -12q38 -9 77 -23z
M260 870h70q19 -56 98 -56t98 56h70q-16 -62 -62 -94t-106 -32t-106 32t-62 94z" />
    <glyph glyph-name="gbreve" unicode="&#x11f;" horiz-adv-x="611" 
d="M531 510v-490q0 -119 -63 -180q-66 -64 -200 -64q-86 0 -183 35l10 87q89 -46 178 -46q86 0 128 54q36 46 36 121v52h-2q-29 -39 -73 -59q-43 -20 -98 -20q-99 0 -159 70q-59 71 -59 181q0 115 61 188q64 79 174 79q60 0 100 -24q38 -20 61 -60h2v76h87zM288 76
q72 0 113 56q36 49 36 122q0 81 -38 133q-39 55 -109 55q-66 0 -107 -55q-37 -52 -37 -131q0 -78 38 -127q41 -53 104 -53zM125 740h60q15 -72 94 -72t94 72h60q-5 -65 -47.5 -103.5t-106.5 -38.5t-106.5 38.5t-47.5 103.5z" />
    <glyph glyph-name="Gdotaccent" unicode="&#x120;" horiz-adv-x="722" 
d="M627 675l-8 -100q-33 22 -79 34q-51 13 -106 13q-112 0 -183 -60q-92 -78 -92 -215q0 -110 72 -189q74 -80 200 -80q46 0 89 8l14 3v212h-147v82h247v-362q-94 -31 -203 -31q-167 0 -267 90q-111 100 -111 273q0 165 115 267q101 90 258 90q40 0 124 -12q38 -9 77 -23z
M492 854v-102h-112v102h112z" />
    <glyph glyph-name="gdotaccent" unicode="&#x121;" horiz-adv-x="611" 
d="M531 510v-490q0 -119 -63 -180q-66 -64 -200 -64q-86 0 -183 35l10 87q89 -46 178 -46q86 0 128 54q36 46 36 121v52h-2q-29 -39 -73 -59q-43 -20 -98 -20q-99 0 -159 70q-59 71 -59 181q0 115 61 188q64 79 174 79q60 0 100 -24q38 -20 61 -60h2v76h87zM288 76
q72 0 113 56q36 49 36 122q0 81 -38 133q-39 55 -109 55q-66 0 -107 -55q-37 -52 -37 -131q0 -78 38 -127q41 -53 104 -53zM332 720v-106h-106v106h106z" />
    <glyph glyph-name="Gcommaaccent" unicode="&#x122;" horiz-adv-x="722" 
d="M627 675l-8 -100q-33 22 -79 34q-51 13 -106 13q-112 0 -183 -60q-92 -78 -92 -215q0 -110 72 -189q74 -80 200 -80q46 0 89 8l14 3v212h-147v82h247v-362q-94 -31 -203 -31q-167 0 -267 90q-111 100 -111 273q0 165 115 267q101 90 258 90q40 0 124 -12q38 -9 77 -23z
M352 -248l40 198h110l-70 -198h-80z" />
    <glyph glyph-name="gcommaaccent" unicode="&#x123;" horiz-adv-x="611" 
d="M531 510v-490q0 -119 -63 -180q-66 -64 -200 -64q-86 0 -183 35l10 87q89 -46 178 -46q86 0 128 54q36 46 36 121v52h-2q-29 -39 -73 -59q-43 -20 -98 -20q-99 0 -159 70q-59 71 -59 181q0 115 61 188q64 79 174 79q60 0 100 -24q38 -20 61 -60h2v76h87zM288 76
q72 0 113 56q36 49 36 122q0 81 -38 133q-39 55 -109 55q-66 0 -107 -55q-37 -52 -37 -131q0 -78 38 -127q41 -53 104 -53zM366 762l-40 -170h-100l70 170h70z" />
    <glyph glyph-name="Hcircumflex" unicode="&#x124;" horiz-adv-x="722" 
d="M94 0v700h100v-293h334v293h100v-700h-100v319h-334v-319h-100zM306 870h110l104 -120h-90l-69 70l-69 -70h-90z" />
    <glyph glyph-name="hcircumflex" unicode="&#x125;" horiz-adv-x="604" 
d="M80 0v762h94v-325h2q25 37 67 59q43 22 97 22q96 0 144 -56q47 -55 47 -159v-303h-94v264q0 104 -32 144q-28 34 -83 34q-60 0 -100 -44q-48 -53 -48 -162v-236h-94zM-17 795l100 130h90l100 -130h-76l-69 84l-69 -84h-76z" />
    <glyph glyph-name="Hbar" unicode="&#x126;" horiz-adv-x="722" 
d="M94 0v514h-70v64h70v122h100v-122h334v122h100v-122h70v-64h-70v-514h-100v319h-334v-319h-100zM528 514h-334v-107h334v107z" />
    <glyph glyph-name="hbar" unicode="&#x127;" horiz-adv-x="604" 
d="M531 303v-303h-94v264q0 104 -32 144q-28 34 -83 34q-60 0 -100 -44q-48 -53 -48 -162v-236h-94v601h-75v54h75v107h94v-107h203v-54h-203v-164h2q25 37 67 59q43 22 97 22q96 0 144 -56q47 -55 47 -159z" />
    <glyph glyph-name="Imacron" unicode="&#x12a;" horiz-adv-x="288" 
d="M94 0v700h100v-700h-100zM-16 840h320v-70h-320v70z" />
    <glyph glyph-name="imacron" unicode="&#x12b;" horiz-adv-x="254" 
d="M80 0v510h94v-510h-94zM-27 652v70h296v-70h-296z" />
    <glyph glyph-name="Iogonek" unicode="&#x12e;" horiz-adv-x="288" 
d="M94 0v700h100v-700q-52 -38 -73 -71q-19 -29 -19 -60q0 -28 16 -42q14 -13 35 -13q37 0 68 20l18 -43q-46 -32 -104 -32q-54 0 -83 24q-33 26 -33 76q0 41 27 77q33 42 79 64h-31z" />
    <glyph glyph-name="iogonek" unicode="&#x12f;" horiz-adv-x="254" 
d="M80 0v510h94v-510q-89 -62 -89 -127q0 -24 13 -39t36 -15q37 0 66 20l18 -42q-46 -31 -101 -31q-52 0 -82.5 23.5t-30.5 65.5q0 49 30 86.5t73 58.5h-27zM180 720v-106h-106v106h106z" />
    <glyph glyph-name="Idotaccent" unicode="&#x130;" horiz-adv-x="288" 
d="M94 0v700h100v-700h-100zM200 854v-102h-112v102h112z" />
    <glyph glyph-name="dotlessi" unicode="&#x131;" horiz-adv-x="254" 
d="M80 0v510h94v-510h-94z" />
    <glyph glyph-name="Jcircumflex" unicode="&#x134;" horiz-adv-x="389" 
d="M21 2v86q36 -10 63 -10q61 0 88 32q26 29 26 105v485h100v-517q0 -99 -55 -148q-50 -45 -144 -45q-47 0 -78 12zM184 870h110l104 -120h-90l-69 70l-69 -70h-90z" />
    <glyph glyph-name="jcircumflex" unicode="&#x135;" horiz-adv-x="254" 
d="M-28 -220l3 81q16 -3 28 -3h10q33 2 49 27q18 29 18 81v544h94v-530q0 -111 -34 -156q-37 -48 -124 -48q-24 0 -44 4zM-18 610l100 130h90l100 -130h-76l-69 84l-69 -84h-76z" />
    <glyph glyph-name="Kcommaaccent" unicode="&#x136;" horiz-adv-x="667" 
d="M94 0v700h100v-308l298 308h133l-328 -331l354 -369h-146l-311 343v-343h-100zM252 -248l40 198h110l-70 -198h-80z" />
    <glyph glyph-name="kcommaaccent" unicode="&#x137;" horiz-adv-x="546" 
d="M80 0v762h94v-459l208 207h122l-235 -221l264 -289h-127l-232 262v-262h-94zM202 -220l40 170h100l-70 -170h-70z" />
    <glyph glyph-name="Lacute" unicode="&#x139;" horiz-adv-x="506" 
d="M94 0v700h100v-612h292v-88h-392zM195 870h130l-114 -120h-96z" />
    <glyph glyph-name="lacute" unicode="&#x13a;" horiz-adv-x="254" 
d="M80 0v762h94v-762h-94zM73 800l78 130h120l-118 -130h-80z" />
    <glyph glyph-name="Lcommaaccent" unicode="&#x13b;" horiz-adv-x="506" 
d="M94 0v700h100v-612h292v-88h-392zM212 -248l40 198h110l-70 -198h-80z" />
    <glyph glyph-name="lcommaaccent" unicode="&#x13c;" horiz-adv-x="254" 
d="M80 0v762h94v-762h-94zM57 -220l40 170h100l-70 -170h-70z" />
    <glyph glyph-name="Lcaron" unicode="&#x13d;" horiz-adv-x="506" 
d="M94 0v700h100v-612h292v-88h-392zM332 500l40 200h110l-74 -200h-76z" />
    <glyph glyph-name="lcaron" unicode="&#x13e;" horiz-adv-x="310" 
d="M80 0v762h94v-762h-94zM210 594l40 168h100l-70 -168h-70z" />
    <glyph glyph-name="Ldot" unicode="&#x13f;" horiz-adv-x="506" 
d="M94 0v700h100v-612h292v-88h-392zM339 320v112h112v-112h-112z" />
    <glyph glyph-name="ldot" unicode="&#x140;" horiz-adv-x="366" 
d="M80 0v762h94v-762h-94zM254 333v112h112v-112h-112z" />
    <glyph glyph-name="Lslash" unicode="&#x141;" horiz-adv-x="506" 
d="M94 700h100v-330l183 131l34 -56l-217 -151v-206h292v-88h-392v236l-60 -42l-34 56l94 60v390z" />
    <glyph glyph-name="lslash" unicode="&#x142;" horiz-adv-x="278" 
d="M92 0v340l-64 -51v71l64 51v351h94v-277l64 51v-71l-64 -51v-414h-94z" />
    <glyph glyph-name="Nacute" unicode="&#x143;" horiz-adv-x="722" 
d="M88 0v700h136l308 -564h2v564h100v-700h-128l-316 576h-2v-576h-100zM380 870h130l-114 -120h-96z" />
    <glyph glyph-name="nacute" unicode="&#x144;" horiz-adv-x="604" 
d="M80 0v510h94v-73h2q25 37 67 59q43 22 97 22q96 0 144 -56q47 -55 47 -159v-303h-94v264q0 106 -32 144q-28 34 -83 34q-60 0 -100 -44q-48 -53 -48 -162v-236h-94zM273 610l78 130h120l-118 -130h-80z" />
    <glyph glyph-name="Ncommaaccent" unicode="&#x145;" horiz-adv-x="722" 
d="M88 0v700h136l308 -564h2v564h100v-700h-128l-316 576h-2v-576h-100zM252 -248l40 198h110l-70 -198h-80z" />
    <glyph glyph-name="ncommaaccent" unicode="&#x146;" horiz-adv-x="604" 
d="M80 0v510h94v-73h2q25 37 67 59q43 22 97 22q96 0 144 -56q47 -55 47 -159v-303h-94v264q0 106 -32 144q-28 34 -83 34q-60 0 -100 -44q-48 -53 -48 -162v-236h-94zM222 -220l40 170h100l-70 -170h-70z" />
    <glyph glyph-name="Ncaron" unicode="&#x147;" horiz-adv-x="722" 
d="M88 0v700h136l308 -564h2v564h100v-700h-128l-316 576h-2v-576h-100zM434 750h-110l-104 120h90l69 -70l69 70h90z" />
    <glyph glyph-name="ncaron" unicode="&#x148;" horiz-adv-x="604" 
d="M80 0v510h94v-73h2q25 37 67 59q43 22 97 22q96 0 144 -56q47 -55 47 -159v-303h-94v264q0 106 -32 144q-28 34 -83 34q-60 0 -100 -44q-48 -53 -48 -162v-236h-94zM464 740l-100 -130h-90l-100 130h76l69 -84l69 84h76z" />
    <glyph glyph-name="Omacron" unicode="&#x14c;" horiz-adv-x="778" 
d="M389 710q158 0 250 -106q86 -98 86 -254q0 -157 -86 -255q-91 -105 -250 -105t-250 105q-86 98 -86 255q0 156 86 254q92 106 250 106zM389 622q-109 0 -171 -80q-59 -75 -59 -192t59 -192q62 -80 171 -80t171 80q59 75 59 192t-59 192q-62 80 -171 80zM230 840h320v-70
h-320v70z" />
    <glyph glyph-name="omacron" unicode="&#x14d;" horiz-adv-x="610" 
d="M305 518q121 0 193 -80q66 -73 66 -183t-66 -183q-72 -80 -193 -80t-193 80q-66 73 -66 183t66 183q72 80 193 80zM305 442q-72 0 -120 -60q-39 -51 -39 -127q0 -77 39 -127q45 -60 120 -60t120 60q39 50 39 127t-39 127q-45 60 -120 60zM157 652v70h296v-70h-296z" />
    <glyph glyph-name="Obreve" unicode="&#x14e;" horiz-adv-x="778" 
d="M389 710q158 0 250 -106q86 -98 86 -254q0 -157 -86 -255q-91 -105 -250 -105t-250 105q-86 98 -86 255q0 156 86 254q92 106 250 106zM389 622q-109 0 -171 -80q-59 -75 -59 -192t59 -192q62 -80 171 -80t171 80q59 75 59 192t-59 192q-62 80 -171 80zM221 870h70
q19 -56 98 -56t98 56h70q-16 -62 -62 -94t-106 -32t-106 32t-62 94z" />
    <glyph glyph-name="obreve" unicode="&#x14f;" horiz-adv-x="610" 
d="M305 518q121 0 193 -80q66 -73 66 -183t-66 -183q-72 -80 -193 -80t-193 80q-66 73 -66 183t66 183q72 80 193 80zM305 442q-72 0 -120 -60q-39 -51 -39 -127q0 -77 39 -127q45 -60 120 -60t120 60q39 50 39 127t-39 127q-45 60 -120 60zM151 740h60q15 -72 94 -72t94 72
h60q-5 -65 -47.5 -103.5t-106.5 -38.5t-106.5 38.5t-47.5 103.5z" />
    <glyph glyph-name="Ohungarumlaut" unicode="&#x150;" horiz-adv-x="778" 
d="M389 710q158 0 250 -106q86 -98 86 -254q0 -157 -86 -255q-91 -105 -250 -105t-250 105q-86 98 -86 255q0 156 86 254q92 106 250 106zM389 622q-109 0 -171 -80q-59 -75 -59 -192t59 -192q62 -80 171 -80t171 80q59 75 59 192t-59 192q-62 80 -171 80zM356 870h120
l-130 -120h-76zM514 870h120l-130 -120h-76z" />
    <glyph glyph-name="ohungarumlaut" unicode="&#x151;" horiz-adv-x="610" 
d="M305 518q121 0 193 -80q66 -73 66 -183t-66 -183q-72 -80 -193 -80t-193 80q-66 73 -66 183t66 183q72 80 193 80zM305 442q-72 0 -120 -60q-39 -51 -39 -127q0 -77 39 -127q45 -60 120 -60t120 60q39 50 39 127t-39 127q-45 60 -120 60zM183 610l88 130h110l-128 -130
h-70zM364 610l88 130h110l-128 -130h-70z" />
    <glyph glyph-name="OE" unicode="&#x152;" horiz-adv-x="944" 
d="M493 88v522q-40 6 -61 6q-128 0 -200.5 -67t-72.5 -191q0 -130 75.5 -203t198.5 -73q36 0 60 6zM875 700v-88h-282v-206h262v-88h-262v-230h289v-88h-290q-26 0 -78 -3t-78 -3q-170 0 -276.5 97.5t-106.5 266.5q0 158 106.5 252t278.5 94q22 0 71 -2.5t75 -1.5h291z" />
    <glyph glyph-name="oe" unicode="&#x153;" horiz-adv-x="944" 
d="M850 119v-93q-75 -34 -146 -34q-159 0 -210 109q-26 -55 -82 -82t-118 -27q-116 0 -184.5 74t-68.5 189q0 106 70 184.5t183 78.5q149 0 203 -98q48 98 182 98q62 0 107.5 -23t70 -64.5t35.5 -89.5t11 -107h-361q0 -70 47.5 -118.5t119.5 -48.5q74 0 141 52zM141 255
q-1 -80 37.5 -134t116.5 -54q70 0 111.5 57.5t41.5 130.5q0 71 -40 129.5t-113 58.5q-74 0 -114.5 -58.5t-39.5 -129.5zM542 303h261q0 53 -35 96.5t-90 43.5q-60 0 -98 -40t-38 -100z" />
    <glyph glyph-name="Racute" unicode="&#x154;" horiz-adv-x="611" 
d="M83 0v700h171q147 0 207 -44q64 -47 64 -139q0 -72 -46 -117q-40 -40 -98 -49v-2q25 -10 38 -24q16 -17 30 -46l132 -279h-114l-107 243q-20 44 -46 57q-21 11 -71 11h-60v-311h-100zM183 612v-213h85q78 0 117 34q34 29 34 75q0 59 -46 85q-34 19 -94 19h-96zM284 870
h130l-114 -120h-96z" />
    <glyph glyph-name="racute" unicode="&#x155;" horiz-adv-x="379" 
d="M80 510h88v-83h2q20 42 57 66.5t79 24.5q22 0 50 -5l9 -2v-84q-24 9 -52 9q-55 0 -90 -42q-49 -57 -49 -166v-228h-94v510zM173 610l78 130h120l-118 -130h-80z" />
    <glyph glyph-name="Rcommaaccent" unicode="&#x156;" horiz-adv-x="611" 
d="M83 0v700h171q147 0 207 -44q64 -47 64 -139q0 -72 -46 -117q-40 -40 -98 -49v-2q25 -10 38 -24q16 -17 30 -46l132 -279h-114l-107 243q-20 44 -46 57q-21 11 -71 11h-60v-311h-100zM183 612v-213h85q78 0 117 34q34 29 34 75q0 59 -46 85q-34 19 -94 19h-96zM232 -248
l40 198h110l-70 -198h-80z" />
    <glyph glyph-name="rcommaaccent" unicode="&#x157;" horiz-adv-x="379" 
d="M80 510h88v-83h2q20 42 57 66.5t79 24.5q22 0 50 -5l9 -2v-84q-24 9 -52 9q-55 0 -90 -42q-49 -57 -49 -166v-228h-94v510zM82 -220l40 170h100l-70 -170h-70z" />
    <glyph glyph-name="Rcaron" unicode="&#x158;" horiz-adv-x="611" 
d="M83 0v700h171q147 0 207 -44q64 -47 64 -139q0 -72 -46 -117q-40 -40 -98 -49v-2q25 -10 38 -24q16 -17 30 -46l132 -279h-114l-107 243q-20 44 -46 57q-21 11 -71 11h-60v-311h-100zM183 612v-213h85q78 0 117 34q34 29 34 75q0 59 -46 85q-34 19 -94 19h-96zM344 750
h-110l-104 120h90l69 -70l69 70h90z" />
    <glyph glyph-name="rcaron" unicode="&#x159;" horiz-adv-x="379" 
d="M80 510h88v-83h2q20 42 57 66.5t79 24.5q22 0 50 -5l9 -2v-84q-24 9 -52 9q-55 0 -90 -42q-49 -57 -49 -166v-228h-94v510zM364 740l-100 -130h-90l-100 130h76l69 -84l69 84h76z" />
    <glyph glyph-name="Sacute" unicode="&#x15a;" horiz-adv-x="500" 
d="M420 685l-14 -92q-64 29 -131 29q-50 0 -80 -17q-42 -24 -42 -75q0 -30 22 -55q9 -10 19 -18t22 -15t20 -11t21 -10t18 -8l26 -13q90 -44 121 -93q31 -48 31 -112q0 -94 -68 -151q-65 -54 -177 -54q-74 0 -153 29l10 92q75 -33 145 -33q65 0 102 35q35 32 35 79
q0 48 -37 79q-15 13 -94 53l-43 22q-70 36 -98 76q-28 41 -28 99q0 97 74 148q59 41 150 41q83 0 149 -25zM260 870h130l-114 -120h-96z" />
    <glyph glyph-name="sacute" unicode="&#x15b;" horiz-adv-x="406" 
d="M48 20l5 83q62 -35 119 -35q48 0 75 25q19 17 19 46q0 26 -25 46q-25 19 -68 40l-20 9q-64 28 -91 69q-17 27 -17 62q0 68 45 109q49 44 135 44q61 0 117 -20l-8 -80q-19 11 -43 17q-30 7 -55 7q-39 0 -62 -13q-29 -17 -29 -47q0 -9 2.5 -17t5.5 -14t10.5 -13t11.5 -10.5
t15 -9l15 -7.5t17 -8t15 -7l15 -7q70 -33 92 -65q22 -34 22 -79q0 -68 -52 -112q-49 -41 -133 -41q-71 0 -133 28zM137 610l78 130h120l-118 -130h-80z" />
    <glyph glyph-name="Scircumflex" unicode="&#x15c;" horiz-adv-x="500" 
d="M420 685l-14 -92q-64 29 -131 29q-50 0 -80 -17q-42 -24 -42 -75q0 -30 22 -55q9 -10 19 -18t22 -15t20 -11t21 -10t18 -8l26 -13q90 -44 121 -93q31 -48 31 -112q0 -94 -68 -151q-65 -54 -177 -54q-74 0 -153 29l10 92q75 -33 145 -33q65 0 102 35q35 32 35 79
q0 48 -37 79q-15 13 -94 53l-43 22q-70 36 -98 76q-28 41 -28 99q0 97 74 148q59 41 150 41q83 0 149 -25zM214 870h110l104 -120h-90l-69 70l-69 -70h-90z" />
    <glyph glyph-name="scircumflex" unicode="&#x15d;" horiz-adv-x="406" 
d="M48 20l5 83q62 -35 119 -35q48 0 75 25q19 17 19 46q0 26 -25 46q-25 19 -68 40l-20 9q-64 28 -91 69q-17 27 -17 62q0 68 45 109q49 44 135 44q61 0 117 -20l-8 -80q-19 11 -43 17q-30 7 -55 7q-39 0 -62 -13q-29 -17 -29 -47q0 -9 2.5 -17t5.5 -14t10.5 -13t11.5 -10.5
t15 -9l15 -7.5t17 -8t15 -7l15 -7q70 -33 92 -65q22 -34 22 -79q0 -68 -52 -112q-49 -41 -133 -41q-71 0 -133 28zM58 610l100 130h90l100 -130h-76l-69 84l-69 -84h-76z" />
    <glyph glyph-name="Scedilla" unicode="&#x15e;" horiz-adv-x="500" 
d="M420 685l-14 -92q-64 29 -131 29q-50 0 -80 -17q-42 -24 -42 -75q0 -30 22 -55q9 -10 19 -18t22 -15t20 -11t21 -10t18 -8l26 -13q90 -44 121 -93q31 -48 31 -112q0 -94 -68 -151q-58 -48 -135 -52l-4 -25q37 0 62 -25q26 -26 26 -70q0 -41 -33 -71q-30 -27 -85 -27
q-39 0 -77 27l27 48q22 -18 47 -18q21 0 36 13q12 12 12 28q0 24 -12 34q-12 12 -39 12q-21 0 -31 -2l10 75q-62 3 -134 28l10 92q75 -33 145 -33q65 0 102 35q35 32 35 79q0 48 -37 79q-15 13 -94 53l-43 22q-70 36 -98 76q-28 41 -28 99q0 97 74 148q59 41 150 41
q83 0 149 -25z" />
    <glyph glyph-name="scedilla" unicode="&#x15f;" horiz-adv-x="406" 
d="M342 498l-8 -80q-17 10 -43 17q-29 8 -60 8q-33 0 -57 -13q-29 -16 -29 -48q0 -8 1.5 -15t5.5 -13.5t7 -11t11 -10.5t11 -8.5t13.5 -8t13.5 -6.5t15.5 -6.5t13.5 -6.5l15 -7q70 -33 92 -65q22 -34 22 -79q0 -68 -52 -112q-42 -35 -98 -39l-3 -25q36 -1 59 -24
q24 -22 24 -67q0 -41 -31 -68q-28 -25 -81 -25q-37 0 -73 25l25 46q22 -17 45 -17q22 0 34 12t12 27q0 22 -12 32q-12 12 -37 12q-19 0 -29 -2l10 73q-56 3 -111 27l5 83q61 -36 119 -36q47 0 75 26q19 19 19 46q0 26 -25 46q-25 19 -68 40l-20 9q-64 28 -91 69
q-17 27 -17 62q0 68 45 109q49 44 135 44q61 0 117 -20z" />
    <glyph glyph-name="Scaron" unicode="&#x160;" horiz-adv-x="500" 
d="M420 685l-14 -92q-64 29 -131 29q-50 0 -80 -17q-42 -24 -42 -75q0 -30 22 -55q9 -10 19 -18t22 -15t20 -11t21 -10t18 -8l26 -13q90 -44 121 -93q31 -48 31 -112q0 -94 -68 -151q-65 -54 -177 -54q-74 0 -153 29l10 92q75 -33 145 -33q65 0 102 35q35 32 35 79
q0 48 -37 79q-15 13 -94 53l-43 22q-70 36 -98 76q-28 41 -28 99q0 97 74 148q59 41 150 41q83 0 149 -25zM324 750h-110l-104 120h90l69 -70l69 70h90z" />
    <glyph glyph-name="scaron" unicode="&#x161;" horiz-adv-x="406" 
d="M48 20l5 83q62 -35 119 -35q48 0 75 25q19 17 19 46q0 26 -25 46q-25 19 -68 40l-20 9q-64 28 -91 69q-17 27 -17 62q0 68 45 109q49 44 135 44q61 0 117 -20l-8 -80q-19 11 -43 17q-30 7 -55 7q-39 0 -62 -13q-29 -17 -29 -47q0 -9 2.5 -17t5.5 -14t10.5 -13t11.5 -10.5
t15 -9l15 -7.5t17 -8t15 -7l15 -7q70 -33 92 -65q22 -34 22 -79q0 -68 -52 -112q-49 -41 -133 -41q-71 0 -133 28zM348 740l-100 -130h-90l-100 130h76l69 -84l69 84h76z" />
    <glyph glyph-name="Tcommaaccent" unicode="&#x162;" 
d="M228 0v612h-217v88h534v-88h-217v-612h-100zM222 -248l40 198h110l-70 -198h-80z" />
    <glyph glyph-name="tcommaaccent" unicode="&#x163;" horiz-adv-x="375" 
d="M118 628l94 30v-148h141v-76h-141v-275q0 -42 22 -66q23 -25 61 -25q31 0 60 18v-80q-40 -14 -83 -14q-70 0 -110 34q-44 37 -44 114v294h-111v76h111v118zM134 -220l40 170h100l-70 -170h-70z" />
    <glyph glyph-name="Tcaron" unicode="&#x164;" 
d="M228 0v612h-217v88h534v-88h-217v-612h-100zM333 750h-110l-104 120h90l69 -70l69 70h90z" />
    <glyph glyph-name="tcaron" unicode="&#x165;" horiz-adv-x="375" 
d="M118 628l94 30v-148h141v-76h-141v-275q0 -42 22 -66q23 -25 61 -25q31 0 60 18v-80q-40 -14 -83 -14q-70 0 -110 34q-44 37 -44 114v294h-111v76h111v118zM260 594l40 168h100l-70 -168h-70z" />
    <glyph glyph-name="Umacron" unicode="&#x16a;" horiz-adv-x="722" 
d="M632 700v-410q0 -146 -73 -225q-69 -75 -198 -75t-198 75q-73 79 -73 225v410h100v-397q0 -110 37 -163q44 -62 134 -62t134 62q37 53 37 163v397h100zM200 840h320v-70h-320v70z" />
    <glyph glyph-name="umacron" unicode="&#x16b;" horiz-adv-x="604" 
d="M524 510v-510h-94v73h-2q-25 -37 -67 -59q-43 -22 -97 -22q-96 0 -144 56q-47 55 -47 159v303h94v-264q0 -106 32 -144q28 -34 83 -34q60 0 100 44q48 53 48 162v236h94zM154 652v70h296v-70h-296z" />
    <glyph glyph-name="Ubreve" unicode="&#x16c;" horiz-adv-x="722" 
d="M632 700v-410q0 -146 -73 -225q-69 -75 -198 -75t-198 75q-73 79 -73 225v410h100v-397q0 -110 37 -163q44 -62 134 -62t134 62q37 53 37 163v397h100zM193 870h70q19 -56 98 -56t98 56h70q-16 -62 -62 -94t-106 -32t-106 32t-62 94z" />
    <glyph glyph-name="ubreve" unicode="&#x16d;" horiz-adv-x="604" 
d="M524 510v-510h-94v73h-2q-25 -37 -67 -59q-43 -22 -97 -22q-96 0 -144 56q-47 55 -47 159v303h94v-264q0 -106 32 -144q28 -34 83 -34q60 0 100 44q48 53 48 162v236h94zM148 740h60q15 -72 94 -72t94 72h60q-5 -65 -47.5 -103.5t-106.5 -38.5t-106.5 38.5t-47.5 103.5z
" />
    <glyph glyph-name="Uring" unicode="&#x16e;" horiz-adv-x="722" 
d="M632 700v-410q0 -146 -73 -225q-69 -75 -198 -75t-198 75q-73 79 -73 225v410h100v-397q0 -110 37 -163q44 -62 134 -62t134 62q37 53 37 163v397h100zM260 827q0 41 30 71t71 30t71 -30t30 -71t-30 -71t-71 -30t-71 30t-30 71zM306 827q0 -24 15.5 -39.5t39.5 -15.5
t39.5 15.5t15.5 39.5t-15.5 39.5t-39.5 15.5t-39.5 -15.5t-15.5 -39.5z" />
    <glyph glyph-name="uring" unicode="&#x16f;" horiz-adv-x="604" 
d="M524 510v-510h-94v73h-2q-25 -37 -67 -59q-43 -22 -97 -22q-96 0 -144 56q-47 55 -47 159v303h94v-264q0 -106 32 -144q28 -34 83 -34q60 0 100 44q48 53 48 162v236h94zM200 678q0 42 30 72t72 30t72 -30t30 -72t-30 -72t-72 -30t-72 30t-30 72zM240 678q0 -26 18 -44
t44 -18t44 18t18 44t-18 44t-44 18t-44 -18t-18 -44z" />
    <glyph glyph-name="Uhungarumlaut" unicode="&#x170;" horiz-adv-x="722" 
d="M632 700v-410q0 -146 -73 -225q-69 -75 -198 -75t-198 75q-73 79 -73 225v410h100v-397q0 -110 37 -163q44 -62 134 -62t134 62q37 53 37 163v397h100zM326 870h120l-130 -120h-76zM484 870h120l-130 -120h-76z" />
    <glyph glyph-name="uhungarumlaut" unicode="&#x171;" horiz-adv-x="604" 
d="M524 510v-510h-94v73h-2q-25 -37 -67 -59q-43 -22 -97 -22q-96 0 -144 56q-47 55 -47 159v303h94v-264q0 -106 32 -144q28 -34 83 -34q60 0 100 44q48 53 48 162v236h94zM163 610l88 130h110l-128 -130h-70zM344 610l88 130h110l-128 -130h-70z" />
    <glyph glyph-name="Uogonek" unicode="&#x172;" horiz-adv-x="722" 
d="M632 700v-410q0 -136 -60 -210q-34 -43 -92 -68q-10 -9 -23.5 -20t-20 -16.5t-14.5 -13.5t-14 -15.5t-12 -17.5q-19 -29 -19 -60q0 -28 16 -42q14 -13 35 -13q37 0 68 20l18 -43q-46 -32 -104 -32q-54 0 -83 24q-33 26 -33 76q0 41 27 77q26 33 62 55q-7 -1 -22 -1
q-126 0 -198 75q-73 79 -73 225v410h100v-397q0 -110 37 -163q44 -62 134 -62t134 62q37 53 37 163v397h100z" />
    <glyph glyph-name="uogonek" unicode="&#x173;" horiz-adv-x="604" 
d="M524 510v-510q-89 -62 -89 -127q0 -24 13 -39t36 -15q37 0 66 20l18 -42q-46 -31 -101 -31q-52 0 -82.5 23.5t-30.5 65.5q0 49 30 86.5t73 58.5h-27v73h-2q-25 -37 -67 -59q-43 -22 -97 -22q-96 0 -144 56q-47 55 -47 159v303h94v-264q0 -106 32 -144q28 -34 83 -34
q60 0 100 44q48 53 48 162v236h94z" />
    <glyph glyph-name="Ydieresis" unicode="&#x178;" horiz-adv-x="667" 
d="M284 0v293l-273 407h117l208 -314l203 314h117l-272 -407v-293h-100zM171 852h106v-100h-106v100zM387 852h106v-100h-106v100z" />
    <glyph glyph-name="Zacute" unicode="&#x179;" 
d="M32 0v90l362 522h-350v88h465v-90l-361 -522h367v-88h-483zM280 870h130l-114 -120h-96z" />
    <glyph glyph-name="zacute" unicode="&#x17a;" horiz-adv-x="500" 
d="M43 0v82l294 352h-280v76h389v-82l-294 -352h305v-76h-414zM184 610l78 130h120l-118 -130h-80z" />
    <glyph glyph-name="Zdotaccent" unicode="&#x17b;" 
d="M32 0v90l362 522h-350v88h465v-90l-361 -522h367v-88h-483zM332 854v-102h-112v102h112z" />
    <glyph glyph-name="zdotaccent" unicode="&#x17c;" horiz-adv-x="500" 
d="M43 0v82l294 352h-280v76h389v-82l-294 -352h305v-76h-414zM303 720v-106h-106v106h106z" />
    <glyph glyph-name="Zcaron" unicode="&#x17d;" 
d="M32 0v90l362 522h-350v88h465v-90l-361 -522h367v-88h-483zM333 750h-110l-104 120h90l69 -70l69 70h90z" />
    <glyph glyph-name="zcaron" unicode="&#x17e;" horiz-adv-x="500" 
d="M43 0v82l294 352h-280v76h389v-82l-294 -352h305v-76h-414zM395 740l-100 -130h-90l-100 130h76l69 -84l69 84h76z" />
    <glyph glyph-name="uni018F" unicode="&#x18f;" horiz-adv-x="666" 
d="M53 375h454q0 103 -54 170q-63 77 -164 77q-96 0 -188 -70v113l17 7q32 13 46 18.5t52 12.5t81 7q155 0 237 -100q79 -96 79 -263q0 -182 -94 -278q-77 -79 -191 -79q-134 0 -206 99q-69 94 -69 253v33zM507 287h-344q0 -83 40 -141q46 -68 131 -68q83 0 132 76
q36 55 41 133z" />
    <glyph glyph-name="florin" unicode="&#x192;" 
d="M475 414l-14 -70h-126l-69 -368q-20 -108 -52 -147q-42 -51 -127 -51q-31 0 -54 5l16 81q16 -4 30 -4q42 0 61 28q16 24 26 78l71 378h-112l13 70h112l21 109q20 102 60 143q41 44 119 44q23 0 55 -5l18 -3l-14 -80l-8 2q-24 4 -37 4q-34 0 -52 -14q-27 -20 -42 -96
l-21 -104h126z" />
    <glyph glyph-name="uni01CF" unicode="&#x1cf;" horiz-adv-x="288" 
d="M94 0v700h100v-700h-100zM199 750h-110l-104 120h90l69 -70l69 70h90z" />
    <glyph glyph-name="uni01D0" unicode="&#x1d0;" horiz-adv-x="254" 
d="M80 0v510h94v-510h-94zM272 740l-100 -130h-90l-100 130h76l69 -84l69 84h76z" />
    <glyph glyph-name="uni01DD" unicode="&#x1dd;" 
d="M46 276h364q-2 68 -43 113q-48 53 -128 53q-82 0 -154 -51v94l14 5q3 1 14.5 5.5t17.5 6.5t20 5.5t26 5.5t30.5 3.5t38.5 1.5q130 0 198 -73q66 -70 66 -192q0 -133 -79 -203q-64 -58 -160 -58q-111 0 -169 72q-56 69 -56 185v27zM410 206h-264q-1 -53 29 -92
q37 -46 101 -46t102 51q27 38 32 87z" />
    <glyph glyph-name="Gcaron" unicode="&#x1e6;" horiz-adv-x="722" 
d="M627 675l-8 -100q-33 22 -79 34q-51 13 -106 13q-112 0 -183 -60q-92 -78 -92 -215q0 -110 72 -189q74 -80 200 -80q46 0 89 8l14 3v212h-147v82h247v-362q-94 -31 -203 -31q-167 0 -267 90q-111 100 -111 273q0 165 115 267q101 90 258 90q40 0 124 -12q38 -9 77 -23z
M474 750h-110l-104 120h90l69 -70l69 70h90z" />
    <glyph glyph-name="gcaron" unicode="&#x1e7;" horiz-adv-x="611" 
d="M531 510v-490q0 -119 -63 -180q-66 -64 -200 -64q-86 0 -183 35l10 87q89 -46 178 -46q86 0 128 54q36 46 36 121v52h-2q-29 -39 -73 -59q-43 -20 -98 -20q-99 0 -159 70q-59 71 -59 181q0 115 61 188q64 79 174 79q60 0 100 -24q38 -20 61 -60h2v76h87zM288 76
q72 0 113 56q36 49 36 122q0 81 -38 133q-39 55 -109 55q-66 0 -107 -55q-37 -52 -37 -131q0 -78 38 -127q41 -53 104 -53zM424 740l-100 -130h-90l-100 130h76l69 -84l69 84h76z" />
    <glyph glyph-name="Scommaaccent" unicode="&#x218;" horiz-adv-x="500" 
d="M420 685l-14 -92q-64 29 -131 29q-50 0 -80 -17q-42 -24 -42 -75q0 -30 22 -55q9 -10 19 -18t22 -15t20 -11t21 -10t18 -8l26 -13q90 -44 121 -93q31 -48 31 -112q0 -94 -68 -151q-65 -54 -177 -54q-74 0 -153 29l10 92q75 -33 145 -33q65 0 102 35q35 32 35 79
q0 48 -37 79q-15 13 -94 53l-43 22q-70 36 -98 76q-28 41 -28 99q0 97 74 148q59 41 150 41q83 0 149 -25zM152 -248l40 198h110l-70 -198h-80z" />
    <glyph glyph-name="scommaaccent" unicode="&#x219;" horiz-adv-x="406" 
d="M48 20l5 83q62 -35 119 -35q48 0 75 25q19 17 19 46q0 26 -25 46q-25 19 -68 40l-20 9q-64 28 -91 69q-17 27 -17 62q0 68 45 109q49 44 135 44q61 0 117 -20l-8 -80q-19 11 -43 17q-30 7 -55 7q-39 0 -62 -13q-29 -17 -29 -47q0 -9 2.5 -17t5.5 -14t10.5 -13t11.5 -10.5
t15 -9l15 -7.5t17 -8t15 -7l15 -7q70 -33 92 -65q22 -34 22 -79q0 -68 -52 -112q-49 -41 -133 -41q-71 0 -133 28zM112 -220l40 170h100l-70 -170h-70z" />
    <glyph glyph-name="uni021A" unicode="&#x21a;" 
d="M228 0v612h-217v88h534v-88h-217v-612h-100zM222 -248l40 198h110l-70 -198h-80z" />
    <glyph glyph-name="uni021B" unicode="&#x21b;" horiz-adv-x="375" 
d="M118 628l94 30v-148h141v-76h-141v-275q0 -42 22 -66q23 -25 61 -25q31 0 60 18v-80q-40 -14 -83 -14q-70 0 -110 34q-44 37 -44 114v294h-111v76h111v118zM134 -220l40 170h100l-70 -170h-70z" />
    <glyph glyph-name="uni0259" unicode="&#x259;" 
d="M46 276h364q-2 68 -43 113q-48 53 -128 53q-82 0 -154 -51v94l14 5q3 1 14.5 5.5t17.5 6.5t20 5.5t26 5.5t30.5 3.5t38.5 1.5q130 0 198 -73q66 -70 66 -192q0 -133 -79 -203q-64 -58 -160 -58q-111 0 -169 72q-56 69 -56 185v27zM410 206h-264q-1 -53 29 -92
q37 -46 101 -46t102 51q27 38 32 87z" />
    <glyph glyph-name="afii57929" unicode="&#x2bc;" horiz-adv-x="180" 
d="M0 594l40 168h100l-70 -168h-70z" />
    <glyph glyph-name="circumflex" unicode="&#x2c6;" horiz-adv-x="278" 
d="M-6 610l100 130h90l100 -130h-76l-69 84l-69 -84h-76z" />
    <glyph glyph-name="caron" unicode="&#x2c7;" horiz-adv-x="278" 
d="M284 740l-100 -130h-90l-100 130h76l69 -84l69 84h76z" />
    <glyph glyph-name="uni02C9" unicode="&#x2c9;" horiz-adv-x="278" 
d="M-9 615v58h296v-58h-296z" />
    <glyph glyph-name="breve" unicode="&#x2d8;" horiz-adv-x="278" 
d="M-15 740h60q15 -72 94 -72t94 72h60q-5 -65 -47.5 -103.5t-106.5 -38.5t-106.5 38.5t-47.5 103.5z" />
    <glyph glyph-name="dotaccent" unicode="&#x2d9;" horiz-adv-x="278" 
d="M192 720v-106h-106v106h106z" />
    <glyph glyph-name="ring" unicode="&#x2da;" horiz-adv-x="278" 
d="M37 678q0 42 30 72t72 30t72 -30t30 -72t-30 -72t-72 -30t-72 30t-30 72zM77 678q0 -26 18 -44t44 -18t44 18t18 44t-18 44t-44 18t-44 -18t-18 -44z" />
    <glyph glyph-name="ogonek" unicode="&#x2db;" horiz-adv-x="214" 
d="M103 0h67q-89 -62 -89 -127q0 -24 13 -39t36 -15q37 0 66 20l18 -42q-46 -31 -101 -31q-52 0 -82.5 23.5t-30.5 65.5q0 49 30 86.5t73 58.5z" />
    <glyph glyph-name="tilde" unicode="&#x2dc;" horiz-adv-x="523" 
d="M143 586h-43q3 42 22 73q24 39 69 39q17 0 50 -13l28 -12q3 -1 13 -6t17 -7.5t17 -5t19 -2.5q24 0 34 18q7 13 10 28h44q-6 -39 -19 -66q-24 -46 -72 -46q-21 0 -51 13l-28 12q-3 1 -13 6t-17 7.5t-17 5t-19 2.5q-22 0 -32 -15q-9 -13 -12 -31z" />
    <glyph glyph-name="hungarumlaut" unicode="&#x2dd;" horiz-adv-x="278" 
d="M-17 610l88 130h110l-128 -130h-70zM164 610l88 130h110l-128 -130h-70z" />
    <glyph glyph-name="acutecomb" unicode="&#x301;" horiz-adv-x="2" 
d="M-360 581l89 144h109l-131 -144h-67z" />
    <glyph glyph-name="uni037E" unicode="&#x37e;" horiz-adv-x="278" 
d="M20 -133l63 245h112l-85 -245h-90zM195 510v-112h-112v112h112z" />
    <glyph glyph-name="uni0394" unicode="&#x394;" horiz-adv-x="712" 
d="M12 0l293 700h105l290 -700h-688zM559 82l-205 524l-204 -524h409z" />
    <glyph glyph-name="uni03A9" unicode="&#x3a9;" horiz-adv-x="761" 
d="M424 0v164q73 10 121 66q51 60 51 164q0 102 -56 163q-59 65 -159 65q-91 0 -147 -51q-68 -60 -68 -177q0 -105 50 -164q48 -56 122 -66v-164h-272l-12 147l79 5l6 -72h116v44q-75 18 -125 75q-70 78 -70 199q0 149 99 237q48 43 101 59t121 16q138 0 222 -75
q99 -88 99 -237q0 -118 -71 -199q-50 -58 -125 -75v-44h117l5 72l80 -5l-13 -147h-271z" />
    <glyph glyph-name="uni03BC" unicode="&#x3bc;" horiz-adv-x="611" 
d="M531 510v-510h-91v81h-2q-24 -43 -63 -67q-43 -26 -104 -26q-34 0 -61 11q-20 8 -36 24v-247h-94v734h94v-264q0 -35 0.5 -51t6 -42t17.5 -44q28 -45 84 -45q79 0 119 60q36 54 36 150v236h94z" />
    <glyph glyph-name="pi" unicode="&#x3c0;" horiz-adv-x="669" 
d="M257 434v-434h-94v434h-9q-62 0 -94 -54l-45 59q29 43 70 57t105 14h464v-76h-70v-434h-94v434h-233z" />
    <glyph glyph-name="afii10023" unicode="&#x401;" 
d="M94 0v700h391v-88h-291v-205h265v-88h-265v-231h291v-88h-391zM130 852h106v-100h-106v100zM346 852h106v-100h-106v100z" />
    <glyph glyph-name="afii10051" unicode="&#x402;" horiz-adv-x="799" 
d="M219 0v612h-204v88h534v-88h-230v-208q35 24 76 37q50 17 111 17q99 0 158 -61q55 -59 55 -158q0 -108 -34 -164q-51 -85 -176 -85q-43 0 -85 13l7 82q34 -14 75 -14q57 0 86 43q23 35 23 123q0 63 -32 102t-99 39q-57 0 -100 -18q-32 -13 -65 -37v-323h-100z" />
    <glyph glyph-name="afii10052" unicode="&#x403;" horiz-adv-x="475" 
d="M94 0v700h371v-88h-271v-612h-100zM280 870h130l-114 -120h-96z" />
    <glyph glyph-name="afii10053" unicode="&#x404;" horiz-adv-x="633" 
d="M579 680l-8 -97q-68 39 -144 39q-102 0 -172 -56q-73 -60 -92 -159h268v-88h-271q9 -89 64 -155q74 -86 198 -86q77 0 152 34l6 -97q-66 -25 -146 -25q-187 0 -286 103q-46 48 -70.5 116t-24.5 142q0 182 129 282q99 77 245 77q88 0 152 -30z" />
    <glyph glyph-name="afii10054" unicode="&#x405;" horiz-adv-x="500" 
d="M420 685l-14 -92q-64 29 -131 29q-50 0 -80 -17q-42 -24 -42 -75q0 -30 22 -55q9 -10 19 -18t22 -15t20 -11t21 -10t18 -8l26 -13q90 -44 121 -93q31 -48 31 -112q0 -94 -68 -151q-65 -54 -177 -54q-74 0 -153 29l10 92q75 -33 145 -33q65 0 102 35q35 32 35 79
q0 48 -37 79q-15 13 -94 53l-43 22q-70 36 -98 76q-28 41 -28 99q0 97 74 148q59 41 150 41q83 0 149 -25z" />
    <glyph glyph-name="afii10055" unicode="&#x406;" horiz-adv-x="288" 
d="M94 0v700h100v-700h-100z" />
    <glyph glyph-name="afii10056" unicode="&#x407;" horiz-adv-x="288" 
d="M94 0v700h100v-700h-100zM25 852h90v-100h-90v100zM173 852h90v-100h-90v100z" />
    <glyph glyph-name="afii10057" unicode="&#x408;" horiz-adv-x="389" 
d="M21 2v86q36 -10 63 -10q61 0 88 32q26 29 26 105v485h100v-517q0 -99 -55 -148q-50 -45 -144 -45q-47 0 -78 12z" />
    <glyph glyph-name="afii10058" unicode="&#x409;" horiz-adv-x="940" 
d="M459 0v612h-211l-4 -172q-1 -85 -7 -183q-5 -77 -15 -127.5t-37 -85.5q-42 -54 -120 -54q-29 0 -55 8l3 87q22 -6 35 -6q63 0 82 64q11 39 18 164q6 108 6 163l3 230h402v-282h54q48 0 72 -1t68.5 -11.5t72.5 -31.5q35 -26 57 -70t22 -97q0 -96 -61 -151
q-63 -56 -205 -56h-180zM559 330v-242h69q99 0 135 30q36 31 36 90q0 55 -35 88q-18 16 -46.5 24.5t-43 9t-44.5 0.5h-71z" />
    <glyph glyph-name="afii10059" unicode="&#x40a;" horiz-adv-x="999" 
d="M518 0v330h-324v-330h-100v700h100v-282h324v282h100v-282h54q48 0 72 -1t68.5 -11.5t72.5 -31.5q35 -26 57 -70t22 -97q0 -96 -61 -151q-63 -56 -205 -56h-180zM618 330v-242h69q99 0 135 30q36 31 36 90q0 55 -35 88q-18 16 -46.5 24.5t-43 9t-44.5 0.5h-71z" />
    <glyph glyph-name="afii10060" unicode="&#x40b;" horiz-adv-x="796" 
d="M219 0v612h-204v88h534v-88h-230v-208q38 21 82 35q57 19 109 19q95 0 146 -41q60 -48 60 -143v-274h-100v246q0 26 -1 38t-8.5 30.5t-22.5 32.5q-34 31 -95 31q-40 0 -93 -19q-43 -15 -77 -36v-323h-100z" />
    <glyph glyph-name="afii10061" unicode="&#x40c;" horiz-adv-x="667" 
d="M94 0v700h100v-308l298 308h133l-328 -331l354 -369h-146l-311 343v-343h-100zM360 870h130l-114 -120h-96z" />
    <glyph glyph-name="afii10062" unicode="&#x40e;" horiz-adv-x="581" 
d="M15 700h113l182 -394h7l171 394h97l-266 -599q-25 -57 -60 -83q-36 -28 -88 -28q-39 0 -83 14l11 87q32 -13 60 -13q27 0 47 14q8 5 18 18.5t14 23.5l23 57zM390 893l67 -8q-4 -66 -52 -101q-42 -30 -108 -30t-108 30q-48 35 -52 101l67 8q5 -25 25 -45q22 -20 68 -20
t68 20q20 20 25 45z" />
    <glyph glyph-name="afii10145" unicode="&#x40f;" horiz-adv-x="708" 
d="M94 700h100v-612h320v612h100v-700h-211v-156h-98v156h-211v700z" />
    <glyph glyph-name="afii10017" unicode="&#x410;" horiz-adv-x="722" 
d="M12 0l298 700h105l295 -700h-109l-71 177h-342l-71 -177h-105zM498 259l-139 347l-139 -347h278z" />
    <glyph glyph-name="afii10018" unicode="&#x411;" horiz-adv-x="596" 
d="M94 0v700h402v-88h-302v-200h91q120 0 182 -44q79 -57 79 -161q0 -98 -61 -151q-63 -56 -205 -56h-186zM194 330v-242h75q99 0 135 30q36 31 36 90q0 55 -35 88q-18 16 -46.5 24.5t-43 9t-44.5 0.5h-77z" />
    <glyph glyph-name="afii10019" unicode="&#x412;" horiz-adv-x="602" 
d="M94 0v700h189q126 0 188 -48q57 -44 57 -128q0 -66 -35 -107q-38 -45 -109 -60v-2q70 -5 115 -48q47 -45 47 -120q0 -86 -54 -132q-64 -55 -212 -55h-186zM194 319v-237h75q106 0 144 39q27 29 27 77q0 71 -60 101q-40 20 -121 20h-65zM194 618v-217h55q116 0 152 35
q27 26 27 74q0 55 -36 82q-34 26 -93 26h-105z" />
    <glyph glyph-name="afii10020" unicode="&#x413;" horiz-adv-x="475" 
d="M94 0v700h371v-88h-271v-612h-100z" />
    <glyph glyph-name="afii10021" unicode="&#x414;" horiz-adv-x="675" 
d="M10 88h59q54 92 75 193q17 82 22 240l5 179h404v-612h80v-244h-98v156h-449v-156h-98v244zM475 612h-215l-6 -148q-6 -130 -22 -206q-21 -97 -65 -170h308v524z" />
    <glyph glyph-name="afii10022" unicode="&#x415;" 
d="M94 0v700h391v-88h-291v-205h265v-88h-265v-231h291v-88h-391z" />
    <glyph glyph-name="afii10024" unicode="&#x416;" horiz-adv-x="932" 
d="M515 700v-308h7l251 308h118l-273 -331l298 -369h-130l-264 343h-7v-343h-100v343h-7l-264 -343h-130l298 369l-273 331h118l251 -308h7v308h100z" />
    <glyph glyph-name="afii10025" unicode="&#x417;" horiz-adv-x="573" 
d="M185 401h45q78 0 117 29q41 30 41 87q0 48 -35 76q-35 29 -101 29q-87 0 -171 -38l-10 92q94 34 190 34q108 0 166 -46q67 -53 67 -143q0 -65 -36 -105q-31 -33 -89 -48v-4q66 -9 107 -53t41 -116q0 -96 -80 -155q-67 -50 -188 -50q-105 0 -199 44l11 91q92 -47 186 -47
q75 0 116 29q48 33 48 91q0 57 -39 88q-41 33 -124 33h-63v82z" />
    <glyph glyph-name="afii10026" unicode="&#x418;" horiz-adv-x="745" 
d="M94 0v700h100v-477l-3 -87h5q23 46 63 110l280 454h112v-700h-100v477l3 87h-5q-16 -34 -63 -110l-280 -454h-112z" />
    <glyph glyph-name="afii10027" unicode="&#x419;" horiz-adv-x="745" 
d="M94 0v700h100v-477l-3 -87h5q23 46 63 110l280 454h112v-700h-100v477l3 87h-5q-16 -34 -63 -110l-280 -454h-112zM467 893l67 -8q-4 -66 -52 -101q-42 -30 -108 -30t-108 30q-48 35 -52 101l67 8q5 -25 25 -45q22 -20 68 -20t68 20q20 20 25 45z" />
    <glyph glyph-name="afii10028" unicode="&#x41a;" horiz-adv-x="667" 
d="M94 0v700h100v-308l298 308h133l-328 -331l354 -369h-146l-311 343v-343h-100z" />
    <glyph glyph-name="afii10029" unicode="&#x41b;" horiz-adv-x="663" 
d="M157 700h412v-700h-100v612h-221l-4 -172q-1 -85 -7 -183q-5 -77 -15 -127.5t-37 -85.5q-42 -54 -120 -54q-29 0 -55 8l3 87q22 -6 35 -6q63 0 82 64q11 39 18 164q6 108 6 163z" />
    <glyph glyph-name="afii10030" unicode="&#x41c;" horiz-adv-x="952" 
d="M94 0v700h165l219 -582l215 582h165v-700h-100v606h-2l-231 -606h-98l-231 606h-2v-606h-100z" />
    <glyph glyph-name="afii10031" unicode="&#x41d;" horiz-adv-x="722" 
d="M94 0v700h100v-293h334v293h100v-700h-100v319h-334v-319h-100z" />
    <glyph glyph-name="afii10032" unicode="&#x41e;" horiz-adv-x="778" 
d="M389 710q158 0 250 -106q86 -98 86 -254q0 -157 -86 -255q-91 -105 -250 -105t-250 105q-86 98 -86 255q0 156 86 254q92 106 250 106zM389 622q-109 0 -171 -80q-59 -75 -59 -192t59 -192q62 -80 171 -80t171 80q59 75 59 192t-59 192q-62 80 -171 80z" />
    <glyph glyph-name="afii10033" unicode="&#x41f;" horiz-adv-x="709" 
d="M94 0v700h521v-700h-100v612h-321v-612h-100z" />
    <glyph glyph-name="afii10034" unicode="&#x420;" 
d="M183 612v-244h99q68 0 106 35q34 32 34 86q0 59 -46 93q-42 30 -108 30h-85zM83 0v700h183q126 0 192 -51q70 -54 70 -156q0 -84 -47 -139q-63 -74 -200 -74h-98v-280h-100z" />
    <glyph glyph-name="afii10035" unicode="&#x421;" horiz-adv-x="625" 
d="M579 680l-8 -97q-66 39 -144 39q-100 0 -171 -56q-97 -76 -97 -216q0 -111 66 -186q74 -86 212 -86q67 0 137 33l6 -96q-66 -25 -146 -25q-184 0 -285 103q-96 100 -96 258q0 182 130 282q101 77 244 77q88 0 152 -30z" />
    <glyph glyph-name="afii10036" unicode="&#x422;" 
d="M228 0v612h-217v88h534v-88h-217v-612h-100z" />
    <glyph glyph-name="afii10037" unicode="&#x423;" horiz-adv-x="581" 
d="M15 700h113l182 -394h7l171 394h97l-266 -599q-25 -57 -60 -83q-36 -28 -88 -28q-39 0 -83 14l11 87q32 -13 60 -13q27 0 47 14q8 5 18 18.5t14 23.5l23 57z" />
    <glyph glyph-name="afii10038" unicode="&#x424;" horiz-adv-x="852" 
d="M476 728v-90h26q113 0 191 -60q47 -36 76.5 -92t29.5 -126q0 -64 -26 -121.5t-71 -93.5q-79 -63 -200 -63h-26v-92h-100v92h-26q-121 0 -200 63q-45 36 -71 93.5t-26 121.5q0 70 29.5 126t76.5 92q78 60 191 60h26v90h100zM476 556v-392h28q88 0 138 51q51 51 51 145
q0 96 -58 150q-49 46 -131 46h-28zM376 556h-28q-82 0 -131 -46q-58 -54 -58 -150q0 -94 51 -145q50 -51 138 -51h28v392z" />
    <glyph glyph-name="afii10039" unicode="&#x425;" horiz-adv-x="667" 
d="M8 0l257 364l-234 336h120l186 -269l185 269h114l-235 -334l258 -366h-126l-206 297l-199 -297h-120z" />
    <glyph glyph-name="afii10040" unicode="&#x426;" horiz-adv-x="703" 
d="M94 700h100v-612h309v612h100v-612h80v-244h-98v156h-491v700z" />
    <glyph glyph-name="afii10041" unicode="&#x427;" horiz-adv-x="653" 
d="M459 0v293q-91 -24 -178 -24q-144 0 -197 67q-34 43 -34 120v244h100v-210q0 -22 1 -34.5t9 -33.5t25 -35q34 -30 114 -30q84 0 160 23v320h100v-700h-100z" />
    <glyph glyph-name="afii10042" unicode="&#x428;" horiz-adv-x="904" 
d="M94 700h100v-612h208v612h100v-612h208v612h100v-700h-716v700z" />
    <glyph glyph-name="afii10043" unicode="&#x429;" horiz-adv-x="910" 
d="M94 700h100v-612h208v612h100v-612h208v612h100v-612h80v-244h-98v156h-698v700z" />
    <glyph glyph-name="afii10044" unicode="&#x42a;" horiz-adv-x="654" 
d="M273 418h54q48 0 72 -1t68.5 -11.5t72.5 -31.5q35 -26 57 -70t22 -97q0 -96 -61 -151q-63 -56 -205 -56h-180v612h-178v88h278v-282zM273 330v-242h69q99 0 135 30q36 31 36 90q0 55 -35 88q-18 16 -46.5 24.5t-43 9t-44.5 0.5h-71z" />
    <glyph glyph-name="afii10045" unicode="&#x42b;" horiz-adv-x="831" 
d="M94 0v700h100v-282h54q48 0 72 -1t68.5 -11.5t72.5 -31.5q35 -26 57 -70t22 -97q0 -96 -61 -151q-63 -56 -205 -56h-180zM194 330v-242h69q99 0 135 30q36 31 36 90q0 55 -35 88q-18 16 -46.5 24.5t-43 9t-44.5 0.5h-71zM637 0v700h100v-700h-100z" />
    <glyph glyph-name="afii10046" unicode="&#x42c;" horiz-adv-x="575" 
d="M94 0v700h100v-282h54q48 0 72 -1t68.5 -11.5t72.5 -31.5q35 -26 57 -70t22 -97q0 -96 -61 -151q-63 -56 -205 -56h-180zM194 330v-242h69q99 0 135 30q36 31 36 90q0 55 -35 88q-18 16 -46.5 24.5t-43 9t-44.5 0.5h-71z" />
    <glyph glyph-name="afii10047" unicode="&#x42d;" horiz-adv-x="632" 
d="M62 583l-8 97q67 30 160 30q143 0 239 -75q126 -100 126 -284q0 -147 -87 -246q-101 -115 -293 -115q-80 0 -146 25l6 97q74 -34 143 -34q133 0 204 76q60 65 67 165h-284v88h284q-15 103 -90 161q-69 54 -180 54q-76 0 -141 -39z" />
    <glyph glyph-name="afii10048" unicode="&#x42e;" horiz-adv-x="1030" 
d="M194 407h120q12 117 81 197q90 106 246 106q157 0 250 -106q86 -98 86 -254q0 -157 -86 -255q-91 -105 -250 -105q-155 0 -246 105q-77 89 -84 224h-117v-319h-100v700h100v-293zM641 622q-109 0 -171 -80q-59 -75 -59 -192t59 -192q62 -80 171 -80t171 80q59 75 59 192
t-59 192q-62 80 -171 80z" />
    <glyph glyph-name="afii10049" unicode="&#x42f;" horiz-adv-x="627" 
d="M533 700v-700h-100v280h-113l-146 -280h-120l168 300q-61 20 -96 62q-43 53 -43 129q0 99 70 157q62 52 178 52h202zM433 362v250h-108q-63 0 -98 -30q-38 -33 -38 -93q0 -53 33 -86q41 -41 133 -41h78z" />
    <glyph glyph-name="afii10065" unicode="&#x430;" 
d="M109 392l-6 82q73 44 176 44q100 0 150 -50q30 -30 39 -67.5t9 -90.5v-207q0 -78 4 -103h-88v69h-2q-57 -77 -167 -77q-73 0 -122 36q-56 41 -56 116q0 91 80 136q58 34 193 34q30 0 64 -2v28q0 49 -30 75q-31 27 -93 27q-81 0 -151 -50zM383 199v44q-36 2 -54 2
q-105 0 -146 -28q-37 -25 -37 -68q0 -38 27 -59q28 -22 73 -22q65 0 103 40q34 36 34 91z" />
    <glyph glyph-name="afii10066" unicode="&#x431;" horiz-adv-x="624" 
d="M528 775v-83q-30 -8 -80 -12q-46 -3 -73 -4q-51 -2 -79 -7q-66 -11 -105 -52q-49 -52 -53 -179l-1 -25h5q33 54 73 78q45 27 114 27q109 0 179 -73.5t70 -189.5q0 -110 -66 -183q-72 -80 -193 -80q-60 0 -111 21.5t-82 58.5q-76 89 -76 305q0 225 91 308q44 41 113 58
q36 9 87 13q6 0 18.5 1t18.5 1q9 0 29 1t29 2q51 3 92 14zM319 442q-75 0 -120 -60q-39 -52 -39 -127t39 -127q45 -60 120 -60t120 60q39 52 39 127q0 74 -39 127q-44 60 -120 60z" />
    <glyph glyph-name="afii10067" unicode="&#x432;" horiz-adv-x="552" 
d="M80 510h203q93 0 138 -30q54 -36 54 -99q0 -43 -26 -76q-25 -30 -63 -40v-3q48 -7 75 -33q35 -30 35 -86q0 -73 -58 -111q-47 -32 -134 -32h-224v510zM174 434v-134h94q57 0 82 14q30 18 30 54q0 35 -30 52q-23 14 -72 14h-104zM174 230v-154h119q56 0 82 25q21 19 21 49
q0 42 -36 64q-27 16 -89 16h-97z" />
    <glyph glyph-name="afii10068" unicode="&#x433;" horiz-adv-x="420" 
d="M80 510h335v-80h-241v-430h-94v510z" />
    <glyph glyph-name="afii10069" unicode="&#x434;" horiz-adv-x="567" 
d="M139 510h344v-434h72v-220h-90v144h-363v-144h-90v220h52q42 58 56 129.5t17 218.5zM147 76h242v358h-168l-1 -40q-3 -124 -17 -192.5t-56 -125.5z" />
    <glyph glyph-name="afii10070" unicode="&#x435;" 
d="M510 234h-364q2 -68 43 -113q48 -53 128 -53q82 0 154 51v-94l-14 -5q-3 -1 -14.5 -5.5t-17.5 -6.5t-20 -5.5t-26 -5.5t-30.5 -3.5t-38.5 -1.5q-130 0 -198 73q-66 70 -66 192q0 133 79 203q64 58 160 58q111 0 169 -72q56 -69 56 -185v-27zM146 304h264q1 53 -29 92
q-37 46 -101 46t-102 -51q-27 -38 -32 -87z" />
    <glyph glyph-name="afii10072" unicode="&#x436;" horiz-adv-x="756" 
d="M425 510v-224h7l168 224h114l-193 -243l222 -267h-120l-191 245h-7v-245h-94v245h-7l-191 -245h-120l222 267l-193 243h114l168 -224h7v224h94z" />
    <glyph glyph-name="afii10073" unicode="&#x437;" horiz-adv-x="482" 
d="M150 230v70h66q44 0 76 21q23 19 23 51q0 35 -30 52q-30 18 -81 18q-70 0 -138 -31l-2 78q83 29 155 29q95 0 145 -34q53 -36 53 -105q0 -42 -25 -72q-27 -31 -69 -39v-2q51 -7 80 -36q33 -33 33 -84q0 -82 -76 -124q-55 -30 -139 -30q-94 0 -181 38l10 77
q87 -39 164 -39q59 0 91 25q27 21 27 56q0 47 -37 67q-25 14 -84 14h-61z" />
    <glyph glyph-name="afii10074" unicode="&#x438;" horiz-adv-x="622" 
d="M174 510v-385l274 385h94v-510h-94v385l-274 -385h-94v510h94z" />
    <glyph glyph-name="afii10075" unicode="&#x439;" horiz-adv-x="622" 
d="M174 510v-385l274 385h94v-510h-94v385l-274 -385h-94v510h94zM408 758l65 -8q-3 -67 -50 -103q-40 -31 -105 -31t-105 31q-47 36 -50 103l65 8q5 -30 24 -46q22 -20 66 -20t66 20q19 16 24 46z" />
    <glyph glyph-name="afii10076" unicode="&#x43a;" horiz-adv-x="555" 
d="M80 0v510h94v-224l205 224h128l-237 -243l266 -267h-133l-229 245v-245h-94z" />
    <glyph glyph-name="afii10077" unicode="&#x43b;" horiz-adv-x="549" 
d="M119 510h350v-510h-94v434h-166l-3 -132q-4 -185 -26 -237q-30 -73 -114 -73q-28 0 -58 8l12 75q20 -5 29 -5q21 0 34.5 12.5t17 24t6.5 29.5q7 45 9 166z" />
    <glyph glyph-name="afii10078" unicode="&#x43c;" horiz-adv-x="743" 
d="M413 0h-83l-156 414v-414h-94v510h143l146 -365h5l145 365h144v-510h-94v414z" />
    <glyph glyph-name="afii10079" unicode="&#x43d;" horiz-adv-x="608" 
d="M174 510v-207h260v207h94v-510h-94v227h-260v-227h-94v510h94z" />
    <glyph glyph-name="afii10080" unicode="&#x43e;" horiz-adv-x="610" 
d="M305 518q121 0 193 -80q66 -73 66 -183t-66 -183q-72 -80 -193 -80t-193 80q-66 73 -66 183t66 183q72 80 193 80zM305 442q-72 0 -120 -60q-39 -51 -39 -127q0 -77 39 -127q45 -60 120 -60t120 60q39 50 39 127t-39 127q-45 60 -120 60z" />
    <glyph glyph-name="afii10081" unicode="&#x43f;" horiz-adv-x="601" 
d="M80 510h441v-510h-94v434h-253v-434h-94v510z" />
    <glyph glyph-name="afii10082" unicode="&#x440;" horiz-adv-x="611" 
d="M80 510h90v-73h2q58 81 169 81q103 0 162 -68q62 -72 62 -191q0 -118 -59 -192q-60 -75 -160 -75q-65 0 -112 25q-37 19 -58 50h-2v-291h-94v734zM174 254q0 -79 39 -131q40 -55 109 -55q57 0 96 43q47 52 47 151q0 88 -42 136q-37 44 -98 44q-72 0 -114 -60
q-37 -52 -37 -128z" />
    <glyph glyph-name="afii10083" unicode="&#x441;" horiz-adv-x="444" 
d="M412 498l-8 -78q-50 22 -102 22q-60 0 -105 -39q-27 -24 -43 -64t-16 -84q0 -79 39 -128q48 -59 131 -59q57 0 101 29l7 -84q-48 -21 -118 -21q-117 0 -192 82q-68 73 -68 185q0 127 88 200q71 59 172 59q58 0 114 -20z" />
    <glyph glyph-name="afii10084" unicode="&#x442;" horiz-adv-x="468" 
d="M10 510h448v-76h-177v-434h-94v434h-177v76z" />
    <glyph glyph-name="afii10085" unicode="&#x443;" horiz-adv-x="492" 
d="M36 -217l6 77q27 -8 45 -8q37 0 64 27q25 25 41 79l6 22l-12 38l-179 492h103l140 -419h2l137 419h95l-191 -529q-40 -110 -67 -144q-48 -61 -131 -61q-28 0 -54 6z" />
    <glyph glyph-name="afii10086" unicode="&#x444;" horiz-adv-x="768" 
d="M431 700v-204q48 22 91 22q52 0 98.5 -27.5t73.5 -84.5q28 -60 28 -151t-28 -151q-52 -112 -176 -112q-46 0 -87 22v-238h-94v238q-41 -22 -87 -22q-124 0 -176 112q-28 60 -28 151t28 151q27 57 73.5 84.5t98.5 27.5q43 0 91 -22v204h94zM431 427v-343q34 -17 67 -17
q66 0 98 62q26 49 26 126q0 75 -26 126q-31 62 -101 62q-32 0 -64 -16zM337 84v343q-32 16 -65 16q-67 0 -100 -62q-26 -51 -26 -126q0 -77 26 -126q32 -62 98 -62q33 0 67 17z" />
    <glyph glyph-name="afii10087" unicode="&#x445;" horiz-adv-x="500" 
d="M10 0l184 267l-166 243h117l111 -182l113 182h105l-164 -243l180 -267h-116l-126 200l-126 -200h-112z" />
    <glyph glyph-name="afii10088" unicode="&#x446;" horiz-adv-x="597" 
d="M414 510h94v-434h77v-220h-90v144h-415v510h94v-434h240v434z" />
    <glyph glyph-name="afii10089" unicode="&#x447;" horiz-adv-x="536" 
d="M362 0v201q-65 -15 -133 -15q-90 0 -136 38q-48 39 -48 108v178h94v-150q0 -58 28 -80q23 -18 84 -18q53 0 111 13v235h94v-510h-94z" />
    <glyph glyph-name="afii10090" unicode="&#x448;" horiz-adv-x="804" 
d="M80 0v510h94v-434h181v434h94v-434h181v434h94v-510h-644z" />
    <glyph glyph-name="afii10091" unicode="&#x449;" horiz-adv-x="813" 
d="M80 0v510h94v-434h181v434h94v-434h181v434h94v-434h77v-220h-90v144h-631z" />
    <glyph glyph-name="afii10092" unicode="&#x44a;" horiz-adv-x="577" 
d="M235 315h105q100 0 152 -39q57 -43 57 -121q0 -70 -48 -113q-48 -42 -142 -42h-218v434h-146v76h240v-195zM235 239v-163h122q55 0 79 26q19 20 19 55q0 39 -24 59q-26 23 -89 23h-107z" />
    <glyph glyph-name="afii10093" unicode="&#x44b;" horiz-adv-x="742" 
d="M80 510h94v-195h105q100 0 152 -39q57 -43 57 -121q0 -70 -48 -113q-48 -42 -142 -42h-218v510zM174 239v-163h122q55 0 79 26q19 20 19 55q0 39 -24 59q-26 23 -89 23h-107zM568 0v510h94v-510h-94z" />
    <glyph glyph-name="afii10094" unicode="&#x44c;" horiz-adv-x="516" 
d="M80 510h94v-195h105q100 0 152 -39q57 -43 57 -121q0 -70 -48 -113q-48 -42 -142 -42h-218v510zM174 239v-163h122q55 0 79 26q19 20 19 55q0 39 -24 59q-26 23 -89 23h-107z" />
    <glyph glyph-name="afii10095" unicode="&#x44d;" horiz-adv-x="487" 
d="M57 422l-8 76q64 20 130 20q112 0 180 -60q82 -72 82 -199q0 -119 -64 -190q-70 -77 -204 -77q-65 0 -128 21l7 83q58 -28 121 -28q89 0 132 52q36 43 36 108h-205v74h201q-3 54 -35 91q-43 49 -129 49q-56 0 -116 -20z" />
    <glyph glyph-name="afii10096" unicode="&#x44e;" horiz-adv-x="822" 
d="M174 303h91q12 95 82 156q67 59 170 59q121 0 193 -80q66 -73 66 -183t-66 -183q-74 -80 -193 -80q-125 0 -196 84q-51 60 -59 151h-88v-227h-94v510h94v-207zM517 442q-72 0 -120 -60q-39 -51 -39 -127q0 -77 39 -127q45 -60 120 -60t120 60q39 50 39 127t-39 127
q-45 60 -120 60z" />
    <glyph glyph-name="afii10097" unicode="&#x44f;" horiz-adv-x="526" 
d="M446 510v-510h-94v201h-93l-103 -201h-111l120 218q-49 10 -79 46q-31 37 -31 95q0 65 52 110q50 41 117 41h222zM352 439h-105q-44 0 -69 -25q-23 -23 -23 -59q0 -35 23 -58q25 -26 69 -26h105v168z" />
    <glyph glyph-name="afii10071" unicode="&#x451;" 
d="M510 234h-364q2 -68 43 -113q48 -53 128 -53q82 0 154 51v-94l-14 -5q-3 -1 -14.5 -5.5t-17.5 -6.5t-20 -5.5t-26 -5.5t-30.5 -3.5t-38.5 -1.5q-130 0 -198 73q-66 70 -66 192q0 133 79 203q64 58 160 58q111 0 169 -72q56 -69 56 -185v-27zM146 304h264q1 53 -29 92
q-37 46 -101 46t-102 -51q-27 -38 -32 -87zM149 620v100h94v-100h-94zM313 620v100h94v-100h-94z" />
    <glyph glyph-name="afii10099" unicode="&#x452;" horiz-adv-x="604" 
d="M174 655h203v-54h-203v-164h2q25 37 67 59q43 22 97 22q96 0 144 -56q47 -55 47 -159v-68q0 -132 -17 -195q-21 -76 -65 -129t-103 -84l-54 51q55 30 90 76q31 41 44 102q11 50 11 177v31q0 104 -32 144q-28 34 -83 34q-60 0 -100 -44q-48 -53 -48 -162v-236h-94v601h-75
v54h75v107h94v-107z" />
    <glyph glyph-name="afii10100" unicode="&#x453;" horiz-adv-x="420" 
d="M80 510h335v-80h-241v-430h-94v510zM193 610l78 130h120l-118 -130h-80z" />
    <glyph glyph-name="afii10101" unicode="&#x454;" horiz-adv-x="489" 
d="M439 498l-8 -76q-54 21 -116 21q-87 0 -129 -50q-32 -37 -35 -91h198v-74h-202q0 -63 34 -105q44 -56 134 -56q66 0 121 29l7 -83q-63 -21 -128 -21q-139 0 -210 84q-60 71 -60 183q0 125 84 199q70 60 176 60q68 0 134 -20z" />
    <glyph glyph-name="afii10102" unicode="&#x455;" horiz-adv-x="406" 
d="M48 20l5 83q61 -36 119 -36q47 0 75 26q19 19 19 46q0 26 -25 46q-25 19 -68 40l-20 9q-64 28 -91 69q-17 27 -17 62q0 68 45 109q47 44 135 44q57 0 117 -20l-8 -80q-19 11 -43 17q-30 7 -55 7q-41 0 -62 -12q-29 -16 -29 -48q0 -8 1.5 -15t5.5 -13.5t7 -11t11 -10.5
t11 -8.5t13.5 -8t13.5 -6.5t15.5 -6.5t13.5 -6.5l15 -7q70 -33 92 -65q22 -34 22 -79q0 -68 -52 -112q-49 -41 -133 -41q-71 0 -133 28z" />
    <glyph glyph-name="afii10103" unicode="&#x456;" horiz-adv-x="254" 
d="M80 0v510h94v-510h-94zM180 720v-106h-106v106h106z" />
    <glyph glyph-name="afii10104" unicode="&#x457;" horiz-adv-x="254" 
d="M80 0v510h94v-510h-94zM22 620v100h80v-100h-80zM152 620v100h80v-100h-80z" />
    <glyph glyph-name="afii10105" unicode="&#x458;" horiz-adv-x="254" 
d="M-28 -218l3 81q16 -3 28 -3h10q33 2 49 27q18 29 18 81v542h94v-528q0 -111 -34 -156q-37 -48 -124 -48q-24 0 -44 4zM180 720v-106h-106v106h106z" />
    <glyph glyph-name="afii10106" unicode="&#x459;" horiz-adv-x="800" 
d="M463 315h100q100 0 152 -39q57 -43 57 -121q0 -70 -48 -113q-48 -42 -142 -42h-213v434h-160l-3 -132q-4 -185 -26 -237q-30 -73 -114 -73q-28 0 -58 8l12 75q20 -5 29 -5q21 0 34.5 12.5t17 24t6.5 29.5q5 31 9 166l5 208h342v-195zM463 239v-163h117q55 0 79 26
q19 20 19 55q0 39 -24 59q-26 23 -89 23h-102z" />
    <glyph glyph-name="afii10107" unicode="&#x45a;" horiz-adv-x="854" 
d="M517 315h100q100 0 152 -39q57 -43 57 -121q0 -70 -48 -113q-48 -42 -142 -42h-213v239h-249v-239h-94v510h94v-195h249v195h94v-195zM517 239v-163h117q55 0 79 26q19 20 19 55q0 39 -24 59q-26 23 -89 23h-102z" />
    <glyph glyph-name="afii10108" unicode="&#x45b;" horiz-adv-x="604" 
d="M531 303v-303h-94v264q0 104 -32 144q-28 34 -83 34q-60 0 -100 -44q-48 -53 -48 -162v-236h-94v601h-75v54h75v107h94v-107h203v-54h-203v-164h2q25 37 67 59q43 22 97 22q96 0 144 -56q47 -55 47 -159z" />
    <glyph glyph-name="afii10109" unicode="&#x45c;" horiz-adv-x="555" 
d="M80 0v510h94v-224l205 224h128l-237 -243l266 -267h-133l-229 245v-245h-94zM233 610l78 130h120l-118 -130h-80z" />
    <glyph glyph-name="afii10110" unicode="&#x45e;" horiz-adv-x="492" 
d="M36 -217l6 77q27 -8 45 -8q37 0 64 27q25 25 41 79l6 22l-12 38l-179 492h103l140 -419h2l137 419h95l-191 -529q-40 -110 -67 -144q-48 -61 -131 -61q-28 0 -54 6zM336 758l65 -8q-3 -67 -50 -103q-40 -31 -105 -31t-105 31q-47 36 -50 103l65 8q5 -30 24 -46
q22 -20 66 -20t66 20q19 16 24 46z" />
    <glyph glyph-name="afii10193" unicode="&#x45f;" horiz-adv-x="598" 
d="M424 510h94v-510h-174v-144h-90v144h-174v510h94v-434h250v434z" />
    <glyph glyph-name="afii10146" unicode="&#x462;" horiz-adv-x="654" 
d="M-5 638h178v90h100v-90h200v-88h-200v-132h54q48 0 72 -1t68.5 -11.5t72.5 -31.5q35 -26 57 -70t22 -97q0 -96 -61 -151q-26 -23 -61 -36q-53 -20 -144 -20h-180v550h-178v88zM273 330v-242h69q99 0 135 30q23 18 31 49q5 16 5 41q0 29 -10 52q-9 22 -25 36
q-18 16 -46.5 24.5t-43 9t-44.5 0.5h-71z" />
    <glyph glyph-name="afii10194" unicode="&#x463;" horiz-adv-x="577" 
d="M-5 510h146v190h94v-190h170v-80h-170v-115h105q100 0 152 -39q57 -43 57 -121q0 -70 -48 -113q-22 -20 -59 -32q-32 -10 -83 -10h-218v434h-146v76zM235 239v-163h122q55 0 79 26q10 10 15 26q4 12 4 29q0 21 -7 36q-6 14 -17 23q-26 23 -89 23h-107z" />
    <glyph glyph-name="afii10147" unicode="&#x472;" horiz-adv-x="778" 
d="M389 710q158 0 250 -106q86 -98 86 -254q0 -157 -86 -255q-91 -105 -250 -105t-250 105q-86 98 -86 255q0 156 86 254q92 106 250 106zM164 407h450q-11 80 -54 135q-62 80 -171 80t-171 -80q-43 -55 -54 -135zM618 319h-458q8 -96 58 -161q62 -80 171 -80t171 80
q50 65 58 161z" />
    <glyph glyph-name="afii10195" unicode="&#x473;" horiz-adv-x="610" 
d="M305 518q121 0 193 -80q66 -73 66 -183t-66 -183q-72 -80 -193 -80t-193 80q-66 73 -66 183t66 183q72 80 193 80zM150 300h310q-8 48 -35 82q-45 60 -120 60q-74 0 -120 -60q-27 -34 -35 -82zM463 230h-316q5 -58 38 -102q45 -60 120 -60t120 60q33 44 38 102z" />
    <glyph glyph-name="afii10148" unicode="&#x474;" horiz-adv-x="730" 
d="M6 700h112l219 -612h2l180 510q39 112 149 112q30 0 56 -10l-3 -87q-17 8 -39 8q-59 0 -82 -64l-206 -557h-125z" />
    <glyph glyph-name="afii10196" unicode="&#x475;" horiz-adv-x="552" 
d="M11 510h103l138 -416h2l106 325q31 99 123 99q28 0 58 -8l-12 -76q-17 6 -29 6q-17 0 -29 -5t-19 -15.5t-10.5 -17t-7.5 -19.5l-132 -383h-108z" />
    <glyph glyph-name="afii10050" unicode="&#x490;" horiz-adv-x="464" 
d="M83 700h277v140h94v-228h-271v-612h-100v700z" />
    <glyph glyph-name="afii10098" unicode="&#x491;" horiz-adv-x="420" 
d="M80 510h245v120h90v-200h-241v-430h-94v510z" />
    <glyph glyph-name="uni0492" unicode="&#x492;" horiz-adv-x="475" 
d="M94 0v343h-68v64h68v293h371v-88h-271v-205h180v-64h-180v-343h-100z" />
    <glyph glyph-name="uni0493" unicode="&#x493;" horiz-adv-x="420" 
d="M80 510h335v-80h-241v-150h153v-54h-153v-226h-94v226h-75v54h75v230z" />
    <glyph glyph-name="uni0494" unicode="&#x494;" horiz-adv-x="654" 
d="M94 0v700h371v-88h-271v-208q15 10 30 18q21 11 46 19q52 17 99 17q61 0 104 -17q39 -16 66 -44q55 -57 55 -172q0 -93 -34 -150q-51 -85 -176 -85q-43 0 -85 13l7 82q34 -14 75 -14q29 0 50 11q22 10 36 32q23 37 23 108q0 78 -32 117q-17 20 -40 29q-25 10 -65 10
q-27 0 -47 -4q-23 -4 -47 -14q-32 -13 -65 -37v-323h-100z" />
    <glyph glyph-name="uni0495" unicode="&#x495;" horiz-adv-x="500" 
d="M80 510h335v-80h-241v-133h39q106 0 166 -48q71 -58 71 -184q0 -54 -12 -94q-18 -59 -61 -96q-61 -55 -171 -55v76q13 0 20 1q58 6 89 44q20 24 28 59q7 29 7 65q0 44 -10 74q-10 27 -26 45q-20 20 -46 29q-24 8 -57 8h-37v-221h-94v510z" />
    <glyph glyph-name="uni0496" unicode="&#x496;" horiz-adv-x="944" 
d="M515 700v-308h7l251 308h118l-273 -331l226 -281h80v-244h-98v156h-40l-264 343h-7v-343h-100v343h-7l-264 -343h-130l298 369l-273 331h118l251 -308h7v308h100z" />
    <glyph glyph-name="uni0497" unicode="&#x497;" horiz-adv-x="770" 
d="M425 510v-224h7l168 224h114l-193 -243l159 -191h78v-220h-90v144h-44l-192 245h-7v-245h-94v245h-7l-191 -245h-120l222 267l-193 243h114l168 -224h7v224h94z" />
    <glyph glyph-name="uni0498" unicode="&#x498;" horiz-adv-x="573" 
d="M185 401h45q39 0 68 8q32 7 49 21q18 13 30 36q11 22 11 51q0 23 -9 42q-9 20 -26 34q-22 18 -51 24q-20 5 -50 5q-87 0 -171 -38l-10 92q94 34 190 34q108 0 166 -46q37 -29 53 -69q14 -32 14 -74q0 -65 -36 -105q-16 -18 -43 -31q-25 -12 -46 -17v-4q66 -9 107 -53
q18 -20 30 -50q11 -29 11 -66q0 -96 -80 -155q-29 -21 -61 -33q-33 -12 -70 -15v-148h-98v148q-80 5 -158 42l11 91q92 -47 186 -47q75 0 116 29q48 33 48 91q0 57 -39 88q-41 33 -124 33h-63v82z" />
    <glyph glyph-name="uni0499" unicode="&#x499;" horiz-adv-x="482" 
d="M150 230v70h66q23 0 45 6q18 5 31 15q11 8 18 24q5 10 5 27t-8 31q-7 13 -22 21t-34 13t-47 5q-70 0 -138 -31l-2 78q83 29 155 29q95 0 145 -34q25 -17 38 -42q15 -28 15 -63q0 -42 -25 -72q-15 -16 -32 -25q-20 -10 -37 -14v-2q51 -7 80 -36q18 -17 26 -40q7 -20 7 -44
q0 -81 -76 -124q-21 -11 -46 -19q-23 -7 -44 -8v-139h-90v139q-74 6 -140 35l10 77q87 -39 164 -39q59 0 91 25q27 21 27 56q0 47 -37 67q-25 14 -84 14h-61z" />
    <glyph glyph-name="uni049A" unicode="&#x49a;" horiz-adv-x="668" 
d="M94 0v700h100v-308l298 308h133l-328 -331l271 -281h80v-244h-98v156h-44l-312 343v-343h-100z" />
    <glyph glyph-name="uni049B" unicode="&#x49b;" horiz-adv-x="550" 
d="M80 0v510h94v-224l205 224h128l-237 -243l192 -191h76v-220h-90v144h-44l-230 245v-245h-94z" />
    <glyph glyph-name="uni049C" unicode="&#x49c;" horiz-adv-x="744" 
d="M94 0v700h100v-289h88v129h70v-129l234 289h122l-277 -331l297 -369h-130l-246 323v-143h-70v143h-88v-323h-100z" />
    <glyph glyph-name="uni049D" unicode="&#x49d;" horiz-adv-x="600" 
d="M80 510h94v-206h56v86h60v-86l167 206h110l-207 -243l230 -267h-120l-180 228v-88h-60v88h-56v-228h-94v510z" />
    <glyph glyph-name="uni04A0" unicode="&#x4a0;" horiz-adv-x="746" 
d="M-5 700h278v-308l298 308h133l-328 -331l354 -369h-146l-311 343v-343h-100v612h-178v88z" />
    <glyph glyph-name="uni04A1" unicode="&#x4a1;" horiz-adv-x="616" 
d="M-5 510h240v-224l205 224h128l-237 -243l266 -267h-133l-229 245v-245h-94v434h-146v76z" />
    <glyph glyph-name="uni04A2" unicode="&#x4a2;" horiz-adv-x="728" 
d="M94 0v700h100v-293h334v293h100v-612h80v-244h-98v156h-82v319h-334v-319h-100z" />
    <glyph glyph-name="uni04A3" unicode="&#x4a3;" horiz-adv-x="612" 
d="M174 510v-207h260v207h94v-434h72v-220h-90v144h-76v227h-260v-227h-94v510h94z" />
    <glyph glyph-name="uni04A4" unicode="&#x4a4;" horiz-adv-x="900" 
d="M94 700h100v-293h324v293h372v-88h-272v-612h-100v319h-324v-319h-100v700z" />
    <glyph glyph-name="uni04A5" unicode="&#x4a5;" horiz-adv-x="774" 
d="M174 510v-207h260v207h335v-80h-241v-430h-94v227h-260v-227h-94v510h94z" />
    <glyph glyph-name="uni04AA" unicode="&#x4aa;" horiz-adv-x="625" 
d="M579 680l-8 -97q-66 39 -144 39q-100 0 -171 -56q-97 -76 -97 -216q0 -111 66 -186q74 -86 212 -86q45 0 94 16q27 9 43 17l6 -96q-50 -18 -95 -23v-148h-98v148q-72 3 -134.5 30.5t-103.5 70.5q-96 98 -96 258q0 183 130 283q99 76 244 76q88 0 152 -30z" />
    <glyph glyph-name="uni04AB" unicode="&#x4ab;" horiz-adv-x="444" 
d="M412 498l-8 -78q-50 22 -102 22q-60 0 -105 -39q-27 -24 -43 -64t-16 -84q0 -79 39 -128q48 -59 131 -59q37 0 72 14q16 6 29 15l7 -84q-33 -16 -65 -18v-139h-90v139q-95 13 -155 79q-68 73 -68 185q0 127 88 200q71 59 172 59q58 0 114 -20z" />
    <glyph glyph-name="uni04AE" unicode="&#x4ae;" horiz-adv-x="667" 
d="M284 0v293l-273 407h117l208 -314l203 314h117l-272 -407v-293h-100z" />
    <glyph glyph-name="uni04AF" unicode="&#x4af;" horiz-adv-x="492" 
d="M110 510l140 -407h2l137 407h95l-191 -510v-224h-94v224l-192 510h103z" />
    <glyph glyph-name="uni04B0" unicode="&#x4b0;" horiz-adv-x="667" 
d="M284 0v229h-180v64h180l-273 407h117l208 -314l203 314h117l-272 -407h180v-64h-180v-229h-100z" />
    <glyph glyph-name="uni04B1" unicode="&#x4b1;" horiz-adv-x="492" 
d="M110 510l140 -407h2l137 407h95l-191 -510h140v-54h-140v-170h-94v170h-140v54h140l-192 510h103z" />
    <glyph glyph-name="uni04B2" unicode="&#x4b2;" horiz-adv-x="698" 
d="M8 0l257 364l-234 336h120l186 -269l185 269h114l-235 -334l197 -278h80v-244h-98v156h-46l-207 297l-199 -297h-120z" />
    <glyph glyph-name="uni04B3" unicode="&#x4b3;" horiz-adv-x="528" 
d="M10 0l184 267l-166 243h117l111 -182l113 182h105l-164 -243l128 -191h78v-220h-90v144h-52l-126 200l-126 -200h-112z" />
    <glyph glyph-name="uni04B6" unicode="&#x4b6;" horiz-adv-x="659" 
d="M50 700h100v-210q0 -22 1 -34.5t9 -33.5t25 -35q20 -17 52 -24q24 -6 62 -6q45 0 78 5q41 6 82 18v320h100v-612h80v-244h-98v156h-82v293q-91 -24 -178 -24q-144 0 -197 67q-34 43 -34 120v244z" />
    <glyph glyph-name="uni04B7" unicode="&#x4b7;" horiz-adv-x="540" 
d="M45 510h94v-150q0 -26 3 -39q7 -27 25 -41q16 -12 47 -16q12 -2 37 -2q27 0 52 3q32 3 59 10v235h94v-434h72v-220h-90v144h-76v201q-20 -4 -60 -10q-40 -5 -73 -5q-90 0 -136 38q-48 39 -48 108v178z" />
    <glyph glyph-name="uni04B8" unicode="&#x4b8;" horiz-adv-x="653" 
d="M50 700h100v-210q0 -23 1 -35t9 -33t25 -35q20 -17 52 -24q22 -5 39 -5v122h70v-122q63 5 113 22v320h100v-700h-100v293q-21 -6 -65 -14q-24 -5 -48 -6v-123h-70v123q-54 -2 -107.5 13.5t-82.5 49.5q-36 41 -36 120v244z" />
    <glyph glyph-name="uni04B9" unicode="&#x4b9;" horiz-adv-x="536" 
d="M362 0v201q-36 -10 -80 -13v-88h-60v88q-25 -1 -59 6q-43 9 -70 30q-31 25 -42 62q-6 22 -6 46v178h94v-150q0 -26 3 -39q7 -27 25 -41q12 -9 30 -14q12 -3 25 -3v97h60v-97q40 2 80 12v235h94v-510h-94z" />
    <glyph glyph-name="uni04BA" unicode="&#x4ba;" horiz-adv-x="671" 
d="M94 0v700h100v-296q38 21 82 35q57 19 109 19q95 0 146 -41q60 -48 60 -143v-274h-100v246q0 37 -5.5 59.5t-26.5 41.5q-34 31 -95 31q-40 0 -93 -19q-43 -15 -77 -36v-323h-100z" />
    <glyph glyph-name="uni04BB" unicode="&#x4bb;" horiz-adv-x="604" 
d="M80 0v762h94v-325h2q25 37 67 59q43 22 97 22q96 0 144 -56q47 -55 47 -159v-303h-94v264q0 104 -32 144q-28 34 -83 34q-60 0 -100 -44q-48 -53 -48 -162v-236h-94z" />
    <glyph glyph-name="uni04C3" unicode="&#x4c3;" horiz-adv-x="660" 
d="M94 0v700h100v-308l297 308h133l-305 -309q50 2 109 -11t99 -40q97 -65 97 -227q0 -155 -91 -240q-81 -75 -213 -73v88q49 0 89 16q36 14 61 44q48 57 48 165q0 100 -52 146q-50 44 -153 44h-119v-303h-100z" />
    <glyph glyph-name="uni04C4" unicode="&#x4c4;" horiz-adv-x="550" 
d="M80 0v510h94v-224l205 224h128l-210 -213q31 0 66 -10q46 -14 76 -38q35 -28 51 -67q20 -45 20 -117q0 -54 -12 -94q-18 -59 -61 -96q-35 -32 -81 -44q-30 -8 -64 -10q-9 -1 -26 -1v76q36 0 65 12q24 10 44 33q35 43 35 124q0 82 -36 119t-113 37h-87v-221h-94z" />
    <glyph glyph-name="uni04C7" unicode="&#x4c7;" horiz-adv-x="722" 
d="M94 0v700h100v-293h334v293h100v-690q0 -116 -55 -165q-51 -45 -144 -45q-47 0 -78 12v86q34 -10 66 -10q30 0 54 10q20 8 31 22q15 18 22 45q4 20 4 45v309h-334v-319h-100z" />
    <glyph glyph-name="uni04C8" unicode="&#x4c8;" horiz-adv-x="608" 
d="M174 510v-207h260v207h94v-520q0 -98 -34 -142q-37 -48 -124 -48q-24 0 -44 4l3 81q2 -1 7.5 -1.5t7.5 -0.5q5 -1 16 -1q22 0 37 8q12 7 19 19q6 9 12 29q6 26 6 52v237h-260v-227h-94v510h94z" />
    <glyph glyph-name="uni04D0" unicode="&#x4d0;" horiz-adv-x="722" 
d="M12 0l298 700h105l295 -700h-109l-71 177h-342l-71 -177h-105zM498 259l-139 347l-139 -347h278zM461 893l67 -8q-4 -66 -52 -101q-42 -30 -108 -30t-108 30q-48 35 -52 101l67 8q5 -25 25 -45q22 -20 68 -20t68 20q20 20 25 45z" />
    <glyph glyph-name="uni04D1" unicode="&#x4d1;" 
d="M109 392l-6 82q73 44 176 44q100 0 150 -50q30 -30 39 -67.5t9 -90.5v-207q0 -78 4 -103h-88v69h-2q-57 -77 -167 -77q-73 0 -122 36q-56 41 -56 116q0 91 80 136q58 34 193 34q30 0 64 -2v28q0 49 -30 75q-31 27 -93 27q-81 0 -151 -50zM383 199v44q-36 2 -54 2
q-105 0 -146 -28q-37 -25 -37 -68q0 -38 27 -59q28 -22 73 -22q65 0 103 40q34 36 34 91zM368 758l65 -8q-3 -67 -50 -103q-40 -31 -105 -31t-105 31q-47 36 -50 103l65 8q5 -30 24 -46q22 -20 66 -20t66 20q19 16 24 46z" />
    <glyph glyph-name="uni04D2" unicode="&#x4d2;" horiz-adv-x="722" 
d="M12 0l298 700h105l295 -700h-109l-71 177h-342l-71 -177h-105zM498 259l-139 347l-139 -347h278zM199 852h106v-100h-106v100zM415 852h106v-100h-106v100z" />
    <glyph glyph-name="uni04D3" unicode="&#x4d3;" 
d="M109 392l-6 82q73 44 176 44q100 0 150 -50q30 -30 39 -67.5t9 -90.5v-207q0 -78 4 -103h-88v69h-2q-57 -77 -167 -77q-73 0 -122 36q-56 41 -56 116q0 91 80 136q58 34 193 34q30 0 64 -2v28q0 49 -30 75q-31 27 -93 27q-81 0 -151 -50zM383 199v44q-36 2 -54 2
q-105 0 -146 -28q-37 -25 -37 -68q0 -38 27 -59q28 -22 73 -22q65 0 103 40q34 36 34 91zM149 620v100h94v-100h-94zM313 620v100h94v-100h-94z" />
    <glyph glyph-name="uni04D4" unicode="&#x4d4;" horiz-adv-x="944" 
d="M2 0l422 700h439v-88h-277l13 -206h246v-88h-241l14 -230h255v-88h-347l-11 176h-297l-105 -176h-111zM510 258l-22 370h-2l-220 -370h244z" />
    <glyph glyph-name="uni04D5" unicode="&#x4d5;" horiz-adv-x="889" 
d="M107 392l-5 78q78 48 169 48q55 0 103 -21.5t73 -66.5q50 88 177 88q62 0 107.5 -23t70 -64.5t35.5 -89.5t11 -107h-361q0 -70 47.5 -118.5t119.5 -48.5q74 0 141 52v-93q-75 -34 -146 -34q-47 0 -88.5 10t-78.5 37.5t-53 69.5h-2q-15 -56 -69 -86.5t-120 -30.5
q-77 0 -137 44t-60 117q0 40 17.5 70t43.5 47t61 27.5t64 13.5t60 3q30 0 64 -2.5t42 -2.5q0 69 -39.5 101.5t-104.5 32.5q-71 0 -142 -51zM141 150q0 -40 29.5 -61.5t70.5 -21.5q66 0 109 51.5t43 123.5q-4 0 -34 1.5t-56 1.5q-25 0 -48.5 -3.5t-51.5 -12.5t-45 -29
t-17 -50zM487 303h261q0 53 -35 96.5t-90 43.5q-60 0 -98 -40t-38 -100z" />
    <glyph glyph-name="uni04D6" unicode="&#x4d6;" 
d="M94 0v700h391v-88h-291v-205h265v-88h-265v-231h291v-88h-391zM378 893l67 -8q-4 -66 -52 -101q-42 -30 -108 -30t-108 30q-48 35 -52 101l67 8q5 -25 25 -45q22 -20 68 -20t68 20q20 20 25 45z" />
    <glyph glyph-name="uni04D7" unicode="&#x4d7;" 
d="M510 234h-364q2 -68 43 -113q48 -53 128 -53q82 0 154 51v-94l-14 -5q-3 -1 -14.5 -5.5t-17.5 -6.5t-20 -5.5t-26 -5.5t-30.5 -3.5t-38.5 -1.5q-130 0 -198 73q-66 70 -66 192q0 133 79 203q64 58 160 58q111 0 169 -72q56 -69 56 -185v-27zM146 304h264q1 53 -29 92
q-37 46 -101 46t-102 -51q-27 -38 -32 -87zM368 758l65 -8q-3 -67 -50 -103q-40 -31 -105 -31t-105 31q-47 36 -50 103l65 8q5 -30 24 -46q22 -20 66 -20t66 20q19 16 24 46z" />
    <glyph glyph-name="uni04D8" unicode="&#x4d8;" horiz-adv-x="666" 
d="M53 375h454q0 103 -54 170q-63 77 -164 77q-96 0 -188 -70v113l17 7q32 13 46 18.5t52 12.5t81 7q155 0 237 -100q79 -96 79 -263q0 -182 -94 -278q-77 -79 -191 -79q-134 0 -206 99q-69 94 -69 253v33zM507 287h-344q0 -83 40 -141q46 -68 131 -68q83 0 132 76
q36 55 41 133z" />
    <glyph glyph-name="afii10846" unicode="&#x4d9;" 
d="M46 276h364q-2 68 -43 113q-48 53 -128 53q-82 0 -154 -51v94l14 5q3 1 14.5 5.5t17.5 6.5t20 5.5t26 5.5t30.5 3.5t38.5 1.5q130 0 198 -73q66 -70 66 -192q0 -133 -79 -203q-64 -58 -160 -58q-111 0 -169 72q-56 69 -56 185v27zM410 206h-264q-1 -53 29 -92
q37 -46 101 -46t102 51q27 38 32 87z" />
    <glyph glyph-name="uni04DA" unicode="&#x4da;" horiz-adv-x="666" 
d="M53 375h454q0 103 -54 170q-63 77 -164 77q-96 0 -188 -70v113l17 7q32 13 46 18.5t52 12.5t81 7q155 0 237 -100q79 -96 79 -263q0 -182 -94 -278q-77 -79 -191 -79q-134 0 -206 99q-69 94 -69 253v33zM507 287h-344q0 -83 40 -141q46 -68 131 -68q83 0 132 76
q36 55 41 133zM171 852h106v-100h-106v100zM387 852h106v-100h-106v100z" />
    <glyph glyph-name="uni04DB" unicode="&#x4db;" 
d="M46 276h364q-2 68 -43 113q-48 53 -128 53q-82 0 -154 -51v94l14 5q3 1 14.5 5.5t17.5 6.5t20 5.5t26 5.5t30.5 3.5t38.5 1.5q130 0 198 -73q66 -70 66 -192q0 -133 -79 -203q-64 -58 -160 -58q-111 0 -169 72q-56 69 -56 185v27zM410 206h-264q-1 -53 29 -92
q37 -46 101 -46t102 51q27 38 32 87zM149 620v100h94v-100h-94zM313 620v100h94v-100h-94z" />
    <glyph glyph-name="uni04DC" unicode="&#x4dc;" horiz-adv-x="932" 
d="M515 700v-308h7l251 308h118l-273 -331l298 -369h-130l-264 343h-7v-343h-100v343h-7l-264 -343h-130l298 369l-273 331h118l251 -308h7v308h100zM304 852h106v-100h-106v100zM520 852h106v-100h-106v100z" />
    <glyph glyph-name="uni04DD" unicode="&#x4dd;" horiz-adv-x="756" 
d="M425 510v-224h7l168 224h114l-193 -243l222 -267h-120l-191 245h-7v-245h-94v245h-7l-191 -245h-120l222 267l-193 243h114l168 -224h7v224h94zM249 620v100h94v-100h-94zM413 620v100h94v-100h-94z" />
    <glyph glyph-name="uni04DE" unicode="&#x4de;" horiz-adv-x="573" 
d="M185 401h45q78 0 117 29q41 30 41 87q0 48 -35 76q-35 29 -101 29q-87 0 -171 -38l-10 92q94 34 190 34q108 0 166 -46q67 -53 67 -143q0 -65 -36 -105q-31 -33 -89 -48v-4q66 -9 107 -53t41 -116q0 -96 -80 -155q-67 -50 -188 -50q-105 0 -199 44l11 91q92 -47 186 -47
q75 0 116 29q48 33 48 91q0 57 -39 88q-41 33 -124 33h-63v82zM124 852h106v-100h-106v100zM340 852h106v-100h-106v100z" />
    <glyph glyph-name="uni04DF" unicode="&#x4df;" horiz-adv-x="482" 
d="M150 230v70h66q44 0 76 21q23 19 23 51q0 35 -30 52q-30 18 -81 18q-70 0 -138 -31l-2 78q83 29 155 29q95 0 145 -34q53 -36 53 -105q0 -42 -25 -72q-27 -31 -69 -39v-2q51 -7 80 -36q33 -33 33 -84q0 -82 -76 -124q-55 -30 -139 -30q-94 0 -181 38l10 77
q87 -39 164 -39q59 0 91 25q27 21 27 56q0 47 -37 67q-25 14 -84 14h-61zM112 620v100h94v-100h-94zM276 620v100h94v-100h-94z" />
    <glyph glyph-name="uni04E2" unicode="&#x4e2;" horiz-adv-x="745" 
d="M94 0v700h100v-477l-3 -87h5q23 46 63 110l280 454h112v-700h-100v477l3 87h-5q-16 -34 -63 -110l-280 -454h-112zM212 840h320v-70h-320v70z" />
    <glyph glyph-name="uni04E3" unicode="&#x4e3;" horiz-adv-x="622" 
d="M174 510v-385l274 385h94v-510h-94v385l-274 -385h-94v510h94zM163 652v70h296v-70h-296z" />
    <glyph glyph-name="uni04E4" unicode="&#x4e4;" horiz-adv-x="745" 
d="M94 0v700h100v-477l-3 -87h5q23 46 63 110l280 454h112v-700h-100v477l3 87h-5q-16 -34 -63 -110l-280 -454h-112zM210 852h106v-100h-106v100zM426 852h106v-100h-106v100z" />
    <glyph glyph-name="uni04E5" unicode="&#x4e5;" horiz-adv-x="622" 
d="M174 510v-385l274 385h94v-510h-94v385l-274 -385h-94v510h94zM182 620v100h94v-100h-94zM346 620v100h94v-100h-94z" />
    <glyph glyph-name="uni04E6" unicode="&#x4e6;" horiz-adv-x="778" 
d="M389 710q158 0 250 -106q86 -98 86 -254q0 -157 -86 -255q-91 -105 -250 -105t-250 105q-86 98 -86 255q0 156 86 254q92 106 250 106zM389 622q-109 0 -171 -80q-59 -75 -59 -192t59 -192q62 -80 171 -80t171 80q59 75 59 192t-59 192q-62 80 -171 80zM227 852h106v-100
h-106v100zM443 852h106v-100h-106v100z" />
    <glyph glyph-name="uni04E7" unicode="&#x4e7;" horiz-adv-x="610" 
d="M305 518q121 0 193 -80q66 -73 66 -183t-66 -183q-72 -80 -193 -80t-193 80q-66 73 -66 183t66 183q72 80 193 80zM305 442q-72 0 -120 -60q-39 -51 -39 -127q0 -77 39 -127q45 -60 120 -60t120 60q39 50 39 127t-39 127q-45 60 -120 60zM176 620v100h94v-100h-94z
M340 620v100h94v-100h-94z" />
    <glyph glyph-name="uni04E8" unicode="&#x4e8;" horiz-adv-x="778" 
d="M389 710q158 0 250 -106q86 -98 86 -254q0 -157 -86 -255q-91 -105 -250 -105t-250 105q-86 98 -86 255q0 156 86 254q92 106 250 106zM164 407h450q-11 80 -54 135q-62 80 -171 80t-171 -80q-43 -55 -54 -135zM618 319h-458q8 -96 58 -161q62 -80 171 -80t171 80
q50 65 58 161z" />
    <glyph glyph-name="uni04E9" unicode="&#x4e9;" horiz-adv-x="610" 
d="M305 518q121 0 193 -80q66 -73 66 -183t-66 -183q-72 -80 -193 -80t-193 80q-66 73 -66 183t66 183q72 80 193 80zM150 300h310q-8 48 -35 82q-45 60 -120 60q-74 0 -120 -60q-27 -34 -35 -82zM463 230h-316q5 -58 38 -102q45 -60 120 -60t120 60q33 44 38 102z" />
    <glyph glyph-name="uni04EA" unicode="&#x4ea;" horiz-adv-x="778" 
d="M389 710q158 0 250 -106q86 -98 86 -254q0 -157 -86 -255q-91 -105 -250 -105t-250 105q-86 98 -86 255q0 156 86 254q92 106 250 106zM164 407h450q-11 80 -54 135q-62 80 -171 80t-171 -80q-43 -55 -54 -135zM618 319h-458q8 -96 58 -161q62 -80 171 -80t171 80
q50 65 58 161zM227 852h106v-100h-106v100zM443 852h106v-100h-106v100z" />
    <glyph glyph-name="uni04EB" unicode="&#x4eb;" horiz-adv-x="610" 
d="M305 518q121 0 193 -80q66 -73 66 -183t-66 -183q-72 -80 -193 -80t-193 80q-66 73 -66 183t66 183q72 80 193 80zM150 300h310q-8 48 -35 82q-45 60 -120 60q-74 0 -120 -60q-27 -34 -35 -82zM463 230h-316q5 -58 38 -102q45 -60 120 -60t120 60q33 44 38 102zM176 620
v100h94v-100h-94zM340 620v100h94v-100h-94z" />
    <glyph glyph-name="uni04EE" unicode="&#x4ee;" horiz-adv-x="581" 
d="M15 700h113l182 -394h7l171 394h97l-266 -599q-25 -57 -60 -83q-36 -28 -88 -28q-39 0 -83 14l11 87q32 -13 60 -13q27 0 47 14q8 5 18 18.5t14 23.5l23 57zM134 840h320v-70h-320v70z" />
    <glyph glyph-name="uni04EF" unicode="&#x4ef;" horiz-adv-x="492" 
d="M36 -217l6 77q27 -8 45 -8q37 0 64 27q25 25 41 79l6 22l-12 38l-179 492h103l140 -419h2l137 419h95l-191 -529q-40 -110 -67 -144q-48 -61 -131 -61q-28 0 -54 6zM98 652v70h296v-70h-296z" />
    <glyph glyph-name="uni04F0" unicode="&#x4f0;" horiz-adv-x="581" 
d="M15 700h113l182 -394h7l171 394h97l-266 -599q-25 -57 -60 -83q-36 -28 -88 -28q-39 0 -83 14l11 87q32 -13 60 -13q27 0 47 14q8 5 18 18.5t14 23.5l23 57zM128 852h106v-100h-106v100zM344 852h106v-100h-106v100z" />
    <glyph glyph-name="uni04F1" unicode="&#x4f1;" horiz-adv-x="492" 
d="M36 -217l6 77q27 -8 45 -8q37 0 64 27q25 25 41 79l6 22l-12 38l-179 492h103l140 -419h2l137 419h95l-191 -529q-40 -110 -67 -144q-48 -61 -131 -61q-28 0 -54 6zM117 620v100h94v-100h-94zM281 620v100h94v-100h-94z" />
    <glyph glyph-name="uni04F2" unicode="&#x4f2;" horiz-adv-x="581" 
d="M15 700h113l182 -394h7l171 394h97l-266 -599q-25 -57 -60 -83q-36 -28 -88 -28q-39 0 -83 14l11 87q32 -13 60 -13q27 0 47 14q8 5 18 18.5t14 23.5l23 57zM276 870h120l-130 -120h-76zM434 870h120l-130 -120h-76z" />
    <glyph glyph-name="uni04F3" unicode="&#x4f3;" horiz-adv-x="492" 
d="M36 -217l6 77q27 -8 45 -8q37 0 64 27q25 25 41 79l6 22l-12 38l-179 492h103l140 -419h2l137 419h95l-191 -529q-40 -110 -67 -144q-48 -61 -131 -61q-28 0 -54 6zM123 610l88 130h110l-128 -130h-70zM304 610l88 130h110l-128 -130h-70z" />
    <glyph glyph-name="uni04F4" unicode="&#x4f4;" horiz-adv-x="653" 
d="M459 0v293q-91 -24 -178 -24q-144 0 -197 67q-34 43 -34 120v244h100v-210q0 -22 1 -34.5t9 -33.5t25 -35q34 -30 114 -30q84 0 160 23v320h100v-700h-100zM144 852h106v-100h-106v100zM360 852h106v-100h-106v100z" />
    <glyph glyph-name="uni04F5" unicode="&#x4f5;" horiz-adv-x="536" 
d="M362 0v201q-65 -15 -133 -15q-90 0 -136 38q-48 39 -48 108v178h94v-150q0 -58 28 -80q23 -18 84 -18q53 0 111 13v235h94v-510h-94zM120 620v100h94v-100h-94zM284 620v100h94v-100h-94z" />
    <glyph glyph-name="uni04F8" unicode="&#x4f8;" horiz-adv-x="831" 
d="M94 0v700h100v-282h54q48 0 72 -1t68.5 -11.5t72.5 -31.5q35 -26 57 -70t22 -97q0 -96 -61 -151q-63 -56 -205 -56h-180zM194 330v-242h69q99 0 135 30q36 31 36 90q0 55 -35 88q-18 16 -46.5 24.5t-43 9t-44.5 0.5h-71zM637 0v700h100v-700h-100zM253 852h106v-100h-106
v100zM469 852h106v-100h-106v100z" />
    <glyph glyph-name="uni04F9" unicode="&#x4f9;" horiz-adv-x="742" 
d="M80 510h94v-195h105q100 0 152 -39q57 -43 57 -121q0 -70 -48 -113q-48 -42 -142 -42h-218v510zM174 239v-163h122q55 0 79 26q19 20 19 55q0 39 -24 59q-26 23 -89 23h-107zM568 0v510h94v-510h-94zM242 620v100h94v-100h-94zM406 620v100h94v-100h-94z" />
    <glyph glyph-name="uni1E9E" unicode="&#x1e9e;" horiz-adv-x="674" 
d="M94 0v481q0 116 65 173q65 56 178 56q143 0 237 -85l-149 -203q77 -3 128 -43q65 -49 65 -151q0 -109 -71 -173q-73 -65 -184 -65q-47 0 -97 16l9 88q41 -16 84 -16q72 0 113 41q40 38 40 104q0 69 -51 101q-43 26 -131 26h-30v49l138 192q-25 20 -62 27q-26 4 -38 4
q-75 0 -111 -36q-33 -33 -33 -104v-482h-100z" />
    <glyph glyph-name="uni2010" unicode="&#x2010;" horiz-adv-x="420" 
d="M80 334h260v-100h-260v100z" />
    <glyph glyph-name="uni2011" unicode="&#x2011;" horiz-adv-x="420" 
d="M80 334h260v-100h-260v100z" />
    <glyph glyph-name="figuredash" unicode="&#x2012;" horiz-adv-x="650" 
d="M70 320v70h510v-70h-510z" />
    <glyph glyph-name="endash" unicode="&#x2013;" horiz-adv-x="650" 
d="M70 234v70h510v-70h-510z" />
    <glyph glyph-name="emdash" unicode="&#x2014;" horiz-adv-x="920" 
d="M70 234v70h780v-70h-780z" />
    <glyph glyph-name="afii00208" unicode="&#x2015;" horiz-adv-x="920" 
d="M70 234v70h780v-70h-780z" />
    <glyph glyph-name="quoteleft" unicode="&#x2018;" horiz-adv-x="278" 
d="M226 700l-62 -246h-112l86 246h88z" />
    <glyph glyph-name="quoteright" unicode="&#x2019;" horiz-adv-x="278" 
d="M52 454l62 246h112l-88 -246h-86z" />
    <glyph glyph-name="quotesinglbase" unicode="&#x201a;" horiz-adv-x="278" 
d="M52 -133l63 245h111l-85 -245h-89z" />
    <glyph glyph-name="quotedblleft" unicode="&#x201c;" 
d="M270 700l-62 -246h-112l86 246h88zM460 700l-64 -246h-110l84 246h90z" />
    <glyph glyph-name="quotedblright" unicode="&#x201d;" 
d="M96 454l63 246h111l-85 -246h-89zM286 454l63 246h111l-85 -246h-89z" />
    <glyph glyph-name="quotedblbase" unicode="&#x201e;" 
d="M96 -133l63 245h111l-85 -245h-89zM286 -133l63 245h111l-85 -245h-89z" />
    <glyph glyph-name="dagger" unicode="&#x2020;" 
d="M234 0v453h-167v70h167v175h88v-175h167v-70h-167v-453h-88z" />
    <glyph glyph-name="daggerdbl" unicode="&#x2021;" 
d="M489 162h-167v-162h-88v162h-167v70h167v234h-167v70h167v162h88v-162h167v-70h-167v-234h167v-70z" />
    <glyph glyph-name="bullet" unicode="&#x2022;" horiz-adv-x="500" 
d="M76 349q0 73 50.5 123.5t123.5 50.5t124 -50.5t51 -123.5t-50.5 -124t-124.5 -51q-73 0 -123.5 51t-50.5 124z" />
    <glyph glyph-name="ellipsis" unicode="&#x2026;" horiz-adv-x="1000" 
d="M111 0v112h112v-112h-112zM444 0v112h112v-112h-112zM777 0v112h112v-112h-112z" />
    <glyph glyph-name="perthousand" unicode="&#x2030;" horiz-adv-x="1000" 
d="M153 310q-80 0 -115 57t-35 143q0 92 33 146t117 54q150 0 150 -200q0 -86 -35 -143t-115 -57zM153 380q62 0 62 130v7q0 25 -1 40t-6 37.5t-19 34t-36 11.5t-35.5 -13t-19 -37.5t-6.5 -40t-1 -39.5q0 -130 62 -130zM78 -22l433 742h72l-433 -742h-72zM509 -12
q-80 0 -115 57t-35 143q0 92 33 146t117 54q150 0 150 -200q0 -86 -35 -143t-115 -57zM509 58q62 0 62 130v7q0 25 -1 40t-6 37.5t-19 34t-36 11.5t-35.5 -13t-19 -37.5t-6.5 -40t-1 -39.5q0 -130 62 -130zM847 -12q-80 0 -115 57t-35 143q0 92 33 146t117 54
q150 0 150 -200q0 -86 -35 -143t-115 -57zM847 58q62 0 62 130v7q0 25 -1 40t-6 37.5t-19 34t-36 11.5t-35.5 -13t-19 -37.5t-6.5 -40t-1 -39.5q0 -130 62 -130z" />
    <glyph glyph-name="guilsinglleft" unicode="&#x2039;" horiz-adv-x="354" 
d="M194 67l-143 202l143 202h88l-130 -202l130 -202h-88z" />
    <glyph glyph-name="guilsinglright" unicode="&#x203a;" horiz-adv-x="354" 
d="M160 471l143 -202l-143 -202h-88l130 202l-130 202h88z" />
    <glyph glyph-name="fraction" unicode="&#x2044;" horiz-adv-x="167" 
d="M-169 -22l433 742h72l-433 -742h-72z" />
    <glyph glyph-name="Euro" unicode="&#x20ac;" 
d="M-14 395l14 58h53q26 110 112 180q44 35 106 56t128 21q91 0 157 -36l-20 -89q-58 37 -137 37q-93 0 -160 -56q-55 -46 -76 -113h343l-14 -58h-342q-3 -23 -3 -45q0 -11 2 -33h325l-14 -58h-300q11 -49 50 -95q72 -86 199 -86q63 0 130 33l6 -96q-65 -25 -146 -25
q-173 0 -267 103q-61 67 -82 166h-64l14 58h42q-1 11 -1 34q0 21 3 44h-58z" />
    <glyph glyph-name="uni20B4" unicode="&#x20b4;" 
d="M108 685q80 25 169 25q204 0 204 -149q0 -31 -15 -63q-12 -25 -32 -45h82v-58h-143l-93 -78h236v-58h-293q-42 -39 -42 -97q0 -41 35.5 -62.5t81.5 -21.5q77 0 165 33l10 -92q-88 -29 -173 -29q-113 0 -169 46t-56 115q0 62 42 108h-77v58h120l93 78h-213v58h278
q57 44 57 91q0 26 -11 42q-24 36 -101 36q-31 0 -55 -4q-47 -9 -86 -25z" />
    <glyph glyph-name="uni20B6" unicode="&#x20b6;" 
d="M202 612v-244h88q69 0 106 35q34 32 34 86q0 63 -45 95q-41 28 -109 28h-74zM102 0v162h-80v68h80v70h-80v68h80v332h172q125 0 188 -49q36 -28 52 -66t16 -82q0 -94 -62 -149q-61 -54 -179 -54h-87v-70h140v-68h-140v-162h-100z" />
    <glyph glyph-name="uni20B7" unicode="&#x20b7;" 
d="M202 612v-244h88q69 0 106 35q34 32 34 86q0 63 -45 95q-41 28 -109 28h-74zM102 0v162h-80v68h80v70h-80v68h80v332h172q125 0 188 -49q36 -28 52 -66t16 -82q0 -94 -62 -149q-61 -54 -179 -54h-87v-70h140v-68h-140v-162h-100z" />
    <glyph glyph-name="uni20B8" unicode="&#x20b8;" 
d="M40 562h476v-68h-188v-494h-100v494h-188v68zM40 700h476v-68h-476v68z" />
    <glyph glyph-name="uni20B9" unicode="&#x20b9;" 
d="M202 612v-244h88q69 0 106 35q34 32 34 86q0 63 -45 95q-41 28 -109 28h-74zM102 0v162h-80v68h80v70h-80v68h80v332h172q125 0 188 -49q36 -28 52 -66t16 -82q0 -94 -62 -149q-61 -54 -179 -54h-87v-70h140v-68h-140v-162h-100z" />
    <glyph glyph-name="uni20BA" unicode="&#x20ba;" 
d="M202 612v-244h88q69 0 106 35q34 32 34 86q0 63 -45 95q-41 28 -109 28h-74zM102 0v162h-80v68h80v70h-80v68h80v332h172q125 0 188 -49q36 -28 52 -66t16 -82q0 -94 -62 -149q-61 -54 -179 -54h-87v-70h140v-68h-140v-162h-100z" />
    <glyph glyph-name="uni20BB" unicode="&#x20bb;" 
d="M202 612v-244h88q69 0 106 35q34 32 34 86q0 63 -45 95q-41 28 -109 28h-74zM102 0v162h-80v68h80v70h-80v68h80v332h172q125 0 188 -49q36 -28 52 -66t16 -82q0 -94 -62 -149q-61 -54 -179 -54h-87v-70h140v-68h-140v-162h-100z" />
    <glyph glyph-name="uni20BC" unicode="&#x20bc;" 
d="M202 612v-244h88q69 0 106 35q34 32 34 86q0 63 -45 95q-41 28 -109 28h-74zM102 0v162h-80v68h80v70h-80v68h80v332h172q125 0 188 -49q36 -28 52 -66t16 -82q0 -94 -62 -149q-61 -54 -179 -54h-87v-70h140v-68h-140v-162h-100z" />
    <glyph glyph-name="uni20BD" unicode="&#x20bd;" 
d="M202 612v-244h88q69 0 106 35q34 32 34 86q0 63 -45 95q-41 28 -109 28h-74zM102 0v162h-80v68h80v70h-80v68h80v332h172q125 0 188 -49q36 -28 52 -66t16 -82q0 -94 -62 -149q-61 -54 -179 -54h-87v-70h140v-68h-140v-162h-100z" />
    <glyph glyph-name="uni20BE" unicode="&#x20be;" 
d="M202 612v-244h88q69 0 106 35q34 32 34 86q0 63 -45 95q-41 28 -109 28h-74zM102 0v162h-80v68h80v70h-80v68h80v332h172q125 0 188 -49q36 -28 52 -66t16 -82q0 -94 -62 -149q-61 -54 -179 -54h-87v-70h140v-68h-140v-162h-100z" />
    <glyph glyph-name="uni20BF" unicode="&#x20bf;" 
d="M202 612v-244h88q69 0 106 35q34 32 34 86q0 63 -45 95q-41 28 -109 28h-74zM102 0v162h-80v68h80v70h-80v68h80v332h172q125 0 188 -49q36 -28 52 -66t16 -82q0 -94 -62 -149q-61 -54 -179 -54h-87v-70h140v-68h-140v-162h-100z" />
    <glyph glyph-name="uni20C0" unicode="&#x20c0;" 
d="M202 612v-244h88q69 0 106 35q34 32 34 86q0 63 -45 95q-41 28 -109 28h-74zM102 0v162h-80v68h80v70h-80v68h80v332h172q125 0 188 -49q36 -28 52 -66t16 -82q0 -94 -62 -149q-61 -54 -179 -54h-87v-70h140v-68h-140v-162h-100z" />
    <glyph glyph-name="uni20C1" unicode="&#x20c1;" 
d="M202 612v-244h88q69 0 106 35q34 32 34 86q0 63 -45 95q-41 28 -109 28h-74zM102 0v162h-80v68h80v70h-80v68h80v332h172q125 0 188 -49q36 -28 52 -66t16 -82q0 -94 -62 -149q-61 -54 -179 -54h-87v-70h140v-68h-140v-162h-100z" />
    <glyph glyph-name="uni20C2" unicode="&#x20c2;" 
d="M202 612v-244h88q69 0 106 35q34 32 34 86q0 63 -45 95q-41 28 -109 28h-74zM102 0v162h-80v68h80v70h-80v68h80v332h172q125 0 188 -49q36 -28 52 -66t16 -82q0 -94 -62 -149q-61 -54 -179 -54h-87v-70h140v-68h-140v-162h-100z" />
    <glyph glyph-name="uni20C3" unicode="&#x20c3;" 
d="M202 612v-244h88q69 0 106 35q34 32 34 86q0 63 -45 95q-41 28 -109 28h-74zM102 0v162h-80v68h80v70h-80v68h80v332h172q125 0 188 -49q36 -28 52 -66t16 -82q0 -94 -62 -149q-61 -54 -179 -54h-87v-70h140v-68h-140v-162h-100z" />
    <glyph glyph-name="uni20C4" unicode="&#x20c4;" 
d="M202 612v-244h88q69 0 106 35q34 32 34 86q0 63 -45 95q-41 28 -109 28h-74zM102 0v162h-80v68h80v70h-80v68h80v332h172q125 0 188 -49q36 -28 52 -66t16 -82q0 -94 -62 -149q-61 -54 -179 -54h-87v-70h140v-68h-140v-162h-100z" />
    <glyph glyph-name="uni20C5" unicode="&#x20c5;" 
d="M202 612v-244h88q69 0 106 35q34 32 34 86q0 63 -45 95q-41 28 -109 28h-74zM102 0v162h-80v68h80v70h-80v68h80v332h172q125 0 188 -49q36 -28 52 -66t16 -82q0 -94 -62 -149q-61 -54 -179 -54h-87v-70h140v-68h-140v-162h-100z" />
    <glyph glyph-name="uni20C6" unicode="&#x20c6;" 
d="M202 612v-244h88q69 0 106 35q34 32 34 86q0 63 -45 95q-41 28 -109 28h-74zM102 0v162h-80v68h80v70h-80v68h80v332h172q125 0 188 -49q36 -28 52 -66t16 -82q0 -94 -62 -149q-61 -54 -179 -54h-87v-70h140v-68h-140v-162h-100z" />
    <glyph glyph-name="uni20C7" unicode="&#x20c7;" 
d="M202 612v-244h88q69 0 106 35q34 32 34 86q0 63 -45 95q-41 28 -109 28h-74zM102 0v162h-80v68h80v70h-80v68h80v332h172q125 0 188 -49q36 -28 52 -66t16 -82q0 -94 -62 -149q-61 -54 -179 -54h-87v-70h140v-68h-140v-162h-100z" />
    <glyph glyph-name="uni20C8" unicode="&#x20c8;" 
d="M202 612v-244h88q69 0 106 35q34 32 34 86q0 63 -45 95q-41 28 -109 28h-74zM102 0v162h-80v68h80v70h-80v68h80v332h172q125 0 188 -49q36 -28 52 -66t16 -82q0 -94 -62 -149q-61 -54 -179 -54h-87v-70h140v-68h-140v-162h-100z" />
    <glyph glyph-name="uni20C9" unicode="&#x20c9;" 
d="M202 612v-244h88q69 0 106 35q34 32 34 86q0 63 -45 95q-41 28 -109 28h-74zM102 0v162h-80v68h80v70h-80v68h80v332h172q125 0 188 -49q36 -28 52 -66t16 -82q0 -94 -62 -149q-61 -54 -179 -54h-87v-70h140v-68h-140v-162h-100z" />
    <glyph glyph-name="uni20CA" unicode="&#x20ca;" 
d="M202 612v-244h88q69 0 106 35q34 32 34 86q0 63 -45 95q-41 28 -109 28h-74zM102 0v162h-80v68h80v70h-80v68h80v332h172q125 0 188 -49q36 -28 52 -66t16 -82q0 -94 -62 -149q-61 -54 -179 -54h-87v-70h140v-68h-140v-162h-100z" />
    <glyph glyph-name="uni20CB" unicode="&#x20cb;" 
d="M202 612v-244h88q69 0 106 35q34 32 34 86q0 63 -45 95q-41 28 -109 28h-74zM102 0v162h-80v68h80v70h-80v68h80v332h172q125 0 188 -49q36 -28 52 -66t16 -82q0 -94 -62 -149q-61 -54 -179 -54h-87v-70h140v-68h-140v-162h-100z" />
    <glyph glyph-name="uni20CC" unicode="&#x20cc;" 
d="M202 612v-244h88q69 0 106 35q34 32 34 86q0 63 -45 95q-41 28 -109 28h-74zM102 0v162h-80v68h80v70h-80v68h80v332h172q125 0 188 -49q36 -28 52 -66t16 -82q0 -94 -62 -149q-61 -54 -179 -54h-87v-70h140v-68h-140v-162h-100z" />
    <glyph glyph-name="uni20CD" unicode="&#x20cd;" 
d="M202 612v-244h88q69 0 106 35q34 32 34 86q0 63 -45 95q-41 28 -109 28h-74zM102 0v162h-80v68h80v70h-80v68h80v332h172q125 0 188 -49q36 -28 52 -66t16 -82q0 -94 -62 -149q-61 -54 -179 -54h-87v-70h140v-68h-140v-162h-100z" />
    <glyph glyph-name="uni20CE" unicode="&#x20ce;" 
d="M202 612v-244h88q69 0 106 35q34 32 34 86q0 63 -45 95q-41 28 -109 28h-74zM102 0v162h-80v68h80v70h-80v68h80v332h172q125 0 188 -49q36 -28 52 -66t16 -82q0 -94 -62 -149q-61 -54 -179 -54h-87v-70h140v-68h-140v-162h-100z" />
    <glyph glyph-name="uni20CF" unicode="&#x20cf;" 
d="M202 612v-244h88q69 0 106 35q34 32 34 86q0 63 -45 95q-41 28 -109 28h-74zM102 0v162h-80v68h80v70h-80v68h80v332h172q125 0 188 -49q36 -28 52 -66t16 -82q0 -94 -62 -149q-61 -54 -179 -54h-87v-70h140v-68h-140v-162h-100z" />
    <glyph glyph-name="afii61352" unicode="&#x2116;" horiz-adv-x="1000" 
d="M88 0v700h129l292 -564h2v564h95v-700h-121l-300 576h-2v-576h-95zM673 457q0 69 34 111q36 45 101 45q66 0 102 -45q34 -40 34 -111q0 -70 -34 -111q-37 -46 -102 -46q-64 0 -101 46q-34 43 -34 111zM745 457q0 -54 13 -79q17 -32 50 -32q35 0 51 32q13 25 13 79
q0 53 -13 78q-17 32 -51 32t-50 -32q-13 -24 -13 -78zM683 135v60h255v-60h-255z" />
    <glyph glyph-name="uni2117" unicode="&#x2117;" horiz-adv-x="879" 
d="M80 350q0 149 105.5 254.5t254.5 105.5t254 -105.5t105 -254.5q0 -147 -105.5 -253.5t-253.5 -106.5q-149 0 -254.5 106t-105.5 254zM145 350q0 -122 86.5 -208t208.5 -86t208 86t86 208t-86 208.5t-208 86.5q-121 0 -208 -86.5t-87 -208.5zM340 548h141q54 0 88 -26
q40 -31 40 -87q0 -59 -37 -93q-34 -30 -91 -30h-69v-160h-72v396zM412 489v-118h46q36 0 56 15q20 16 20 43q0 31 -20 47q-16 13 -50 13h-52z" />
    <glyph glyph-name="trademark" unicode="&#x2122;" horiz-adv-x="990" 
d="M182 283v347h-128v70h332v-70h-128v-347h-76zM484 283v417h118l109 -282l107 282h118v-417h-76v319h-2l-117 -319h-62l-117 319h-2v-319h-76z" />
    <glyph glyph-name="Omega" unicode="&#x2126;" horiz-adv-x="761" 
d="M424 0v164q73 10 121 66q51 60 51 164q0 102 -56 163q-59 65 -159 65q-91 0 -147 -51q-68 -60 -68 -177q0 -105 50 -164q48 -56 122 -66v-164h-272l-12 147l79 5l6 -72h116v44q-75 18 -125 75q-70 78 -70 199q0 149 99 237q48 43 101 59t121 16q138 0 222 -75
q99 -88 99 -237q0 -118 -71 -199q-50 -58 -125 -75v-44h117l5 72l80 -5l-13 -147h-271z" />
    <glyph glyph-name="partialdiff" unicode="&#x2202;" horiz-adv-x="611" 
d="M146 255q0 -75 35 -125q45 -66 127 -66q75 0 119 61q38 54 38 130q0 81 -45 136t-114 55q-65 0 -109 -49q-51 -55 -51 -142zM113 709l72 53q108 -42 184 -102q83 -66 138 -169q58 -109 58 -228q0 -114 -66 -191q-73 -84 -193 -84q-124 0 -199 92q-61 76 -61 175
q0 122 78 197q73 70 178 70q62 0 108 -33q-43 75 -149 145q-59 38 -148 75z" />
    <glyph glyph-name="Delta" unicode="&#x2206;" horiz-adv-x="712" 
d="M12 0l293 700h105l290 -700h-688zM559 82l-205 524l-204 -524h409z" />
    <glyph glyph-name="product" unicode="&#x220f;" horiz-adv-x="724" 
d="M46 -210v88h54v734h-54v88h632v-88h-57v-734h57v-88h-211v88h54v734h-321v-734h54v-88h-208z" />
    <glyph glyph-name="summation" unicode="&#x2211;" horiz-adv-x="573" 
d="M45 -210v90l253 388l-253 342v90h465v-88h-350l254 -343l-253 -391h367v-88h-483z" />
    <glyph glyph-name="minus" unicode="&#x2212;" horiz-adv-x="600" 
d="M47 209v88h506v-88h-506z" />
    <glyph glyph-name="uni2215" unicode="&#x2215;" horiz-adv-x="450" 
d="M-35 -22l433 742h72l-433 -742h-72z" />
    <glyph glyph-name="uni2219" unicode="&#x2219;" horiz-adv-x="278" 
d="M83 247v112h112v-112h-112z" />
    <glyph glyph-name="radical" unicode="&#x221a;" horiz-adv-x="645" 
d="M20 500h158l124 -435l115 764h170v-60h-101l-141 -869h-95l-158 533h-72v67z" />
    <glyph glyph-name="infinity" unicode="&#x221e;" horiz-adv-x="700" 
d="M352 317q-23 -35 -55 -64q-56 -50 -120 -50t-108 42q-44 44 -44 113q0 77 52 119q42 34 97 34q68 0 122 -50q31 -29 52 -64q25 42 56 68q53 46 120 46q75 0 118 -54q33 -41 33 -101q0 -62 -36 -103q-44 -50 -116 -50q-70 0 -124 54q-24 22 -47 60zM380 357q44 -60 67 -77
q30 -23 66 -23q43 0 70 31q24 27 24 69q0 48 -29 74t-66 26q-22 0 -40.5 -7t-36.5 -25.5t-27 -29.5t-28 -38zM320 357q-21 28 -43 54q-42 46 -90 46q-36 0 -63 -24q-31 -28 -31 -79q0 -42 24 -68q27 -29 71 -29q49 0 89 44q15 16 43 56z" />
    <glyph glyph-name="integral" unicode="&#x222b;" 
d="M523 702l-14 -80l-8 2q-24 4 -37 4q-34 0 -52 -14q-29 -23 -42 -96l-104 -542q-21 -109 -52 -147q-42 -51 -127 -51q-31 0 -54 5l16 81q16 -4 30 -4q42 0 61 28q16 24 26 78l105 557q18 100 60 143q41 44 119 44q23 0 55 -5z" />
    <glyph glyph-name="approxequal" unicode="&#x2248;" horiz-adv-x="600" 
d="M495 266l36 -70q-40 -85 -125 -85q-39 0 -111 31l-25 11q-58 26 -77 26q-47 0 -88 -73l-36 70q40 85 125 85q39 0 111 -31l25 -11q58 -26 77 -26q47 0 88 73zM495 454l36 -70q-40 -85 -125 -85q-39 0 -111 31l-25 11q-58 26 -77 26q-47 0 -88 -73l-36 70q40 85 125 85
q39 0 111 -31l25 -11q58 -26 77 -26q47 0 88 73z" />
    <glyph glyph-name="notequal" unicode="&#x2260;" horiz-adv-x="600" 
d="M47 314v88h304l60 104h72l-60 -104h130v-88h-182l-70 -122h252v-88h-304l-60 -104h-72l60 104h-130v88h182l70 122h-252z" />
    <glyph glyph-name="lessequal" unicode="&#x2264;" horiz-adv-x="600" 
d="M554 507v-88l-344 -121l344 -121v-88l-508 179v61zM46 0v88h508v-88h-508z" />
    <glyph glyph-name="greaterequal" unicode="&#x2265;" horiz-adv-x="600" 
d="M46 507l508 -178v-61l-508 -179v88l344 121l-344 121v88zM554 0h-508v88h508v-88z" />
    <glyph glyph-name="dotmath" unicode="&#x22c5;" horiz-adv-x="278" 
d="M83 247v112h112v-112h-112z" />
    <glyph glyph-name="lozenge" unicode="&#x25ca;" horiz-adv-x="702" 
d="M90 350l261 360l261 -360l-261 -360zM508 350l-157 215l-157 -215l157 -217z" />
    <glyph glyph-name="uniF400" unicode="&#xf400;" horiz-adv-x="1" 
d="M-337 610l78 130h120l-118 -130h-80z" />
    <glyph glyph-name="uniF401" unicode="&#xf401;" horiz-adv-x="1" 
d="M-329 870h130l-114 -120h-96z" />
    <glyph glyph-name="uniF406" unicode="&#xf406;" horiz-adv-x="536" 
d="M100 870h70q19 -56 98 -56t98 56h70q-16 -62 -62 -94t-106 -32t-106 32t-62 94z" />
    <glyph glyph-name="uniF407" unicode="&#xf407;" horiz-adv-x="295" 
d="M103 9h60l-6 -42q37 0 62 -25q26 -26 26 -70q0 -41 -33 -71q-30 -27 -85 -27q-39 0 -77 27l27 48q22 -18 47 -18q21 0 36 13q12 12 12 28q0 24 -12 34q-12 12 -39 12q-21 0 -31 -2z" />
    <glyph glyph-name="uniF408" unicode="&#xf408;" horiz-adv-x="518" 
d="M204 870h110l104 -120h-90l-69 70l-69 -70h-90z" />
    <glyph glyph-name="uniF409" unicode="&#xf409;" horiz-adv-x="254" 
d="M52 -248l40 198h110l-70 -198h-80z" />
    <glyph glyph-name="uniF40A" unicode="&#xf40a;" horiz-adv-x="180" 
d="M-8 500l40 200h110l-74 -200h-76z" />
    <glyph glyph-name="uniF40B" unicode="&#xf40b;" horiz-adv-x="212" 
d="M162 854v-102h-112v102h112z" />
    <glyph glyph-name="uniF40C" unicode="&#xf40c;" horiz-adv-x="402" 
d="M100 827q0 41 30 71t71 30t71 -30t30 -71t-30 -71t-71 -30t-71 30t-30 71zM146 827q0 -24 15.5 -39.5t39.5 -15.5t39.5 15.5t15.5 39.5t-15.5 39.5t-39.5 15.5t-39.5 -15.5t-15.5 -39.5z" />
    <glyph glyph-name="uniF40D" unicode="&#xf40d;" horiz-adv-x="540" 
d="M146 748h-46q3 41 24 73q26 39 72 39q23 0 53 -13l29 -12q53 -21 70 -21q25 0 36 18q7 12 10 28h46q-6 -42 -19 -66q-24 -46 -76 -46q-22 0 -54 13l-29 12q-53 21 -70 21q-22 0 -34 -15q-8 -11 -12 -31z" />
    <glyph glyph-name="uniF40E" unicode="&#xf40e;" horiz-adv-x="270" 
d="M156 0h69q-52 -38 -73 -71q-19 -29 -19 -60q0 -28 16 -42q14 -13 35 -13q37 0 68 20l18 -43q-46 -32 -104 -32q-54 0 -83 24q-33 26 -33 76q0 41 27 77q33 42 79 64z" />
    <glyph glyph-name="uniF43E" unicode="&#xf43e;" 
d="M228 0v612h-217v88h534v-88h-217v-612h-23l-5 -33q37 0 62 -25q26 -26 26 -70q0 -41 -33 -71q-30 -27 -85 -27q-39 0 -77 27l27 48q22 -18 47 -18q21 0 36 13q12 12 12 28q0 24 -12 34q-12 12 -39 12q-21 0 -31 -2l12 84h-17z" />
    <glyph glyph-name="uniF43F" unicode="&#xf43f;" horiz-adv-x="375" 
d="M118 628l94 30v-148h141v-76h-141v-275q0 -42 22 -66q23 -25 61 -25q31 0 60 18v-80q-46 -15 -97 -14l-3 -23q36 -1 59 -24q24 -24 24 -67q0 -39 -31 -68q-28 -25 -81 -25q-37 0 -73 25l25 46q22 -17 45 -17q22 0 34 12t12 27q0 22 -12 32q-12 12 -37 12q-19 0 -29 -2
l11 84q-84 27 -84 136v294h-111v76h111v118z" />
    <glyph glyph-name="uniF47E" unicode="&#xf47e;" horiz-adv-x="722" 
d="M632 700v-410q0 -146 -73 -225q-69 -75 -198 -75t-198 75q-73 79 -73 225v410h100v-397q0 -110 37 -163q44 -62 134 -62t134 62q37 53 37 163v397h100zM416 854v-102h-112v102h112z" />
    <glyph glyph-name="uniF47F" unicode="&#xf47f;" horiz-adv-x="604" 
d="M524 510v-510h-94v73h-2q-25 -37 -67 -59q-43 -22 -97 -22q-96 0 -144 56q-47 55 -47 159v303h94v-264q0 -106 32 -144q28 -34 83 -34q60 0 100 44q48 53 48 162v236h94zM355 720v-106h-106v106h106z" />
    <glyph glyph-name="uniF4C6" unicode="&#xf4c6;" horiz-adv-x="653" 
d="M50 700h100v-210q0 -22 1 -34.5t9 -33.5t25 -35q34 -30 114 -30q84 0 160 23v320h100v-690q0 -116 -55 -165q-51 -45 -144 -45q-30 0 -61 7q-4 1 -17 5v86q34 -10 66 -10q30 0 54 10q20 8 31 22q15 18 22 45q4 20 4 45v283q-91 -24 -178 -24q-144 0 -197 67
q-34 43 -34 120v244z" />
    <glyph glyph-name="uniF4C7" unicode="&#xf4c7;" horiz-adv-x="536" 
d="M45 510h94v-150q0 -58 28 -80q23 -18 84 -18q53 0 111 13v235h94v-520q0 -98 -34 -142q-37 -48 -124 -48q-21 0 -32 2q-2 0 -6 1t-6 1l3 81q20 -3 31 -3q39 0 56 27q18 29 18 81v211q-20 -4 -60 -10q-40 -5 -73 -5q-90 0 -136 38q-48 39 -48 108v178z" />
    <glyph glyph-name="uniF4C8" unicode="&#xf4c8;" horiz-adv-x="625" 
d="M579 680l-8 -97q-66 39 -144 39q-100 0 -171 -56q-97 -76 -97 -216q0 -111 66 -186q74 -86 212 -86q67 0 137 33l6 -96q-68 -25 -143 -25l-3 -23q37 0 62 -25q26 -26 26 -70q0 -41 -33 -71q-30 -27 -85 -27q-39 0 -77 27l27 48q22 -18 47 -18q21 0 36 13q12 12 12 28
q0 24 -12 34q-12 12 -39 12q-21 0 -31 -2l11 77q-140 9 -229 100q-96 100 -96 258q0 182 130 282q101 77 244 77q88 0 152 -30z" />
    <glyph glyph-name="uniF4C9" unicode="&#xf4c9;" horiz-adv-x="444" 
d="M412 498l-8 -78q-50 22 -102 22q-60 0 -105 -39q-27 -24 -43 -64t-16 -84q0 -79 39 -128q48 -59 131 -59q57 0 101 29l7 -84q-40 -18 -100 -21l-3 -23q36 -1 59 -24q24 -24 24 -67q0 -39 -31 -68q-28 -25 -81 -25q-37 0 -73 25l25 46q22 -17 45 -17q22 0 34 12t12 27
q0 22 -12 32q-12 12 -37 12q-19 0 -29 -2l10 75q-91 13 -153 79q-68 73 -68 185q0 127 88 200q71 59 172 59q58 0 114 -20z" />
    <glyph glyph-name="uniF4CC" unicode="&#xf4cc;" horiz-adv-x="581" 
d="M15 700h113l182 -394h7l171 394h97l-266 -599q-25 -57 -60 -83q-36 -28 -88 -28q-39 0 -83 14l11 87q32 -13 60 -13q27 0 47 14q8 5 18 18.5t14 23.5l23 57zM320 870h130l-114 -120h-96z" />
    <glyph glyph-name="uniF4CD" unicode="&#xf4cd;" horiz-adv-x="492" 
d="M36 -217l6 77q27 -8 45 -8q37 0 64 27q25 25 41 79l6 22l-12 38l-179 492h103l140 -419h2l137 419h95l-191 -529q-40 -110 -67 -144q-48 -61 -131 -61q-28 0 -54 6zM193 610l78 130h120l-118 -130h-80z" />
    <glyph glyph-name="dollar.fitted" unicode="&#xf5f5;" horiz-adv-x="453" 
d="M196 435v180q-32 -5 -52 -25q-24 -24 -24 -67q0 -30 19.5 -49.5t56.5 -38.5zM254 290v-206q37 8 61 42q19 28 19 67q0 34 -25 61q-21 24 -55 36zM196 -106v94h-12q-84 0 -152 29l12 96q61 -37 138 -37h14v243l-35 17q-70 34 -105 71q-42 44 -42 113q0 79 56 133
q52 50 126 54v99h58v-96q80 -1 143 -25l-14 -92q-50 29 -119 29h-10v-217l58 -32q65 -36 91 -68q37 -45 37 -110q0 -83 -55 -142q-53 -56 -131 -61v-98h-58z" />
    <glyph glyph-name="Euro.fitted" unicode="&#xf5f6;" horiz-adv-x="613" 
d="M14 395l14 58h53q26 110 112 180q44 35 106 56t128 21q91 0 157 -36l-20 -89q-58 37 -137 37q-93 0 -160 -56q-55 -46 -76 -113h343l-14 -58h-342q-3 -23 -3 -45q0 -11 2 -33h325l-14 -58h-300q11 -49 50 -95q72 -86 199 -86q63 0 130 33l6 -96q-65 -25 -146 -25
q-173 0 -267 103q-61 67 -82 166h-64l14 58h42q-1 11 -1 34q0 21 3 44h-58z" />
    <glyph glyph-name="cent.fitted" unicode="&#xf5f7;" horiz-adv-x="404" 
d="M384 502l-8 -78q-50 22 -102 22q-62 0 -105 -40q-59 -54 -59 -151q0 -80 39 -131q46 -60 131 -60q57 0 101 29l7 -84q-47 -20 -98 -21v-94h-58v97q-93 13 -154 80q-68 75 -68 188q0 128 88 203q55 47 134 58v98h58v-97q51 -3 94 -19z" />
    <glyph glyph-name="sterling.fitted" unicode="&#xf5f8;" horiz-adv-x="504" 
d="M21 0v88h91v260h-79v58h79v58q0 141 92 206q58 42 150 42q72 0 118 -19l-8 -93q-56 24 -100 24q-55 0 -89 -22q-63 -42 -63 -145v-51h161v-58h-161v-260h247v-88h-438z" />
    <glyph glyph-name="yen.fitted" unicode="&#xf5f9;" horiz-adv-x="578" 
d="M240 0v162h-141v58h141v72l-8 16h-133v58h101l-183 332h111l164 -313l158 313h111l-181 -332h101v-58h-133l-8 -16v-72h141v-58h-141v-162h-100z" />
    <glyph glyph-name="florin.fitted" unicode="&#xf5fa;" horiz-adv-x="504" 
d="M450 414l-14 -70h-126l-69 -368q-20 -111 -52 -149q-42 -51 -127 -51q-32 0 -54 5l16 81q16 -4 30 -4q42 0 61 28q16 24 26 80l71 378h-112l13 70h112l21 109q20 102 60 143q41 44 119 44q22 0 55 -5l18 -3l-14 -80l-8 2q-24 4 -37 4q-34 0 -52 -14q-27 -20 -42 -96
l-21 -104h126z" />
    <glyph glyph-name="uni20B4.fitted" unicode="&#xf5fb;" 
d="M108 685q80 25 169 25q204 0 204 -149q0 -31 -15 -63q-12 -25 -32 -45h82v-58h-143l-93 -78h236v-58h-293q-42 -39 -42 -97q0 -41 35.5 -62.5t81.5 -21.5q77 0 165 33l10 -92q-88 -29 -173 -29q-113 0 -169 46t-56 115q0 62 42 108h-77v58h120l93 78h-213v58h278
q57 44 57 91q0 26 -11 42q-24 36 -101 36q-31 0 -55 -4q-47 -9 -86 -25z" />
    <glyph glyph-name="uni20B6.fitted" unicode="&#xf5fc;" 
d="M202 612v-244h88q69 0 106 35q34 32 34 86q0 63 -45 95q-41 28 -109 28h-74zM102 0v162h-80v68h80v70h-80v68h80v332h172q125 0 188 -49q36 -28 52 -66t16 -82q0 -94 -62 -149q-61 -54 -179 -54h-87v-70h140v-68h-140v-162h-100z" />
    <glyph glyph-name="uni20B8.fitted" unicode="&#xf5fd;" horiz-adv-x="516" 
d="M20 562h476v-68h-188v-494h-100v494h-188v68zM20 700h476v-68h-476v68z" />
    <glyph glyph-name="currency.fitted" unicode="&#xf5fe;" horiz-adv-x="568" 
d="M30 146l56 57q-50 60 -50 146q0 90 50 148l-56 54l51 52l55 -55q66 49 148 49q84 0 150 -49l54 55l50 -52l-54 -54q48 -61 48 -148q0 -85 -48 -146l54 -57l-50 -51l-54 57q-60 -51 -150 -51q-88 0 -148 51l-55 -57zM124 349q0 -69 47 -117.5t113 -48.5q68 0 114 49
t46 117q0 67 -46 116.5t-114 49.5q-66 0 -113 -49t-47 -117z" />
    <glyph glyph-name="numbersign.fitted" unicode="&#xf5ff;" horiz-adv-x="539" 
d="M86 0l29 208h-95v76h106l18 130h-96v76h107l29 208h76l-29 -208h118l29 208h76l-29 -208h95v-76h-106l-18 -130h95v-76h-106l-29 -208h-76l29 208h-118l-29 -208h-76zM320 284l18 130h-118l-18 -130h118z" />
    <glyph glyph-name="uniF639" unicode="&#xf639;" horiz-adv-x="538" 
d="M269 710q126 0 187 -115q50 -96 50 -245q0 -155 -50 -246q-61 -114 -187 -114t-187 114q-50 91 -50 246q0 149 50 245q61 115 187 115zM269 628q-61 0 -95 -70q-36 -75 -36 -208t36 -208q34 -70 95 -70t95 70q36 75 36 208t-36 208q-34 70 -95 70z" />
    <glyph glyph-name="uniF63A" unicode="&#xf63a;" horiz-adv-x="505" 
d="M36 0v107l131 118q67 60 126 135q20 26 31.5 42.5t24.5 48.5t13 61q0 49 -33 82q-34 34 -101 34q-76 0 -160 -45l-10 86q88 41 183 41q89 0 145 -38q82 -55 82 -159q0 -31 -6.5 -58t-23 -53t-24.5 -37t-28 -36q-6 -7 -18 -22.5t-17.5 -22.5t-17.5 -20.5t-27.5 -29.5
t-37.5 -37q-48 -48 -92 -86l-33 -29h335v-82h-442z" />
    <glyph glyph-name="uniF63B" unicode="&#xf63b;" horiz-adv-x="502" 
d="M129 323v82h56q81 0 128 31q45 29 45 83q0 51 -36 80q-37 29 -101 29q-77 0 -155 -38l-6 89q91 31 175 31q101 0 160 -45q69 -52 69 -140q0 -67 -42 -109q-40 -42 -108 -54v-2q70 -13 112 -55q44 -46 44 -119q0 -93 -67 -144q-69 -52 -196 -52q-87 0 -172 27l6 92
q77 -37 153 -37q82 0 126 33q44 31 44 88q0 71 -56 104q-43 26 -118 26h-61z" />
    <glyph glyph-name="uniF63C" unicode="&#xf63c;" horiz-adv-x="544" 
d="M333 241v377h-2l-222 -377h224zM333 0v159h-325v83l282 458h143v-459h88v-82h-88v-159h-100z" />
    <glyph glyph-name="uniF63D" unicode="&#xf63d;" horiz-adv-x="482" 
d="M437 700v-82h-290l-6 -186q50 10 75 10q105 0 170 -58q71 -64 71 -158q0 -103 -68 -166q-76 -70 -203 -70q-77 0 -146 23l3 94q67 -35 140 -35q81 0 128 45q40 39 40 94q0 72 -52 114q-45 35 -123 35q-69 0 -129 -26l6 366h384z" />
    <glyph glyph-name="uniF63E" unicode="&#xf63e;" horiz-adv-x="521" 
d="M458 688l-14 -89q-58 29 -124 29q-80 0 -133 -60q-29 -34 -46 -87.5t-16 -105.5h3q55 64 152 64q93 0 150 -57q60 -60 60 -161q0 -103 -61 -166q-65 -65 -163 -65q-139 0 -197 118q-38 77 -38 216q0 161 59 262q72 124 233 124q71 0 135 -22zM384 219q0 50 -27 90
q-33 48 -90 48q-56 0 -91 -35q-39 -39 -39 -103q0 -59 31 -100q35 -47 92 -47q63 0 98 51q26 40 26 96z" />
    <glyph glyph-name="uniF63F" unicode="&#xf63f;" horiz-adv-x="474" 
d="M461 700v-82l-258 -618h-110l266 618h-340v82h442z" />
    <glyph glyph-name="uniF640" unicode="&#xf640;" horiz-adv-x="542" 
d="M179 368v2q-63 23 -96 65q-35 43 -35 109q0 84 83 133q56 33 137 33q101 0 163 -48q59 -47 59 -113q0 -67 -41 -113q-29 -33 -85 -62q60 -21 99 -61q48 -51 48 -123q0 -94 -65 -146q-67 -54 -172 -54q-103 0 -174 55q-69 54 -69 140q0 81 60 134q33 29 88 49zM262 416
l30 -13q50 35 71 64.5t21 65.5q0 49 -38 74q-31 21 -80 21q-50 0 -86 -29q-32 -26 -32 -69q0 -36 34 -65q33 -29 80 -49zM253 331l-31 -20q-21 -13 -30.5 -20t-25 -22.5t-22.5 -34.5t-7 -43q0 -53 40 -86t101 -33q57 0 91 31q36 34 36 88q0 26 -8.5 45.5t-23.5 32
t-33.5 22.5t-40.5 20q-7 3 -10 4z" />
    <glyph glyph-name="uniF641" unicode="&#xf641;" horiz-adv-x="520" 
d="M62 12l14 88q54 -28 119 -28q99 0 150 76q50 73 50 177h-3q-61 -65 -150 -65q-101 0 -157 63q-55 61 -55 154q0 110 68 175q62 58 156 58q134 0 191 -108q44 -83 44 -226q0 -148 -46 -241q-71 -145 -241 -145q-76 0 -140 22zM136 481q0 -53 28 -92q34 -47 92 -47t94 42
q33 37 33 96q0 62 -36 106q-36 42 -87 42q-55 0 -88 -39q-36 -41 -36 -108z" />
    <glyph glyph-name="uniF643" unicode="&#xf643;" 
d="M278 518q126 0 187 -84q50 -71 50 -180q0 -111 -50 -180q-62 -84 -187 -84q-126 0 -187 84q-50 67 -50 180q0 109 50 180q61 84 187 84zM278 436q-60 0 -95 -47q-36 -48 -36 -137q0 -86 36 -134q34 -46 95 -46t95 46q36 48 36 134q0 89 -36 137q-35 47 -95 47z" />
    <glyph glyph-name="uniF644" unicode="&#xf644;" 
d="M269 0v395l-107 -93l-53 68l171 140h89v-510h-100z" />
    <glyph glyph-name="uniF645" unicode="&#xf645;" 
d="M50 0v100l166 99q92 56 126 88t34 77q0 72 -114 72q-87 0 -180 -44l-10 85q88 41 207 41q62 0 105.5 -15t63 -38.5t27 -44.5t7.5 -43q0 -52 -26.5 -92.5t-68.5 -71t-127 -79.5l-90 -52h322v-82h-442z" />
    <glyph glyph-name="uniF646" unicode="&#xf646;" 
d="M135 131v82h56q81 0 128 31q45 29 45 83q0 51 -36 80q-37 29 -101 29q-77 0 -155 -38l-6 89q91 31 175 31q101 0 160 -45q69 -52 69 -140q0 -67 -42 -109q-40 -42 -108 -54v-2q70 -13 112 -55q44 -46 44 -119q0 -93 -67 -144q-69 -52 -196 -52q-87 0 -172 27l6 92
q77 -37 153 -37q82 0 126 33q44 31 44 88q0 71 -56 104q-43 26 -118 26h-61z" />
    <glyph glyph-name="uniF647" unicode="&#xf647;" 
d="M344 82v346h-2l-222 -346h224zM344 -190v190h-325v83l282 427h143v-428h88v-82h-88v-190h-100z" />
    <glyph glyph-name="uniF648" unicode="&#xf648;" 
d="M478 510v-82h-290l-6 -186q50 10 75 10q105 0 170 -58q71 -64 71 -158q0 -103 -68 -166q-76 -70 -203 -70q-77 0 -146 23l3 94q67 -35 140 -35q81 0 128 45q40 39 40 94q0 72 -52 114q-45 35 -123 35q-69 0 -129 -26l6 366h384z" />
    <glyph glyph-name="uniF649" unicode="&#xf649;" 
d="M479 688l-14 -89q-58 29 -124 29q-80 0 -133 -60q-29 -34 -46 -87.5t-16 -105.5h3q55 64 152 64q93 0 150 -57q60 -60 60 -161q0 -103 -61 -166q-65 -65 -163 -65q-139 0 -197 118q-38 77 -38 216q0 161 59 262q72 124 233 124q71 0 135 -22zM405 219q0 50 -27 90
q-33 48 -90 48q-56 0 -91 -35q-39 -39 -39 -103q0 -59 31 -100q35 -47 92 -47q63 0 98 51q26 40 26 96z" />
    <glyph glyph-name="uniF64A" unicode="&#xf64a;" 
d="M491 510v-82l-258 -618h-110l266 618h-340v82h442z" />
    <glyph glyph-name="uniF64B" unicode="&#xf64b;" 
d="M186 368v2q-63 23 -96 65q-35 43 -35 109q0 84 83 133q56 33 137 33q101 0 163 -48q59 -47 59 -113q0 -67 -41 -113q-29 -33 -85 -62q60 -21 99 -61q48 -51 48 -123q0 -94 -65 -146q-67 -54 -172 -54q-103 0 -174 55q-69 54 -69 140q0 81 60 134q33 29 88 49zM269 416
l30 -13q50 35 71 64.5t21 65.5q0 49 -38 74q-31 21 -80 21q-50 0 -86 -29q-32 -26 -32 -69q0 -36 34 -65q33 -29 80 -49zM260 331l-31 -20q-21 -13 -30.5 -20t-25 -22.5t-22.5 -34.5t-7 -43q0 -53 40 -86t101 -33q57 0 91 31q36 34 36 88q0 26 -8.5 45.5t-23.5 32
t-33.5 22.5t-40.5 20q-7 3 -10 4z" />
    <glyph glyph-name="uniF64C" unicode="&#xf64c;" 
d="M72 -180l14 88q54 -28 119 -28q99 0 150 76q50 73 50 177h-3q-61 -65 -150 -65q-101 0 -157 63q-55 61 -55 154q0 110 68 175q62 58 156 58q134 0 191 -108q44 -83 44 -226q0 -148 -46 -241q-71 -145 -241 -145q-76 0 -140 22zM146 289q0 -53 28 -92q34 -47 92 -47t94 42
q33 37 33 96q0 62 -36 106q-36 42 -87 42q-55 0 -88 -39q-36 -41 -36 -108z" />
    <glyph glyph-name="uniF6BA" unicode="&#xf6ba;" horiz-adv-x="420" 
d="M80 420h260v-100h-260v100z" />
    <glyph glyph-name="uniF6BB" unicode="&#xf6bb;" horiz-adv-x="650" 
d="M70 320v70h510v-70h-510z" />
    <glyph glyph-name="uniF6BC" unicode="&#xf6bc;" horiz-adv-x="920" 
d="M70 320v70h780v-70h-780z" />
    <glyph glyph-name="uniF6C3" unicode="&#xf6c3;" horiz-adv-x="244" 
d="M52 -220l40 170h100l-70 -170h-70z" />
    <glyph glyph-name="uniF6C9" unicode="&#xf6c9;" horiz-adv-x="410" 
d="M180 870h130l-114 -120h-96z" />
    <glyph glyph-name="uniF6CA" unicode="&#xf6ca;" horiz-adv-x="518" 
d="M314 750h-110l-104 120h90l69 -70l69 70h90z" />
    <glyph glyph-name="uniF6CB" unicode="&#xf6cb;" horiz-adv-x="522" 
d="M100 852h106v-100h-106v100zM316 852h106v-100h-106v100z" />
    <glyph glyph-name="uniF6CC" unicode="&#xf6cc;" horiz-adv-x="531" 
d="M126 862h108v-105h-108v105zM345 862h108v-105h-108v105zM252 862l89 144h109l-131 -144h-67z" />
    <glyph glyph-name="uniF6CE" unicode="&#xf6ce;" horiz-adv-x="380" 
d="M70 870h130l80 -120h-96z" />
    <glyph glyph-name="uniF6CF" unicode="&#xf6cf;" horiz-adv-x="464" 
d="M136 870h120l-130 -120h-76zM294 870h120l-130 -120h-76z" />
    <glyph glyph-name="uniF6D0" unicode="&#xf6d0;" horiz-adv-x="520" 
d="M100 840h320v-70h-320v70z" />
    <glyph glyph-name="uniF6D1" unicode="&#xf6d1;" horiz-adv-x="494" 
d="M347 893l67 -8q-4 -66 -52 -101q-42 -30 -108 -30t-108 30q-48 35 -52 101l67 8q5 -25 25 -45q22 -20 68 -20t68 20q20 20 25 45z" />
    <glyph glyph-name="uniF6D4" unicode="&#xf6d4;" horiz-adv-x="470" 
d="M325 758l65 -8q-3 -67 -50 -103q-40 -31 -105 -31t-105 31q-47 36 -50 103l65 8q5 -30 24 -46q22 -20 66 -20t66 20q19 16 24 46z" />
    <glyph glyph-name="uniF6D7" unicode="&#xf6d7;" 
d="M108 700h109v-105h-109v105zM346 700h108v-105h-108v105zM243 700l89 144h109l-131 -144h-67z" />
    <glyph glyph-name="uniF6DC" unicode="&#xf6dc;" horiz-adv-x="306" 
d="M162 0v585l-107 -93l-53 68l171 140h89v-700h-100z" />
    <glyph glyph-name="uniF6DE" unicode="&#xf6de;" horiz-adv-x="690" 
d="M52 234v70h585v-70h-585z" />
    <glyph glyph-name="uniF6E1" unicode="&#xf6e1;" horiz-adv-x="210" 
d="M45 -210l27 158h96l-53 -158h-70z" />
    <glyph glyph-name="uniF6E2" unicode="&#xf6e2;" horiz-adv-x="191" 
d="M22 545l32 205h92l-58 -205h-66z" />
    <glyph glyph-name="uniF730" unicode="&#xf730;" horiz-adv-x="544" 
d="M272 518q126 0 187 -84q50 -71 50 -180q0 -111 -50 -180q-62 -84 -187 -84q-126 0 -187 84q-50 67 -50 180q0 109 50 180q61 84 187 84zM272 436q-60 0 -95 -47q-36 -48 -36 -137q0 -86 36 -134q34 -46 95 -46t95 46q36 48 36 134q0 89 -36 137q-35 47 -95 47z" />
    <glyph glyph-name="uniF731" unicode="&#xf731;" horiz-adv-x="425" 
d="M195 0v395l-107 -93l-53 68l171 140h89v-510h-100z" />
    <glyph glyph-name="uniF732" unicode="&#xf732;" 
d="M50 0v100l166 99q92 56 126 88t34 77q0 72 -114 72q-87 0 -180 -44l-10 85q88 41 207 41q62 0 105.5 -15t63 -38.5t27 -44.5t7.5 -43q0 -52 -26.5 -92.5t-68.5 -71t-127 -79.5l-90 -52h322v-82h-442z" />
    <glyph glyph-name="uniF733" unicode="&#xf733;" horiz-adv-x="515" 
d="M114 131v82h56q82 0 128 31q45 29 45 83q0 51 -36 80q-37 29 -101 29q-77 0 -155 -38l-6 89q91 31 175 31q101 0 160 -45q69 -52 69 -140q0 -67 -42 -109q-40 -42 -108 -54v-2q70 -13 112 -55q44 -46 44 -119q0 -93 -67 -144q-69 -52 -196 -52q-87 0 -172 27l6 92
q77 -37 153 -37q82 0 126 33q44 31 44 88q0 71 -56 104q-43 26 -118 26h-61z" />
    <glyph glyph-name="uniF734" unicode="&#xf734;" horiz-adv-x="568" 
d="M360 82v346h-2l-222 -346h224zM360 -190v190h-325v83l282 427h143v-428h88v-82h-88v-190h-100z" />
    <glyph glyph-name="uniF735" unicode="&#xf735;" horiz-adv-x="512" 
d="M456 510v-82h-290l-6 -186q50 10 75 10q105 0 170 -58q71 -64 71 -158q0 -103 -68 -166q-76 -70 -203 -70q-77 0 -146 23l3 94q67 -35 140 -35q81 0 128 45q40 39 40 94q0 72 -52 114q-45 35 -123 35q-69 0 -129 -26l6 366h384z" />
    <glyph glyph-name="uniF736" unicode="&#xf736;" horiz-adv-x="545" 
d="M477 688l-14 -89q-58 29 -124 29q-80 0 -133 -60q-29 -34 -46 -87.5t-16 -105.5h3q55 64 152 64q93 0 150 -57q60 -60 60 -161q0 -103 -61 -166q-65 -65 -163 -65q-139 0 -197 118q-38 77 -38 216q0 161 59 262q72 124 233 124q71 0 135 -22zM403 219q0 50 -27 90
q-33 48 -90 48q-56 0 -91 -35q-39 -39 -39 -103q0 -59 31 -100q35 -47 92 -47q63 0 98 51q26 40 26 96z" />
    <glyph glyph-name="uniF737" unicode="&#xf737;" horiz-adv-x="496" 
d="M461 510v-82l-258 -618h-110l266 618h-340v82h442z" />
    <glyph glyph-name="uniF738" unicode="&#xf738;" 
d="M186 368v2q-63 23 -96 65q-35 43 -35 109q0 84 83 133q56 33 137 33q101 0 163 -48q59 -47 59 -113q0 -67 -41 -113q-29 -33 -85 -62q60 -21 99 -61q48 -51 48 -123q0 -94 -65 -146q-67 -54 -172 -54q-103 0 -174 55q-69 54 -69 140q0 81 60 134q33 29 88 49zM269 416
l30 -13q50 35 71 64.5t21 65.5q0 49 -38 74q-31 21 -80 21q-50 0 -86 -29q-32 -26 -32 -69q0 -36 34 -65q33 -29 80 -49zM260 331l-31 -20q-21 -13 -30.5 -20t-25 -22.5t-22.5 -34.5t-7 -43q0 -53 40 -86t101 -33q57 0 91 31q36 34 36 88q0 26 -8.5 45.5t-23.5 32
t-33.5 22.5t-40.5 20q-7 3 -10 4z" />
    <glyph glyph-name="uniF739" unicode="&#xf739;" horiz-adv-x="545" 
d="M63 -180l14 88q54 -28 119 -28q99 0 150 76q50 73 50 177h-3q-61 -65 -150 -65q-101 0 -157 63q-55 61 -55 154q0 110 68 175q62 58 156 58q134 0 191 -108q44 -83 44 -226q0 -148 -46 -241q-71 -145 -241 -145q-76 0 -140 22zM137 289q0 -53 28 -92q34 -47 92 -47t94 42
q33 37 33 96q0 62 -36 106q-36 42 -87 42q-55 0 -88 -39q-36 -41 -36 -108z" />
    <glyph glyph-name="dotlessi1" horiz-adv-x="242" 
d="M74 0v510h94v-510h-94z" />
    </font>
</defs>
</svg>
