<?xml version="1.0" standalone="no"?>
<!DOCTYPE svg PUBLIC "-//W3C//DTD SVG 1.1//EN" "http://www.w3.org/Graphics/SVG/1.1/DTD/svg11.dtd" >
<svg>
<metadata>
Created by FontForge 20110222 at Fri Apr 18 05:32:23 2014
 By Orthosie Webhosting
Copyright (c) ParaType, Inc., 1992. All rights reserved.
</metadata>
<defs>
<font id="FreeSetBold" horiz-adv-x="612" >
  <font-face 
    font-family="FreeSetBold"
    font-weight="700"
    font-stretch="normal"
    units-per-em="1000"
    panose-1="2 11 8 3 5 5 4 2 2 4"
    ascent="800"
    descent="-200"
    x-height="521"
    cap-height="700"
    bbox="-430 -253 1039 1051"
    underline-thickness="50"
    underline-position="-50"
    unicode-range="U+0020-FB02"
  />
<missing-glyph horiz-adv-x="233" 
 />
    <glyph glyph-name="IJ" unicode="IJ" horiz-adv-x="760" 
d="M65 0v700h186v-700h-186zM330 7v154q36 -17 84 -17q35 0 57 21q38 35 38 133v402h186v-458q0 -129 -61 -191q-61 -63 -172 -63q-48 0 -115 15z" />
    <glyph glyph-name="ij" unicode="ij" horiz-adv-x="647" 
d="M77 0v521h180v-521h-180zM257 738v-132h-180v132h180zM309 -213l4 116q15 -5 38 -5q37 0 50 30q10 22 10 72v521h180v-526q0 -92 -29 -143q-42 -74 -161 -74q-42 0 -92 9zM591 738v-132h-180v132h180z" />
    <glyph glyph-name="afii10017.var.accented" unicode="&#x410;`" horiz-adv-x="742" 
d="M-10 0l265 700h228l269 -700h-204l-52 149h-262l-55 -149h-189zM452 282l-83 274h-2l-90 -274h175zM252 740l72 140h196l-134 -140h-134z" />
    <glyph glyph-name="afii10022.var.accented" unicode="&#x415;`" horiz-adv-x="616" 
d="M65 0v700h492v-132h-306v-145h289v-132h-289v-159h317v-132h-503zM232 740l72 140h196l-134 -140h-134z" />
    <glyph glyph-name="afii10026.var.accented" unicode="&#x418;`" horiz-adv-x="755" 
d="M65 0v700h186v-300l-6 -172h6l216 472h223v-700h-186v300l6 172h-6l-216 -472h-223zM243 740l72 140h196l-134 -140h-134z" />
    <glyph glyph-name="afii10032.var.accented" unicode="&#x41e;`" horiz-adv-x="778" 
d="M389 712q166 0 258 -93t92 -269t-92 -269t-258 -93t-258 93t-92 269t92 269t258 93zM389 574q-75 0 -115 -57q-43 -58 -43 -167t43 -167q40 -57 115 -57t115 57q43 58 43 167t-43 167q-40 57 -115 57zM254 740l72 140h196l-134 -140h-134z" />
    <glyph glyph-name="afii10037.var.accented" unicode="&#x423;`" horiz-adv-x="692" 
d="M-2 700h214l109 -235l45 -113h3q29 89 53 147l86 201h194l-274 -580q-12 -24 -36 -56.5t-47 -46.5q-45 -29 -119 -29q-57 0 -116 22l13 126q37 -15 67 -15q29 0 46 12q20 14 28 31l12 27zM211 740l72 140h196l-134 -140h-134z" />
    <glyph glyph-name="afii10045.var.accented" unicode="&#x42b;`" horiz-adv-x="960" 
d="M65 0v700h186v-262h84q45 0 70 -1t71 -13.5t76 -37.5q68 -58 68 -170q0 -106 -78 -165q-67 -51 -192 -51h-285zM251 306v-174h52q74 0 102 22q29 24 29 68q0 47 -34 68q-25 16 -87 16h-62zM709 0v700h186v-700h-186zM345 740l72 140h196l-134 -140h-134z" />
    <glyph glyph-name="afii10047.var.accented" unicode="&#x42d;`" horiz-adv-x="680" 
d="M38 17l6 140q88 -36 170 -36q114 0 173 57q50 48 55 120h-266v128h263q-9 60 -52 100q-57 53 -159 53q-94 0 -172 -49l-19 143q98 39 207 39q176 0 277 -84q54 -45 86 -117.5t32 -161.5q0 -166 -105 -265q-103 -96 -300 -96q-103 0 -196 29zM205 740l72 140h196
l-134 -140h-134z" />
    <glyph glyph-name="afii10048.var.accented" unicode="&#x42e;`" horiz-adv-x="1058" 
d="M251 432h93q14 115 82 187q88 93 248 93q164 0 254 -93q91 -94 91 -269t-91 -269q-90 -93 -254 -93q-161 0 -248 93q-37 40 -59.5 99.5t-26.5 119.5h-89v-300h-186v700h186v-268zM674 574q-65 0 -106 -49q-47 -59 -47 -175q0 -111 42 -168q41 -56 111 -56q69 0 111 55
q42 56 42 169q0 111 -42 168q-40 56 -111 56zM394 740l72 140h196l-134 -140h-134z" />
    <glyph glyph-name="afii10049.var.accented" unicode="&#x42f;`" horiz-adv-x="667" 
d="M602 700v-700h-186v245h-61l-122 -245h-208l167 291q-49 13 -81 48q-44 47 -44 131q0 120 77 177q69 53 236 53h222zM416 568h-48q-54 0 -82 -21q-33 -25 -33 -74q0 -45 27 -70q29 -26 88 -26h48v191zM199 740l72 140h196l-134 -140h-134z" />
    <glyph glyph-name="afii10023.var.accented" unicode="&#x401;`" horiz-adv-x="616" 
d="M65 0v700h492v-132h-306v-145h289v-132h-289v-159h317v-132h-503zM95 907h132v-132h-132v132zM395 907h132v-132h-132v132zM243 907l68 144h187l-129 -144h-126z" />
    <glyph glyph-name="afii10065.var.accented" unicode="&#x430;`" horiz-adv-x="607" 
d="M558 0h-163l-2 82h-2q-19 -31 -47 -55q-47 -39 -118 -39q-85 0 -138 41q-57 45 -57 121q0 102 88 147q63 32 181 32q40 0 84 -5q1 37 -23 61q-29 28 -98 28q-88 0 -164 -39l-3 122q91 37 205 37q115 0 179 -50q72 -57 72 -166v-194q0 -71 6 -123zM199 165q0 -25 20 -41
q19 -16 53 -16q53 0 85 42q25 33 27 81q-28 4 -70 4q-60 0 -86 -17q-29 -19 -29 -53zM203 590l70 160h186l-130 -160h-126z" />
    <glyph glyph-name="afii10070.var.accented" unicode="&#x435;`" horiz-adv-x="611" 
d="M573 208h-360q6 -49 42 -73q38 -27 114 -27t156 40v-127q-79 -33 -187 -33q-142 0 -223 75q-84 78 -84 200q0 130 85 204q76 66 195 66q127 0 195 -78q67 -77 67 -214v-33zM211 310h200q2 43 -26 80q-25 29 -72 29q-46 0 -73 -30q-29 -33 -29 -79zM205 590l70 160h186
l-130 -160h-126z" />
    <glyph glyph-name="afii10074.var.accented" unicode="&#x438;`" horiz-adv-x="696" 
d="M56 521h180v-157l-5 -164h3l203 321h203v-521h-180v155l5 166h-3l-203 -321h-203v521zM247 590l70 160h186l-130 -160h-126z" />
    <glyph glyph-name="afii10080.var.accented" unicode="&#x43e;`" horiz-adv-x="668" 
d="M334 533q125 0 207 -64q96 -75 96 -209t-96 -209q-79 -63 -207 -63t-207 63q-96 75 -96 209t96 209q82 64 207 64zM334 407q-50 0 -81 -34q-36 -39 -36 -113t36 -113q31 -34 81 -34t81 34q36 39 36 113t-36 113q-31 34 -81 34zM233 590l70 160h186l-130 -160h-126z" />
    <glyph glyph-name="afii10085.var.accented" unicode="&#x443;`" horiz-adv-x="605" 
d="M45 -210l12 137q29 -11 65 -11q43 0 66 21q20 16 31 51l-211 533h194l112 -340h2l107 340h180l-200 -507q-21 -55 -35 -85q-35 -78 -84 -114q-51 -37 -140 -37q-41 0 -99 12zM202 590l70 160h186l-130 -160h-126z" />
    <glyph glyph-name="afii10093.var.accented" unicode="&#x44b;`" horiz-adv-x="897" 
d="M56 521h180v-164h141q105 0 158 -46q54 -48 54 -136t-59 -133q-55 -42 -160 -42h-314v521zM236 237v-117h88q40 0 59 14q20 14 20 45q0 32 -24 47q-17 11 -47 11h-96zM661 0v521h180v-521h-180zM348 590l70 160h186l-130 -160h-126z" />
    <glyph glyph-name="afii10095.var.accented" unicode="&#x44d;`" horiz-adv-x="514" 
d="M104 219v104h193q-8 45 -40 69q-33 27 -97 27q-67 0 -123 -24l-12 111q69 27 153 27q130 0 206 -56q99 -74 99 -212q0 -135 -87 -210q-78 -67 -216 -67q-91 0 -160 27l6 114q62 -27 128 -27q69 0 104 30q38 32 39 87h-193zM156 590l70 160h186l-130 -160h-126z" />
    <glyph glyph-name="afii10096.var.accented" unicode="&#x44e;`" horiz-adv-x="919" 
d="M236 336h75q15 79 79 133q75 64 199 64q123 0 204 -64q95 -76 95 -209t-95 -209q-79 -63 -204 -63t-199 63q-72 63 -84 159h-70v-210h-180v521h180v-185zM589 407q-49 0 -78 -34q-35 -41 -35 -113t35 -113q29 -34 78 -34t78 34q35 41 35 113t-35 113q-29 34 -78 34z
M359 590l70 160h186l-130 -160h-126z" />
    <glyph glyph-name="afii10097.var.accented" unicode="&#x44f;`" horiz-adv-x="609" 
d="M553 521v-521h-180v178h-71l-93 -178h-194l128 212q-56 6 -87.5 47.5t-31.5 97.5q0 164 218 164h311zM373 401h-90q-39 0 -56 -14t-17 -42t19 -41q18 -13 54 -13h90v110zM204 590l70 160h186l-130 -160h-126z" />
    <glyph glyph-name="afii10071.var.accented" unicode="&#x451;`" horiz-adv-x="611" 
d="M573 208h-360q6 -49 42 -73q38 -27 114 -27t156 40v-127q-79 -33 -187 -33q-142 0 -223 75q-84 78 -84 200q0 130 85 204q76 66 195 66q127 0 195 -78q67 -77 67 -214v-33zM211 310h200q2 43 -26 80q-25 29 -72 29q-46 0 -73 -30q-29 -33 -29 -79zM388 585v144h124v-144
h-124zM80 585v144h124v-144h-124zM226 729l68 144h187l-129 -144h-126z" />
    <glyph glyph-name="fi" unicode="fi" horiz-adv-x="778" 
d="M119 0v395h-106v126h106v32q0 105 51 156q53 53 162 53q42 0 93 -9l6 -1l-11 -124q-24 8 -51 8q-35 0 -51 -17q-19 -20 -19 -66v-32h128v-126h-128v-395h-180zM521 0v521h180v-521h-180zM701 738v-132h-180v132h180z" />
    <glyph glyph-name="fl" unicode="fl" horiz-adv-x="756" 
d="M119 0v395h-106v126h106v32q0 105 51 156q53 53 162 53q42 0 93 -9l6 -1l-11 -124q-24 8 -51 8q-35 0 -51 -17q-19 -20 -19 -66v-32h128v-126h-128v-395h-180zM520 0v750h180v-750h-180z" />
    <glyph glyph-name=".notdef" horiz-adv-x="233" 
 />
    <glyph glyph-name=".null" horiz-adv-x="0" 
 />
    <glyph glyph-name="nonmarkingreturn" horiz-adv-x="333" 
 />
    <glyph glyph-name="space" unicode=" " horiz-adv-x="233" 
 />
    <glyph glyph-name="exclam" unicode="!" horiz-adv-x="444" 
d="M315 700l-26 -462h-134l-26 462h186zM138 0v162h168v-162h-168z" />
    <glyph glyph-name="quotedbl" unicode="&#x22;" horiz-adv-x="611" 
d="M337 428v272h132v-272h-132zM142 428v272h132v-272h-132z" />
    <glyph glyph-name="numbersign" unicode="#" 
d="M58 188v108h99l15 110h-84v109h99l26 185h106l-26 -185h87l25 185h105l-25 -185h69v-109h-84l-15 -110h69v-108h-84l-26 -188h-105l26 188h-87l-26 -188h-106l26 188h-84zM350 296l15 110h-87l-15 -110h87z" />
    <glyph glyph-name="dollar" unicode="$" 
d="M266 120v170q-90 14 -156 65q-70 51 -72 147q2 108 72 157q68 50 169 53v85h60v-85q51 0 99 -7q52 -8 86 -24l-12 -135q-79 39 -173 40v-152q50 -11 92 -24q44 -16 74 -40q34 -25 52 -64q18 -40 18 -101q-1 -109 -78 -162q-73 -53 -171 -55v-86h-60v86q-47 0 -109 8
q-59 6 -93 18l13 142q95 -38 189 -36zM279 446v140q-33 -1 -56 -20q-23 -20 -23 -48q0 -34 25 -50q22 -17 54 -22zM326 281v-161q86 5 87 87q-1 37 -27 54q-25 15 -60 20z" />
    <glyph glyph-name="percent" unicode="%" horiz-adv-x="1000" 
d="M602 196q-2 88 39 147t136 60q98 -2 137 -60q38 -59 38 -147q0 -93 -38 -149q-38 -57 -137 -59q-96 2 -136 59q-41 56 -39 149zM728 196q-1 -36 7 -78q7 -38 42 -40q36 1 43 40q8 38 6 78q2 40 -6 78t-43 39q-35 -1 -42 -39q-8 -42 -7 -78zM253 -22l382 744h109
l-381 -744h-110zM48 505q-2 89 39 147q41 59 136 60q98 -2 137 -60q38 -59 38 -147q0 -93 -38 -149q-38 -57 -137 -59q-96 2 -136 59q-41 56 -39 149zM174 505q-1 -36 7 -78q7 -38 42 -40q36 1 43 40q7 37 6 78q2 41 -6 78q-8 38 -43 39q-35 -2 -42 -39q-8 -42 -7 -78z" />
    <glyph glyph-name="ampersand" unicode="&#x26;" horiz-adv-x="778" 
d="M587 378h162q-7 -137 -107 -240l124 -138h-199q-21 30 -42 53q-47 -37 -102 -51q-59 -14 -115 -14q-104 0 -181 52q-82 53 -83 161q0 74 37 117q35 44 100 73q-84 65 -84 154q0 47 22 79q19 31 53 51q70 37 157 37q95 1 167 -37q74 -39 75 -135q0 -34 -12 -59
q-12 -23 -35 -46q-22 -20 -47 -38q-18 -12 -56 -34q61 -54 120 -111q25 28 35 60q9 28 11 66zM214 205q2 -46 35 -71q34 -26 77 -26q57 0 106 38q-68 76 -155 155q-30 -14 -46 -36q-17 -23 -17 -60zM257 536q2 -32 24 -54q23 -26 43 -41q9 5 29 17q13 9 27 21q27 22 29 57
q0 32 -22 47q-23 15 -56 15q-32 0 -52 -17q-22 -16 -22 -45z" />
    <glyph glyph-name="quotesingle" unicode="'" horiz-adv-x="333" 
d="M101 428v272h132v-272h-132z" />
    <glyph glyph-name="parenleft" unicode="(" horiz-adv-x="389" 
d="M228 758h147q-141 -204 -144 -449q5 -244 137 -449h-142q-156 201 -157 449q5 248 159 449z" />
    <glyph glyph-name="parenright" unicode=")" horiz-adv-x="389" 
d="M161 -140h-147q140 206 144 449q-5 245 -144 449h147q156 -198 159 -449q-4 -248 -159 -449z" />
    <glyph glyph-name="asterisk" unicode="*" horiz-adv-x="611" 
d="M135 373l103 103l-142 28l38 116l133 -66l-21 146h122l-20 -144l130 64l37 -117l-144 -26l102 -103l-101 -73l-67 129l-72 -128z" />
    <glyph glyph-name="plus" unicode="+" horiz-adv-x="600" 
d="M47 190v126h190v190h126v-190h190v-126h-190v-190h-126v190h-190z" />
    <glyph glyph-name="comma" unicode="," horiz-adv-x="373" 
d="M2 -109l67 271h168l-98 -271h-137z" />
    <glyph glyph-name="hyphen" unicode="-" horiz-adv-x="480" 
d="M80 354h320v-140h-320v140z" />
    <glyph glyph-name="period" unicode="." horiz-adv-x="306" 
d="M69 0v162h168v-162h-168z" />
    <glyph glyph-name="slash" unicode="/" horiz-adv-x="404" 
d="M-21 -12l194 724h126l-194 -724h-126z" />
    <glyph glyph-name="zero" unicode="0" 
d="M307 -12q-168 3 -222 113q-27 50 -38 117q-11 68 -11 132q-3 144 49 250q29 51 83 82q54 29 139 30q85 -2 141 -30q54 -30 82 -82q29 -51 39 -116q9 -64 9 -134q0 -68 -9 -132q-11 -64 -39 -117q-54 -110 -223 -113zM307 114q32 0 51 22q10 12 17 24q5 12 10 31
q14 77 13 159q1 83 -13 161q-6 22 -10 31q-7 12 -17 24q-20 20 -51 20t-49 -20q-9 -10 -15 -24q-7 -13 -12 -31q-3 -12 -7 -36q-4 -26 -5 -40q-3 -42 -3 -85q0 -42 3 -82q3 -43 12 -77q4 -15 12 -31q6 -14 15 -24q18 -22 49 -22z" />
    <glyph glyph-name="one" unicode="1" 
d="M280 514l-132 -95l-83 127l237 154h164v-700h-186v514z" />
    <glyph glyph-name="two" unicode="2" 
d="M42 0v133q120 103 207 188q45 48 72 88q25 40 27 76q0 47 -28 69q-29 20 -71 20q-103 -3 -183 -48l-7 145q77 28 126 35q51 6 81 6q119 0 193 -50q73 -49 75 -155q-2 -54 -23 -101q-22 -49 -58 -94q-74 -88 -132 -136l-50 -44h276v-132h-505z" />
    <glyph glyph-name="three" unicode="3" 
d="M72 546l-9 137q93 29 203 29q53 0 99 -7q48 -9 87 -31q40 -21 64 -58q22 -37 24 -95q-3 -122 -128 -154v-2q136 -27 139 -159q-3 -126 -101 -173q-42 -23 -98 -34q-57 -11 -106 -11q-123 0 -204 24l9 147q32 -18 79 -26q41 -7 94 -7q45 -2 92 18q24 11 36 29q13 16 13 43
t-13 43q-14 17 -33 24q-21 10 -42 11q-30 2 -39 2q-34 0 -78 -2v124q50 -3 80 -2q15 0 37 5q23 5 37 13q38 18 40 59q0 27 -10 43q-10 15 -29 24q-39 14 -81 14q-99 0 -162 -28z" />
    <glyph glyph-name="four" unicode="4" 
d="M320 0v133h-312v149l280 418h206v-440h99v-127h-99v-133h-174zM332 260v296h-2l-190 -296h192z" />
    <glyph glyph-name="five" unicode="5" 
d="M75 324l5 376h455v-126h-295v-117q33 4 55 4q110 0 187 -50q79 -51 80 -166q-1 -143 -94 -201q-92 -57 -213 -56q-103 2 -187 25l3 151q82 -38 170 -38q27 0 52 6q24 4 45 17q20 14 32 36q12 21 12 54q0 31 -13 50t-36 31q-48 21 -106 21q-75 0 -152 -17z" />
    <glyph glyph-name="six" unicode="6" 
d="M530 680l-11 -137q-23 17 -58 27q-36 10 -89 10q-92 -2 -127 -56q-36 -57 -36 -150h2q48 71 151 71q98 -2 153 -62q54 -60 56 -158q-1 -100 -73 -167q-72 -69 -189 -70q-146 1 -208 100q-62 96 -60 232q-2 165 68 277q71 114 240 115q103 0 181 -32zM217 216
q0 -45 24 -75q23 -32 67 -33q45 2 67 30t22 70q0 44 -20 78q-10 16 -27 25q-18 8 -42 8q-46 -2 -68 -31q-23 -31 -23 -72z" />
    <glyph glyph-name="seven" unicode="7" 
d="M102 0l260 568h-312v132h502v-151l-250 -549h-200z" />
    <glyph glyph-name="eight" unicode="8" 
d="M171 360v1q-49 17 -84 57q-35 41 -36 93q2 111 80 157q76 44 182 44q107 0 172 -43q66 -43 68 -136q-1 -66 -34 -104q-15 -19 -36 -33q-21 -15 -45 -24v-2q61 -17 100 -55t41 -117q0 -58 -22 -96q-22 -39 -60 -65q-79 -49 -192 -49q-116 0 -192 46q-78 46 -80 154
q1 76 42 117q38 40 96 55zM399 205q0 25 -9 41t-25 28q-34 23 -71 32q-34 -14 -57 -39q-24 -25 -24 -65t28 -62q26 -26 62 -26q41 0 69 25q25 22 27 66zM219 510q0 -40 28 -59q28 -21 59 -34q38 21 59 44q20 23 20 57q-2 39 -26 56q-26 18 -58 18q-35 0 -57 -22
q-25 -22 -25 -60z" />
    <glyph glyph-name="nine" unicode="9" 
d="M82 20l11 137q46 -36 147 -37q92 2 128 58t35 148h-2q-48 -71 -151 -71q-97 1 -152 64q-56 61 -57 156q1 101 74 168q70 67 188 69q147 -1 209 -99q60 -97 59 -233q1 -162 -67 -276q-69 -113 -241 -116q-103 0 -181 32zM395 484q0 46 -22 77q-24 29 -69 31
q-44 -2 -66 -29q-23 -29 -23 -71q-1 -45 21 -76q20 -33 68 -35q47 2 69 32q22 29 22 71z" />
    <glyph glyph-name="colon" unicode=":" horiz-adv-x="306" 
d="M69 359v162h168v-162h-168zM69 0v162h168v-162h-168z" />
    <glyph glyph-name="semicolon" unicode=";" horiz-adv-x="373" 
d="M2 -109l67 271h168l-98 -271h-137zM69 359v162h168v-162h-168z" />
    <glyph glyph-name="less" unicode="&#x3c;" horiz-adv-x="600" 
d="M553 514v-122l-341 -139l341 -139v-122l-506 208v106z" />
    <glyph glyph-name="equal" unicode="=" horiz-adv-x="600" 
d="M47 305v126h506v-126h-506zM47 75v126h506v-126h-506z" />
    <glyph glyph-name="greater" unicode="&#x3e;" horiz-adv-x="600" 
d="M47 -8v122l341 139l-341 139v122l506 -208v-106z" />
    <glyph glyph-name="question" unicode="?" horiz-adv-x="556" 
d="M69 543l-4 140q105 29 210 29q88 1 163 -36q76 -39 78 -132q-2 -53 -23 -86q-21 -35 -54 -68q-28 -29 -55 -66q-25 -35 -31 -86h-146q1 47 21 85q22 40 44 65q19 22 44 59q18 27 20 61q0 19 -9 34q-10 13 -27 22q-33 16 -74 16q-84 0 -157 -37zM196 0v162h168v-162h-168z
" />
    <glyph glyph-name="at" unicode="@" horiz-adv-x="800" 
d="M392 236q43 0 69 32q24 30 24 77q0 43 -22 68t-61 25q-45 -2 -68 -32q-26 -32 -26 -74t22 -68q21 -28 62 -28zM613 137h102q-106 -147 -291 -149q-167 2 -275 102q-111 100 -112 260q2 160 108 260q103 100 273 102q145 -2 242 -78q102 -79 103 -215q-2 -83 -31 -136
q-29 -54 -75 -86q-44 -32 -85 -45q-40 -13 -64 -13q-21 0 -34 13q-15 12 -17 37h-2q-21 -23 -44 -35q-25 -15 -57 -15q-64 0 -107 56q-45 51 -47 138q0 81 53 140q51 60 137 62q75 2 120 -58l9 48h94l-34 -210q-10 -37 -10 -55q-1 -19 13 -19q30 0 57 35q13 20 20 46
q8 29 8 66q6 225 -257 228q-119 -2 -188 -75q-69 -74 -71 -193q2 -128 76 -195q73 -69 195 -69q126 1 191 53z" />
    <glyph glyph-name="A" unicode="A" horiz-adv-x="742" 
d="M-10 0l265 700h228l269 -700h-204l-52 149h-262l-55 -149h-189zM452 282l-83 274h-2l-90 -274h175z" />
    <glyph glyph-name="B" unicode="B" horiz-adv-x="672" 
d="M65 0v700h321q118 0 178 -56q49 -46 49 -124q0 -58 -29 -98q-34 -45 -94 -63v-2q25 -4 47 -13t44.5 -26t36 -47.5t13.5 -71.5q0 -99 -75 -152q-66 -47 -197 -47h-294zM251 297v-165h63q69 0 100 21t31 60q0 52 -44 71q-32 13 -93 13h-57zM251 568v-145h52q67 0 95 20
q29 19 29 54q0 32 -20 49q-25 22 -91 22h-65z" />
    <glyph glyph-name="C" unicode="C" horiz-adv-x="667" 
d="M638 162l9 -146q-105 -28 -197 -28q-204 0 -307.5 99.5t-103.5 261.5q0 89 32 161t86 117q102 85 282 85q97 0 207 -36l-15 -151q-89 49 -181 49q-96 0 -156 -60q-63 -63 -63 -167q0 -102 63 -162q62 -59 170 -59q85 0 174 36z" />
    <glyph glyph-name="D" unicode="D" horiz-adv-x="778" 
d="M65 0v700h254q103 0 188 -20.5t145 -83.5q80 -83 80 -243q0 -172 -100 -261q-104 -92 -313 -92h-254zM251 562v-424h72q111 0 168 62q49 54 49 150q0 106 -59 160q-56 52 -158 52h-72z" />
    <glyph glyph-name="E" unicode="E" horiz-adv-x="616" 
d="M65 0v700h492v-132h-306v-145h289v-132h-289v-159h317v-132h-503z" />
    <glyph glyph-name="F" unicode="F" horiz-adv-x="561" 
d="M65 0v700h467v-132h-281v-154h269v-132h-269v-282h-186z" />
    <glyph glyph-name="G" unicode="G" horiz-adv-x="778" 
d="M710 409v-389q-130 -32 -255 -32q-181 0 -287 81q-129 99 -129 286q0 184 136 280q109 77 296 77q129 0 220 -31l-15 -152q-79 45 -184 45q-118 0 -188 -58q-73 -61 -73 -169q0 -95 56 -153q31 -32 79.5 -50t98.5 -18q36 0 65 12v139h-109v132h289z" />
    <glyph glyph-name="H" unicode="H" horiz-adv-x="722" 
d="M65 0v700h186v-268h220v268h186v-700h-186v300h-220v-300h-186z" />
    <glyph glyph-name="I" unicode="I" horiz-adv-x="316" 
d="M65 0v700h186v-700h-186z" />
    <glyph glyph-name="J" unicode="J" horiz-adv-x="444" 
d="M14 7v154q36 -17 84 -17q35 0 57 21q38 35 38 133v402h186v-458q0 -129 -61 -191q-61 -63 -172 -63q-48 0 -115 15z" />
    <glyph glyph-name="K" unicode="K" horiz-adv-x="722" 
d="M65 0v700h186v-286h2l210 286h224l-258 -326l278 -374h-237l-217 318h-2v-318h-186z" />
    <glyph glyph-name="L" unicode="L" horiz-adv-x="556" 
d="M65 0v700h186v-562h288v-138h-474z" />
    <glyph glyph-name="M" unicode="M" horiz-adv-x="1010" 
d="M65 0v700h293l148 -465h2l155 465h282v-700h-182l3 538h-2l-178 -538h-171l-170 538h-2l4 -538h-182z" />
    <glyph glyph-name="N" unicode="N" horiz-adv-x="772" 
d="M65 0v700h237l236 -475h2l-3 475h170v-700h-231l-244 478h-2l6 -478h-171z" />
    <glyph glyph-name="O" unicode="O" horiz-adv-x="778" 
d="M389 712q166 0 258 -93t92 -269t-92 -269t-258 -93t-258 93t-92 269t92 269t258 93zM389 574q-75 0 -115 -57q-43 -58 -43 -167t43 -167q40 -57 115 -57t115 57q43 58 43 167t-43 167q-40 57 -115 57z" />
    <glyph glyph-name="P" unicode="P" horiz-adv-x="621" 
d="M65 700h222q182 0 254 -70q59 -57 59 -160q0 -88 -52 -145q-74 -80 -225 -80h-72v-245h-186v700zM251 568v-191h48q59 0 88 26q27 25 27 70q0 49 -33 74q-28 21 -82 21h-48z" />
    <glyph glyph-name="Q" unicode="Q" horiz-adv-x="778" 
d="M516 -132l-117 120q-174 -2 -268 93q-92 94 -92 269q0 176 92 269t258 93t258 -93t92 -269q0 -129 -52 -216q-45 -77 -126 -111l165 -155h-210zM389 574q-75 0 -115 -57q-43 -58 -43 -167t43 -167q40 -57 115 -57t115 57q43 58 43 167t-43 167q-40 57 -115 57z" />
    <glyph glyph-name="R" unicode="R" horiz-adv-x="672" 
d="M65 0v700h332q106 0 166 -48q59 -47 59 -133q0 -69 -35 -113q-35 -46 -99 -59v-2q25 -5 44 -28q16 -19 36 -75l87 -242h-194l-40 126q-32 101 -60 127q-26 24 -71 24h-39v-277h-186zM251 568v-159h49q80 0 108 20q28 21 28 60q0 48 -44 66q-33 13 -92 13h-49z" />
    <glyph glyph-name="S" unicode="S" horiz-adv-x="611" 
d="M51 18l16 154q90 -46 192 -46q66 0 92 20q23 19 23 49q0 31 -27 52q-8 6 -17 11t-22 10t-21.5 7.5t-28 8.5t-28.5 9l-29 9q-105 32 -140 108q-17 39 -17 85q0 123 112 180q74 37 189 37q98 0 183 -26l-12 -144q-70 32 -155 32q-61 0 -89 -13q-36 -15 -36 -53
q0 -18 10 -30q19 -24 107 -48l11 -3q93 -24 139 -61q63 -51 63 -147q0 -114 -80 -174q-77 -57 -227 -57q-106 0 -208 30z" />
    <glyph glyph-name="T" unicode="T" horiz-adv-x="556" 
d="M185 0v562h-172v138h530v-138h-172v-562h-186z" />
    <glyph glyph-name="U" unicode="U" horiz-adv-x="738" 
d="M675 700v-434q0 -120 -63 -190q-79 -88 -243 -88t-243 88q-63 70 -63 190v434h186v-403q0 -73 20 -113q29 -58 100 -58t100 58q20 40 20 113v403h186z" />
    <glyph glyph-name="V" unicode="V" horiz-adv-x="682" 
d="M224 0l-234 700h198l155 -550h2l156 550h191l-238 -700h-230z" />
    <glyph glyph-name="W" unicode="W" horiz-adv-x="1000" 
d="M163 0l-155 700h190l90 -538h2l94 538h236l98 -538h2l91 538h181l-156 -700h-239l-99 538h-2l-92 -538h-241z" />
    <glyph glyph-name="X" unicode="X" horiz-adv-x="708" 
d="M3 0l226 368l-202 332h217l117 -231l120 231h204l-204 -332l224 -368h-222l-135 258l-134 -258h-211z" />
    <glyph glyph-name="Y" unicode="Y" horiz-adv-x="678" 
d="M247 0v264l-258 436h214l137 -281l135 281h214l-256 -436v-264h-186z" />
    <glyph glyph-name="Z" unicode="Z" horiz-adv-x="620" 
d="M579 700v-148l-342 -414h344v-138h-546v148l332 414h-323v138h535z" />
    <glyph glyph-name="bracketleft" unicode="[" horiz-adv-x="389" 
d="M352 758v-114h-114v-670h114v-114h-264v898h264z" />
    <glyph glyph-name="backslash" unicode="\" horiz-adv-x="278" 
d="M173 -12l-194 724h126l194 -724h-126z" />
    <glyph glyph-name="bracketright" unicode="]" horiz-adv-x="389" 
d="M37 -140v114h114v670h-114v114h264v-898h-264z" />
    <glyph glyph-name="asciicircum" unicode="^" horiz-adv-x="722" 
d="M70 334l174 366h112l174 -366h-122l-108 228l-108 -228h-122z" />
    <glyph glyph-name="underscore" unicode="_" horiz-adv-x="500" 
d="M0 -125v50h500v-50h-500z" />
    <glyph glyph-name="grave" unicode="`" horiz-adv-x="400" 
d="M300 590h-126l-130 160h186z" />
    <glyph glyph-name="a" unicode="a" horiz-adv-x="607" 
d="M558 0h-163l-2 82h-2q-19 -31 -47 -55q-47 -39 -118 -39q-85 0 -138 41q-57 45 -57 121q0 102 88 147q63 32 181 32q40 0 84 -5q1 37 -23 61q-29 28 -98 28q-88 0 -164 -39l-3 122q91 37 205 37q115 0 179 -50q72 -57 72 -166v-194q0 -71 6 -123zM199 165q0 -25 20 -41
q19 -16 53 -16q53 0 85 42q25 33 27 81q-28 4 -70 4q-60 0 -86 -17q-29 -19 -29 -53z" />
    <glyph glyph-name="b" unicode="b" horiz-adv-x="667" 
d="M52 0v750h180v-296h2q65 79 173 79q101 0 165 -76q64 -77 64 -192q0 -109 -53 -183q-68 -94 -182 -94q-58 0 -107.5 26.5t-74.5 78.5h-2v-93h-165zM450 262q0 68 -33 100.5t-76 32.5q-46 0 -78 -36.5t-32 -96.5q0 -58 31 -97t79 -39q43 0 76 34t33 102z" />
    <glyph glyph-name="c" unicode="c" horiz-adv-x="501" 
d="M478 504l-13 -132q-48 29 -104 29q-57 0 -94 -30q-49 -41 -49 -111q0 -63 45 -103q42 -37 108 -37q54 0 107 25l4 -134q-72 -23 -143 -23q-85 0 -152 30t-105 81q-51 68 -51 161q0 146 115 222q77 51 195 51q76 0 137 -29z" />
    <glyph glyph-name="d" unicode="d" horiz-adv-x="666" 
d="M614 0h-165v93h-2q-25 -52 -74.5 -78.5t-107.5 -26.5q-114 0 -182 94q-53 74 -53 183q0 114 64 192q62 76 165 76q110 0 173 -79h2v296h180v-750zM216 262q0 -68 33 -102t76 -34q48 0 79 39t31 97q0 60 -32 96.5t-78 36.5q-43 0 -76 -32.5t-33 -100.5z" />
    <glyph glyph-name="e" unicode="e" horiz-adv-x="611" 
d="M573 208h-360q6 -49 42 -73q38 -27 114 -27t156 40v-127q-79 -33 -187 -33q-142 0 -223 75q-84 78 -84 200q0 130 85 204q76 66 195 66q127 0 195 -78q67 -77 67 -214v-33zM211 310h200q2 43 -26 80q-25 29 -72 29q-46 0 -73 -30q-29 -33 -29 -79z" />
    <glyph glyph-name="f" unicode="f" horiz-adv-x="444" 
d="M119 0v395h-106v126h106v32q0 105 51 156q53 53 162 53q42 0 93 -9l6 -1l-11 -124q-24 8 -51 8q-35 0 -51 -17q-19 -20 -19 -66v-32h128v-126h-128v-395h-180z" />
    <glyph glyph-name="g" unicode="g" horiz-adv-x="668" 
d="M608 521v-460q0 -144 -68 -212q-72 -71 -231 -71q-117 0 -214 33l9 142q82 -43 176 -43q82 0 123 41q37 38 37 110v28h-2q-24 -38 -67 -62q-50 -27 -109 -27q-106 0 -170 75q-61 71 -61 194q0 127 69 200q62 64 159 64q65 0 112 -30q44 -27 72 -76h2v94h163zM217 265
q0 -56 28 -91q29 -36 74 -36q47 0 80 36q35 37 35 97q0 52 -28 85q-32 39 -84 39q-44 0 -72 -30q-33 -36 -33 -100z" />
    <glyph glyph-name="h" unicode="h" horiz-adv-x="667" 
d="M56 0v750h180v-306h2q30 42 73 65q45 24 101 24q92 0 144 -54q55 -55 55 -154v-325h-180v252q0 83 -33 113q-19 18 -50 18q-58 0 -87 -45q-25 -40 -25 -118v-220h-180z" />
    <glyph glyph-name="i" unicode="i" horiz-adv-x="334" 
d="M77 0v521h180v-521h-180zM257 738v-132h-180v132h180z" />
    <glyph glyph-name="j" unicode="j" horiz-adv-x="313" 
d="M-25 -213l4 116q15 -5 38 -5q37 0 50 30q10 22 10 72v521h180v-526q0 -92 -29 -143q-42 -74 -161 -74q-43 0 -92 9zM257 738v-132h-180v132h180z" />
    <glyph glyph-name="k" unicode="k" horiz-adv-x="611" 
d="M56 0v750h180v-448h2l150 219h197l-181 -239l196 -282h-218l-144 258h-2v-258h-180z" />
    <glyph glyph-name="l" unicode="l" horiz-adv-x="292" 
d="M56 0v750h180v-750h-180z" />
    <glyph glyph-name="m" unicode="m" horiz-adv-x="1000" 
d="M56 0v521h164v-96h2q26 55 80 83q50 25 110 25q63 0 106 -29q39 -24 57 -71q60 100 192 100q88 0 133 -51q21 -24 31.5 -61t11.5 -57t1 -57v-307h-180v280q0 56 -23 82q-19 21 -52 21q-46 0 -74 -43q-25 -41 -25 -120v-220h-180v280q0 56 -23 82q-19 21 -52 21
q-46 0 -74 -43q-25 -41 -25 -120v-220h-180z" />
    <glyph glyph-name="n" unicode="n" horiz-adv-x="667" 
d="M56 0v521h164v-96h2q27 56 82 84q47 24 108 24q93 0 143 -53q56 -56 56 -155v-325h-180v252q0 82 -33 113q-19 18 -51 18q-48 0 -77 -32q-34 -38 -34 -131v-220h-180z" />
    <glyph glyph-name="o" unicode="o" horiz-adv-x="668" 
d="M334 533q125 0 207 -64q96 -75 96 -209t-96 -209q-79 -63 -207 -63t-207 63q-96 75 -96 209t96 209q82 64 207 64zM334 407q-50 0 -81 -34q-36 -39 -36 -113t36 -113q31 -34 81 -34t81 34q36 39 36 113t-36 113q-31 34 -81 34z" />
    <glyph glyph-name="p" unicode="p" horiz-adv-x="672" 
d="M56 -210v731h166v-94h2q27 53 84 82q47 24 107 24q109 0 167.5 -82t58.5 -188q0 -110 -56 -185q-67 -90 -182 -90q-54 0 -96 21q-44 22 -69 64h-2v-283h-180zM455 260q0 60 -29 97q-30 38 -80 38q-45 0 -75 -33q-35 -38 -35 -103q0 -53 32 -95q31 -38 78 -38q51 0 81 41
q28 39 28 93z" />
    <glyph glyph-name="q" unicode="q" horiz-adv-x="671" 
d="M449 521h166v-731h-180v283h-2q-25 -42 -69 -64q-42 -21 -96 -21q-115 0 -182 90q-56 75 -56 185q0 106 58.5 188t167.5 82q60 0 107 -24q57 -29 84 -82h2v94zM325 395q-50 0 -80 -38q-29 -37 -29 -97q0 -54 28 -93q30 -41 81 -41q47 0 78 38q32 42 32 95q0 65 -35 103
q-30 33 -75 33z" />
    <glyph glyph-name="r" unicode="r" horiz-adv-x="444" 
d="M437 527l-9 -150q-24 6 -51 6q-60 0 -94 -30q-47 -42 -47 -133v-220h-180v521h164v-96h2q24 57 68 85q37 23 86 23q33 0 61 -6z" />
    <glyph glyph-name="s" unicode="s" horiz-adv-x="500" 
d="M36 13l10 131q35 -14 68 -22q56 -14 107 -14q37 0 53 12q15 11 15 29q0 20 -20 35q-16 11 -73 26l-26 7q-78 22 -109 59q-29 35 -29 85q0 94 80 138q61 34 146 34q104 0 179 -30l-14 -125q-29 16 -56 23q-42 12 -84 12q-44 0 -62 -9q-21 -9 -21 -29q0 -9 6 -17
q12 -16 90 -35l16 -4q58 -14 90 -33q66 -40 66 -124q0 -83 -58 -127q-61 -47 -199 -47q-94 0 -175 25z" />
    <glyph glyph-name="t" unicode="t" horiz-adv-x="444" 
d="M10 395v126h106v117l177 55v-172h126v-126h-126v-192q0 -54 17 -74q18 -21 55 -21q7 0 42 5l13 2l6 -117l-22 -3q-52 -7 -88 -7q-106 0 -155 45q-22 20 -33 48.5t-13 48.5t-2 53v212h-103z" />
    <glyph glyph-name="u" unicode="u" horiz-adv-x="667" 
d="M611 521v-521h-164v96h-2q-27 -56 -82 -84q-47 -24 -108 -24q-93 0 -143 53q-56 56 -56 155v325h180v-252q0 -82 33 -113q19 -18 51 -18q48 0 77 32q34 38 34 131v220h180z" />
    <glyph glyph-name="v" unicode="v" horiz-adv-x="611" 
d="M203 0l-193 521h193l108 -371h2l109 371h179l-193 -521h-205z" />
    <glyph glyph-name="w" unicode="w" horiz-adv-x="944" 
d="M169 0l-160 521h188l84 -375h2l90 375h216l88 -375h2l82 375h174l-159 -521h-209l-88 377h-2l-99 -377h-209z" />
    <glyph glyph-name="x" unicode="x" horiz-adv-x="593" 
d="M0 0l177 265l-163 256h213l77 -156l81 156h197l-163 -254l174 -267h-217l-87 162l-86 -162h-203z" />
    <glyph glyph-name="y" unicode="y" horiz-adv-x="605" 
d="M45 -210l12 137q29 -11 65 -11q43 0 66 21q20 16 31 51l-211 533h194l112 -340h2l107 340h180l-200 -507q-21 -55 -35 -85q-35 -78 -84 -114q-51 -37 -140 -37q-41 0 -99 12z" />
    <glyph glyph-name="z" unicode="z" horiz-adv-x="513" 
d="M30 0v144l238 245h-233v132h439v-144l-238 -245h242v-132h-448z" />
    <glyph glyph-name="braceleft" unicode="{" horiz-adv-x="389" 
d="M359 758v-90h-47q-18 0 -31 -5q-12 -6 -18 -16q-10 -21 -9 -43v-184q0 -32 -11 -54q-12 -21 -30 -33q-37 -21 -75 -23v-2q18 0 37 -3q20 -5 38 -15t30 -35q11 -25 11 -64v-177q0 -6 2 -20q2 -13 7 -21t18 -16q11 -5 31 -7h47v-90h-100q-57 0 -98 34q-44 33 -45 103v194
q-2 49 -33 62q-33 12 -53 11v90q20 -1 53 11q32 12 33 55v201q2 71 45 105q43 32 98 32h100z" />
    <glyph glyph-name="bar" unicode="|" horiz-adv-x="222" 
d="M48 -12v764h126v-764h-126z" />
    <glyph glyph-name="braceright" unicode="}" horiz-adv-x="389" 
d="M30 -140v90h47q40 2 50 23q8 21 8 41v184q1 32 14 56q11 21 29 32q37 22 73 22v2q-16 2 -35 6q-20 5 -38 15q-18 12 -29 35q-13 24 -14 61v177q0 21 -8 43q-10 19 -50 21h-47v90h100q55 0 99 -32q42 -34 44 -105v-194q0 -23 11 -39q10 -14 24 -22q32 -14 51 -12v-90
q-13 0 -22 -1q-14 -2 -29 -9q-33 -12 -35 -56v-201q-2 -71 -44 -103q-43 -34 -99 -34h-100z" />
    <glyph glyph-name="asciitilde" unicode="~" horiz-adv-x="600" 
d="M495 354l36 -109q-16 -32 -45 -58q-29 -29 -80 -29q-32 0 -57 11q-32 12 -55 22q-23 11 -51 22q-24 10 -50 10q-29 -2 -50 -21q-22 -24 -38 -49l-36 110q17 35 46 59q30 26 79 27q33 0 60 -10q31 -10 54 -22q18 -8 52 -22q23 -10 47 -10q30 0 51 22q19 19 37 47z" />
    <glyph glyph-name="uni00A0" unicode="&#xa0;" horiz-adv-x="233" 
 />
    <glyph glyph-name="exclamdown" unicode="&#xa1;" horiz-adv-x="453" 
d="M129 -177l26 461h134l26 -461h-186zM306 521v-162h-168v162h168z" />
    <glyph glyph-name="cent" unicode="&#xa2;" 
d="M314 149l75 251q-55 -2 -92 -38q-38 -38 -38 -105q0 -36 16 -62q16 -30 39 -46zM226 -139l43 142q-191 54 -196 257q2 131 88 201q82 70 215 72q26 0 52 -3l36 116h59l-39 -128q13 -4 35 -14l-13 -132q-35 18 -59 24l-81 -271q23 -5 41 -5q67 0 112 24l4 -133
q-72 -23 -147 -23q-8 0 -24 2q-18 0 -26 1l-40 -130h-60z" />
    <glyph glyph-name="sterling" unicode="&#xa3;" 
d="M53 0v132h92v191h-84v90h86v53q4 248 282 246q69 -2 135 -18l-8 -132q-38 12 -83 12q-81 0 -112 -33q-32 -33 -30 -95v-33h152v-90h-152v-191h225v-132h-503z" />
    <glyph glyph-name="currency" unicode="&#xa4;" 
d="M46 151l58 58q-24 26 -35 66q-11 41 -11 75q0 35 11 76t35 65l-58 58l63 62l57 -54q30 22 67 32t73 10q37 0 74 -10q38 -10 66 -32l57 54l63 -62l-58 -58q25 -25 36 -65q10 -37 10 -76q0 -38 -10 -75q-10 -39 -36 -66l58 -58l-63 -62l-57 54q-26 -20 -66 -31
q-41 -11 -74 -11q-32 0 -73 11q-39 11 -67 31l-57 -54zM306 228q52 0 84 35q30 33 32 87q-2 55 -32 88q-31 32 -84 34q-51 -1 -82 -34q-34 -34 -34 -88q0 -53 34 -87q32 -35 82 -35z" />
    <glyph glyph-name="yen" unicode="&#xa5;" 
d="M216 0v136h-148v85h148v43l-9 19h-139v84h97l-165 333h186l120 -283l118 283h188l-165 -333h97v-84h-138l-10 -19v-43h148v-85h-148v-136h-180z" />
    <glyph glyph-name="brokenbar" unicode="&#xa6;" horiz-adv-x="222" 
d="M48 -12v285h126v-285h-126zM48 467v285h126v-285h-126z" />
    <glyph glyph-name="section" unicode="&#xa7;" horiz-adv-x="611" 
d="M84 -109l9 131q88 -39 178 -40q36 0 63 11q25 10 25 41q0 16 -12 30q-11 12 -34 22q-37 17 -103 42q-58 22 -102 60q-47 38 -48 100q0 49 25 80q22 29 65 56q-33 16 -56 48t-23 69q0 54 25 88q22 33 61 52q82 32 174 31q84 -2 162 -25l-8 -124q-75 29 -155 29
q-30 0 -54 -8q-25 -10 -25 -38q0 -14 14 -25q13 -11 34 -22q26 -11 102 -40q61 -23 104 -60q45 -39 46 -109q0 -42 -22 -76t-60 -61q33 -16 52 -50q18 -34 18 -71q-1 -46 -24 -78q-25 -33 -64 -53q-84 -39 -173 -39q-122 3 -194 29zM243 383q-10 -11 -22 -32
q-11 -19 -11 -38q0 -24 17 -41q29 -26 66 -39q8 -3 35 -14t43 -17q29 33 30 76q0 18 -10 29q-10 12 -22 17q-60 33 -126 59z" />
    <glyph glyph-name="dieresis" unicode="&#xa8;" horiz-adv-x="462" 
d="M273 606v132h144v-132h-144zM45 606v132h144v-132h-144z" />
    <glyph glyph-name="copyright" unicode="&#xa9;" horiz-adv-x="800" 
d="M477 293h96q-8 -151 -168 -152q-92 2 -141 61q-53 59 -53 148q0 90 53 148q48 58 141 60q161 -3 168 -152h-96q-8 28 -23 42q-14 13 -49 13q-39 -2 -58 -30q-22 -28 -22 -81t22 -81q19 -31 58 -31q34 0 49 15q15 13 23 40zM39 350q2 155 107 257q102 103 254 105
q154 -1 256 -105q103 -102 105 -257q-2 -153 -105 -255q-102 -106 -256 -107q-152 2 -254 107q-105 102 -107 255zM153 350q2 -114 73 -185q70 -73 174 -75q104 1 175 75q70 72 72 185q-1 112 -72 187q-70 72 -175 73q-104 -2 -174 -73q-71 -74 -73 -187z" />
    <glyph glyph-name="ordfeminine" unicode="&#xaa;" horiz-adv-x="397" 
d="M63 617v73q60 22 135 22q34 0 64 -3q32 -5 55 -16q25 -10 39 -35t14 -63v-145q1 -29 6 -61h-118l-6 47h-2q-31 -55 -103 -55q-51 0 -87 24q-38 24 -39 76q0 37 19 59q15 20 43 32q55 20 96 18q55 -2 71 -4q0 34 -22 46q-21 10 -55 10q-59 0 -110 -25zM250 526h-43
q-65 2 -66 -37q2 -38 43 -38q28 0 48 23q16 19 18 52z" />
    <glyph glyph-name="guillemotleft" unicode="&#xab;" horiz-adv-x="611" 
d="M166 65l-119 205l119 204h148l-110 -204l110 -205h-148zM404 65l-119 205l119 204h148l-110 -204l110 -205h-148z" />
    <glyph glyph-name="logicalnot" unicode="&#xac;" horiz-adv-x="600" 
d="M47 306v126h506v-324h-126v198h-380z" />
    <glyph glyph-name="uni00AD" unicode="&#xad;" horiz-adv-x="480" 
d="M80 354h320v-140h-320v140z" />
    <glyph glyph-name="registered" unicode="&#xae;" horiz-adv-x="800" 
d="M400 -12q-152 2 -254 107q-105 102 -107 255q2 155 107 257q102 103 254 105q154 -1 256 -105q103 -102 105 -257q-2 -153 -105 -255q-102 -106 -256 -107zM400 90q104 1 175 75q70 72 72 185q-1 112 -72 187q-70 72 -175 73q-104 -2 -174 -73q-71 -74 -73 -187
q2 -114 73 -185q70 -73 174 -75zM257 154v395h160q74 2 113 -24q38 -26 38 -92q-1 -54 -30 -80q-31 -25 -80 -28l94 -171h-96l-86 165h-17v-165h-96zM353 472v-77h58q59 -2 61 43q-1 22 -22 29q-25 5 -47 5h-50z" />
    <glyph glyph-name="macron" unicode="&#xaf;" horiz-adv-x="465" 
d="M45 623v84h375v-84h-375z" />
    <glyph glyph-name="degree" unicode="&#xb0;" horiz-adv-x="400" 
d="M53 565q2 64 44 105q40 40 103 42q63 -2 105 -42q41 -42 42 -105q-2 -64 -42 -104q-41 -42 -105 -44q-63 2 -103 44q-42 40 -44 104zM129 565q0 -29 21 -50q21 -22 50 -22q32 0 51 22q18 20 20 50q-2 33 -20 51t-51 20q-30 -2 -50 -20q-21 -20 -21 -51z" />
    <glyph glyph-name="plusminus" unicode="&#xb1;" horiz-adv-x="600" 
d="M47 268v126h190v112h126v-112h190v-126h-190v-112h-126v112h-190zM47 0v126h506v-126h-506z" />
    <glyph glyph-name="twosuperior" unicode="&#xb2;" horiz-adv-x="398" 
d="M30 284v90q65 43 130 101q63 56 64 97q-1 22 -18 34q-16 10 -43 10q-59 0 -116 -24l-5 96q71 23 167 24q65 0 111 -30q46 -32 48 -93q-2 -57 -43 -104q-40 -47 -97 -95l-18 -16h150v-90h-330z" />
    <glyph glyph-name="threesuperior" unicode="&#xb3;" horiz-adv-x="398" 
d="M49 596l-6 98q59 18 140 18q66 0 123 -23q27 -14 42 -35q15 -24 15 -58q-2 -72 -85 -92v-2q90 -15 92 -95q0 -38 -17 -64q-19 -25 -48 -40q-30 -14 -64 -20q-34 -7 -71 -7q-88 -1 -142 14l6 104q47 -22 110 -22q40 0 65 11q23 11 23 30q-1 22 -23 31q-21 7 -56 7
q-23 0 -51 -2v89q22 -4 55 -3q67 1 68 44q-2 23 -25 30q-22 7 -50 7q-60 -2 -101 -20z" />
    <glyph glyph-name="acute" unicode="&#xb4;" horiz-adv-x="400" 
d="M100 590l70 160h186l-130 -160h-126z" />
    <glyph glyph-name="mu" unicode="&#xb5;" horiz-adv-x="667" 
d="M611 521v-521h-164v96h-2q-29 -56 -77 -81q-50 -27 -113 -27h-17v-198h-182v731h180v-252q0 -73 24 -101q22 -31 59 -30q56 -1 84 40t28 123v220h180z" />
    <glyph glyph-name="paragraph" unicode="&#xb6;" horiz-adv-x="620" 
d="M241 -126v475q-94 -1 -157 37q-65 38 -66 139q1 100 66 139q62 38 157 36h337v-826h-120v736h-97v-736h-120z" />
    <glyph glyph-name="periodcentered" unicode="&#xb7;" horiz-adv-x="306" 
d="M69 191v162h168v-162h-168z" />
    <glyph glyph-name="cedilla" unicode="&#xb8;" horiz-adv-x="333" 
d="M147 0h66l-27 -65q20 5 40 5q48 0 69 -24q17 -19 17 -52q0 -49 -39 -69q-33 -17 -90 -17q-46 0 -83 9q-24 6 -45 14l17 49q52 -24 87 -24q25 0 37 7q15 9 15 28q0 14 -11 23q-11 8 -25 8q-18 0 -33 -6l-37 24z" />
    <glyph glyph-name="onesuperior" unicode="&#xb9;" horiz-adv-x="398" 
d="M163 572l-79 -48l-54 87l152 93h113v-420h-132v288z" />
    <glyph glyph-name="ordmasculine" unicode="&#xba;" horiz-adv-x="434" 
d="M17 547q1 79 58 122q55 43 142 43q89 0 144 -43t56 -122q-1 -79 -56 -122q-56 -44 -144 -44q-86 0 -142 44q-57 43 -58 122zM143 547q0 -31 18 -56q18 -26 56 -26q39 0 57 26q17 26 17 56q0 31 -17 56q-18 23 -57 25q-38 -2 -56 -25q-18 -24 -18 -56z" />
    <glyph glyph-name="guillemotright" unicode="&#xbb;" horiz-adv-x="611" 
d="M207 474l119 -204l-119 -205h-148l110 205l-110 204h148zM445 474l119 -204l-119 -205h-148l110 205l-110 204h148z" />
    <glyph glyph-name="onequarter" unicode="&#xbc;" horiz-adv-x="916" 
d="M209 -22l387 744h109l-387 -744h-109zM163 574l-79 -48l-54 87l152 93h113v-421h-132v289zM714 0v71h-210v102l179 248h151v-260h60v-90h-60v-71h-120zM714 161v173h-2l-121 -173h123z" />
    <glyph glyph-name="onehalf" unicode="&#xbd;" horiz-adv-x="916" 
d="M201 -22l387 744h109l-387 -744h-109zM155 572l-79 -48l-54 87l152 93h113v-421h-132v289zM556 0v90q67 44 130 102q63 56 64 97q-1 22 -18 34q-16 10 -43 10q-59 0 -116 -24l-5 96q71 23 167 24q65 0 111 -30q46 -31 48 -93q-2 -57 -43 -104q-43 -51 -97 -96l-18 -16
h150v-90h-330z" />
    <glyph glyph-name="threequarters" unicode="&#xbe;" horiz-adv-x="916" 
d="M209 -22l387 744h109l-387 -744h-109zM49 596l-6 98q59 18 140 18q66 0 123 -23q27 -14 42 -35q15 -24 15 -58q-2 -72 -85 -92v-2q91 -17 92 -96q0 -38 -17 -64q-19 -25 -48 -40q-30 -14 -64 -20q-34 -7 -71 -7q-88 -1 -142 14l6 104q47 -22 110 -22q40 0 65 11
q23 11 23 30q-1 22 -23 31q-21 7 -56 7q-23 0 -51 -2v90q22 -4 55 -3q67 1 68 44q-2 23 -25 30q-22 7 -50 7q-60 -2 -101 -20zM714 0v71h-210v102l179 248h151v-260h60v-90h-60v-71h-120zM714 161v173h-2l-121 -173h123z" />
    <glyph glyph-name="questiondown" unicode="&#xbf;" horiz-adv-x="556" 
d="M487 -20l4 -140q-105 -29 -210 -29q-87 0 -161 38q-35 20 -57 52q-23 32 -23 78q0 50 25 87q23 39 53 67q25 25 56 67q24 33 29 84h146q-2 -49 -20 -83q-21 -39 -44 -66q-21 -24 -44 -57q-19 -28 -21 -63q0 -18 11 -32q10 -13 27 -22q34 -18 72 -18q84 0 157 37zM360 521
v-162h-168v162h168z" />
    <glyph glyph-name="Agrave" unicode="&#xc0;" horiz-adv-x="742" 
d="M-10 0l265 700h228l269 -700h-204l-52 149h-262l-55 -149h-189zM452 282l-83 274h-2l-90 -274h175zM488 740h-134l-134 140h196z" />
    <glyph glyph-name="Aacute" unicode="&#xc1;" horiz-adv-x="742" 
d="M-10 0l265 700h228l269 -700h-204l-52 149h-262l-55 -149h-189zM452 282l-83 274h-2l-90 -274h175zM252 740l72 140h196l-134 -140h-134z" />
    <glyph glyph-name="Acircumflex" unicode="&#xc2;" horiz-adv-x="742" 
d="M-10 0l265 700h228l269 -700h-204l-52 149h-262l-55 -149h-189zM452 282l-83 274h-2l-90 -274h175zM170 740l119 140h170l115 -140h-132l-68 74l-72 -74h-132z" />
    <glyph glyph-name="Atilde" unicode="&#xc3;" horiz-adv-x="742" 
d="M-10 0l265 700h228l269 -700h-204l-52 149h-262l-55 -149h-189zM452 282l-83 274h-2l-90 -274h175zM519 879h76q-7 -60 -39 -98q-35 -43 -97 -43q-23 0 -52 9l-21 7q-58 20 -76 20q-28 0 -40 -14q-9 -11 -11 -25h-76q7 58 39 98q35 43 95 43q33 0 69 -13l14 -5
q4 -1 13.5 -5t16 -6.5t17 -4.5t20.5 -2q46 0 52 39z" />
    <glyph glyph-name="Adieresis" unicode="&#xc4;" horiz-adv-x="742" 
d="M-10 0l265 700h228l269 -700h-204l-52 149h-262l-55 -149h-189zM452 282l-83 274h-2l-90 -274h175zM420 740v140h150v-140h-150zM180 740v140h150v-140h-150z" />
    <glyph glyph-name="Aring" unicode="&#xc5;" horiz-adv-x="742" 
d="M-10 0l265 700h228l269 -700h-204l-52 149h-262l-55 -149h-189zM452 282l-83 274h-2l-90 -274h175zM260 828q0 46 35.5 79t82.5 33q49 0 83.5 -33.5t34.5 -78.5t-34.5 -78.5t-83.5 -33.5q-47 0 -82.5 33t-35.5 79zM328 828q0 -20 14 -34t36 -14t36 14t14 34t-14 34
t-36 14t-36 -14t-14 -34z" />
    <glyph glyph-name="AE" unicode="&#xc6;" horiz-adv-x="1009" 
d="M-4 0l365 700h588v-132h-286v-145h268v-132h-268v-159h298v-132h-484v149h-213l-73 -149h-195zM477 282v286h-9l-139 -286h148z" />
    <glyph glyph-name="Ccedilla" unicode="&#xc7;" horiz-adv-x="667" 
d="M638 162l9 -146q-111 -29 -229 -28l-22 -53q20 5 40 5q48 0 69 -24q17 -19 17 -52q0 -49 -39 -69q-33 -17 -90 -17q-46 0 -83 9q-24 6 -45 14l17 49q52 -24 87 -24q25 0 37 7q15 9 15 28q0 14 -11 23q-11 8 -25 8q-18 0 -33 -6l-37 24l39 83q-126 14 -210 93
q-105 99 -105 263q0 89 32 161t86 117q102 85 282 85q97 0 207 -36l-15 -151q-89 49 -181 49q-96 0 -156 -60q-63 -63 -63 -167q0 -102 63 -162q62 -59 170 -59q85 0 174 36z" />
    <glyph glyph-name="Egrave" unicode="&#xc8;" horiz-adv-x="616" 
d="M65 0v700h492v-132h-306v-145h289v-132h-289v-159h317v-132h-503zM414 740h-134l-134 140h196z" />
    <glyph glyph-name="Eacute" unicode="&#xc9;" horiz-adv-x="616" 
d="M65 0v700h492v-132h-306v-145h289v-132h-289v-159h317v-132h-503zM232 740l72 140h196l-134 -140h-134z" />
    <glyph glyph-name="Ecircumflex" unicode="&#xca;" horiz-adv-x="616" 
d="M65 0v700h492v-132h-306v-145h289v-132h-289v-159h317v-132h-503zM110 740l119 140h170l115 -140h-132l-68 74l-72 -74h-132z" />
    <glyph glyph-name="Edieresis" unicode="&#xcb;" horiz-adv-x="616" 
d="M65 0v700h492v-132h-306v-145h289v-132h-289v-159h317v-132h-503zM356 740v140h150v-140h-150zM116 740v140h150v-140h-150z" />
    <glyph glyph-name="Igrave" unicode="&#xcc;" horiz-adv-x="316" 
d="M65 0v700h186v-700h-186zM266 740h-134l-134 140h196z" />
    <glyph glyph-name="Iacute" unicode="&#xcd;" horiz-adv-x="316" 
d="M65 0v700h186v-700h-186zM50 740l72 140h196l-134 -140h-134z" />
    <glyph glyph-name="Icircumflex" unicode="&#xce;" horiz-adv-x="316" 
d="M65 0v700h186v-700h-186zM-44 740l119 140h170l115 -140h-132l-68 74l-72 -74h-132z" />
    <glyph glyph-name="Idieresis" unicode="&#xcf;" horiz-adv-x="340" 
d="M77 0v700h186v-700h-186zM25 880h120v-140h-120v140zM195 880h120v-140h-120v140z" />
    <glyph glyph-name="Eth" unicode="&#xd0;" horiz-adv-x="778" 
d="M251 562v-147h167v-102h-167v-175h72q215 0 217 212q-3 211 -217 212h-72zM65 0v313h-67v102h67v285h254q187 2 298 -71q114 -77 115 -276q-2 -194 -116 -274q-117 -80 -297 -79h-254z" />
    <glyph glyph-name="Ntilde" unicode="&#xd1;" horiz-adv-x="772" 
d="M65 0v700h237l236 -475h2l-3 475h170v-700h-231l-244 478h-2l6 -478h-171zM519 879h76q-7 -60 -39 -98q-35 -43 -97 -43q-23 0 -52 9l-21 7q-58 20 -76 20q-28 0 -40 -14q-9 -11 -11 -25h-76q7 58 39 98q35 43 95 43q33 0 69 -13l14 -5q4 -1 13.5 -5t16 -6.5t17 -4.5
t20.5 -2q46 0 52 39z" />
    <glyph glyph-name="Ograve" unicode="&#xd2;" horiz-adv-x="778" 
d="M389 712q166 0 258 -93t92 -269t-92 -269t-258 -93t-258 93t-92 269t92 269t258 93zM389 574q-75 0 -115 -57q-43 -58 -43 -167t43 -167q40 -57 115 -57t115 57q43 58 43 167t-43 167q-40 57 -115 57zM528 740h-134l-134 140h196z" />
    <glyph glyph-name="Oacute" unicode="&#xd3;" horiz-adv-x="778" 
d="M389 712q166 0 258 -93t92 -269t-92 -269t-258 -93t-258 93t-92 269t92 269t258 93zM389 574q-75 0 -115 -57q-43 -58 -43 -167t43 -167q40 -57 115 -57t115 57q43 58 43 167t-43 167q-40 57 -115 57zM254 740l72 140h196l-134 -140h-134z" />
    <glyph glyph-name="Ocircumflex" unicode="&#xd4;" horiz-adv-x="778" 
d="M389 712q166 0 258 -93t92 -269t-92 -269t-258 -93t-258 93t-92 269t92 269t258 93zM389 574q-75 0 -115 -57q-43 -58 -43 -167t43 -167q40 -57 115 -57t115 57q43 58 43 167t-43 167q-40 57 -115 57zM179 740l119 140h170l115 -140h-132l-68 74l-72 -74h-132z" />
    <glyph glyph-name="Otilde" unicode="&#xd5;" horiz-adv-x="778" 
d="M389 712q166 0 258 -93t92 -269t-92 -269t-258 -93t-258 93t-92 269t92 269t258 93zM389 574q-75 0 -115 -57q-43 -58 -43 -167t43 -167q40 -57 115 -57t115 57q43 58 43 167t-43 167q-40 57 -115 57zM519 879h76q-7 -60 -39 -98q-35 -43 -97 -43q-23 0 -52 9l-21 7
q-58 20 -76 20q-28 0 -40 -14q-9 -11 -11 -25h-76q7 58 39 98q35 43 95 43q33 0 69 -13l14 -5q4 -1 13.5 -5t16 -6.5t17 -4.5t20.5 -2q46 0 52 39z" />
    <glyph glyph-name="Odieresis" unicode="&#xd6;" horiz-adv-x="778" 
d="M389 712q166 0 258 -93t92 -269t-92 -269t-258 -93t-258 93t-92 269t92 269t258 93zM389 574q-75 0 -115 -57q-43 -58 -43 -167t43 -167q40 -57 115 -57t115 57q43 58 43 167t-43 167q-40 57 -115 57zM434 740v140h150v-140h-150zM194 740v140h150v-140h-150z" />
    <glyph glyph-name="multiply" unicode="&#xd7;" horiz-adv-x="600" 
d="M214 253l-152 152l86 86l152 -152l152 152l86 -86l-153 -152l153 -152l-86 -86l-152 153l-152 -153l-86 86z" />
    <glyph glyph-name="Oslash" unicode="&#xd8;" horiz-adv-x="778" 
d="M242 261l250 270q-37 42 -103 43q-83 -2 -120 -65q-38 -67 -38 -159q0 -45 11 -89zM535 448l-253 -272q35 -48 107 -50q85 1 122 70q36 64 36 154q0 54 -12 98zM15 17l91 97q-67 91 -67 236q1 356 350 362q135 -2 216 -59l84 91l64 -60l-84 -91q70 -91 70 -243
q-1 -354 -350 -362q-139 2 -222 64l-88 -95z" />
    <glyph glyph-name="Ugrave" unicode="&#xd9;" horiz-adv-x="738" 
d="M675 700v-434q0 -120 -63 -190q-79 -88 -243 -88t-243 88q-63 70 -63 190v434h186v-403q0 -73 20 -113q29 -58 100 -58t100 58q20 40 20 113v403h186zM469 740h-134l-134 140h196z" />
    <glyph glyph-name="Uacute" unicode="&#xda;" horiz-adv-x="738" 
d="M675 700v-434q0 -120 -63 -190q-79 -88 -243 -88t-243 88q-63 70 -63 190v434h186v-403q0 -73 20 -113q29 -58 100 -58t100 58q20 40 20 113v403h186zM272 740l72 140h196l-134 -140h-134z" />
    <glyph glyph-name="Ucircumflex" unicode="&#xdb;" horiz-adv-x="738" 
d="M675 700v-434q0 -120 -63 -190q-79 -88 -243 -88t-243 88q-63 70 -63 190v434h186v-403q0 -73 20 -113q29 -58 100 -58t100 58q20 40 20 113v403h186zM170 740l119 140h170l115 -140h-132l-68 74l-72 -74h-132z" />
    <glyph glyph-name="Udieresis" unicode="&#xdc;" horiz-adv-x="738" 
d="M675 700v-434q0 -120 -63 -190q-79 -88 -243 -88t-243 88q-63 70 -63 190v434h186v-403q0 -73 20 -113q29 -58 100 -58t100 58q20 40 20 113v403h186zM410 740v140h150v-140h-150zM170 740v140h150v-140h-150z" />
    <glyph glyph-name="Yacute" unicode="&#xdd;" horiz-adv-x="678" 
d="M247 0v264l-258 436h214l137 -281l135 281h214l-256 -436v-264h-186zM252 740l72 140h196l-134 -140h-134z" />
    <glyph glyph-name="Thorn" unicode="&#xde;" horiz-adv-x="611" 
d="M55 0v700h186v-87h36q157 3 235.5 -54.5t77.5 -175.5q-5 -227 -277 -226h-72v-157h-186zM241 480v-190h48q49 -1 82 21q31 23 33 75q-2 52 -33 75q-32 19 -82 19h-48z" />
    <glyph glyph-name="germandbls" unicode="&#xdf;" horiz-adv-x="667" 
d="M56 0v494q0 86 27 138t68 81q46 30 93 40q50 9 96 9q101 1 179 -43q37 -24 60 -63q22 -40 22 -100q0 -68 -31 -108q-31 -39 -94 -61v-2q155 -30 152 -174q0 -65 -22 -106q-23 -43 -59 -66q-16 -10 -38 -19q-20 -9 -44 -15q-49 -11 -93 -11q-56 2 -89 6l5 131q33 -5 65 -5
q20 0 38 6q18 5 29 16q14 12 21 33q7 18 7 48q-2 50 -26 74q-25 24 -65 24h-24q-9 0 -25 -2v128h25q37 0 63 27q25 25 25 68q-1 94 -86 94q-57 -2 -77 -41q-23 -41 -22 -94v-507h-180z" />
    <glyph glyph-name="agrave" unicode="&#xe0;" horiz-adv-x="607" 
d="M558 0h-163l-2 82h-2q-19 -31 -47 -55q-47 -39 -118 -39q-85 0 -138 41q-57 45 -57 121q0 102 88 147q63 32 181 32q40 0 84 -5q1 37 -23 61q-29 28 -98 28q-88 0 -164 -39l-3 122q91 37 205 37q115 0 179 -50q72 -57 72 -166v-194q0 -71 6 -123zM199 165q0 -25 20 -41
q19 -16 53 -16q53 0 85 42q25 33 27 81q-28 4 -70 4q-60 0 -86 -17q-29 -19 -29 -53zM400 590h-126l-130 160h186z" />
    <glyph glyph-name="aacute" unicode="&#xe1;" horiz-adv-x="607" 
d="M558 0h-163l-2 82h-2q-19 -31 -47 -55q-47 -39 -118 -39q-85 0 -138 41q-57 45 -57 121q0 102 88 147q63 32 181 32q40 0 84 -5q1 37 -23 61q-29 28 -98 28q-88 0 -164 -39l-3 122q91 37 205 37q115 0 179 -50q72 -57 72 -166v-194q0 -71 6 -123zM199 165q0 -25 20 -41
q19 -16 53 -16q53 0 85 42q25 33 27 81q-28 4 -70 4q-60 0 -86 -17q-29 -19 -29 -53zM220 590l70 160h186l-130 -160h-126z" />
    <glyph glyph-name="acircumflex" unicode="&#xe2;" horiz-adv-x="607" 
d="M558 0h-163l-2 82h-2q-19 -31 -47 -55q-47 -39 -118 -39q-85 0 -138 41q-57 45 -57 121q0 102 88 147q63 32 181 32q40 0 84 -5q1 37 -23 61q-29 28 -98 28q-88 0 -164 -39l-3 122q91 37 205 37q115 0 179 -50q72 -57 72 -166v-194q0 -71 6 -123zM199 165q0 -25 20 -41
q19 -16 53 -16q53 0 85 42q25 33 27 81q-28 4 -70 4q-60 0 -86 -17q-29 -19 -29 -53zM111 590l113 160h162l109 -160h-120l-70 90l-74 -90h-120z" />
    <glyph glyph-name="atilde" unicode="&#xe3;" horiz-adv-x="607" 
d="M558 0h-163l-2 82h-2q-19 -31 -47 -55q-47 -39 -118 -39q-85 0 -138 41q-57 45 -57 121q0 102 88 147q63 32 181 32q40 0 84 -5q1 37 -23 61q-29 28 -98 28q-88 0 -164 -39l-3 122q91 37 205 37q115 0 179 -50q72 -57 72 -166v-194q0 -71 6 -123zM199 165q0 -25 20 -41
q19 -16 53 -16q53 0 85 42q25 33 27 81q-28 4 -70 4q-60 0 -86 -17q-29 -19 -29 -53zM428 729h72q-5 -58 -37 -98q-34 -43 -92 -43q-25 0 -50 9l-20 7q-56 20 -72 20q-25 0 -38 -14q-9 -11 -11 -25h-72q6 58 37 98q33 43 90 43q36 0 66 -13l13 -5q3 -1 12.5 -5t15.5 -6.5
t16.5 -4.5t19.5 -2q43 0 50 39z" />
    <glyph glyph-name="adieresis" unicode="&#xe4;" horiz-adv-x="607" 
d="M558 0h-163l-2 82h-2q-19 -31 -47 -55q-47 -39 -118 -39q-85 0 -138 41q-57 45 -57 121q0 102 88 147q63 32 181 32q40 0 84 -5q1 37 -23 61q-29 28 -98 28q-88 0 -164 -39l-3 122q91 37 205 37q115 0 179 -50q72 -57 72 -166v-194q0 -71 6 -123zM199 165q0 -25 20 -41
q19 -16 53 -16q53 0 85 42q25 33 27 81q-28 4 -70 4q-60 0 -86 -17q-29 -19 -29 -53zM345 606v132h144v-132h-144zM117 606v132h144v-132h-144z" />
    <glyph glyph-name="aring" unicode="&#xe5;" horiz-adv-x="607" 
d="M558 0h-163l-2 82h-2q-19 -31 -47 -55q-47 -39 -118 -39q-85 0 -138 41q-57 45 -57 121q0 102 88 147q63 32 181 32q40 0 84 -5q1 37 -23 61q-29 28 -98 28q-88 0 -164 -39l-3 122q91 37 205 37q115 0 179 -50q72 -57 72 -166v-194q0 -71 6 -123zM199 165q0 -25 20 -41
q19 -16 53 -16q53 0 85 42q25 33 27 81q-28 4 -70 4q-60 0 -86 -17q-29 -19 -29 -53zM191 678q0 45 33.5 78.5t78.5 33.5q47 0 79.5 -33t32.5 -79t-32.5 -79t-79.5 -33q-45 0 -78.5 33.5t-33.5 78.5zM255 678q0 -20 14 -34t34 -14t34 14t14 34t-14 34t-34 14t-34 -14
t-14 -34z" />
    <glyph glyph-name="ae" unicode="&#xe6;" horiz-adv-x="944" 
d="M869 148v-127q-89 -33 -191 -33q-67 -1 -130 21q-31 12 -58 36q-26 22 -49 60q-38 -68 -95 -92q-57 -25 -129 -25q-80 0 -136 40q-58 40 -59 125q0 58 29 96q29 37 70 53q45 19 89 23q48 5 81 5q58 -2 84 -5q-2 52 -34 71q-36 17 -85 17q-89 2 -166 -39l-3 123
q94 36 208 36q53 -1 100 -15q47 -15 75 -49q70 63 184 64q143 -1 205 -87q59 -85 58 -205v-33h-360q18 -102 153 -100q75 -1 159 40zM375 234h-69q-52 0 -83 -15q-33 -17 -33 -53q0 -27 22 -42q19 -16 52 -16q52 1 82 40q29 38 29 86zM555 310h200q0 46 -23 78
q-13 16 -30 23q-21 8 -47 8q-48 -2 -72 -31q-25 -31 -28 -78z" />
    <glyph glyph-name="ccedilla" unicode="&#xe7;" horiz-adv-x="501" 
d="M478 504l-13 -132q-48 29 -104 29q-57 0 -94 -30q-49 -41 -49 -111q0 -63 45 -103q42 -37 108 -37q54 0 107 25l4 -134q-37 -13 -78.5 -18.5t-61 -4.5t-29.5 1l-22 -54q20 5 40 5q48 0 69 -24q17 -19 17 -52q0 -49 -39 -69q-33 -17 -90 -17q-46 0 -83 9q-24 6 -45 14
l17 49q52 -24 87 -24q25 0 37 7q15 9 15 28q0 14 -11 23q-11 8 -25 8q-18 0 -33 -6l-37 24l40 87q-52 9 -96.5 37t-71.5 65q-51 70 -51 161q0 146 115 222q77 51 195 51q76 0 137 -29z" />
    <glyph glyph-name="egrave" unicode="&#xe8;" horiz-adv-x="611" 
d="M573 208h-360q6 -49 42 -73q38 -27 114 -27t156 40v-127q-79 -33 -187 -33q-142 0 -223 75q-84 78 -84 200q0 130 85 204q76 66 195 66q127 0 195 -78q67 -77 67 -214v-33zM211 310h200q2 43 -26 80q-25 29 -72 29q-46 0 -73 -30q-29 -33 -29 -79zM420 590h-126l-130 160
h186z" />
    <glyph glyph-name="eacute" unicode="&#xe9;" horiz-adv-x="611" 
d="M573 208h-360q6 -49 42 -73q38 -27 114 -27t156 40v-127q-79 -33 -187 -33q-142 0 -223 75q-84 78 -84 200q0 130 85 204q76 66 195 66q127 0 195 -78q67 -77 67 -214v-33zM211 310h200q2 43 -26 80q-25 29 -72 29q-46 0 -73 -30q-29 -33 -29 -79zM240 590l70 160h186
l-130 -160h-126z" />
    <glyph glyph-name="ecircumflex" unicode="&#xea;" horiz-adv-x="611" 
d="M573 208h-360q6 -49 42 -73q38 -27 114 -27t156 40v-127q-79 -33 -187 -33q-142 0 -223 75q-84 78 -84 200q0 130 85 204q76 66 195 66q127 0 195 -78q67 -77 67 -214v-33zM211 310h200q2 43 -26 80q-25 29 -72 29q-46 0 -73 -30q-29 -33 -29 -79zM125 590l113 160h162
l109 -160h-120l-70 90l-74 -90h-120z" />
    <glyph glyph-name="edieresis" unicode="&#xeb;" horiz-adv-x="611" 
d="M573 208h-360q6 -49 42 -73q38 -27 114 -27t156 40v-127q-79 -33 -187 -33q-142 0 -223 75q-84 78 -84 200q0 130 85 204q76 66 195 66q127 0 195 -78q67 -77 67 -214v-33zM211 310h200q2 43 -26 80q-25 29 -72 29q-46 0 -73 -30q-29 -33 -29 -79zM348 606v132h144v-132
h-144zM120 606v132h144v-132h-144z" />
    <glyph glyph-name="igrave" unicode="&#xec;" horiz-adv-x="334" 
d="M77 0v521h180v-521h-180zM267 590h-126l-130 160h186z" />
    <glyph glyph-name="iacute" unicode="&#xed;" horiz-adv-x="334" 
d="M77 0v521h180v-521h-180zM67 590l70 160h186l-130 -160h-126z" />
    <glyph glyph-name="icircumflex" unicode="&#xee;" horiz-adv-x="334" 
d="M77 0v521h180v-521h-180zM-25 590l113 160h162l109 -160h-120l-70 90l-74 -90h-120z" />
    <glyph glyph-name="idieresis" unicode="&#xef;" horiz-adv-x="334" 
d="M77 0v521h180v-521h-180zM23 738h120v-132h-120v132zM191 738h120v-132h-120v132z" />
    <glyph glyph-name="eth" unicode="&#xf0;" horiz-adv-x="668" 
d="M217 249q0 -26 7 -47q6 -26 19 -44q25 -42 87 -44q66 2 94 44q27 41 27 92q0 52 -27 91q-28 38 -94 40q-62 -2 -87 -40q-26 -40 -26 -92zM81 594l107 49q-36 15 -89 34l104 109q84 -29 155 -66l146 66l62 -64l-120 -54q87 -57 139 -148q50 -88 52 -218q-3 -308 -311 -314
q-291 -1 -295 261q2 109 69 182q68 75 175 76q49 0 95 -17q44 -18 65 -64l2 2q-18 56 -58 97q-38 38 -94 70l-144 -66z" />
    <glyph glyph-name="ntilde" unicode="&#xf1;" horiz-adv-x="667" 
d="M56 0v521h164v-96h2q27 56 82 84q47 24 108 24q93 0 143 -53q56 -56 56 -155v-325h-180v252q0 82 -33 113q-19 18 -51 18q-48 0 -77 -32q-34 -38 -34 -131v-220h-180zM457 729h72q-5 -58 -37 -98q-34 -43 -92 -43q-25 0 -50 9l-20 7q-56 20 -72 20q-25 0 -38 -14
q-9 -11 -11 -25h-72q6 58 37 98q33 43 90 43q36 0 66 -13l13 -5q3 -1 12.5 -5t15.5 -6.5t16.5 -4.5t19.5 -2q43 0 50 39z" />
    <glyph glyph-name="ograve" unicode="&#xf2;" horiz-adv-x="668" 
d="M334 533q125 0 207 -64q96 -75 96 -209t-96 -209q-79 -63 -207 -63t-207 63q-96 75 -96 209t96 209q82 64 207 64zM334 407q-50 0 -81 -34q-36 -39 -36 -113t36 -113q31 -34 81 -34t81 34q36 39 36 113t-36 113q-31 34 -81 34zM440 590h-126l-130 160h186z" />
    <glyph glyph-name="oacute" unicode="&#xf3;" horiz-adv-x="668" 
d="M334 533q125 0 207 -64q96 -75 96 -209t-96 -209q-79 -63 -207 -63t-207 63q-96 75 -96 209t96 209q82 64 207 64zM334 407q-50 0 -81 -34q-36 -39 -36 -113t36 -113q31 -34 81 -34t81 34q36 39 36 113t-36 113q-31 34 -81 34zM240 590l70 160h186l-130 -160h-126z" />
    <glyph glyph-name="ocircumflex" unicode="&#xf4;" horiz-adv-x="668" 
d="M334 533q125 0 207 -64q96 -75 96 -209t-96 -209q-79 -63 -207 -63t-207 63q-96 75 -96 209t96 209q82 64 207 64zM334 407q-50 0 -81 -34q-36 -39 -36 -113t36 -113q31 -34 81 -34t81 34q36 39 36 113t-36 113q-31 34 -81 34zM142 590l113 160h162l109 -160h-120l-70 90
l-74 -90h-120z" />
    <glyph glyph-name="otilde" unicode="&#xf5;" horiz-adv-x="668" 
d="M334 533q125 0 207 -64q96 -75 96 -209t-96 -209q-79 -63 -207 -63t-207 63q-96 75 -96 209t96 209q82 64 207 64zM334 407q-50 0 -81 -34q-36 -39 -36 -113t36 -113q31 -34 81 -34t81 34q36 39 36 113t-36 113q-31 34 -81 34zM458 729h72q-5 -58 -37 -98
q-34 -43 -92 -43q-25 0 -50 9l-20 7q-56 20 -72 20q-25 0 -38 -14q-9 -11 -11 -25h-72q6 58 37 98q33 43 90 43q36 0 66 -13l13 -5q3 -1 12.5 -5t15.5 -6.5t16.5 -4.5t19.5 -2q43 0 50 39z" />
    <glyph glyph-name="odieresis" unicode="&#xf6;" horiz-adv-x="668" 
d="M334 533q125 0 207 -64q96 -75 96 -209t-96 -209q-79 -63 -207 -63t-207 63q-96 75 -96 209t96 209q82 64 207 64zM334 407q-50 0 -81 -34q-36 -39 -36 -113t36 -113q31 -34 81 -34t81 34q36 39 36 113t-36 113q-31 34 -81 34zM376 606v132h144v-132h-144zM148 606v132
h144v-132h-144z" />
    <glyph glyph-name="divide" unicode="&#xf7;" horiz-adv-x="600" 
d="M47 190v126h506v-126h-506zM206 461q0 41 28 66q27 25 65 27q41 -2 66 -27t27 -66q-2 -38 -27 -65q-25 -28 -66 -28q-38 0 -65 28q-28 27 -28 65zM206 45q0 41 28 66q27 25 65 27q41 -2 66 -27t27 -66q-2 -38 -27 -65q-25 -26 -66 -28q-39 2 -65 28q-28 27 -28 65z" />
    <glyph glyph-name="oslash" unicode="&#xf8;" horiz-adv-x="668" 
d="M445 314l-175 -181q25 -19 64 -19q62 2 90 45q27 42 27 101q0 28 -6 54zM223 205l176 183q-25 19 -65 19q-61 -1 -89 -44q-28 -41 -28 -103q0 -30 6 -55zM32 7l68 70q-68 67 -69 183q2 132 88 202q83 69 215 71q95 0 167 -39l75 78l61 -58l-68 -71q66 -68 68 -183
q-1 -130 -86 -200q-86 -71 -217 -72q-92 0 -166 39l-75 -78z" />
    <glyph glyph-name="ugrave" unicode="&#xf9;" horiz-adv-x="667" 
d="M611 521v-521h-164v96h-2q-27 -56 -82 -84q-47 -24 -108 -24q-93 0 -143 53q-56 56 -56 155v325h180v-252q0 -82 33 -113q19 -18 51 -18q48 0 77 32q34 38 34 131v220h180zM440 590h-126l-130 160h186z" />
    <glyph glyph-name="uacute" unicode="&#xfa;" horiz-adv-x="667" 
d="M611 521v-521h-164v96h-2q-27 -56 -82 -84q-47 -24 -108 -24q-93 0 -143 53q-56 56 -56 155v325h180v-252q0 -82 33 -113q19 -18 51 -18q48 0 77 32q34 38 34 131v220h180zM240 590l70 160h186l-130 -160h-126z" />
    <glyph glyph-name="ucircumflex" unicode="&#xfb;" horiz-adv-x="667" 
d="M611 521v-521h-164v96h-2q-27 -56 -82 -84q-47 -24 -108 -24q-93 0 -143 53q-56 56 -56 155v325h180v-252q0 -82 33 -113q19 -18 51 -18q48 0 77 32q34 38 34 131v220h180zM141 590l113 160h162l109 -160h-120l-70 90l-74 -90h-120z" />
    <glyph glyph-name="udieresis" unicode="&#xfc;" horiz-adv-x="667" 
d="M611 521v-521h-164v96h-2q-27 -56 -82 -84q-47 -24 -108 -24q-93 0 -143 53q-56 56 -56 155v325h180v-252q0 -82 33 -113q19 -18 51 -18q48 0 77 32q34 38 34 131v220h180zM375 606v132h144v-132h-144zM147 606v132h144v-132h-144z" />
    <glyph glyph-name="yacute" unicode="&#xfd;" horiz-adv-x="605" 
d="M45 -210l12 137q29 -11 65 -11q43 0 66 21q20 16 31 51l-211 533h194l112 -340h2l107 340h180l-200 -507q-21 -55 -35 -85q-35 -78 -84 -114q-51 -37 -140 -37q-41 0 -99 12zM240 590l70 160h186l-130 -160h-126z" />
    <glyph glyph-name="thorn" unicode="&#xfe;" horiz-adv-x="668" 
d="M52 -210v960h181v-296h2q70 80 179 79t166 -84q57 -79 57 -179q0 -118 -60 -198q-60 -83 -178 -84q-47 0 -93 20t-72 65h-2v-283h-180zM451 266q0 54 -27 91q-28 36 -82 38q-51 -2 -79 -38q-31 -37 -31 -98q1 -58 33 -94q32 -38 77 -39q53 0 81 40q28 37 28 100z" />
    <glyph glyph-name="ydieresis" unicode="&#xff;" horiz-adv-x="605" 
d="M45 -210l12 137q29 -11 65 -11q43 0 66 21q20 16 31 51l-211 533h194l112 -340h2l107 340h180l-200 -507q-21 -55 -35 -85q-35 -78 -84 -114q-51 -37 -140 -37q-41 0 -99 12zM353 606v132h144v-132h-144zM125 606v132h144v-132h-144z" />
    <glyph glyph-name="Amacron" unicode="&#x100;" horiz-adv-x="742" 
d="M-10 0l265 700h228l269 -700h-204l-52 149h-262l-55 -149h-189zM452 282l-83 274h-2l-90 -274h175zM180 773v84h375v-84h-375z" />
    <glyph glyph-name="amacron" unicode="&#x101;" horiz-adv-x="607" 
d="M558 0h-163l-2 82h-2q-19 -31 -47 -55q-47 -39 -118 -39q-85 0 -138 41q-57 45 -57 121q0 102 88 147q63 32 181 32q40 0 84 -5q1 37 -23 61q-29 28 -98 28q-88 0 -164 -39l-3 122q91 37 205 37q115 0 179 -50q72 -57 72 -166v-194q0 -71 6 -123zM199 165q0 -25 20 -41
q19 -16 53 -16q53 0 85 42q25 33 27 81q-28 4 -70 4q-60 0 -86 -17q-29 -19 -29 -53zM115 623v84h375v-84h-375z" />
    <glyph glyph-name="Abreve" unicode="&#x102;" horiz-adv-x="742" 
d="M-10 0l265 700h228l269 -700h-204l-52 149h-262l-55 -149h-189zM452 282l-83 274h-2l-90 -274h175zM375 830q56 0 81 11q25 13 31 39h90q-6 -63 -59 -103q-31 -23 -63.5 -30t-79.5 -7t-79.5 7t-63.5 30q-53 40 -59 103h90q6 -26 31 -39q25 -11 81 -11z" />
    <glyph glyph-name="abreve" unicode="&#x103;" horiz-adv-x="607" 
d="M558 0h-163l-2 82h-2q-19 -31 -47 -55q-47 -39 -118 -39q-85 0 -138 41q-57 45 -57 121q0 102 88 147q63 32 181 32q40 0 84 -5q1 37 -23 61q-29 28 -98 28q-88 0 -164 -39l-3 122q91 37 205 37q115 0 179 -50q72 -57 72 -166v-194q0 -71 6 -123zM199 165q0 -25 20 -41
q19 -16 53 -16q53 0 85 42q25 33 27 81q-28 4 -70 4q-60 0 -86 -17q-29 -19 -29 -53zM114 729h76q9 -37 39 -56q27 -17 74 -17q55 0 84 24q22 19 29 49h76q-5 -66 -48 -108q-50 -49 -141 -49q-85 0 -133 41q-51 43 -56 116z" />
    <glyph glyph-name="Aogonek" unicode="&#x104;" horiz-adv-x="778" 
d="M8 0l265 700h228l269 -700l-29 -24q-30 -25 -44 -49q-13 -17 -13 -42q0 -18 11 -29q12 -12 32 -12q19 0 35 9q16 8 24 16l6 6l34 -22q-28 -44 -74 -63q-34 -13 -73 -13q-50 0 -76 28q-21 23 -21 61q0 32 20 58q18 23 45 43q17 12 42 26l12 7h-135l-52 149h-262l-55 -149
h-189zM470 282l-83 274h-2l-90 -274h175z" />
    <glyph glyph-name="aogonek" unicode="&#x105;" horiz-adv-x="607" 
d="M558 0l-29 -24q-30 -25 -44 -49q-13 -17 -13 -42q0 -18 11 -29q12 -12 32 -12q19 0 35 9q16 8 24 16l6 6l34 -22q-29 -46 -73 -63q-31 -13 -74 -13q-50 0 -76 28q-21 23 -21 61q0 32 20 58q18 23 45 43q17 12 42 26l12 7h-94l-2 82h-2q-19 -31 -47 -55q-47 -39 -118 -39
q-85 0 -138 41q-57 45 -57 121q0 102 88 147q63 32 181 32q40 0 84 -5q1 37 -23 61q-29 28 -98 28q-88 0 -164 -39l-3 122q91 37 205 37q115 0 179 -50q72 -57 72 -166v-194q0 -71 6 -123zM199 165q0 -25 20 -41q19 -16 53 -16q53 0 85 42q25 33 27 81q-28 4 -70 4
q-60 0 -86 -17q-29 -19 -29 -53z" />
    <glyph glyph-name="Cacute" unicode="&#x106;" horiz-adv-x="667" 
d="M638 162l9 -146q-105 -28 -197 -28q-204 0 -307.5 99.5t-103.5 261.5q0 89 32 161t86 117q102 85 282 85q97 0 207 -36l-15 -151q-89 49 -181 49q-96 0 -156 -60q-63 -63 -63 -167q0 -102 63 -162q62 -59 170 -59q85 0 174 36zM290 740l72 140h196l-134 -140h-134z" />
    <glyph glyph-name="cacute" unicode="&#x107;" horiz-adv-x="501" 
d="M478 504l-13 -132q-48 29 -104 29q-57 0 -94 -30q-49 -41 -49 -111q0 -63 45 -103q42 -37 108 -37q54 0 107 25l4 -134q-72 -23 -143 -23q-85 0 -152 30t-105 81q-51 68 -51 161q0 146 115 222q77 51 195 51q76 0 137 -29zM220 590l70 160h186l-130 -160h-126z" />
    <glyph glyph-name="Ccircumflex" unicode="&#x108;" horiz-adv-x="667" 
d="M638 162l9 -146q-105 -28 -197 -28q-204 0 -307.5 99.5t-103.5 261.5q0 89 32 161t86 117q102 85 282 85q97 0 207 -36l-15 -151q-89 49 -181 49q-96 0 -156 -60q-63 -63 -63 -167q0 -102 63 -162q62 -59 170 -59q85 0 174 36zM220 740l119 140h170l115 -140h-132l-68 74
l-72 -74h-132z" />
    <glyph glyph-name="ccircumflex" unicode="&#x109;" horiz-adv-x="501" 
d="M478 504l-13 -132q-48 29 -104 29q-57 0 -94 -30q-49 -41 -49 -111q0 -63 45 -103q42 -37 108 -37q54 0 107 25l4 -134q-72 -23 -143 -23q-85 0 -152 30t-105 81q-51 68 -51 161q0 146 115 222q77 51 195 51q76 0 137 -29zM125 590l113 160h162l109 -160h-120l-70 90
l-74 -90h-120z" />
    <glyph glyph-name="Cdotaccent" unicode="&#x10a;" horiz-adv-x="667" 
d="M638 162l9 -146q-105 -28 -197 -28q-204 0 -307.5 99.5t-103.5 261.5q0 89 32 161t86 117q102 85 282 85q97 0 207 -36l-15 -151q-89 49 -181 49q-96 0 -156 -60q-63 -63 -63 -167q0 -102 63 -162q62 -59 170 -59q85 0 174 36zM351 880h186v-140h-186v140z" />
    <glyph glyph-name="cdotaccent" unicode="&#x10b;" horiz-adv-x="501" 
d="M478 504l-13 -132q-48 29 -104 29q-57 0 -94 -30q-49 -41 -49 -111q0 -63 45 -103q42 -37 108 -37q54 0 107 25l4 -134q-72 -23 -143 -23q-85 0 -152 30t-105 81q-51 68 -51 161q0 146 115 222q77 51 195 51q76 0 137 -29zM232 738h186v-132h-186v132z" />
    <glyph glyph-name="Ccaron" unicode="&#x10c;" horiz-adv-x="667" 
d="M638 162l9 -146q-105 -28 -197 -28q-204 0 -307.5 99.5t-103.5 261.5q0 89 32 161t86 117q102 85 282 85q97 0 207 -36l-15 -151q-89 49 -181 49q-96 0 -156 -60q-63 -63 -63 -167q0 -102 63 -162q62 -59 170 -59q85 0 174 36zM624 880l-119 -140h-170l-115 140h132
l68 -74l72 74h132z" />
    <glyph glyph-name="ccaron" unicode="&#x10d;" horiz-adv-x="501" 
d="M478 504l-13 -132q-48 29 -104 29q-57 0 -94 -30q-49 -41 -49 -111q0 -63 45 -103q42 -37 108 -37q54 0 107 25l4 -134q-72 -23 -143 -23q-85 0 -152 30t-105 81q-51 68 -51 161q0 146 115 222q77 51 195 51q76 0 137 -29zM509 750l-113 -160h-162l-109 160h120l70 -90
l74 90h120z" />
    <glyph glyph-name="Dcaron" unicode="&#x10e;" horiz-adv-x="778" 
d="M65 0v700h254q103 0 188 -20.5t145 -83.5q80 -83 80 -243q0 -172 -100 -261q-104 -92 -313 -92h-254zM251 562v-424h72q111 0 168 62q49 54 49 150q0 106 -59 160q-56 52 -158 52h-72zM520 880l-119 -140h-170l-115 140h132l68 -74l72 74h132z" />
    <glyph glyph-name="dcaron" unicode="&#x10f;" horiz-adv-x="845" 
d="M614 0h-165v93h-2q-25 -52 -74.5 -78.5t-107.5 -26.5q-114 0 -182 94q-53 74 -53 183q0 114 64 192q62 76 165 76q110 0 173 -79h2v296h180v-750zM216 262q0 -68 33 -102t76 -34q48 0 79 39t31 97q0 60 -32 96.5t-78 36.5q-43 0 -76 -32.5t-33 -100.5zM649 560l46 190
h170l-76 -190h-140z" />
    <glyph glyph-name="Dcroat" unicode="&#x110;" horiz-adv-x="778" 
d="M251 562v-147h167v-102h-167v-175h72q215 0 217 212q-3 211 -217 212h-72zM65 0v313h-67v102h67v285h254q187 2 298 -71q114 -77 115 -276q-2 -194 -116 -274q-117 -80 -297 -79h-254z" />
    <glyph glyph-name="dcroat" unicode="&#x111;" horiz-adv-x="696" 
d="M30 265q0 114 64 192q62 76 165 76q110 0 173 -79h2v140h-212v70h212v86h180v-86h72v-70h-72v-594h-165v93h-2q-25 -52 -74.5 -78.5t-107.5 -26.5q-114 0 -182 94q-53 74 -53 183zM216 262q0 -68 33 -102t76 -34q48 0 79 39t31 97q0 60 -32 96.5t-78 36.5
q-43 0 -76 -32.5t-33 -100.5z" />
    <glyph glyph-name="Emacron" unicode="&#x112;" horiz-adv-x="616" 
d="M65 0v700h492v-132h-306v-145h289v-132h-289v-159h317v-132h-503zM118 773v84h375v-84h-375z" />
    <glyph glyph-name="emacron" unicode="&#x113;" horiz-adv-x="611" 
d="M573 208h-360q6 -49 42 -73q38 -27 114 -27t156 40v-127q-79 -33 -187 -33q-142 0 -223 75q-84 78 -84 200q0 130 85 204q76 66 195 66q127 0 195 -78q67 -77 67 -214v-33zM211 310h200q2 43 -26 80q-25 29 -72 29q-46 0 -73 -30q-29 -33 -29 -79zM117 623v84h375v-84
h-375z" />
    <glyph glyph-name="Edotaccent" unicode="&#x116;" horiz-adv-x="616" 
d="M65 0v700h492v-132h-306v-145h289v-132h-289v-159h317v-132h-503zM232 880h186v-140h-186v140z" />
    <glyph glyph-name="edotaccent" unicode="&#x117;" horiz-adv-x="611" 
d="M573 208h-360q6 -49 42 -73q38 -27 114 -27t156 40v-127q-79 -33 -187 -33q-142 0 -223 75q-84 78 -84 200q0 130 85 204q76 66 195 66q127 0 195 -78q67 -77 67 -214v-33zM211 310h200q2 43 -26 80q-25 29 -72 29q-46 0 -73 -30q-29 -33 -29 -79zM212 738h186v-132h-186
v132z" />
    <glyph glyph-name="Eogonek" unicode="&#x118;" horiz-adv-x="616" 
d="M65 0v700h492v-132h-306v-145h289v-132h-289v-159h317v-132h-56l-29 -24q-30 -25 -44 -49q-13 -17 -13 -42q0 -18 11 -29q12 -12 32 -12q19 0 35 9q16 8 24 16l6 6l34 -22q-29 -46 -73 -63q-31 -13 -74 -13q-50 0 -76 28q-21 23 -21 61q0 32 20 58q18 23 45 43
q17 12 42 26l12 7h-378z" />
    <glyph glyph-name="eogonek" unicode="&#x119;" horiz-adv-x="611" 
d="M573 208h-360q6 -49 42 -73q38 -27 114 -27t156 40v-127q-47 -19 -98 -26l-23 -19q-30 -25 -44 -49q-13 -17 -13 -42q0 -18 11 -29q12 -12 32 -12q19 0 35 9q16 8 24 16l6 6l34 -22q-29 -46 -73 -63q-31 -13 -74 -13q-50 0 -76 28q-21 23 -21 61q0 32 20 58q18 23 45 43
q13 9 33 21q-144 -2 -228 75q-84 78 -84 200q0 130 85 204q76 66 195 66q127 0 195 -78q67 -77 67 -214v-33zM211 310h200q2 43 -26 80q-25 29 -72 29q-46 0 -73 -30q-29 -33 -29 -79z" />
    <glyph glyph-name="Ecaron" unicode="&#x11a;" horiz-adv-x="616" 
d="M65 0v700h492v-132h-306v-145h289v-132h-289v-159h317v-132h-503zM514 880l-119 -140h-170l-115 140h132l68 -74l72 74h132z" />
    <glyph glyph-name="ecaron" unicode="&#x11b;" horiz-adv-x="611" 
d="M573 208h-360q6 -49 42 -73q38 -27 114 -27t156 40v-127q-79 -33 -187 -33q-142 0 -223 75q-84 78 -84 200q0 130 85 204q76 66 195 66q127 0 195 -78q67 -77 67 -214v-33zM211 310h200q2 43 -26 80q-25 29 -72 29q-46 0 -73 -30q-29 -33 -29 -79zM509 750l-113 -160
h-162l-109 160h120l70 -90l74 90h120z" />
    <glyph glyph-name="Gcircumflex" unicode="&#x11c;" horiz-adv-x="778" 
d="M710 409v-389q-130 -32 -255 -32q-181 0 -287 81q-129 99 -129 286q0 184 136 280q109 77 296 77q129 0 220 -31l-15 -152q-79 45 -184 45q-118 0 -188 -58q-73 -61 -73 -169q0 -95 56 -153q31 -32 79.5 -50t98.5 -18q36 0 65 12v139h-109v132h289zM260 740l119 140h170
l115 -140h-132l-68 74l-72 -74h-132z" />
    <glyph glyph-name="gcircumflex" unicode="&#x11d;" horiz-adv-x="668" 
d="M608 521v-460q0 -144 -68 -212q-72 -71 -231 -71q-117 0 -214 33l9 142q82 -43 176 -43q82 0 123 41q37 38 37 110v28h-2q-24 -38 -67 -62q-50 -27 -109 -27q-106 0 -170 75q-61 71 -61 194q0 127 69 200q62 64 159 64q65 0 112 -30q44 -27 72 -76h2v94h163zM217 265
q0 -56 28 -91q29 -36 74 -36q47 0 80 36q35 37 35 97q0 52 -28 85q-32 39 -84 39q-44 0 -72 -30q-33 -36 -33 -100zM85 590l113 160h162l109 -160h-120l-70 90l-74 -90h-120z" />
    <glyph glyph-name="Gbreve" unicode="&#x11e;" horiz-adv-x="778" 
d="M710 409v-389q-130 -32 -255 -32q-181 0 -287 81q-129 99 -129 286q0 184 136 280q109 77 296 77q129 0 220 -31l-15 -152q-79 45 -184 45q-118 0 -188 -58q-73 -61 -73 -169q0 -95 56 -153q31 -32 79.5 -50t98.5 -18q36 0 65 12v139h-109v132h289zM462 830q56 0 81 11
q25 13 31 39h90q-6 -63 -59 -103q-31 -23 -63.5 -30t-79.5 -7t-79.5 7t-63.5 30q-53 40 -59 103h90q6 -26 31 -39q25 -11 81 -11z" />
    <glyph glyph-name="gbreve" unicode="&#x11f;" horiz-adv-x="668" 
d="M608 521v-460q0 -144 -68 -212q-72 -71 -231 -71q-117 0 -214 33l9 142q82 -43 176 -43q82 0 123 41q37 38 37 110v28h-2q-24 -38 -67 -62q-50 -27 -109 -27q-106 0 -170 75q-61 71 -61 194q0 127 69 200q62 64 159 64q65 0 112 -30q44 -27 72 -76h2v94h163zM217 265
q0 -56 28 -91q29 -36 74 -36q47 0 80 36q35 37 35 97q0 52 -28 85q-32 39 -84 39q-44 0 -72 -30q-33 -36 -33 -100zM85 729h76q9 -37 39 -56q27 -17 74 -17q55 0 84 24q22 19 29 49h76q-5 -66 -48 -108q-50 -49 -141 -49q-85 0 -133 41q-51 43 -56 116z" />
    <glyph glyph-name="Gdotaccent" unicode="&#x120;" horiz-adv-x="778" 
d="M710 409v-389q-130 -32 -255 -32q-181 0 -287 81q-129 99 -129 286q0 184 136 280q109 77 296 77q129 0 220 -31l-15 -152q-79 45 -184 45q-118 0 -188 -58q-73 -61 -73 -169q0 -95 56 -153q31 -32 79.5 -50t98.5 -18q36 0 65 12v139h-109v132h289zM392 880h186v-140
h-186v140z" />
    <glyph glyph-name="gdotaccent" unicode="&#x121;" horiz-adv-x="668" 
d="M608 521v-460q0 -144 -68 -212q-72 -71 -231 -71q-117 0 -214 33l9 142q82 -43 176 -43q82 0 123 41q37 38 37 110v28h-2q-24 -38 -67 -62q-50 -27 -109 -27q-106 0 -170 75q-61 71 -61 194q0 127 69 200q62 64 159 64q65 0 112 -30q44 -27 72 -76h2v94h163zM217 265
q0 -56 28 -91q29 -36 74 -36q47 0 80 36q35 37 35 97q0 52 -28 85q-32 39 -84 39q-44 0 -72 -30q-33 -36 -33 -100zM182 738h186v-132h-186v132z" />
    <glyph glyph-name="Gcommaaccent" unicode="&#x122;" horiz-adv-x="778" 
d="M710 409v-389q-130 -32 -255 -32q-181 0 -287 81q-129 99 -129 286q0 184 136 280q109 77 296 77q129 0 220 -31l-15 -152q-79 45 -184 45q-118 0 -188 -58q-73 -61 -73 -169q0 -95 56 -153q31 -32 79.5 -50t98.5 -18q36 0 65 12v139h-109v132h289zM310 -250l48 200h182
l-70 -200h-160z" />
    <glyph glyph-name="gcommaaccent" unicode="&#x123;" horiz-adv-x="673" 
d="M608 521v-460q0 -144 -68 -212q-72 -71 -231 -71q-117 0 -214 33l9 142q82 -43 176 -43q82 0 123 41q37 38 37 110v28h-2q-24 -38 -67 -62q-50 -27 -109 -27q-106 0 -170 75q-61 71 -61 194q0 127 69 200q62 64 159 64q65 0 112 -30q44 -27 72 -76h2v94h163zM217 265
q0 -56 28 -91q29 -36 74 -36q47 0 80 36q35 37 35 97q0 52 -28 85q-32 39 -84 39q-44 0 -72 -30q-33 -36 -33 -100zM411 780l-46 -190h-170l76 190h140z" />
    <glyph glyph-name="Hcircumflex" unicode="&#x124;" horiz-adv-x="722" 
d="M65 0v700h186v-268h220v268h186v-700h-186v300h-220v-300h-186zM160 740l119 140h170l115 -140h-132l-68 74l-72 -74h-132z" />
    <glyph glyph-name="hcircumflex" unicode="&#x125;" horiz-adv-x="667" 
d="M56 0v750h180v-306h2q30 42 73 65q45 24 101 24q92 0 144 -54q55 -55 55 -154v-325h-180v252q0 83 -33 113q-19 18 -50 18q-58 0 -87 -45q-25 -40 -25 -118v-220h-180zM-45 790l113 160h162l109 -160h-120l-70 90l-74 -90h-120z" />
    <glyph glyph-name="Hbar" unicode="&#x126;" horiz-adv-x="734" 
d="M720 512h-57v-512h-186v300h-220v-300h-186v512h-57v102h57v86h186v-86h220v86h186v-86h57v-102zM257 432h220v80h-220v-80z" />
    <glyph glyph-name="hbar" unicode="&#x127;" horiz-adv-x="673" 
d="M62 0v594h-72v70h72v86h180v-86h212v-70h-212v-150h2q30 42 73 65q45 24 101 24q92 0 144 -54q55 -55 55 -154v-325h-180v252q0 83 -33 113q-19 18 -50 18q-58 0 -87 -45q-25 -40 -25 -118v-220h-180z" />
    <glyph glyph-name="Imacron" unicode="&#x12a;" horiz-adv-x="316" 
d="M65 0v700h186v-700h-186zM-29 773v84h375v-84h-375z" />
    <glyph glyph-name="imacron" unicode="&#x12b;" horiz-adv-x="334" 
d="M77 0v521h180v-521h-180zM-20 623v84h375v-84h-375z" />
    <glyph glyph-name="Iogonek" unicode="&#x12e;" horiz-adv-x="334" 
d="M74 0v700h186v-700l-29 -24q-30 -25 -44 -49q-13 -17 -13 -42q0 -18 11 -29q12 -12 32 -12q19 0 35 9q16 8 24 16l6 6l34 -22q-29 -46 -73 -63q-31 -13 -74 -13q-50 0 -76 28q-21 23 -21 61q0 32 20 58q18 23 45 43q17 12 42 26l12 7h-117z" />
    <glyph glyph-name="iogonek" unicode="&#x12f;" horiz-adv-x="334" 
d="M77 521h180v-521l-29 -24q-30 -25 -44 -49q-13 -17 -13 -42q0 -18 11 -29q12 -12 32 -12q19 0 35 9q16 8 24 16l6 6l34 -22q-29 -46 -73 -63q-31 -13 -74 -13q-50 0 -76 28q-21 23 -21 61q0 32 20 58q18 23 45 43q17 12 42 26l12 7h-111v521zM257 738v-132h-180v132h180z
" />
    <glyph glyph-name="Idotaccent" unicode="&#x130;" horiz-adv-x="316" 
d="M65 0v700h186v-700h-186zM65 880h186v-140h-186v140z" />
    <glyph glyph-name="dotlessi" unicode="&#x131;" horiz-adv-x="334" 
d="M77 0v521h180v-521h-180z" />
    <glyph glyph-name="Jcircumflex" unicode="&#x134;" horiz-adv-x="444" 
d="M14 7v154q36 -17 84 -17q35 0 57 21q38 35 38 133v402h186v-458q0 -129 -61 -191q-61 -63 -172 -63q-48 0 -115 15zM78 740l119 140h170l115 -140h-132l-68 74l-72 -74h-132z" />
    <glyph glyph-name="jcircumflex" unicode="&#x135;" horiz-adv-x="313" 
d="M-25 -213l4 116q15 -5 38 -5q37 0 50 30q10 22 10 72v521h180v-526q0 -92 -29 -143q-42 -74 -161 -74q-43 0 -92 9zM-36 590l114 160h162l109 -160h-120l-70 90l-74 -90h-121z" />
    <glyph glyph-name="Kcommaaccent" unicode="&#x136;" horiz-adv-x="722" 
d="M65 0v700h186v-286h2l210 286h224l-258 -326l278 -374h-237l-217 318h-2v-318h-186zM227 -250l48 200h182l-70 -200h-160z" />
    <glyph glyph-name="kcommaaccent" unicode="&#x137;" horiz-adv-x="611" 
d="M56 0v750h180v-448h2l150 219h197l-181 -239l196 -282h-218l-144 258h-2v-258h-180zM190 -250l46 200h170l-76 -200h-140z" />
    <glyph glyph-name="Lacute" unicode="&#x139;" horiz-adv-x="556" 
d="M65 0v700h186v-562h288v-138h-474zM75 740l72 140h196l-134 -140h-134z" />
    <glyph glyph-name="lacute" unicode="&#x13a;" horiz-adv-x="292" 
d="M56 0v750h180v-750h-180zM46 790l70 160h186l-130 -160h-126z" />
    <glyph glyph-name="Lcommaaccent" unicode="&#x13b;" horiz-adv-x="556" 
d="M65 0v700h186v-562h288v-138h-474zM158 -250l48 200h182l-70 -200h-160z" />
    <glyph glyph-name="lcommaaccent" unicode="&#x13c;" horiz-adv-x="292" 
d="M56 0v750h180v-750h-180zM30 -250l46 200h170l-76 -200h-140z" />
    <glyph glyph-name="Lcaron" unicode="&#x13d;" horiz-adv-x="556" 
d="M65 0v700h186v-562h288v-138h-474zM351 450l60 250h170l-90 -250h-140z" />
    <glyph glyph-name="lcaron" unicode="&#x13e;" horiz-adv-x="485" 
d="M76 0v750h180v-750h-180zM289 560l46 190h170l-76 -190h-140z" />
    <glyph glyph-name="Ldot" unicode="&#x13f;" horiz-adv-x="556" 
d="M65 0v700h186v-562h288v-138h-474zM352 293v162h168v-162h-168z" />
    <glyph glyph-name="ldot" unicode="&#x140;" horiz-adv-x="460" 
d="M56 0v750h180v-750h-180zM292 294v162h168v-162h-168z" />
    <glyph glyph-name="Lslash" unicode="&#x141;" horiz-adv-x="556" 
d="M65 209l-65 -38v109l65 38v382h186v-272l183 109v-110l-183 -108v-181h288v-138h-474v209z" />
    <glyph glyph-name="lslash" unicode="&#x142;" horiz-adv-x="334" 
d="M77 276l-77 -46v100l77 46v374h180v-268l77 45v-100l-77 -45v-382h-180v276z" />
    <glyph glyph-name="Nacute" unicode="&#x143;" horiz-adv-x="772" 
d="M65 0v700h237l236 -475h2l-3 475h170v-700h-231l-244 478h-2l6 -478h-171zM312 740l72 140h196l-134 -140h-134z" />
    <glyph glyph-name="nacute" unicode="&#x144;" horiz-adv-x="667" 
d="M56 0v521h164v-96h2q27 56 82 84q47 24 108 24q93 0 143 -53q56 -56 56 -155v-325h-180v252q0 82 -33 113q-19 18 -51 18q-48 0 -77 -32q-34 -38 -34 -131v-220h-180zM233 590l70 160h186l-130 -160h-126z" />
    <glyph glyph-name="Ncommaaccent" unicode="&#x145;" horiz-adv-x="772" 
d="M65 0v700h237l236 -475h2l-3 475h170v-700h-231l-244 478h-2l6 -478h-171zM230 -250l48 200h182l-70 -200h-160z" />
    <glyph glyph-name="ncommaaccent" unicode="&#x146;" horiz-adv-x="667" 
d="M56 0v521h164v-96h2q27 56 82 84q47 24 108 24q93 0 143 -53q56 -56 56 -155v-325h-180v252q0 82 -33 113q-19 18 -51 18q-48 0 -77 -32q-34 -38 -34 -131v-220h-180zM218 -250l46 200h170l-76 -200h-140z" />
    <glyph glyph-name="Ncaron" unicode="&#x147;" horiz-adv-x="772" 
d="M65 0v700h237l236 -475h2l-3 475h170v-700h-231l-244 478h-2l6 -478h-171zM604 880l-119 -140h-170l-115 140h132l68 -74l72 74h132z" />
    <glyph glyph-name="ncaron" unicode="&#x148;" horiz-adv-x="667" 
d="M56 0v521h164v-96h2q27 56 82 84q47 24 108 24q93 0 143 -53q56 -56 56 -155v-325h-180v252q0 82 -33 113q-19 18 -51 18q-48 0 -77 -32q-34 -38 -34 -131v-220h-180zM525 750l-113 -160h-162l-109 160h120l70 -90l74 90h120z" />
    <glyph glyph-name="Omacron" unicode="&#x14c;" horiz-adv-x="778" 
d="M389 712q166 0 258 -93t92 -269t-92 -269t-258 -93t-258 93t-92 269t92 269t258 93zM389 574q-75 0 -115 -57q-43 -58 -43 -167t43 -167q40 -57 115 -57t115 57q43 58 43 167t-43 167q-40 57 -115 57zM201 773v84h375v-84h-375z" />
    <glyph glyph-name="omacron" unicode="&#x14d;" horiz-adv-x="668" 
d="M334 533q125 0 207 -64q96 -75 96 -209t-96 -209q-79 -63 -207 -63t-207 63q-96 75 -96 209t96 209q82 64 207 64zM334 407q-50 0 -81 -34q-36 -39 -36 -113t36 -113q31 -34 81 -34t81 34q36 39 36 113t-36 113q-31 34 -81 34zM144 623v84h375v-84h-375z" />
    <glyph glyph-name="Obreve" unicode="&#x14e;" horiz-adv-x="778" 
d="M389 712q166 0 258 -93t92 -269t-92 -269t-258 -93t-258 93t-92 269t92 269t258 93zM389 574q-75 0 -115 -57q-43 -58 -43 -167t43 -167q40 -57 115 -57t115 57q43 58 43 167t-43 167q-40 57 -115 57zM393 830q56 0 81 11q25 13 31 39h90q-6 -63 -59 -103
q-31 -23 -63.5 -30t-79.5 -7t-79.5 7t-63.5 30q-53 40 -59 103h90q6 -26 31 -39q25 -11 81 -11z" />
    <glyph glyph-name="obreve" unicode="&#x14f;" horiz-adv-x="668" 
d="M334 533q125 0 207 -64q96 -75 96 -209t-96 -209q-79 -63 -207 -63t-207 63q-96 75 -96 209t96 209q82 64 207 64zM334 407q-50 0 -81 -34q-36 -39 -36 -113t36 -113q31 -34 81 -34t81 34q36 39 36 113t-36 113q-31 34 -81 34zM145 729h76q9 -37 39 -56q27 -17 74 -17
q55 0 84 24q22 19 29 49h76q-5 -66 -48 -108q-50 -49 -141 -49q-85 0 -133 41q-51 43 -56 116z" />
    <glyph glyph-name="Ohungarumlaut" unicode="&#x150;" horiz-adv-x="778" 
d="M389 712q166 0 258 -93t92 -269t-92 -269t-258 -93t-258 93t-92 269t92 269t258 93zM389 574q-75 0 -115 -57q-43 -58 -43 -167t43 -167q40 -57 115 -57t115 57q43 58 43 167t-43 167q-40 57 -115 57zM276 880h180l-138 -140h-114zM520 880h180l-139 -140h-114z" />
    <glyph glyph-name="ohungarumlaut" unicode="&#x151;" horiz-adv-x="668" 
d="M334 533q125 0 207 -64q96 -75 96 -209t-96 -209q-79 -63 -207 -63t-207 63q-96 75 -96 209t96 209q82 64 207 64zM334 407q-50 0 -81 -34q-36 -39 -36 -113t36 -113q31 -34 81 -34t81 34q36 39 36 113t-36 113q-31 34 -81 34zM225 750h176l-136 -160h-110zM463 750h176
l-136 -160h-110z" />
    <glyph glyph-name="OE" unicode="&#x152;" horiz-adv-x="1000" 
d="M971 700v-132h-290v-145h271v-132h-268v-159h298v-132h-416q-98 -2 -198 -6q-348 8 -350 356q2 349 350 356q186 -4 277 -6h326zM492 136v428q-85 2 -124 4q-46 0 -77 -17q-31 -16 -49 -48q-33 -64 -32 -153q0 -85 43 -149q41 -67 133 -69q74 2 106 4z" />
    <glyph glyph-name="oe" unicode="&#x153;" horiz-adv-x="1000" 
d="M925 148v-127q-89 -33 -191 -33q-66 0 -121 18q-56 17 -95 66q-41 -53 -97 -69q-59 -15 -117 -15q-120 2 -196 70q-79 67 -81 202q1 138 85 206q80 67 198 67q67 0 118 -16q50 -16 88 -63q44 47 95 63t99 16q143 -1 205 -87q59 -85 58 -205v-33h-360q18 -102 153 -100
q75 -1 159 40zM213 260q0 -58 27 -103q14 -21 35 -35q20 -14 47 -14q28 0 50 14q19 13 33 35q26 46 26 103q0 59 -26 106q-25 45 -83 47q-56 -2 -82 -47q-27 -46 -27 -106zM611 310h200q0 46 -23 78q-13 16 -30 23q-21 8 -47 8q-48 -2 -72 -31q-25 -31 -28 -78z" />
    <glyph glyph-name="Racute" unicode="&#x154;" horiz-adv-x="672" 
d="M65 0v700h332q106 0 166 -48q59 -47 59 -133q0 -69 -35 -113q-35 -46 -99 -59v-2q25 -5 44 -28q16 -19 36 -75l87 -242h-194l-40 126q-32 101 -60 127q-26 24 -71 24h-39v-277h-186zM251 568v-159h49q80 0 108 20q28 21 28 60q0 48 -44 66q-33 13 -92 13h-49zM199 740
l72 140h196l-134 -140h-134z" />
    <glyph glyph-name="racute" unicode="&#x155;" horiz-adv-x="444" 
d="M437 527l-9 -150q-24 6 -51 6q-60 0 -94 -30q-47 -42 -47 -133v-220h-180v521h164v-96h2q24 57 68 85q37 23 86 23q33 0 61 -6zM121 590l70 160h186l-130 -160h-126z" />
    <glyph glyph-name="Rcommaaccent" unicode="&#x156;" horiz-adv-x="672" 
d="M65 0v700h332q106 0 166 -48q59 -47 59 -133q0 -69 -35 -113q-35 -46 -99 -59v-2q25 -5 44 -28q16 -19 36 -75l87 -242h-194l-40 126q-32 101 -60 127q-26 24 -71 24h-39v-277h-186zM251 568v-159h49q80 0 108 20q28 21 28 60q0 48 -44 66q-33 13 -92 13h-49zM214 -250
l48 200h182l-70 -200h-160z" />
    <glyph glyph-name="rcommaaccent" unicode="&#x157;" horiz-adv-x="444" 
d="M437 527l-9 -150q-24 6 -51 6q-60 0 -94 -30q-47 -42 -47 -133v-220h-180v521h164v-96h2q24 57 68 85q37 23 86 23q33 0 61 -6zM31 -253l46 200h170l-76 -200h-140z" />
    <glyph glyph-name="Rcaron" unicode="&#x158;" horiz-adv-x="672" 
d="M65 0v700h332q106 0 166 -48q59 -47 59 -133q0 -69 -35 -113q-35 -46 -99 -59v-2q25 -5 44 -28q16 -19 36 -75l87 -242h-194l-40 126q-32 101 -60 127q-26 24 -71 24h-39v-277h-186zM251 568v-159h49q80 0 108 20q28 21 28 60q0 48 -44 66q-33 13 -92 13h-49zM535 880
l-119 -140h-170l-115 140h132l68 -74l72 74h132z" />
    <glyph glyph-name="rcaron" unicode="&#x159;" horiz-adv-x="444" 
d="M437 527l-9 -150q-24 6 -51 6q-60 0 -94 -30q-47 -42 -47 -133v-220h-180v521h164v-96h2q24 57 68 85q37 23 86 23q33 0 61 -6zM414 750l-113 -160h-162l-109 160h120l70 -90l74 90h120z" />
    <glyph glyph-name="Sacute" unicode="&#x15a;" horiz-adv-x="611" 
d="M51 18l16 154q90 -46 192 -46q66 0 92 20q23 19 23 49q0 31 -27 52q-8 6 -17 11t-22 10t-21.5 7.5t-28 8.5t-28.5 9l-29 9q-105 32 -140 108q-17 39 -17 85q0 123 112 180q74 37 189 37q98 0 183 -26l-12 -144q-70 32 -155 32q-61 0 -89 -13q-36 -15 -36 -53
q0 -18 10 -30q19 -24 107 -48l11 -3q93 -24 139 -61q63 -51 63 -147q0 -114 -80 -174q-77 -57 -227 -57q-106 0 -208 30zM232 740l72 140h196l-134 -140h-134z" />
    <glyph glyph-name="sacute" unicode="&#x15b;" horiz-adv-x="500" 
d="M36 13l10 131q35 -14 68 -22q56 -14 107 -14q37 0 53 12q15 11 15 29q0 20 -20 35q-16 11 -73 26l-26 7q-78 22 -109 59q-29 35 -29 85q0 94 80 138q61 34 146 34q104 0 179 -30l-14 -125q-29 16 -56 23q-42 12 -84 12q-44 0 -62 -9q-21 -9 -21 -29q0 -9 6 -17
q12 -16 90 -35l16 -4q58 -14 90 -33q66 -40 66 -124q0 -83 -58 -127q-61 -47 -199 -47q-94 0 -175 25zM149 590l70 160h186l-130 -160h-126z" />
    <glyph glyph-name="Scircumflex" unicode="&#x15c;" horiz-adv-x="611" 
d="M51 18l16 154q90 -46 192 -46q66 0 92 20q23 19 23 49q0 31 -27 52q-8 6 -17 11t-22 10t-21.5 7.5t-28 8.5t-28.5 9l-29 9q-105 32 -140 108q-17 39 -17 85q0 123 112 180q74 37 189 37q98 0 183 -26l-12 -144q-70 32 -155 32q-61 0 -89 -13q-36 -15 -36 -53
q0 -18 10 -30q19 -24 107 -48l11 -3q93 -24 139 -61q63 -51 63 -147q0 -114 -80 -174q-77 -57 -227 -57q-106 0 -208 30zM140 740l119 140h170l115 -140h-132l-68 74l-72 -74h-132z" />
    <glyph glyph-name="scircumflex" unicode="&#x15d;" horiz-adv-x="500" 
d="M36 13l10 131q35 -14 68 -22q56 -14 107 -14q37 0 53 12q15 11 15 29q0 20 -20 35q-16 11 -73 26l-26 7q-78 22 -109 59q-29 35 -29 85q0 94 80 138q61 34 146 34q104 0 179 -30l-14 -125q-29 16 -56 23q-42 12 -84 12q-44 0 -62 -9q-21 -9 -21 -29q0 -9 6 -17
q12 -16 90 -35l16 -4q58 -14 90 -33q66 -40 66 -124q0 -83 -58 -127q-61 -47 -199 -47q-94 0 -175 25zM58 590l113 160h162l109 -160h-120l-70 90l-74 -90h-120z" />
    <glyph glyph-name="Scedilla" unicode="&#x15e;" horiz-adv-x="611" 
d="M51 18l16 154q90 -46 192 -46q66 0 92 20q23 19 23 49q0 31 -27 52q-8 6 -17 11t-22 10t-21.5 7.5t-28 8.5t-28.5 9l-29 9q-105 32 -140 108q-17 39 -17 85q0 123 112 180q74 37 189 37q98 0 183 -26l-12 -144q-70 32 -155 32q-61 0 -89 -13q-36 -15 -36 -53
q0 -18 10 -30q19 -24 107 -48l11 -3q93 -24 139 -61q63 -51 63 -147q0 -114 -80 -174q-34 -25 -86 -40t-100 -16l-22 -54q20 5 40 5q48 0 69 -24q17 -19 17 -52q0 -49 -39 -69q-33 -17 -90 -17q-46 0 -83 9q-24 6 -45 14l17 49q52 -24 87 -24q25 0 37 7q15 9 15 28
q0 14 -11 23q-11 8 -25 8q-18 0 -33 -6l-37 24l37 79q-97 2 -183 29z" />
    <glyph glyph-name="scedilla" unicode="&#x15f;" horiz-adv-x="500" 
d="M36 13l10 131q35 -14 68 -22q56 -14 107 -14q37 0 53 12q15 11 15 29q0 20 -20 35q-16 11 -73 26l-26 7q-78 22 -109 59q-29 35 -29 85q0 94 80 138q61 34 146 34q104 0 179 -30l-14 -125q-29 16 -56 23q-42 12 -84 12q-44 0 -62 -9q-21 -9 -21 -29q0 -9 6 -17
q12 -16 90 -35l16 -4q58 -14 90 -33q66 -40 66 -124q0 -83 -58 -127q-27 -21 -72.5 -34t-87.5 -13l-22 -53q20 5 40 5q48 0 69 -24q17 -19 17 -52q0 -49 -39 -69q-33 -17 -90 -17q-46 0 -83 9q-24 6 -45 14l17 49q52 -24 87 -24q25 0 37 7q15 9 15 28q0 14 -11 23
q-11 8 -25 8q-18 0 -33 -6l-37 24l37 78q-84 5 -148 25z" />
    <glyph glyph-name="Scaron" unicode="&#x160;" horiz-adv-x="611" 
d="M51 18l16 154q90 -46 192 -46q66 0 92 20q23 19 23 49q0 31 -27 52q-8 6 -17 11t-22 10t-21.5 7.5t-28 8.5t-28.5 9l-29 9q-105 32 -140 108q-17 39 -17 85q0 123 112 180q74 37 189 37q98 0 183 -26l-12 -144q-70 32 -155 32q-61 0 -89 -13q-36 -15 -36 -53
q0 -18 10 -30q19 -24 107 -48l11 -3q93 -24 139 -61q63 -51 63 -147q0 -114 -80 -174q-77 -57 -227 -57q-106 0 -208 30zM544 880l-119 -140h-170l-115 140h132l68 -74l72 74h132z" />
    <glyph glyph-name="scaron" unicode="&#x161;" horiz-adv-x="500" 
d="M36 13l10 131q35 -14 68 -22q56 -14 107 -14q37 0 53 12q15 11 15 29q0 20 -20 35q-16 11 -73 26l-26 7q-78 22 -109 59q-29 35 -29 85q0 94 80 138q61 34 146 34q104 0 179 -30l-14 -125q-29 16 -56 23q-42 12 -84 12q-44 0 -62 -9q-21 -9 -21 -29q0 -9 6 -17
q12 -16 90 -35l16 -4q58 -14 90 -33q66 -40 66 -124q0 -83 -58 -127q-61 -47 -199 -47q-94 0 -175 25zM442 750l-113 -160h-162l-109 160h120l70 -90l74 90h120z" />
    <glyph glyph-name="Tcommaaccent" unicode="&#x162;" horiz-adv-x="556" 
d="M185 0v562h-172v138h530v-138h-172v-562h-186zM156 -250l48 200h182l-70 -200h-160z" />
    <glyph glyph-name="tcommaaccent" unicode="&#x163;" horiz-adv-x="444" 
d="M10 395v126h106v117l177 55v-172h126v-126h-126v-192q0 -54 17 -74q18 -21 55 -21q7 0 42 5l13 2l6 -117l-22 -3q-52 -7 -88 -7q-106 0 -155 45q-22 20 -33 48.5t-13 48.5t-2 53v212h-103zM169 -250l46 200h170l-76 -200h-140z" />
    <glyph glyph-name="Tcaron" unicode="&#x164;" horiz-adv-x="556" 
d="M185 0v562h-172v138h530v-138h-172v-562h-186zM480 880l-119 -140h-170l-115 140h132l68 -74l72 74h132z" />
    <glyph glyph-name="tcaron" unicode="&#x165;" horiz-adv-x="523" 
d="M10 395v126h106v117l177 55v-172h126v-126h-126v-192q0 -54 17 -74q18 -21 55 -21q7 0 42 5l13 2l6 -117l-22 -3q-52 -7 -88 -7q-106 0 -155 45q-22 20 -33 48.5t-13 48.5t-2 53v212h-103zM329 560l46 190h170l-76 -190h-140z" />
    <glyph glyph-name="Umacron" unicode="&#x16a;" horiz-adv-x="738" 
d="M675 700v-434q0 -120 -63 -190q-79 -88 -243 -88t-243 88q-63 70 -63 190v434h186v-403q0 -73 20 -113q29 -58 100 -58t100 58q20 40 20 113v403h186zM180 773v84h375v-84h-375z" />
    <glyph glyph-name="umacron" unicode="&#x16b;" horiz-adv-x="667" 
d="M611 521v-521h-164v96h-2q-27 -56 -82 -84q-47 -24 -108 -24q-93 0 -143 53q-56 56 -56 155v325h180v-252q0 -82 33 -113q19 -18 51 -18q48 0 77 32q34 38 34 131v220h180zM146 623v84h375v-84h-375z" />
    <glyph glyph-name="Ubreve" unicode="&#x16c;" horiz-adv-x="738" 
d="M675 700v-434q0 -120 -63 -190q-79 -88 -243 -88t-243 88q-63 70 -63 190v434h186v-403q0 -73 20 -113q29 -58 100 -58t100 58q20 40 20 113v403h186zM372 830q56 0 81 11q25 13 31 39h90q-6 -63 -59 -103q-31 -23 -63.5 -30t-79.5 -7t-79.5 7t-63.5 30q-53 40 -59 103
h90q6 -26 31 -39q25 -11 81 -11z" />
    <glyph glyph-name="ubreve" unicode="&#x16d;" horiz-adv-x="667" 
d="M611 521v-521h-164v96h-2q-27 -56 -82 -84q-47 -24 -108 -24q-93 0 -143 53q-56 56 -56 155v325h180v-252q0 -82 33 -113q19 -18 51 -18q48 0 77 32q34 38 34 131v220h180zM144 729h76q9 -37 39 -56q27 -17 74 -17q55 0 84 24q22 19 29 49h76q-5 -66 -48 -108
q-50 -49 -141 -49q-85 0 -133 41q-51 43 -56 116z" />
    <glyph glyph-name="Uring" unicode="&#x16e;" horiz-adv-x="738" 
d="M675 700v-434q0 -120 -63 -190q-79 -88 -243 -88t-243 88q-63 70 -63 190v434h186v-403q0 -73 20 -113q29 -58 100 -58t100 58q20 40 20 113v403h186zM243 828q0 46 35.5 79t82.5 33q49 0 83.5 -33.5t34.5 -78.5t-34.5 -78.5t-83.5 -33.5q-47 0 -82.5 33t-35.5 79z
M311 828q0 -20 14 -34t36 -14t36 14t14 34t-14 34t-36 14t-36 -14t-14 -34z" />
    <glyph glyph-name="uring" unicode="&#x16f;" horiz-adv-x="667" 
d="M611 521v-521h-164v96h-2q-27 -56 -82 -84q-47 -24 -108 -24q-93 0 -143 53q-56 56 -56 155v325h180v-252q0 -82 33 -113q19 -18 51 -18q48 0 77 32q34 38 34 131v220h180zM221 678q0 45 33.5 78.5t78.5 33.5q47 0 79.5 -33t32.5 -79t-32.5 -79t-79.5 -33
q-45 0 -78.5 33.5t-33.5 78.5zM285 678q0 -20 14 -34t34 -14t34 14t14 34t-14 34t-34 14t-34 -14t-14 -34z" />
    <glyph glyph-name="Uhungarumlaut" unicode="&#x170;" horiz-adv-x="738" 
d="M675 700v-434q0 -120 -63 -190q-79 -88 -243 -88t-243 88q-63 70 -63 190v434h186v-403q0 -73 20 -113q29 -58 100 -58t100 58q20 40 20 113v403h186zM256 880h180l-138 -140h-114zM500 880h180l-139 -140h-114z" />
    <glyph glyph-name="uhungarumlaut" unicode="&#x171;" horiz-adv-x="667" 
d="M611 521v-521h-164v96h-2q-27 -56 -82 -84q-47 -24 -108 -24q-93 0 -143 53q-56 56 -56 155v325h180v-252q0 -82 33 -113q19 -18 51 -18q48 0 77 32q34 38 34 131v220h180zM225 750h176l-136 -160h-110zM463 750h176l-136 -160h-110z" />
    <glyph glyph-name="Uogonek" unicode="&#x172;" horiz-adv-x="738" 
d="M675 700v-434q0 -122 -63 -190q-38 -41 -100 -66l-31 -23q-38 -27 -58 -60q-13 -17 -13 -42q0 -18 11 -29q12 -12 32 -12q19 0 35 9q16 8 24 16l6 6l34 -22q-29 -46 -73 -63q-31 -13 -74 -13q-50 0 -76 28q-21 23 -21 61q0 31 20 58q12 18 45 43q17 13 36 22
q-195 -12 -283 87q-63 70 -63 190v434h186v-403q0 -73 20 -113q29 -58 100 -58t100 58q20 40 20 113v403h186z" />
    <glyph glyph-name="uogonek" unicode="&#x173;" horiz-adv-x="667" 
d="M611 521v-521l-29 -24q-30 -25 -44 -49q-13 -17 -13 -42q0 -18 11 -29q12 -12 32 -12q19 0 35 9q16 8 24 16l6 6l34 -22q-29 -46 -73 -63q-31 -13 -74 -13q-50 0 -76 28q-21 23 -21 61q0 32 20 58q18 23 45 43q17 12 42 26l12 7h-95v96h-2q-27 -56 -82 -84
q-47 -24 -108 -24q-93 0 -143 53q-56 56 -56 155v325h180v-252q0 -82 33 -113q19 -18 51 -18q48 0 77 32q34 38 34 131v220h180z" />
    <glyph glyph-name="Ydieresis" unicode="&#x178;" horiz-adv-x="678" 
d="M247 0v264l-258 436h214l137 -281l135 281h214l-256 -436v-264h-186zM380 740v140h150v-140h-150zM140 740v140h150v-140h-150z" />
    <glyph glyph-name="Zacute" unicode="&#x179;" horiz-adv-x="620" 
d="M579 700v-148l-342 -414h344v-138h-546v148l332 414h-323v138h535zM212 740l72 140h196l-134 -140h-134z" />
    <glyph glyph-name="zacute" unicode="&#x17a;" horiz-adv-x="513" 
d="M30 0v144l238 245h-233v132h439v-144l-238 -245h242v-132h-448zM180 590l70 160h186l-130 -160h-126z" />
    <glyph glyph-name="Zdotaccent" unicode="&#x17b;" horiz-adv-x="620" 
d="M579 700v-148l-342 -414h344v-138h-546v148l332 414h-323v138h535zM212 880h186v-140h-186v140z" />
    <glyph glyph-name="zdotaccent" unicode="&#x17c;" horiz-adv-x="513" 
d="M30 0v144l238 245h-233v132h439v-144l-238 -245h242v-132h-448zM172 738h186v-132h-186v132z" />
    <glyph glyph-name="Zcaron" unicode="&#x17d;" horiz-adv-x="620" 
d="M579 700v-148l-342 -414h344v-138h-546v148l332 414h-323v138h535zM524 880l-119 -140h-170l-115 140h132l68 -74l72 74h132z" />
    <glyph glyph-name="zcaron" unicode="&#x17e;" horiz-adv-x="513" 
d="M30 0v144l238 245h-233v132h439v-144l-238 -245h242v-132h-448zM442 750l-113 -160h-162l-109 160h120l70 -90l74 90h120z" />
    <glyph glyph-name="uni018F" unicode="&#x18f;" horiz-adv-x="760" 
d="M42 399h483q-4 77 -56 127q-29 29 -73 42q-34 11 -86 11q-92 0 -172 -49l-19 143q98 39 207 39q95 0 167 -24q63 -21 110 -60q118 -99 118 -278q0 -174 -93 -269q-90 -93 -258 -93q-76 0 -125 16q-75 25 -122 77q-40 45 -62 114.5t-22 146.5q0 28 3 57zM527 287h-294
q-2 -69 30 -115q21 -30 51 -43q29 -13 65 -13q73 0 114 59q32 47 34 112z" />
    <glyph glyph-name="florin" unicode="&#x192;" 
d="M103 315v108h128l23 109q15 81 59 131q43 47 132 49q61 1 127 -26l-21 -126q-20 25 -58 26q-30 -1 -43 -25q-14 -24 -18 -54l-18 -84h99v-108h-124l-72 -337q-13 -63 -33 -104q-21 -41 -47 -62q-25 -20 -57 -27q-34 -8 -66 -8q-51 0 -114 26l21 121q20 -19 51 -20
q28 2 42 15q12 12 17 33l77 363h-105z" />
    <glyph glyph-name="uni01CF" unicode="&#x1cf;" horiz-adv-x="316" 
d="M65 0v700h186v-700h-186zM360 880l-119 -140h-170l-115 140h132l68 -74l72 74h132z" />
    <glyph glyph-name="uni01D0" unicode="&#x1d0;" horiz-adv-x="334" 
d="M77 0v521h180v-521h-180zM359 750l-113 -160h-162l-109 160h120l70 -90l74 90h120z" />
    <glyph glyph-name="uni01DD" unicode="&#x1dd;" horiz-adv-x="611" 
d="M38 313h360q-6 49 -42 73q-38 27 -114 27t-156 -40v127q79 33 187 33q142 0 223 -75q84 -78 84 -200q0 -130 -85 -204q-76 -66 -195 -66q-127 0 -195 78q-67 77 -67 214v33zM400 211h-200q-2 -43 26 -80q25 -29 72 -29q46 0 73 30q29 33 29 79z" />
    <glyph glyph-name="Gcaron" unicode="&#x1e6;" horiz-adv-x="778" 
d="M710 409v-389q-130 -32 -255 -32q-181 0 -287 81q-129 99 -129 286q0 184 136 280q109 77 296 77q129 0 220 -31l-15 -152q-79 45 -184 45q-118 0 -188 -58q-73 -61 -73 -169q0 -95 56 -153q31 -32 79.5 -50t98.5 -18q36 0 65 12v139h-109v132h289zM664 870l-119 -140
h-170l-115 140h132l68 -74l72 74h132z" />
    <glyph glyph-name="gcaron" unicode="&#x1e7;" horiz-adv-x="668" 
d="M608 521v-460q0 -144 -68 -212q-72 -71 -231 -71q-117 0 -214 33l9 142q82 -43 176 -43q82 0 123 41q37 38 37 110v28h-2q-24 -38 -67 -62q-50 -27 -109 -27q-106 0 -170 75q-61 71 -61 194q0 127 69 200q62 64 159 64q65 0 112 -30q44 -27 72 -76h2v94h163zM217 265
q0 -56 28 -91q29 -36 74 -36q47 0 80 36q35 37 35 97q0 52 -28 85q-32 39 -84 39q-44 0 -72 -30q-33 -36 -33 -100zM469 750l-113 -160h-162l-109 160h120l70 -90l74 90h120z" />
    <glyph glyph-name="Scommaaccent" unicode="&#x218;" horiz-adv-x="611" 
d="M51 18l16 154q90 -46 192 -46q66 0 92 20q23 19 23 49q0 31 -27 52q-8 6 -17 11t-22 10t-21.5 7.5t-28 8.5t-28.5 9l-29 9q-105 32 -140 108q-17 39 -17 85q0 123 112 180q74 37 189 37q98 0 183 -26l-12 -144q-70 32 -155 32q-61 0 -89 -13q-36 -15 -36 -53
q0 -18 10 -30q19 -24 107 -48l11 -3q93 -24 139 -61q63 -51 63 -147q0 -114 -80 -174q-77 -57 -227 -57q-106 0 -208 30zM150 -250l48 200h182l-70 -200h-160z" />
    <glyph glyph-name="scommaaccent" unicode="&#x219;" horiz-adv-x="500" 
d="M36 13l10 131q35 -14 68 -22q56 -14 107 -14q37 0 53 12q15 11 15 29q0 20 -20 35q-16 11 -73 26l-26 7q-78 22 -109 59q-29 35 -29 85q0 94 80 138q61 34 146 34q104 0 179 -30l-14 -125q-29 16 -56 23q-42 12 -84 12q-44 0 -62 -9q-21 -9 -21 -29q0 -9 6 -17
q12 -16 90 -35l16 -4q58 -14 90 -33q66 -40 66 -124q0 -83 -58 -127q-61 -47 -199 -47q-94 0 -175 25zM109 -250l46 200h170l-76 -200h-140z" />
    <glyph glyph-name="uni021A" unicode="&#x21a;" horiz-adv-x="556" 
d="M185 0v562h-172v138h530v-138h-172v-562h-186zM156 -250l48 200h182l-70 -200h-160z" />
    <glyph glyph-name="uni021B" unicode="&#x21b;" horiz-adv-x="444" 
d="M10 395v126h106v117l177 55v-172h126v-126h-126v-192q0 -54 17 -74q18 -21 55 -21q7 0 42 5l13 2l6 -117l-22 -3q-52 -7 -88 -7q-106 0 -155 45q-22 20 -33 48.5t-13 48.5t-2 53v212h-103zM169 -250l46 200h170l-76 -200h-140z" />
    <glyph glyph-name="uni0228" unicode="&#x228;" horiz-adv-x="616" 
d="M65 0v700h492v-132h-306v-145h289v-132h-289v-159h317v-132h-201l-27 -65q20 5 40 5q48 0 69 -24q17 -19 17 -52q0 -49 -39 -69q-33 -17 -90 -17q-46 0 -83 9q-24 6 -45 14l17 49q52 -24 87 -24q25 0 37 7q15 9 15 28q0 14 -11 23q-11 8 -25 8q-18 0 -33 -6l-37 24l42 90
h-236z" />
    <glyph glyph-name="uni0229" unicode="&#x229;" horiz-adv-x="611" 
d="M573 208h-360q6 -49 42 -73q38 -27 114 -27t156 40v-127q-69 -27 -168 -33l-22 -53q20 5 40 5q48 0 69 -24q17 -19 17 -52q0 -49 -39 -69q-33 -17 -90 -17q-46 0 -83 9q-24 6 -45 14l17 49q52 -24 87 -24q25 0 37 7q15 9 15 28q0 14 -11 23q-11 8 -25 8q-18 0 -33 -6
l-37 24l37 80q-103 8 -176 73q-84 78 -84 200q0 130 85 204q76 66 195 66q127 0 195 -78q67 -77 67 -214v-33zM211 310h200q2 43 -26 80q-25 29 -72 29q-46 0 -73 -30q-29 -33 -29 -79z" />
    <glyph glyph-name="uni0259" unicode="&#x259;" horiz-adv-x="611" 
d="M38 313h360q-6 49 -42 73q-38 27 -114 27t-156 -40v127q79 33 187 33q142 0 223 -75q84 -78 84 -200q0 -130 -85 -204q-76 -66 -195 -66q-127 0 -195 78q-67 77 -67 214v33zM400 211h-200q-2 -43 26 -80q25 -29 72 -29q46 0 73 30q29 33 29 79z" />
    <glyph glyph-name="afii57929" unicode="&#x2bc;" horiz-adv-x="381" 
d="M49 560l46 190h170l-76 -190h-140z" />
    <glyph glyph-name="circumflex" unicode="&#x2c6;" horiz-adv-x="474" 
d="M45 590l113 160h162l109 -160h-120l-70 90l-74 -90h-120z" />
    <glyph glyph-name="caron" unicode="&#x2c7;" horiz-adv-x="474" 
d="M429 750l-113 -160h-162l-109 160h120l70 -90l74 90h120z" />
    <glyph glyph-name="uni02C9" unicode="&#x2c9;" horiz-adv-x="465" 
d="M45 623v84h375v-84h-375z" />
    <glyph glyph-name="breve" unicode="&#x2d8;" horiz-adv-x="468" 
d="M45 729h76q9 -37 39 -56q27 -17 74 -17q55 0 84 24q22 19 29 49h76q-5 -66 -48 -108q-50 -49 -141 -49q-85 0 -133 41q-51 43 -56 116z" />
    <glyph glyph-name="dotaccent" unicode="&#x2d9;" horiz-adv-x="370" 
d="M92 738h186v-132h-186v132z" />
    <glyph glyph-name="ring" unicode="&#x2da;" horiz-adv-x="314" 
d="M45 678q0 45 33.5 78.5t78.5 33.5q47 0 79.5 -33t32.5 -79t-32.5 -79t-79.5 -33q-45 0 -78.5 33.5t-33.5 78.5zM109 678q0 -20 14 -34t34 -14t34 14t14 34t-14 34t-34 14t-34 -14t-14 -34z" />
    <glyph glyph-name="ogonek" unicode="&#x2db;" horiz-adv-x="332" 
d="M167 0h69l-29 -24q-30 -25 -44 -49q-13 -17 -13 -42q0 -18 11 -29q12 -12 32 -12q19 0 35 9q16 8 24 16l6 6l34 -22q-29 -46 -73 -63q-31 -13 -74 -13q-50 0 -76 28q-21 23 -21 61q0 32 20 58q18 23 45 43q17 12 42 26z" />
    <glyph glyph-name="tilde" unicode="&#x2dc;" horiz-adv-x="482" 
d="M365 729h72q-5 -58 -37 -98q-34 -43 -92 -43q-25 0 -50 9l-20 7q-56 20 -72 20q-25 0 -38 -14q-9 -11 -11 -25h-72q6 58 37 98q33 43 90 43q36 0 66 -13l13 -5q3 -1 12.5 -5t15.5 -6.5t16.5 -4.5t19.5 -2q43 0 50 39z" />
    <glyph glyph-name="hungarumlaut" unicode="&#x2dd;" horiz-adv-x="314" 
d="M45 750h176l-136 -160h-110zM283 750h176l-136 -160h-110z" />
    <glyph glyph-name="acutecomb" unicode="&#x301;" horiz-adv-x="2" 
d="M-420 585l68 144h187l-129 -144h-126z" />
    <glyph glyph-name="uni037E" unicode="&#x37e;" horiz-adv-x="373" 
d="M2 -109l67 271h168l-98 -271h-137zM69 359v162h168v-162h-168z" />
    <glyph glyph-name="uni0394" unicode="&#x394;" horiz-adv-x="755" 
d="M356 518l-160 -386h320zM477 700l288 -700h-775l288 700h199z" />
    <glyph glyph-name="uni03A9" unicode="&#x3a9;" horiz-adv-x="800" 
d="M40 0v132h174v23q-74 21 -124 83t-50 171q0 144 94.5 228t265.5 84t265.5 -84t94.5 -228q0 -109 -50 -171t-124 -83v-23h174v-132h-300v243q53 11 80.5 55t27.5 102q0 82 -43.5 132.5t-124.5 50.5t-124.5 -50.5t-43.5 -132.5q0 -58 27.5 -102t80.5 -55v-243h-300z" />
    <glyph glyph-name="uni03BC" unicode="&#x3bc;" horiz-adv-x="667" 
d="M611 521v-521h-164v96h-2q-29 -56 -77 -81q-50 -27 -113 -27h-17v-198h-182v731h180v-252q0 -73 24 -101q22 -31 59 -30q56 -1 84 40t28 123v220h180z" />
    <glyph glyph-name="pi" unicode="&#x3c0;" horiz-adv-x="696" 
d="M94 0v389q-47 1 -84 -21v132q40 21 104 21h572v-132h-70v-204q0 -33 10 -44.5t32 -11.5h10v-129q-45 -4 -91 -4q-19 0 -31.5 1t-36 8t-37 19.5t-25 39.5t-11.5 65v260h-162v-389h-180z" />
    <glyph glyph-name="afii10023" unicode="&#x401;" horiz-adv-x="616" 
d="M65 0v700h492v-132h-306v-145h289v-132h-289v-159h317v-132h-503zM360 740v140h150v-140h-150zM120 740v140h150v-140h-150z" />
    <glyph glyph-name="afii10051" unicode="&#x402;" horiz-adv-x="789" 
d="M166 0v562h-153v138h530v-138h-191v-145q65 31 146 31q87 0 140 -33q86 -55 86 -197q0 -113 -54 -173q-51 -57 -155 -57q-55 0 -112 14v134q28 -12 64 -12q33 0 50 24q15 20 15 66v14q0 46 -23 69q-21 19 -60 19q-51 0 -97 -24v-292h-186z" />
    <glyph glyph-name="afii10052" unicode="&#x403;" horiz-adv-x="539" 
d="M65 0v700h471v-138h-285v-562h-186zM232 740l72 140h196l-134 -140h-134z" />
    <glyph glyph-name="afii10053" unicode="&#x404;" horiz-adv-x="680" 
d="M632 157l6 -140q-93 -29 -196 -29q-197 0 -300 96q-105 99 -105 265q0 89 32 161.5t86 117.5q101 84 277 84q109 0 207 -39l-19 -143q-78 49 -172 49q-102 0 -159 -53q-43 -40 -52 -100h263v-128h-266q5 -72 55 -120q59 -57 173 -57q82 0 170 36z" />
    <glyph glyph-name="afii10054" unicode="&#x405;" horiz-adv-x="611" 
d="M51 18l16 154q90 -46 192 -46q66 0 92 20q23 19 23 49q0 31 -27 52q-8 6 -17 11t-22 10t-21.5 7.5t-28 8.5t-28.5 9l-29 9q-105 32 -140 108q-17 39 -17 85q0 123 112 180q74 37 189 37q98 0 183 -26l-12 -144q-70 32 -155 32q-61 0 -89 -13q-36 -15 -36 -53
q0 -18 10 -30q19 -24 107 -48l11 -3q93 -24 139 -61q63 -51 63 -147q0 -114 -80 -174q-77 -57 -227 -57q-106 0 -208 30z" />
    <glyph glyph-name="afii10055" unicode="&#x406;" horiz-adv-x="334" 
d="M74 0v700h186v-700h-186z" />
    <glyph glyph-name="afii10056" unicode="&#x407;" horiz-adv-x="340" 
d="M77 0v700h186v-700h-186zM25 880h120v-140h-120v140zM195 880h120v-140h-120v140z" />
    <glyph glyph-name="afii10057" unicode="&#x408;" horiz-adv-x="444" 
d="M14 7v154q36 -17 84 -17q35 0 57 21q38 35 38 133v402h186v-458q0 -129 -61 -191q-61 -63 -172 -63q-48 0 -115 15z" />
    <glyph glyph-name="afii10058" unicode="&#x409;" horiz-adv-x="1055" 
d="M665 438h75q45 0 70 -1t71.5 -13.5t75.5 -37.5q69 -59 69 -170q0 -105 -79 -165q-67 -51 -192 -51h-276v568h-159v-84q0 -115 -8 -229q-12 -151 -60 -203q-54 -60 -164 -60q-28 0 -78 8v144q18 -5 37 -5q33 0 56 20q21 19 28 61q9 49 13 148q5 144 5 205v127h516v-262z
M665 306v-174h45q75 0 102 22q28 22 28 68t-33 68q-25 16 -87 16h-55z" />
    <glyph glyph-name="afii10059" unicode="&#x40a;" horiz-adv-x="1039" 
d="M648 438h77q45 0 70 -1t71 -13.5t76 -37.5q68 -58 68 -170q0 -106 -78 -165q-67 -51 -192 -51h-278v306h-211v-306h-186v700h186v-262h211v262h186v-262zM648 306v-174h45q74 0 102 22q29 24 29 68q0 47 -34 68q-25 16 -87 16h-55z" />
    <glyph glyph-name="afii10060" unicode="&#x40b;" horiz-adv-x="773" 
d="M166 0v562h-153v138h530v-138h-191v-140q67 26 154 26q136 0 184 -80q28 -48 28 -129v-239h-186v205q0 64 -18 86q-20 25 -71 25q-42 0 -91 -17v-299h-186z" />
    <glyph glyph-name="afii10061" unicode="&#x40c;" horiz-adv-x="694" 
d="M251 700v-303h9l205 303h207l-236 -323l262 -377h-214l-224 336h-9v-336h-186v700h186zM252 740l72 140h196l-134 -140h-134z" />
    <glyph glyph-name="afii10062" unicode="&#x40e;" horiz-adv-x="692" 
d="M-2 700h214l109 -235l45 -113h3q29 89 53 147l86 201h194l-274 -580q-12 -24 -36 -56.5t-47 -46.5q-45 -29 -119 -29q-57 0 -116 22l13 126q37 -15 67 -15q29 0 46 12q20 14 28 31l12 27zM441 917l93 -12q2 -65 -42 -107q-51 -48 -149 -48q-97 0 -148 48q-42 40 -44 107
l94 12q6 -28 22 -43q23 -22 76 -22t76 22q16 15 22 43z" />
    <glyph glyph-name="afii10145" unicode="&#x40f;" horiz-adv-x="708" 
d="M65 700h186v-568h206v568h186v-700h-199v-163h-180v163h-199v700z" />
    <glyph glyph-name="afii10017" unicode="&#x410;" horiz-adv-x="742" 
d="M-10 0l265 700h228l269 -700h-204l-52 149h-262l-55 -149h-189zM452 282l-83 274h-2l-90 -274h175z" />
    <glyph glyph-name="afii10018" unicode="&#x411;" horiz-adv-x="660" 
d="M65 0v700h504v-138h-318v-133h46q126 0 176 -13q45 -11 76 -34q76 -57 76 -175q0 -104 -78 -159q-69 -48 -192 -48h-290zM251 297v-165h57q73 0 102 21t29 60q0 51 -41 72q-25 12 -96 12h-51z" />
    <glyph glyph-name="afii10019" unicode="&#x412;" horiz-adv-x="672" 
d="M65 0v700h321q118 0 178 -56q49 -46 49 -124q0 -58 -29 -98q-34 -45 -94 -63v-2q25 -4 47 -13t44.5 -26t36 -47.5t13.5 -71.5q0 -99 -75 -152q-66 -47 -197 -47h-294zM251 297v-165h63q69 0 100 21t31 60q0 52 -44 71q-32 13 -93 13h-57zM251 568v-145h52q67 0 95 20
q29 19 29 54q0 32 -20 49q-25 22 -91 22h-65z" />
    <glyph glyph-name="afii10020" unicode="&#x413;" horiz-adv-x="539" 
d="M65 0v700h471v-138h-285v-562h-186z" />
    <glyph glyph-name="afii10021" unicode="&#x414;" horiz-adv-x="760" 
d="M0 132h61q39 73 59 139q31 103 31 280v149h520v-568h84v-295h-180v163h-395v-163h-180v295zM485 568h-168v-51q0 -150 -27 -255q-19 -72 -51 -130h246v436z" />
    <glyph glyph-name="afii10022" unicode="&#x415;" horiz-adv-x="616" 
d="M65 0v700h492v-132h-306v-145h289v-132h-289v-159h317v-132h-503z" />
    <glyph glyph-name="afii10024" unicode="&#x416;" horiz-adv-x="1010" 
d="M598 700v-303h9l184 303h198l-210 -326l236 -374h-207l-201 336h-9v-336h-186v336h-9l-201 -336h-207l236 374l-210 326h198l184 -303h9v303h186z" />
    <glyph glyph-name="afii10025" unicode="&#x417;" horiz-adv-x="588" 
d="M149 297v129h76q65 0 93 20q30 22 30 62q0 36 -27 55q-25 19 -81 19q-52 0 -101 -12q-36 -8 -73 -26l-14 133q50 16 96 25q56 10 120 10q130 0 194 -47q73 -53 73 -144q0 -63 -34 -102q-34 -41 -93 -55v-2q61 -9 100 -47q45 -43 45 -115q0 -102 -86 -160
q-77 -52 -222 -52q-72 0 -136 17q-28 7 -84 26l11 134q39 -18 93 -33q50 -14 101 -14q59 0 90 18q43 24 43 77q0 43 -33 64q-30 20 -105 20h-76z" />
    <glyph glyph-name="afii10026" unicode="&#x418;" horiz-adv-x="755" 
d="M65 0v700h186v-300l-6 -172h6l216 472h223v-700h-186v300l6 172h-6l-216 -472h-223z" />
    <glyph glyph-name="afii10027" unicode="&#x419;" horiz-adv-x="755" 
d="M65 0v700h186v-300l-6 -172h6l216 472h223v-700h-186v300l6 172h-6l-216 -472h-223zM476 917l93 -12q2 -65 -42 -107q-51 -48 -149 -48q-97 0 -148 48q-42 40 -44 107l94 12q6 -28 22 -43q23 -22 76 -22t76 22q16 15 22 43z" />
    <glyph glyph-name="afii10028" unicode="&#x41a;" horiz-adv-x="694" 
d="M251 700v-303h9l205 303h207l-236 -323l262 -377h-214l-224 336h-9v-336h-186v700h186z" />
    <glyph glyph-name="afii10029" unicode="&#x41b;" horiz-adv-x="742" 
d="M149 700h528v-700h-186v568h-171v-84q0 -115 -8 -229q-12 -151 -60 -203q-54 -60 -164 -60q-28 0 -78 8v144q18 -5 37 -5q33 0 56 20q21 19 28 61q9 49 13 148q5 144 5 205v127z" />
    <glyph glyph-name="afii10030" unicode="&#x41c;" horiz-adv-x="1010" 
d="M65 0v700h293l148 -465h2l155 465h282v-700h-182l3 538h-2l-178 -538h-171l-170 538h-2l4 -538h-182z" />
    <glyph glyph-name="afii10031" unicode="&#x41d;" horiz-adv-x="722" 
d="M65 0v700h186v-268h220v268h186v-700h-186v300h-220v-300h-186z" />
    <glyph glyph-name="afii10032" unicode="&#x41e;" horiz-adv-x="778" 
d="M389 712q166 0 258 -93t92 -269t-92 -269t-258 -93t-258 93t-92 269t92 269t258 93zM389 574q-75 0 -115 -57q-43 -58 -43 -167t43 -167q40 -57 115 -57t115 57q43 58 43 167t-43 167q-40 57 -115 57z" />
    <glyph glyph-name="afii10033" unicode="&#x41f;" horiz-adv-x="712" 
d="M65 0v700h582v-700h-186v568h-210v-568h-186z" />
    <glyph glyph-name="afii10034" unicode="&#x420;" horiz-adv-x="621" 
d="M65 700h222q182 0 254 -70q59 -57 59 -160q0 -88 -52 -145q-74 -80 -225 -80h-72v-245h-186v700zM251 568v-191h48q59 0 88 26q27 25 27 70q0 49 -33 74q-28 21 -82 21h-48z" />
    <glyph glyph-name="afii10035" unicode="&#x421;" horiz-adv-x="667" 
d="M638 162l9 -146q-105 -28 -197 -28q-204 0 -307.5 99.5t-103.5 261.5q0 89 32 161t86 117q102 85 282 85q97 0 207 -36l-15 -151q-89 49 -181 49q-96 0 -156 -60q-63 -63 -63 -167q0 -102 63 -162q62 -59 170 -59q85 0 174 36z" />
    <glyph glyph-name="afii10036" unicode="&#x422;" horiz-adv-x="556" 
d="M185 0v562h-172v138h530v-138h-172v-562h-186z" />
    <glyph glyph-name="afii10037" unicode="&#x423;" horiz-adv-x="692" 
d="M-2 700h214l109 -235l45 -113h3q29 89 53 147l86 201h194l-274 -580q-12 -24 -36 -56.5t-47 -46.5q-45 -29 -119 -29q-57 0 -116 22l13 126q37 -15 67 -15q29 0 46 12q20 14 28 31l12 27z" />
    <glyph glyph-name="afii10038" unicode="&#x424;" horiz-adv-x="948" 
d="M381 740h186v-95h38q129 0 210 -65q103 -82 103 -230q0 -154 -105 -231q-90 -64 -208 -64h-38v-95h-186v95h-38q-118 0 -208 64q-105 77 -105 231q0 148 103 230q81 65 210 65h38v95zM563 507v-314h22q61 0 99 36q44 42 44 121q0 83 -45 123q-36 34 -97 34h-23zM385 507
h-23q-61 0 -97 -34q-45 -40 -45 -123q0 -79 44 -121q38 -36 99 -36h22v314z" />
    <glyph glyph-name="afii10039" unicode="&#x425;" horiz-adv-x="722" 
d="M10 0l226 368l-202 332h217l117 -231l120 231h204l-204 -332l224 -368h-222l-135 258l-134 -258h-211z" />
    <glyph glyph-name="afii10040" unicode="&#x426;" horiz-adv-x="732" 
d="M65 700h186v-568h206v568h186v-568h84v-295h-180v163h-482v700z" />
    <glyph glyph-name="afii10041" unicode="&#x427;" horiz-adv-x="687" 
d="M436 0v258q-68 -20 -146 -20q-150 0 -207 74q-38 50 -38 135v253h186v-219q0 -66 20 -86q21 -25 79 -25q50 0 106 17v313h186v-700h-186z" />
    <glyph glyph-name="afii10042" unicode="&#x428;" horiz-adv-x="996" 
d="M65 700h186v-568h154v568h186v-568h154v568h186v-700h-866v700z" />
    <glyph glyph-name="afii10043" unicode="&#x429;" horiz-adv-x="1020" 
d="M65 700h186v-568h154v568h186v-568h154v568h186v-568h84v-289h-180v157h-770v700z" />
    <glyph glyph-name="afii10044" unicode="&#x42a;" horiz-adv-x="764" 
d="M366 438h84q45 0 70 -1t71 -13.5t76 -37.5q68 -58 68 -170q0 -106 -78 -165q-67 -51 -192 -51h-285v562h-170v138h356v-262zM366 306v-174h52q74 0 102 22q29 24 29 68q0 47 -34 68q-25 16 -87 16h-62z" />
    <glyph glyph-name="afii10045" unicode="&#x42b;" horiz-adv-x="960" 
d="M65 0v700h186v-262h84q45 0 70 -1t71 -13.5t76 -37.5q68 -58 68 -170q0 -106 -78 -165q-67 -51 -192 -51h-285zM251 306v-174h52q74 0 102 22q29 24 29 68q0 47 -34 68q-25 16 -87 16h-62zM709 0v700h186v-700h-186z" />
    <glyph glyph-name="afii10046" unicode="&#x42c;" horiz-adv-x="649" 
d="M65 0v700h186v-262h84q45 0 70 -1t71 -13.5t76 -37.5q68 -58 68 -170q0 -106 -78 -165q-67 -51 -192 -51h-285zM251 306v-174h52q74 0 102 22q29 24 29 68q0 47 -34 68q-25 16 -87 16h-62z" />
    <glyph glyph-name="afii10047" unicode="&#x42d;" horiz-adv-x="680" 
d="M38 17l6 140q88 -36 170 -36q114 0 173 57q50 48 55 120h-266v128h263q-9 60 -52 100q-57 53 -159 53q-94 0 -172 -49l-19 143q98 39 207 39q176 0 277 -84q54 -45 86 -117.5t32 -161.5q0 -166 -105 -265q-103 -96 -300 -96q-103 0 -196 29z" />
    <glyph glyph-name="afii10048" unicode="&#x42e;" horiz-adv-x="1058" 
d="M251 432h93q14 115 82 187q88 93 248 93q164 0 254 -93q91 -94 91 -269t-91 -269q-90 -93 -254 -93q-161 0 -248 93q-37 40 -59.5 99.5t-26.5 119.5h-89v-300h-186v700h186v-268zM674 574q-65 0 -106 -49q-47 -59 -47 -175q0 -111 42 -168q41 -56 111 -56q69 0 111 55
q42 56 42 169q0 111 -42 168q-40 56 -111 56z" />
    <glyph glyph-name="afii10049" unicode="&#x42f;" horiz-adv-x="667" 
d="M602 700v-700h-186v245h-61l-122 -245h-208l167 291q-49 13 -81 48q-44 47 -44 131q0 120 77 177q69 53 236 53h222zM416 568h-48q-54 0 -82 -21q-33 -25 -33 -74q0 -45 27 -70q29 -26 88 -26h48v191z" />
    <glyph glyph-name="afii10065" unicode="&#x430;" horiz-adv-x="607" 
d="M558 0h-163l-2 82h-2q-19 -31 -47 -55q-47 -39 -118 -39q-85 0 -138 41q-57 45 -57 121q0 102 88 147q63 32 181 32q40 0 84 -5q1 37 -23 61q-29 28 -98 28q-88 0 -164 -39l-3 122q91 37 205 37q115 0 179 -50q72 -57 72 -166v-194q0 -71 6 -123zM199 165q0 -25 20 -41
q19 -16 53 -16q53 0 85 42q25 33 27 81q-28 4 -70 4q-60 0 -86 -17q-29 -19 -29 -53z" />
    <glyph glyph-name="afii10066" unicode="&#x431;" horiz-adv-x="676" 
d="M176 404h6q55 117 199 117q116 0 185 -63q79 -72 79 -198q0 -131 -94 -209q-80 -64 -204 -64t-204 64q-63 50 -85.5 128t-22.5 198q0 95 16.5 168t68.5 128q44 46 97.5 64.5t122.5 23.5q32 2 76.5 4.5t65.5 4t52.5 6.5t64.5 15v-154q-29 -8 -60 -13t-46.5 -6.5t-62.5 -4
t-63 -3.5q-38 -2 -58.5 -4.5t-49.5 -15t-48 -34.5q-16 -19 -24 -42.5t-9.5 -40t-1.5 -44.5v-25zM347 397q-48 0 -78 -32q-34 -37 -34 -105q0 -74 34 -113q29 -34 78 -34t78 34q34 39 34 113q0 68 -34 105q-30 32 -78 32z" />
    <glyph glyph-name="afii10067" unicode="&#x432;" horiz-adv-x="645" 
d="M56 521h364q71 0 114 -28q53 -35 53 -101q0 -50 -30 -80q-26 -28 -72 -38v-2q44 -5 80 -32q40 -34 40 -94q0 -72 -55 -112q-46 -34 -130 -34h-364v521zM236 416v-94h93q40 0 59 13q19 14 19 39q0 23 -22 34q-17 8 -56 8h-93zM236 224v-119h92q51 0 69 11q23 15 23 43
q0 33 -21 49q-19 16 -72 16h-91z" />
    <glyph glyph-name="afii10068" unicode="&#x433;" horiz-adv-x="484" 
d="M56 0v521h418v-132h-238v-389h-180z" />
    <glyph glyph-name="afii10069" unicode="&#x434;" horiz-adv-x="661" 
d="M108 521h476v-389h77v-279h-170v147h-321v-147h-170v279h53q26 42 40 94q15 59 15 192v103zM218 126h186v269h-138v-52q0 -89 -16 -144q-11 -38 -32 -73z" />
    <glyph glyph-name="afii10070" unicode="&#x435;" horiz-adv-x="611" 
d="M573 208h-360q6 -49 42 -73q38 -27 114 -27t156 40v-127q-79 -33 -187 -33q-142 0 -223 75q-84 78 -84 200q0 130 85 204q76 66 195 66q127 0 195 -78q67 -77 67 -214v-33zM211 310h200q2 43 -26 80q-25 29 -72 29q-46 0 -73 -30q-29 -33 -29 -79z" />
    <glyph glyph-name="afii10072" unicode="&#x436;" horiz-adv-x="848" 
d="M511 521v-243h10l125 243h184l-140 -236l164 -285h-198l-135 260h-10v-260h-174v260h-10l-135 -260h-198l164 285l-140 236h184l125 -243h10v243h174z" />
    <glyph glyph-name="afii10073" unicode="&#x437;" horiz-adv-x="540" 
d="M134 213v108h90q47 0 64 14q16 12 16 36q0 23 -26 36q-25 12 -70 12q-46 0 -93 -12q-37 -10 -71 -28l-12 121q39 15 80 22q61 11 138 11q114 0 170 -34q68 -41 68 -112q0 -43 -27 -75q-28 -32 -71 -41v-2q50 -4 84 -38q31 -31 31 -85q0 -94 -106 -134q-64 -24 -162 -24
q-76 0 -138 13q-43 9 -79 21l6 126q39 -22 85 -33q58 -13 102 -13q59 0 81 15q25 15 25 42q0 29 -27 42q-26 12 -75 12h-83z" />
    <glyph glyph-name="afii10074" unicode="&#x438;" horiz-adv-x="696" 
d="M56 521h180v-157l-5 -164h3l203 321h203v-521h-180v155l5 166h-3l-203 -321h-203v521z" />
    <glyph glyph-name="afii10075" unicode="&#x439;" horiz-adv-x="696" 
d="M56 521h180v-157l-5 -164h3l203 321h203v-521h-180v155l5 166h-3l-203 -321h-203v521zM439 744l86 -12q2 -64 -39 -104q-47 -46 -138 -46t-138 46q-41 40 -39 104l86 12q4 -25 21 -42q22 -21 70 -21t70 21q17 17 21 42z" />
    <glyph glyph-name="afii10076" unicode="&#x43a;" horiz-adv-x="639" 
d="M236 521v-235h10l176 235h198l-188 -238l210 -283h-212l-184 260h-10v-260h-180v521h180z" />
    <glyph glyph-name="afii10077" unicode="&#x43b;" horiz-adv-x="659" 
d="M116 521h487v-521h-180v389h-147l-3 -133q-2 -84 -8 -128t-23 -71q-42 -69 -142 -69q-51 0 -95 12l2 128q17 -5 35 -5q27 0 44 22q21 28 25 169z" />
    <glyph glyph-name="afii10078" unicode="&#x43c;" horiz-adv-x="841" 
d="M501 0h-161l-107 344h-7l5 -174v-170h-175v521h257l108 -342l107 342h257v-521h-175l5 344h-7z" />
    <glyph glyph-name="afii10079" unicode="&#x43d;" horiz-adv-x="667" 
d="M56 0v521h180v-183h195v183h180v-521h-180v206h-195v-206h-180z" />
    <glyph glyph-name="afii10080" unicode="&#x43e;" horiz-adv-x="668" 
d="M334 533q125 0 207 -64q96 -75 96 -209t-96 -209q-79 -63 -207 -63t-207 63q-96 75 -96 209t96 209q82 64 207 64zM334 407q-50 0 -81 -34q-36 -39 -36 -113t36 -113q31 -34 81 -34t81 34q36 39 36 113t-36 113q-31 34 -81 34z" />
    <glyph glyph-name="afii10081" unicode="&#x43f;" horiz-adv-x="655" 
d="M56 0v521h543v-521h-180v389h-183v-389h-180z" />
    <glyph glyph-name="afii10082" unicode="&#x440;" horiz-adv-x="672" 
d="M56 -210v731h166v-94h2q27 53 84 82q47 24 107 24q109 0 167.5 -82t58.5 -188q0 -110 -56 -185q-67 -90 -182 -90q-54 0 -96 21q-44 22 -69 64h-2v-283h-180zM455 260q0 60 -29 97q-30 38 -80 38q-45 0 -75 -33q-35 -38 -35 -103q0 -53 32 -95q31 -38 78 -38q51 0 81 41
q28 39 28 93z" />
    <glyph glyph-name="afii10083" unicode="&#x441;" horiz-adv-x="500" 
d="M477 504l-13 -132q-48 29 -104 29q-57 0 -94 -30q-49 -41 -49 -111q0 -63 45 -103q42 -37 108 -37q54 0 107 25l4 -134q-72 -23 -143 -23q-85 0 -152 30t-105 81q-50 69 -50 161q0 147 114 222q76 51 195 51q76 0 137 -29z" />
    <glyph glyph-name="afii10084" unicode="&#x442;" horiz-adv-x="514" 
d="M167 0v389h-160v132h500v-132h-160v-389h-180z" />
    <glyph glyph-name="afii10085" unicode="&#x443;" horiz-adv-x="605" 
d="M45 -210l12 137q29 -11 65 -11q43 0 66 21q20 16 31 51l-211 533h194l112 -340h2l107 340h180l-200 -507q-21 -55 -35 -85q-35 -78 -84 -114q-51 -37 -140 -37q-41 0 -99 12z" />
    <glyph glyph-name="afii10086" unicode="&#x444;" horiz-adv-x="914" 
d="M549 750v-247q46 30 112 30q99 0 155 -63q67 -75 67 -211q0 -137 -69 -209q-59 -62 -156 -62q-62 0 -109 30v-228h-180v228q-47 -30 -109 -30q-97 0 -156 62q-69 72 -69 209q0 136 67 211q56 63 155 63q66 0 112 -30v247h180zM544 383v-244q28 -19 65 -19q48 0 71 39
q23 37 23 102q0 56 -20 96q-23 45 -76 45q-36 0 -63 -19zM374 139v244q-27 19 -63 19q-53 0 -76 -45q-20 -40 -20 -96q0 -65 23 -102q23 -39 71 -39q37 0 65 19z" />
    <glyph glyph-name="afii10087" unicode="&#x445;" horiz-adv-x="593" 
d="M0 0l177 265l-163 256h213l77 -156l81 156h197l-163 -254l174 -267h-217l-87 162l-86 -162h-203z" />
    <glyph glyph-name="afii10088" unicode="&#x446;" horiz-adv-x="670" 
d="M56 521h180v-389h177v389h180v-389h77v-279h-170v147h-444v521z" />
    <glyph glyph-name="afii10089" unicode="&#x447;" horiz-adv-x="623" 
d="M387 521h180v-521h-180v195q-70 -20 -149 -20q-128 0 -175 62q-29 39 -29 119v165h180v-139q0 -37 14 -54q18 -21 69 -21q47 0 90 13v201z" />
    <glyph glyph-name="afii10090" unicode="&#x448;" horiz-adv-x="908" 
d="M56 521h180v-389h133v389h170v-389h133v389h180v-521h-796v521z" />
    <glyph glyph-name="afii10091" unicode="&#x449;" horiz-adv-x="929" 
d="M56 521h180v-389h133v389h170v-389h133v389h180v-389h77v-279h-170v147h-703v521z" />
    <glyph glyph-name="afii10092" unicode="&#x44a;" horiz-adv-x="691" 
d="M314 357h141q105 0 158 -46q54 -48 54 -136t-59 -133q-55 -42 -160 -42h-314v389h-124v132h304v-164zM314 237v-117h88q40 0 59 14q20 14 20 45q0 32 -24 47q-17 11 -47 11h-96z" />
    <glyph glyph-name="afii10093" unicode="&#x44b;" horiz-adv-x="897" 
d="M56 521h180v-164h141q105 0 158 -46q54 -48 54 -136t-59 -133q-55 -42 -160 -42h-314v521zM236 237v-117h88q40 0 59 14q20 14 20 45q0 32 -24 47q-17 11 -47 11h-96zM661 0v521h180v-521h-180z" />
    <glyph glyph-name="afii10094" unicode="&#x44c;" horiz-adv-x="613" 
d="M56 521h180v-164h141q105 0 158 -46q54 -48 54 -136t-59 -133q-55 -42 -160 -42h-314v521zM236 237v-117h88q40 0 59 14q20 14 20 45q0 32 -24 47q-17 11 -47 11h-96z" />
    <glyph glyph-name="afii10095" unicode="&#x44d;" horiz-adv-x="514" 
d="M104 219v104h193q-8 45 -40 69q-33 27 -97 27q-67 0 -123 -24l-12 111q69 27 153 27q130 0 206 -56q99 -74 99 -212q0 -135 -87 -210q-78 -67 -216 -67q-91 0 -160 27l6 114q62 -27 128 -27q69 0 104 30q38 32 39 87h-193z" />
    <glyph glyph-name="afii10096" unicode="&#x44e;" horiz-adv-x="919" 
d="M236 336h75q15 79 79 133q75 64 199 64q123 0 204 -64q95 -76 95 -209t-95 -209q-79 -63 -204 -63t-199 63q-72 63 -84 159h-70v-210h-180v521h180v-185zM589 407q-49 0 -78 -34q-35 -41 -35 -113t35 -113q29 -34 78 -34t78 34q35 41 35 113t-35 113q-29 34 -78 34z" />
    <glyph glyph-name="afii10097" unicode="&#x44f;" horiz-adv-x="609" 
d="M553 521v-521h-180v178h-71l-93 -178h-194l128 212q-56 6 -87.5 47.5t-31.5 97.5q0 164 218 164h311zM373 401h-90q-39 0 -56 -14t-17 -42t19 -41q18 -13 54 -13h90v110z" />
    <glyph glyph-name="afii10071" unicode="&#x451;" horiz-adv-x="611" 
d="M573 208h-360q6 -49 42 -73q38 -27 114 -27t156 40v-127q-79 -33 -187 -33q-142 0 -223 75q-84 78 -84 200q0 130 85 204q76 66 195 66q127 0 195 -78q67 -77 67 -214v-33zM211 310h200q2 43 -26 80q-25 29 -72 29q-46 0 -73 -30q-29 -33 -29 -79zM358 606v132h144v-132
h-144zM130 606v132h144v-132h-144z" />
    <glyph glyph-name="afii10099" unicode="&#x452;" horiz-adv-x="667" 
d="M62 0v594h-72v70h72v86h180v-86h212v-70h-212v-150h2q30 42 73 65q45 24 101 24q92 0 144 -54q55 -55 55 -154v-289q0 -138 -44 -193q-51 -65 -166 -65q-40 0 -72 9l4 116q16 -4 34 -4q30 0 48 23q16 22 16 90v240q0 83 -33 113q-19 18 -50 18q-58 0 -87 -45
q-25 -40 -25 -118v-220h-180z" />
    <glyph glyph-name="afii10100" unicode="&#x453;" horiz-adv-x="484" 
d="M56 0v521h418v-132h-238v-389h-180zM200 590l70 160h186l-130 -160h-126z" />
    <glyph glyph-name="afii10101" unicode="&#x454;" horiz-adv-x="514" 
d="M399 219h-193q1 -55 39 -87q35 -30 104 -30q66 0 128 27l6 -114q-69 -27 -160 -27q-138 0 -216 67q-87 75 -87 210q0 138 99 212q76 56 206 56q84 0 153 -27l-12 -111q-57 24 -123 24q-62 0 -97 -27q-32 -23 -40 -69h193v-104z" />
    <glyph glyph-name="afii10102" unicode="&#x455;" horiz-adv-x="500" 
d="M36 13l10 131q35 -14 68 -22q56 -14 107 -14q37 0 53 12q15 11 15 29q0 20 -20 35q-16 11 -73 26l-26 7q-78 22 -109 59q-29 35 -29 85q0 94 80 138q61 34 146 34q104 0 179 -30l-14 -125q-29 16 -56 23q-42 12 -84 12q-44 0 -62 -9q-21 -9 -21 -29q0 -9 6 -17
q12 -16 90 -35l16 -4q58 -14 90 -33q66 -40 66 -124q0 -83 -58 -127q-61 -47 -199 -47q-94 0 -175 25z" />
    <glyph glyph-name="afii10103" unicode="&#x456;" horiz-adv-x="334" 
d="M77 0v521h180v-521h-180zM257 738v-132h-180v132h180z" />
    <glyph glyph-name="afii10104" unicode="&#x457;" horiz-adv-x="334" 
d="M77 0v521h180v-521h-180zM23 738h120v-132h-120v132zM191 738h120v-132h-120v132z" />
    <glyph glyph-name="afii10105" unicode="&#x458;" horiz-adv-x="313" 
d="M-25 -213l4 116q15 -5 38 -5q37 0 50 30q10 22 10 72v521h180v-526q0 -92 -29 -143q-42 -74 -161 -74q-43 0 -92 9zM257 738v-132h-180v132h180z" />
    <glyph glyph-name="afii10106" unicode="&#x459;" horiz-adv-x="957" 
d="M593 357h128q105 0 158 -46q54 -48 54 -136t-59 -133q-55 -42 -160 -42h-301v389h-137l-3 -133q-2 -84 -8 -128t-23 -71q-42 -69 -142 -69q-51 0 -95 12l2 128q17 -5 35 -5q27 0 44 22q21 28 25 169l5 207h477v-164zM593 237v-117h75q40 0 59 14q20 14 20 45q0 32 -24 47
q-17 11 -47 11h-83z" />
    <glyph glyph-name="afii10107" unicode="&#x45a;" horiz-adv-x="970" 
d="M421 521h180v-164h133q105 0 158 -46q54 -48 54 -136t-59 -133q-55 -42 -160 -42h-306v206h-185v-206h-180v521h180v-183h185v183zM601 237v-117h78q40 0 59 14q20 14 20 45q0 32 -24 47q-17 11 -47 11h-86z" />
    <glyph glyph-name="afii10108" unicode="&#x45b;" horiz-adv-x="667" 
d="M62 0v594h-72v70h72v86h180v-86h212v-70h-212v-150h2q30 42 73 65q45 24 101 24q92 0 144 -54q55 -55 55 -154v-325h-180v252q0 83 -33 113q-19 18 -50 18q-58 0 -87 -45q-25 -40 -25 -118v-220h-180z" />
    <glyph glyph-name="afii10109" unicode="&#x45c;" horiz-adv-x="639" 
d="M236 521v-235h10l176 235h198l-188 -238l210 -283h-212l-184 260h-10v-260h-180v521h180zM240 590l70 160h186l-130 -160h-126z" />
    <glyph glyph-name="afii10110" unicode="&#x45e;" horiz-adv-x="605" 
d="M45 -210l12 137q29 -11 65 -11q43 0 66 21q20 16 31 51l-211 533h194l112 -340h2l107 340h180l-200 -507q-21 -55 -35 -85q-35 -78 -84 -114q-51 -37 -140 -37q-41 0 -99 12zM393 744l86 -12q2 -64 -39 -104q-47 -46 -138 -46t-138 46q-41 40 -39 104l86 12q4 -25 21 -42
q22 -21 70 -21t70 21q17 17 21 42z" />
    <glyph glyph-name="afii10193" unicode="&#x45f;" horiz-adv-x="649" 
d="M56 521h180v-389h177v389h180v-521h-184v-147h-169v147h-184v521z" />
    <glyph glyph-name="afii10146" unicode="&#x462;" horiz-adv-x="761" 
d="M177 0v489h-164v135h164v101h186v-101h184v-135h-184v-72h84q30 0 50.5 -1t53 -5t55 -12t48 -23t41.5 -36.5t26.5 -54.5t10.5 -74q0 -73 -43 -122.5t-101.5 -69t-125.5 -19.5h-285zM363 289v-161h64q119 0 119 81q0 80 -112 80h-71z" />
    <glyph glyph-name="afii10194" unicode="&#x463;" horiz-adv-x="695" 
d="M495 395h-172v-60h136q212 0 212 -166q0 -86 -59 -127.5t-160 -41.5h-309v395h-136v126h136v179h180v-179h172v-126zM323 225v-115h83q34 0 56.5 14.5t22.5 43.5q0 22 -15.5 39.5t-55.5 17.5h-91z" />
    <glyph glyph-name="afii10147" unicode="&#x472;" horiz-adv-x="778" 
d="M389 712q166 0 258 -93t92 -269t-92 -269t-258 -93t-258 93t-92 269t92 269t258 93zM237 422h304q-7 64 -37 105q-40 57 -115 57t-115 -57q-30 -41 -37 -105zM545 310h-312q2 -82 41 -137q40 -57 115 -57t115 57q39 55 41 137z" />
    <glyph glyph-name="afii10195" unicode="&#x473;" horiz-adv-x="668" 
d="M334 533q125 0 207 -64q96 -75 96 -209t-96 -209q-79 -63 -207 -63t-207 63q-96 75 -96 209t96 209q82 64 207 64zM223 314h222q-7 34 -30 59q-31 34 -81 34q-49 0 -81 -34q-25 -27 -30 -59zM447 215h-226q6 -40 30 -68q30 -34 83 -34q52 0 83 34q26 29 30 68z" />
    <glyph glyph-name="afii10148" unicode="&#x474;" horiz-adv-x="764" 
d="M224 0l-234 700h198l155 -550h2l103 377q28 101 79 143t124 42q54 0 115 -20l-8 -133q-37 13 -67 13q-26 0 -43.5 -21.5t-34.5 -70.5l-159 -480h-230z" />
    <glyph glyph-name="afii10196" unicode="&#x475;" horiz-adv-x="657" 
d="M589 407q-31 0 -50 -51l-134 -356h-205l-190 521h193l105 -371h2l57 193q16 55 28.5 85.5t33.5 57t50.5 37t73.5 10.5q39 0 102 -11l-21 -124q-27 9 -45 9z" />
    <glyph glyph-name="afii10050" unicode="&#x490;" horiz-adv-x="540" 
d="M60 0v700h297v89h180v-227h-291v-562h-186z" />
    <glyph glyph-name="afii10098" unicode="&#x491;" horiz-adv-x="490" 
d="M56 0v521h261v94h170v-226h-251v-389h-180z" />
    <glyph glyph-name="uni0492" unicode="&#x492;" horiz-adv-x="591" 
d="M0 282v122h95v296h467v-132h-281v-164h239v-122h-239v-282h-186v282h-95z" />
    <glyph glyph-name="uni0493" unicode="&#x493;" horiz-adv-x="518" 
d="M0 174v118h90v229h418v-132h-238v-97h197v-118h-197v-174h-180v174h-90z" />
    <glyph glyph-name="uni0494" unicode="&#x494;" horiz-adv-x="677" 
d="M65 0v700h464v-138h-278v-145q65 31 160 31q87 0 140 -33q86 -55 86 -197q0 -113 -54 -173q-51 -57 -155 -57q-55 0 -112 14v134q28 -12 64 -12q33 0 50 24q15 20 15 66v14q0 46 -23 69q-21 19 -60 19q-65 0 -111 -24v-292h-186z" />
    <glyph glyph-name="uni0495" unicode="&#x495;" horiz-adv-x="578" 
d="M56 0v521h418v-132h-238v-92h54q140 0 201.5 -58.5t61.5 -173.5q0 -127 -75.5 -196t-228.5 -69v125q62 0 90 25t28 105q0 71 -27 94t-94 23h-10v-172h-180z" />
    <glyph glyph-name="uni0496" unicode="&#x496;" horiz-adv-x="1029" 
d="M849 0h-41l-201 336h-9v-336h-186v336h-9l-201 -336h-207l236 374l-210 326h198l184 -303h9v303h186v-303h9l184 303h198l-210 -326l152 -242h98v-295h-180v163z" />
    <glyph glyph-name="uni0497" unicode="&#x497;" horiz-adv-x="859" 
d="M689 -147v147h-33l-135 260h-10v-260h-174v260h-10l-135 -260h-198l164 285l-140 236h184l125 -243h10v243h174v-243h10l125 243h184l-140 -236l88 -153h81v-279h-170z" />
    <glyph glyph-name="uni0498" unicode="&#x498;" horiz-adv-x="588" 
d="M347 -163h-180v157q-24 3 -58 11q-28 7 -84 26l11 134q39 -18 93 -33q50 -14 101 -14q59 0 90 18q43 24 43 77q0 43 -33 64q-30 20 -105 20h-76v129h76q65 0 93 20q30 22 30 62q0 36 -27 55q-25 19 -81 19q-52 0 -101 -12q-36 -8 -73 -26l-14 133q50 16 96 25
q56 10 120 10q130 0 194 -47q73 -53 73 -144q0 -63 -34 -102q-34 -41 -93 -55v-2q61 -9 100 -47q45 -43 45 -115q0 -102 -86 -160q-46 -31 -120 -43v-160z" />
    <glyph glyph-name="uni0499" unicode="&#x499;" horiz-adv-x="540" 
d="M148 -147v140q-24 3 -49 8q-43 9 -79 21l6 126q39 -22 85 -33q58 -13 102 -13q59 0 81 15q25 15 25 42q0 29 -27 42q-26 12 -75 12h-83v108h90q47 0 64 14q16 12 16 36q0 23 -26 36q-25 12 -70 12q-46 0 -93 -12q-37 -10 -71 -28l-12 121q39 15 80 22q61 11 138 11
q114 0 170 -34q68 -41 68 -112q0 -43 -27 -75q-28 -32 -71 -41v-2q50 -4 84 -38q31 -31 31 -85q0 -94 -106 -134q-31 -12 -81 -19v-140h-170z" />
    <glyph glyph-name="uni049A" unicode="&#x49a;" horiz-adv-x="698" 
d="M518 0h-34l-224 336h-9v-336h-186v700h186v-303h9l205 303h207l-236 -323l170 -245h92v-295h-180v163z" />
    <glyph glyph-name="uni049B" unicode="&#x49b;" horiz-adv-x="637" 
d="M467 -147v147h-37l-184 260h-10v-260h-180v521h180v-235h10l176 235h198l-188 -238l109 -151h96v-279h-170z" />
    <glyph glyph-name="uni049C" unicode="&#x49c;" horiz-adv-x="797" 
d="M302 179v122h-51v-301h-186v700h186v-276h51v118h117v-113l149 271h207l-221 -332l247 -368h-214l-168 295v-116h-117z" />
    <glyph glyph-name="uni049D" unicode="&#x49d;" horiz-adv-x="717" 
d="M284 110v95h-48v-205h-180v521h180v-184h48v88h98v-88h2l116 184h198l-176 -241l198 -280h-212l-125 205h-1v-95h-98z" />
    <glyph glyph-name="uni04A0" unicode="&#x4a0;" horiz-adv-x="806" 
d="M363 700v-303h9l205 303h207l-236 -323l262 -377h-214l-224 336h-9v-336h-186v562h-164v138h350z" />
    <glyph glyph-name="uni04A1" unicode="&#x4a1;" horiz-adv-x="733" 
d="M330 521v-235h10l176 235h198l-188 -238l210 -283h-212l-184 260h-10v-260h-180v389h-143v132h323z" />
    <glyph glyph-name="uni04A2" unicode="&#x4a2;" horiz-adv-x="746" 
d="M561 0h-90v300h-220v-300h-186v700h186v-268h220v268h186v-568h84v-295h-180v163z" />
    <glyph glyph-name="uni04A3" unicode="&#x4a3;" horiz-adv-x="688" 
d="M518 -147v147h-87v206h-195v-206h-180v521h180v-183h195v183h180v-389h77v-279h-170z" />
    <glyph glyph-name="uni04A4" unicode="&#x4a4;" horiz-adv-x="945" 
d="M65 0v700h186v-268h220v268h471v-138h-285v-562h-186v300h-220v-300h-186z" />
    <glyph glyph-name="uni04A5" unicode="&#x4a5;" horiz-adv-x="859" 
d="M56 0v521h180v-183h195v183h418v-132h-238v-389h-180v206h-195v-206h-180z" />
    <glyph glyph-name="uni04AA" unicode="&#x4aa;" horiz-adv-x="667" 
d="M525 -163h-180v159q-152 25 -229 119.5t-77 233.5q0 89 32 161t86 117q102 85 282 85q97 0 207 -36l-15 -151q-89 49 -181 49q-96 0 -156 -60q-63 -63 -63 -167q0 -102 63 -162q62 -59 170 -59q85 0 174 36l9 -146q-63 -18 -122 -24v-155z" />
    <glyph glyph-name="uni04AB" unicode="&#x4ab;" horiz-adv-x="500" 
d="M226 -147v150q-96 29 -145 96q-50 69 -50 161q0 147 114 222q76 51 195 51q76 0 137 -29l-13 -132q-48 29 -104 29q-57 0 -94 -30q-49 -41 -49 -111q0 -63 45 -103q42 -37 108 -37q54 0 107 25l4 -134q-39 -13 -85 -19v-139h-170z" />
    <glyph glyph-name="uni04AE" unicode="&#x4ae;" horiz-adv-x="722" 
d="M269 0v264l-258 436h214l137 -281l135 281h214l-256 -436v-264h-186z" />
    <glyph glyph-name="uni04AF" unicode="&#x4af;" horiz-adv-x="611" 
d="M423 521h180l-202 -521v-210h-180v210l-213 521h194l112 -340h2z" />
    <glyph glyph-name="uni04B0" unicode="&#x4b0;" horiz-adv-x="678" 
d="M105 182v132h112l-228 386h214l137 -281l135 281h214l-227 -386h113v-132h-142v-182h-186v182h-142z" />
    <glyph glyph-name="uni04B1" unicode="&#x4b1;" horiz-adv-x="611" 
d="M76 -65v127h119l-187 459h194l112 -340h2l107 340h180l-178 -459h131v-127h-155v-145h-180v145h-145z" />
    <glyph glyph-name="uni04B2" unicode="&#x4b2;" horiz-adv-x="720" 
d="M535 0h-45l-135 258l-134 -258h-211l226 368l-202 332h217l117 -231l120 231h204l-204 -332l143 -236h84v-295h-180v163z" />
    <glyph glyph-name="uni04B3" unicode="&#x4b3;" horiz-adv-x="588" 
d="M418 -147v147h-42l-87 162l-86 -162h-203l177 265l-163 256h213l77 -156l81 156h197l-163 -254l88 -135h81v-279h-170z" />
    <glyph glyph-name="uni04B6" unicode="&#x4b6;" horiz-adv-x="711" 
d="M436 0v258q-68 -20 -146 -20q-150 0 -207 74q-38 50 -38 135v253h186v-219q0 -66 20 -86q21 -25 79 -25q50 0 106 17v313h186v-568h84v-295h-180v163h-90z" />
    <glyph glyph-name="uni04B7" unicode="&#x4b7;" horiz-adv-x="644" 
d="M474 -147v147h-87v195q-70 -20 -149 -20q-128 0 -175 62q-29 39 -29 119v165h180v-139q0 -37 14 -54q18 -21 69 -21q47 0 90 13v201h180v-389h77v-279h-170z" />
    <glyph glyph-name="uni04B8" unicode="&#x4b8;" horiz-adv-x="733" 
d="M300 128v111q-255 0 -255 208v253h186v-219q0 -52 17.5 -76.5t51.5 -31.5v104h117v-102q43 5 65 12v313h186v-700h-186v258q-27 -7 -65 -12v-118h-117z" />
    <glyph glyph-name="uni04B9" unicode="&#x4b9;" horiz-adv-x="648" 
d="M261 96v79h-18q-116 0 -165.5 45t-49.5 136v165h180v-139q0 -59 53 -73v91h98v-92q34 4 53 10v203h180v-521h-180v195q-23 -7 -53 -12v-87h-98z" />
    <glyph glyph-name="uni04BA" unicode="&#x4ba;" horiz-adv-x="675" 
d="M251 700v-270q78 23 139 23q142 0 199 -74q38 -50 38 -135v-244h-186v210q0 66 -20 86q-21 25 -71 25q-44 0 -99 -20v-301h-186v700h186z" />
    <glyph glyph-name="uni04BB" unicode="&#x4bb;" horiz-adv-x="661" 
d="M56 0v750h180v-306h2q30 42 73 65q45 24 101 24q92 0 144 -54q55 -55 55 -154v-325h-180v252q0 83 -33 113q-19 18 -50 18q-58 0 -87 -45q-25 -40 -25 -118v-220h-180z" />
    <glyph glyph-name="uni04C3" unicode="&#x4c3;" horiz-adv-x="702" 
d="M475 117q0 37 -9.5 65t-24.5 43.5t-37 25t-43 12.5t-46 3h-64v-266h-186v700h186v-299h11l203 299h207l-232 -315q227 -37 227 -265q0 -164 -102.5 -245t-273.5 -81v138q88 0 136 46t48 139z" />
    <glyph glyph-name="uni04C4" unicode="&#x4c4;" horiz-adv-x="645" 
d="M236 521v-224h18l168 224h198l-190 -241q176 -40 176 -215q0 -127 -78.5 -196t-231.5 -69v125q63 0 93.5 25.5t30.5 104.5q0 117 -130 117h-54v-172h-180v521h180z" />
    <glyph glyph-name="uni04C7" unicode="&#x4c7;" horiz-adv-x="722" 
d="M292 -203v154q36 -17 84 -17q35 0 57 21q38 35 38 133v212h-220v-300h-186v700h186v-268h220v268h186v-668q0 -129 -61 -191q-61 -63 -172 -63q-48 0 -115 15z" />
    <glyph glyph-name="uni04C8" unicode="&#x4c8;" horiz-adv-x="667" 
d="M329 -213l4 116q15 -5 38 -5q37 0 50 30q10 22 10 72v206h-195v-206h-180v521h180v-183h195v183h180v-526q0 -92 -29 -143q-42 -74 -161 -74q-43 0 -92 9z" />
    <glyph glyph-name="uni04D0" unicode="&#x4d0;" horiz-adv-x="742" 
d="M-10 0l265 700h228l269 -700h-204l-52 149h-262l-55 -149h-189zM452 282l-83 274h-2l-90 -274h175zM465 917l93 -12q2 -65 -42 -107q-51 -48 -149 -48q-97 0 -148 48q-42 40 -44 107l94 12q6 -28 22 -43q23 -22 76 -22t76 22q16 15 22 43z" />
    <glyph glyph-name="uni04D1" unicode="&#x4d1;" horiz-adv-x="607" 
d="M558 0h-163l-2 82h-2q-19 -31 -47 -55q-47 -39 -118 -39q-85 0 -138 41q-57 45 -57 121q0 102 88 147q63 32 181 32q40 0 84 -5q1 37 -23 61q-29 28 -98 28q-88 0 -164 -39l-3 122q91 37 205 37q115 0 179 -50q72 -57 72 -166v-194q0 -71 6 -123zM199 165q0 -25 20 -41
q19 -16 53 -16q53 0 85 42q25 33 27 81q-28 4 -70 4q-60 0 -86 -17q-29 -19 -29 -53zM394 744l86 -12q2 -64 -39 -104q-47 -46 -138 -46t-138 46q-41 40 -39 104l86 12q4 -25 21 -42q22 -21 70 -21t70 21q17 17 21 42z" />
    <glyph glyph-name="uni04D2" unicode="&#x4d2;" horiz-adv-x="742" 
d="M-10 0l265 700h228l269 -700h-204l-52 149h-262l-55 -149h-189zM452 282l-83 274h-2l-90 -274h175zM420 740v140h150v-140h-150zM180 740v140h150v-140h-150z" />
    <glyph glyph-name="uni04D3" unicode="&#x4d3;" horiz-adv-x="607" 
d="M558 0h-163l-2 82h-2q-19 -31 -47 -55q-47 -39 -118 -39q-85 0 -138 41q-57 45 -57 121q0 102 88 147q63 32 181 32q40 0 84 -5q1 37 -23 61q-29 28 -98 28q-88 0 -164 -39l-3 122q91 37 205 37q115 0 179 -50q72 -57 72 -166v-194q0 -71 6 -123zM199 165q0 -25 20 -41
q19 -16 53 -16q53 0 85 42q25 33 27 81q-28 4 -70 4q-60 0 -86 -17q-29 -19 -29 -53zM345 606v132h144v-132h-144zM117 606v132h144v-132h-144z" />
    <glyph glyph-name="uni04D4" unicode="&#x4d4;" horiz-adv-x="1009" 
d="M-4 0l365 700h588v-132h-286v-145h268v-132h-268v-159h298v-132h-484v149h-213l-73 -149h-195zM477 282v286h-9l-139 -286h148z" />
    <glyph glyph-name="uni04D5" unicode="&#x4d5;" horiz-adv-x="944" 
d="M869 148v-127q-89 -33 -191 -33q-67 -1 -130 21q-31 12 -58 36q-26 22 -49 60q-38 -68 -95 -92q-57 -25 -129 -25q-80 0 -136 40q-58 40 -59 125q0 58 29 96q29 37 70 53q45 19 89 23q48 5 81 5q58 -2 84 -5q-2 52 -34 71q-36 17 -85 17q-89 2 -166 -39l-3 123
q94 36 208 36q53 -1 100 -15q47 -15 75 -49q70 63 184 64q143 -1 205 -87q59 -85 58 -205v-33h-360q18 -102 153 -100q75 -1 159 40zM375 234h-69q-52 0 -83 -15q-33 -17 -33 -53q0 -27 22 -42q19 -16 52 -16q52 1 82 40q29 38 29 86zM555 310h200q0 46 -23 78
q-13 16 -30 23q-21 8 -47 8q-48 -2 -72 -31q-25 -31 -28 -78z" />
    <glyph glyph-name="uni04D6" unicode="&#x4d6;" horiz-adv-x="616" 
d="M65 0v700h492v-132h-306v-145h289v-132h-289v-159h317v-132h-503zM404 917l93 -12q2 -65 -42 -107q-51 -48 -149 -48q-97 0 -148 48q-42 40 -44 107l94 12q6 -28 22 -43q23 -22 76 -22t76 22q16 15 22 43z" />
    <glyph glyph-name="uni04D7" unicode="&#x4d7;" horiz-adv-x="611" 
d="M573 208h-360q6 -49 42 -73q38 -27 114 -27t156 40v-127q-79 -33 -187 -33q-142 0 -223 75q-84 78 -84 200q0 130 85 204q76 66 195 66q127 0 195 -78q67 -77 67 -214v-33zM211 310h200q2 43 -26 80q-25 29 -72 29q-46 0 -73 -30q-29 -33 -29 -79zM396 744l86 -12
q2 -64 -39 -104q-47 -46 -138 -46t-138 46q-41 40 -39 104l86 12q4 -25 21 -42q22 -21 70 -21t70 21q17 17 21 42z" />
    <glyph glyph-name="uni04D8" unicode="&#x4d8;" horiz-adv-x="760" 
d="M42 399h483q-4 77 -56 127q-29 29 -73 42q-34 11 -86 11q-92 0 -172 -49l-19 143q98 39 207 39q95 0 167 -24q63 -21 110 -60q118 -99 118 -278q0 -174 -93 -269q-90 -93 -258 -93q-76 0 -125 16q-75 25 -122 77q-40 45 -62 114.5t-22 146.5q0 28 3 57zM527 287h-294
q-2 -69 30 -115q21 -30 51 -43q29 -13 65 -13q73 0 114 59q32 47 34 112z" />
    <glyph glyph-name="afii10846" unicode="&#x4d9;" horiz-adv-x="611" 
d="M38 313h360q-6 49 -42 73q-38 27 -114 27t-156 -40v127q79 33 187 33q142 0 223 -75q84 -78 84 -200q0 -130 -85 -204q-76 -66 -195 -66q-127 0 -195 78q-67 77 -67 214v33zM400 211h-200q-2 -43 26 -80q25 -29 72 -29q46 0 73 30q29 33 29 79z" />
    <glyph glyph-name="uni04DA" unicode="&#x4da;" horiz-adv-x="760" 
d="M42 399h483q-4 77 -56 127q-29 29 -73 42q-34 11 -86 11q-92 0 -172 -49l-19 143q98 39 207 39q95 0 167 -24q63 -21 110 -60q118 -99 118 -278q0 -174 -93 -269q-90 -93 -258 -93q-76 0 -125 16q-75 25 -122 77q-40 45 -62 114.5t-22 146.5q0 28 3 57zM527 287h-294
q-2 -69 30 -115q21 -30 51 -43q29 -13 65 -13q73 0 114 59q32 47 34 112zM404 740v140h150v-140h-150zM164 740v140h150v-140h-150z" />
    <glyph glyph-name="uni04DB" unicode="&#x4db;" horiz-adv-x="611" 
d="M38 313h360q-6 49 -42 73q-38 27 -114 27t-156 -40v127q79 33 187 33q142 0 223 -75q84 -78 84 -200q0 -130 -85 -204q-76 -66 -195 -66q-127 0 -195 78q-67 77 -67 214v33zM400 211h-200q-2 -43 26 -80q25 -29 72 -29q46 0 73 30q29 33 29 79zM347 606v132h144v-132
h-144zM119 606v132h144v-132h-144z" />
    <glyph glyph-name="uni04DC" unicode="&#x4dc;" horiz-adv-x="1010" 
d="M598 700v-303h9l184 303h198l-210 -326l236 -374h-207l-201 336h-9v-336h-186v336h-9l-201 -336h-207l236 374l-210 326h198l184 -303h9v303h186zM550 740v140h150v-140h-150zM310 740v140h150v-140h-150z" />
    <glyph glyph-name="uni04DD" unicode="&#x4dd;" horiz-adv-x="848" 
d="M511 521v-243h10l125 243h184l-140 -236l164 -285h-198l-135 260h-10v-260h-174v260h-10l-135 -260h-198l164 285l-140 236h184l125 -243h10v243h174zM466 606v132h144v-132h-144zM238 606v132h144v-132h-144z" />
    <glyph glyph-name="uni04DE" unicode="&#x4de;" horiz-adv-x="588" 
d="M149 297v129h76q65 0 93 20q30 22 30 62q0 36 -27 55q-25 19 -81 19q-52 0 -101 -12q-36 -8 -73 -26l-14 133q50 16 96 25q56 10 120 10q130 0 194 -47q73 -53 73 -144q0 -63 -34 -102q-34 -41 -93 -55v-2q61 -9 100 -47q45 -43 45 -115q0 -102 -86 -160
q-77 -52 -222 -52q-72 0 -136 17q-28 7 -84 26l11 134q39 -18 93 -33q50 -14 101 -14q59 0 90 18q43 24 43 77q0 43 -33 64q-30 20 -105 20h-76zM339 740v140h150v-140h-150zM99 740v140h150v-140h-150z" />
    <glyph glyph-name="uni04DF" unicode="&#x4df;" horiz-adv-x="540" 
d="M134 213v108h90q47 0 64 14q16 12 16 36q0 23 -26 36q-25 12 -70 12q-46 0 -93 -12q-37 -10 -71 -28l-12 121q39 15 80 22q61 11 138 11q114 0 170 -34q68 -41 68 -112q0 -43 -27 -75q-28 -32 -71 -41v-2q50 -4 84 -38q31 -31 31 -85q0 -94 -106 -134q-64 -24 -162 -24
q-76 0 -138 13q-43 9 -79 21l6 126q39 -22 85 -33q58 -13 102 -13q59 0 81 15q25 15 25 42q0 29 -27 42q-26 12 -75 12h-83zM312 606v132h144v-132h-144zM84 606v132h144v-132h-144z" />
    <glyph glyph-name="uni04E2" unicode="&#x4e2;" horiz-adv-x="755" 
d="M65 0v700h186v-300l-6 -172h6l216 472h223v-700h-186v300l6 172h-6l-216 -472h-223zM190 773v84h375v-84h-375z" />
    <glyph glyph-name="uni04E3" unicode="&#x4e3;" horiz-adv-x="696" 
d="M56 521h180v-157l-5 -164h3l203 321h203v-521h-180v155l5 166h-3l-203 -321h-203v521zM160 623v84h375v-84h-375z" />
    <glyph glyph-name="uni04E4" unicode="&#x4e4;" horiz-adv-x="755" 
d="M65 0v700h186v-300l-6 -172h6l216 472h223v-700h-186v300l6 172h-6l-216 -472h-223zM422 740v140h150v-140h-150zM182 740v140h150v-140h-150z" />
    <glyph glyph-name="uni04E5" unicode="&#x4e5;" horiz-adv-x="696" 
d="M56 521h180v-157l-5 -164h3l203 321h203v-521h-180v155l5 166h-3l-203 -321h-203v521zM390 606v132h144v-132h-144zM162 606v132h144v-132h-144z" />
    <glyph glyph-name="uni04E6" unicode="&#x4e6;" horiz-adv-x="778" 
d="M389 712q166 0 258 -93t92 -269t-92 -269t-258 -93t-258 93t-92 269t92 269t258 93zM389 574q-75 0 -115 -57q-43 -58 -43 -167t43 -167q40 -57 115 -57t115 57q43 58 43 167t-43 167q-40 57 -115 57zM434 740v140h150v-140h-150zM194 740v140h150v-140h-150z" />
    <glyph glyph-name="uni04E7" unicode="&#x4e7;" horiz-adv-x="668" 
d="M334 533q125 0 207 -64q96 -75 96 -209t-96 -209q-79 -63 -207 -63t-207 63q-96 75 -96 209t96 209q82 64 207 64zM334 407q-50 0 -81 -34q-36 -39 -36 -113t36 -113q31 -34 81 -34t81 34q36 39 36 113t-36 113q-31 34 -81 34zM376 606v132h144v-132h-144zM148 606v132
h144v-132h-144z" />
    <glyph glyph-name="uni04E8" unicode="&#x4e8;" horiz-adv-x="778" 
d="M389 712q166 0 258 -93t92 -269t-92 -269t-258 -93t-258 93t-92 269t92 269t258 93zM237 422h304q-7 64 -37 105q-40 57 -115 57t-115 -57q-30 -41 -37 -105zM545 310h-312q2 -82 41 -137q40 -57 115 -57t115 57q39 55 41 137z" />
    <glyph glyph-name="uni04E9" unicode="&#x4e9;" horiz-adv-x="668" 
d="M334 533q125 0 207 -64q96 -75 96 -209t-96 -209q-79 -63 -207 -63t-207 63q-96 75 -96 209t96 209q82 64 207 64zM223 314h222q-7 34 -30 59q-31 34 -81 34q-49 0 -81 -34q-25 -27 -30 -59zM447 215h-226q6 -40 30 -68q30 -34 83 -34q52 0 83 34q26 29 30 68z" />
    <glyph glyph-name="uni04EA" unicode="&#x4ea;" horiz-adv-x="778" 
d="M389 712q166 0 258 -93t92 -269t-92 -269t-258 -93t-258 93t-92 269t92 269t258 93zM237 422h304q-7 64 -37 105q-40 57 -115 57t-115 -57q-30 -41 -37 -105zM545 310h-312q2 -82 41 -137q40 -57 115 -57t115 57q39 55 41 137zM434 740v140h150v-140h-150zM194 740v140
h150v-140h-150z" />
    <glyph glyph-name="uni04EB" unicode="&#x4eb;" horiz-adv-x="668" 
d="M334 533q125 0 207 -64q96 -75 96 -209t-96 -209q-79 -63 -207 -63t-207 63q-96 75 -96 209t96 209q82 64 207 64zM223 314h222q-7 34 -30 59q-31 34 -81 34q-49 0 -81 -34q-25 -27 -30 -59zM447 215h-226q6 -40 30 -68q30 -34 83 -34q52 0 83 34q26 29 30 68zM376 606
v132h144v-132h-144zM148 606v132h144v-132h-144z" />
    <glyph glyph-name="uni04EE" unicode="&#x4ee;" horiz-adv-x="692" 
d="M-2 700h214l109 -235l45 -113h3q29 89 53 147l86 201h194l-274 -580q-12 -24 -36 -56.5t-47 -46.5q-45 -29 -119 -29q-57 0 -116 22l13 126q37 -15 67 -15q29 0 46 12q20 14 28 31l12 27zM155 773v84h375v-84h-375z" />
    <glyph glyph-name="uni04EF" unicode="&#x4ef;" horiz-adv-x="605" 
d="M45 -210l12 137q29 -11 65 -11q43 0 66 21q20 16 31 51l-211 533h194l112 -340h2l107 340h180l-200 -507q-21 -55 -35 -85q-35 -78 -84 -114q-51 -37 -140 -37q-41 0 -99 12zM115 623v84h375v-84h-375z" />
    <glyph glyph-name="uni04F0" unicode="&#x4f0;" horiz-adv-x="692" 
d="M-2 700h214l109 -235l45 -113h3q29 89 53 147l86 201h194l-274 -580q-12 -24 -36 -56.5t-47 -46.5q-45 -29 -119 -29q-57 0 -116 22l13 126q37 -15 67 -15q29 0 46 12q20 14 28 31l12 27zM388 740v140h150v-140h-150zM148 740v140h150v-140h-150z" />
    <glyph glyph-name="uni04F1" unicode="&#x4f1;" horiz-adv-x="605" 
d="M45 -210l12 137q29 -11 65 -11q43 0 66 21q20 16 31 51l-211 533h194l112 -340h2l107 340h180l-200 -507q-21 -55 -35 -85q-35 -78 -84 -114q-51 -37 -140 -37q-41 0 -99 12zM344 606v132h144v-132h-144zM116 606v132h144v-132h-144z" />
    <glyph glyph-name="uni04F2" unicode="&#x4f2;" horiz-adv-x="692" 
d="M-2 700h214l109 -235l45 -113h3q29 89 53 147l86 201h194l-274 -580q-12 -24 -36 -56.5t-47 -46.5q-45 -29 -119 -29q-57 0 -116 22l13 126q37 -15 67 -15q29 0 46 12q20 14 28 31l12 27zM240 880h180l-138 -140h-114zM484 880h180l-139 -140h-114z" />
    <glyph glyph-name="uni04F3" unicode="&#x4f3;" horiz-adv-x="605" 
d="M45 -210l12 137q29 -11 65 -11q43 0 66 21q20 16 31 51l-211 533h194l112 -340h2l107 340h180l-200 -507q-21 -55 -35 -85q-35 -78 -84 -114q-51 -37 -140 -37q-41 0 -99 12zM205 750h176l-136 -160h-110zM443 750h176l-136 -160h-110z" />
    <glyph glyph-name="uni04F4" unicode="&#x4f4;" horiz-adv-x="687" 
d="M436 0v258q-68 -20 -146 -20q-150 0 -207 74q-38 50 -38 135v253h186v-219q0 -66 20 -86q21 -25 79 -25q50 0 106 17v313h186v-700h-186zM388 740v140h150v-140h-150zM148 740v140h150v-140h-150z" />
    <glyph glyph-name="uni04F5" unicode="&#x4f5;" horiz-adv-x="623" 
d="M387 521h180v-521h-180v195q-70 -20 -149 -20q-128 0 -175 62q-29 39 -29 119v165h180v-139q0 -37 14 -54q18 -21 69 -21q47 0 90 13v201zM353 606v132h144v-132h-144zM125 606v132h144v-132h-144z" />
    <glyph glyph-name="uni04F8" unicode="&#x4f8;" horiz-adv-x="960" 
d="M65 0v700h186v-262h84q45 0 70 -1t71 -13.5t76 -37.5q68 -58 68 -170q0 -106 -78 -165q-67 -51 -192 -51h-285zM251 306v-174h52q74 0 102 22q29 24 29 68q0 47 -34 68q-25 16 -87 16h-62zM709 0v700h186v-700h-186zM525 740v140h150v-140h-150zM285 740v140h150v-140
h-150z" />
    <glyph glyph-name="uni04F9" unicode="&#x4f9;" horiz-adv-x="897" 
d="M56 521h180v-164h141q105 0 158 -46q54 -48 54 -136t-59 -133q-55 -42 -160 -42h-314v521zM236 237v-117h88q40 0 59 14q20 14 20 45q0 32 -24 47q-17 11 -47 11h-96zM661 0v521h180v-521h-180zM490 606v132h144v-132h-144zM262 606v132h144v-132h-144z" />
    <glyph glyph-name="uni1E9E" unicode="&#x1e9e;" horiz-adv-x="710" 
d="M65 0v464q0 58 16 103.5t64 82.5q75 60 217 60q168 0 278 -85l-159 -199q86 -3 138 -52q56 -52 56 -156q0 -110 -65 -173q-60 -57 -181 -57q-63 0 -125 13v135q37 -12 82 -12q46 0 71 24q26 24 26 71q0 52 -29 75q-24 20 -74 20h-64v91l113 146q-19 14 -47 21
q-17 4 -39 4q-43 0 -70 -29q-11 -12 -16 -27.5t-5.5 -23.5t-0.5 -31v-465h-186z" />
    <glyph glyph-name="uni2010" unicode="&#x2010;" horiz-adv-x="480" 
d="M80 354h320v-140h-320v140z" />
    <glyph glyph-name="uni2011" unicode="&#x2011;" horiz-adv-x="480" 
d="M80 354h320v-140h-320v140z" />
    <glyph glyph-name="figuredash" unicode="&#x2012;" horiz-adv-x="780" 
d="M100 426h580v-110h-580v110z" />
    <glyph glyph-name="endash" unicode="&#x2013;" horiz-adv-x="780" 
d="M100 340h580v-110h-580v110z" />
    <glyph glyph-name="emdash" unicode="&#x2014;" horiz-adv-x="1000" 
d="M100 340h800v-110h-800v110z" />
    <glyph glyph-name="afii00208" unicode="&#x2015;" horiz-adv-x="1000" 
d="M100 340h800v-110h-800v110z" />
    <glyph glyph-name="quoteleft" unicode="&#x2018;" horiz-adv-x="333" 
d="M284 700l-67 -272h-168l98 272h137z" />
    <glyph glyph-name="quoteright" unicode="&#x2019;" horiz-adv-x="355" 
d="M49 428l67 272h168l-98 -272h-137z" />
    <glyph glyph-name="quotesinglbase" unicode="&#x201a;" horiz-adv-x="400" 
d="M49 -109l67 271h168l-98 -271h-137z" />
    <glyph glyph-name="quotedblleft" unicode="&#x201c;" horiz-adv-x="611" 
d="M308 700l-67 -272h-168l98 272h137zM538 700l-67 -272h-168l98 272h137z" />
    <glyph glyph-name="quotedblright" unicode="&#x201d;" horiz-adv-x="609" 
d="M73 428l67 272h168l-98 -272h-137zM303 428l67 272h168l-98 -272h-137z" />
    <glyph glyph-name="quotedblbase" unicode="&#x201e;" horiz-adv-x="678" 
d="M73 -109l67 271h169l-98 -271h-138zM302 -109l67 271h169l-98 -271h-138z" />
    <glyph glyph-name="dagger" unicode="&#x2020;" horiz-adv-x="611" 
d="M225 0v400h-173v133h173v167h162v-167h173v-133h-173v-400h-162z" />
    <glyph glyph-name="daggerdbl" unicode="&#x2021;" horiz-adv-x="611" 
d="M225 0v135h-173v121h173v187h-173v121h173v136h162v-136h173v-121h-173v-187h173v-121h-173v-135h-162z" />
    <glyph glyph-name="bullet" unicode="&#x2022;" horiz-adv-x="500" 
d="M76 349q2 75 52 124q47 48 122 50q76 -2 124 -50q49 -49 51 -124q-1 -73 -51 -123q-49 -50 -124 -52q-74 2 -122 52q-50 49 -52 123z" />
    <glyph glyph-name="ellipsis" unicode="&#x2026;" horiz-adv-x="1000" 
d="M83 0v162h168v-162h-168zM416 0v162h168v-162h-168zM749 0v162h168v-162h-168z" />
    <glyph glyph-name="perthousand" unicode="&#x2030;" horiz-adv-x="1000" 
d="M156 319q-90 2 -122 59q-17 27 -25 63q-8 37 -8 75q-1 82 32 138t123 58q87 -2 121 -55t34 -141q1 -83 -33 -138q-34 -57 -122 -59zM156 409q16 0 25 12q8 11 11 27q5 40 5 68q0 29 -5 69q-3 16 -11 27q-9 10 -25 10q-15 0 -22 -10q-8 -10 -13 -27q-7 -36 -6 -69
q-1 -32 6 -68q5 -17 13 -27q8 -12 22 -12zM97 -22l387 744h80l-389 -744h-78zM505 -12q-90 2 -122 59q-17 27 -25 63q-8 37 -8 75q-1 82 32 138t123 58q87 -2 121 -55t34 -141q1 -83 -33 -138q-34 -57 -122 -59zM505 78q16 0 25 12q8 11 11 27q5 40 5 68q0 29 -5 69
q-3 16 -11 27q-9 10 -25 10q-15 0 -22 -10q-8 -10 -13 -27q-8 -36 -6 -69q-1 -32 6 -68q5 -17 13 -27q7 -12 22 -12zM844 -12q-90 2 -122 59q-17 27 -25 63q-8 37 -8 75q-1 82 32 138t123 58q87 -2 121 -55t34 -141q1 -83 -33 -138q-34 -57 -122 -59zM844 78q16 0 25 12
q8 11 11 27q5 40 5 68q0 29 -5 69q-3 16 -11 27q-9 10 -25 10q-15 0 -22 -10q-8 -10 -13 -27q-7 -36 -6 -69q-1 -32 6 -68q5 -17 13 -27q8 -12 22 -12z" />
    <glyph glyph-name="guilsinglleft" unicode="&#x2039;" horiz-adv-x="333" 
d="M147 65l-119 205l119 204h148l-110 -204l110 -205h-148z" />
    <glyph glyph-name="guilsinglright" unicode="&#x203a;" horiz-adv-x="333" 
d="M186 474l119 -204l-119 -205h-148l110 205l-110 204h148z" />
    <glyph glyph-name="fraction" unicode="&#x2044;" horiz-adv-x="156" 
d="M-170 -22l387 744h109l-387 -744h-109z" />
    <glyph glyph-name="Euro" unicode="&#x20ac;" horiz-adv-x="651" 
d="M-25 383l25 80h61q23 102 94 164q97 85 282 85q104 0 214 -39l-45 -138q-73 39 -158 39q-65 0 -113.5 -31t-70.5 -80h320l-26 -80h-317q-5 -31 0 -66h297l-26 -80h-249q55 -111 199 -111q96 0 162 36l9 -146q-89 -28 -200 -28q-163 0 -254.5 72t-116.5 177h-87l25 80h48
q-2 31 0 66h-73z" />
    <glyph glyph-name="uni20B4" unicode="&#x20b4;" 
d="M29 221h58q-3 -20 -3 -43q0 -92 65.5 -141t178.5 -49q107 0 203 23l-16 154q-77 -39 -148 -39q-91 0 -91 79q0 11 1 16h306v102h-554v-102zM583 387h-554v102h307v9q0 38 -27 57t-72 19q-58 0 -113 -25l-12 144q81 19 177 19q115 0 177 -54.5t62 -124.5q0 -25 -2 -44h57
v-102z" />
    <glyph glyph-name="uni20B6" unicode="&#x20b6;" 
d="M300 568v-183h31q40 0 59 25q17 23 17 67q0 48 -21 71q-19 20 -55 20h-31zM300 253v-61h165v-102h-165v-90h-182v90h-95v102h95v61h-95v132h95v315h200q156 0 220 -68q51 -57 51 -158q0 -86 -45 -142q-64 -79 -195 -79h-49z" />
    <glyph glyph-name="uni20B7" unicode="&#x20b7;" 
d="M300 568v-183h31q40 0 59 25q17 23 17 67q0 48 -21 71q-19 20 -55 20h-31zM300 253v-61h165v-102h-165v-90h-182v90h-95v102h95v61h-95v132h95v315h200q156 0 220 -68q51 -57 51 -158q0 -86 -45 -142q-64 -79 -195 -79h-49z" />
    <glyph glyph-name="uni20B8" unicode="&#x20b8;" 
d="M213 0v427h-172v105h530v-105h-172v-427h-186zM571 595h-530v105h530v-105z" />
    <glyph glyph-name="uni20B9" unicode="&#x20b9;" 
d="M300 568v-183h31q40 0 59 25q17 23 17 67q0 48 -21 71q-19 20 -55 20h-31zM300 253v-61h165v-102h-165v-90h-182v90h-95v102h95v61h-95v132h95v315h200q156 0 220 -68q51 -57 51 -158q0 -86 -45 -142q-64 -79 -195 -79h-49z" />
    <glyph glyph-name="uni20BA" unicode="&#x20ba;" 
d="M300 568v-183h31q40 0 59 25q17 23 17 67q0 48 -21 71q-19 20 -55 20h-31zM300 253v-61h165v-102h-165v-90h-182v90h-95v102h95v61h-95v132h95v315h200q156 0 220 -68q51 -57 51 -158q0 -86 -45 -142q-64 -79 -195 -79h-49z" />
    <glyph glyph-name="uni20BB" unicode="&#x20bb;" 
d="M300 568v-183h31q40 0 59 25q17 23 17 67q0 48 -21 71q-19 20 -55 20h-31zM300 253v-61h165v-102h-165v-90h-182v90h-95v102h95v61h-95v132h95v315h200q156 0 220 -68q51 -57 51 -158q0 -86 -45 -142q-64 -79 -195 -79h-49z" />
    <glyph glyph-name="uni20BC" unicode="&#x20bc;" 
d="M300 568v-183h31q40 0 59 25q17 23 17 67q0 48 -21 71q-19 20 -55 20h-31zM300 253v-61h165v-102h-165v-90h-182v90h-95v102h95v61h-95v132h95v315h200q156 0 220 -68q51 -57 51 -158q0 -86 -45 -142q-64 -79 -195 -79h-49z" />
    <glyph glyph-name="uni20BD" unicode="&#x20bd;" 
d="M300 568v-183h31q40 0 59 25q17 23 17 67q0 48 -21 71q-19 20 -55 20h-31zM300 253v-61h165v-102h-165v-90h-182v90h-95v102h95v61h-95v132h95v315h200q156 0 220 -68q51 -57 51 -158q0 -86 -45 -142q-64 -79 -195 -79h-49z" />
    <glyph glyph-name="uni20BE" unicode="&#x20be;" 
d="M300 568v-183h31q40 0 59 25q17 23 17 67q0 48 -21 71q-19 20 -55 20h-31zM300 253v-61h165v-102h-165v-90h-182v90h-95v102h95v61h-95v132h95v315h200q156 0 220 -68q51 -57 51 -158q0 -86 -45 -142q-64 -79 -195 -79h-49z" />
    <glyph glyph-name="uni20BF" unicode="&#x20bf;" 
d="M300 568v-183h31q40 0 59 25q17 23 17 67q0 48 -21 71q-19 20 -55 20h-31zM300 253v-61h165v-102h-165v-90h-182v90h-95v102h95v61h-95v132h95v315h200q156 0 220 -68q51 -57 51 -158q0 -86 -45 -142q-64 -79 -195 -79h-49z" />
    <glyph glyph-name="uni20C0" unicode="&#x20c0;" 
d="M300 568v-183h31q40 0 59 25q17 23 17 67q0 48 -21 71q-19 20 -55 20h-31zM300 253v-61h165v-102h-165v-90h-182v90h-95v102h95v61h-95v132h95v315h200q156 0 220 -68q51 -57 51 -158q0 -86 -45 -142q-64 -79 -195 -79h-49z" />
    <glyph glyph-name="uni20C1" unicode="&#x20c1;" 
d="M300 568v-183h31q40 0 59 25q17 23 17 67q0 48 -21 71q-19 20 -55 20h-31zM300 253v-61h165v-102h-165v-90h-182v90h-95v102h95v61h-95v132h95v315h200q156 0 220 -68q51 -57 51 -158q0 -86 -45 -142q-64 -79 -195 -79h-49z" />
    <glyph glyph-name="uni20C2" unicode="&#x20c2;" 
d="M300 568v-183h31q40 0 59 25q17 23 17 67q0 48 -21 71q-19 20 -55 20h-31zM300 253v-61h165v-102h-165v-90h-182v90h-95v102h95v61h-95v132h95v315h200q156 0 220 -68q51 -57 51 -158q0 -86 -45 -142q-64 -79 -195 -79h-49z" />
    <glyph glyph-name="uni20C3" unicode="&#x20c3;" 
d="M300 568v-183h31q40 0 59 25q17 23 17 67q0 48 -21 71q-19 20 -55 20h-31zM300 253v-61h165v-102h-165v-90h-182v90h-95v102h95v61h-95v132h95v315h200q156 0 220 -68q51 -57 51 -158q0 -86 -45 -142q-64 -79 -195 -79h-49z" />
    <glyph glyph-name="uni20C4" unicode="&#x20c4;" 
d="M300 568v-183h31q40 0 59 25q17 23 17 67q0 48 -21 71q-19 20 -55 20h-31zM300 253v-61h165v-102h-165v-90h-182v90h-95v102h95v61h-95v132h95v315h200q156 0 220 -68q51 -57 51 -158q0 -86 -45 -142q-64 -79 -195 -79h-49z" />
    <glyph glyph-name="uni20C5" unicode="&#x20c5;" 
d="M300 568v-183h31q40 0 59 25q17 23 17 67q0 48 -21 71q-19 20 -55 20h-31zM300 253v-61h165v-102h-165v-90h-182v90h-95v102h95v61h-95v132h95v315h200q156 0 220 -68q51 -57 51 -158q0 -86 -45 -142q-64 -79 -195 -79h-49z" />
    <glyph glyph-name="uni20C6" unicode="&#x20c6;" 
d="M300 568v-183h31q40 0 59 25q17 23 17 67q0 48 -21 71q-19 20 -55 20h-31zM300 253v-61h165v-102h-165v-90h-182v90h-95v102h95v61h-95v132h95v315h200q156 0 220 -68q51 -57 51 -158q0 -86 -45 -142q-64 -79 -195 -79h-49z" />
    <glyph glyph-name="uni20C7" unicode="&#x20c7;" 
d="M300 568v-183h31q40 0 59 25q17 23 17 67q0 48 -21 71q-19 20 -55 20h-31zM300 253v-61h165v-102h-165v-90h-182v90h-95v102h95v61h-95v132h95v315h200q156 0 220 -68q51 -57 51 -158q0 -86 -45 -142q-64 -79 -195 -79h-49z" />
    <glyph glyph-name="uni20C8" unicode="&#x20c8;" 
d="M300 568v-183h31q40 0 59 25q17 23 17 67q0 48 -21 71q-19 20 -55 20h-31zM300 253v-61h165v-102h-165v-90h-182v90h-95v102h95v61h-95v132h95v315h200q156 0 220 -68q51 -57 51 -158q0 -86 -45 -142q-64 -79 -195 -79h-49z" />
    <glyph glyph-name="uni20C9" unicode="&#x20c9;" 
d="M300 568v-183h31q40 0 59 25q17 23 17 67q0 48 -21 71q-19 20 -55 20h-31zM300 253v-61h165v-102h-165v-90h-182v90h-95v102h95v61h-95v132h95v315h200q156 0 220 -68q51 -57 51 -158q0 -86 -45 -142q-64 -79 -195 -79h-49z" />
    <glyph glyph-name="uni20CA" unicode="&#x20ca;" 
d="M300 568v-183h31q40 0 59 25q17 23 17 67q0 48 -21 71q-19 20 -55 20h-31zM300 253v-61h165v-102h-165v-90h-182v90h-95v102h95v61h-95v132h95v315h200q156 0 220 -68q51 -57 51 -158q0 -86 -45 -142q-64 -79 -195 -79h-49z" />
    <glyph glyph-name="uni20CB" unicode="&#x20cb;" 
d="M300 568v-183h31q40 0 59 25q17 23 17 67q0 48 -21 71q-19 20 -55 20h-31zM300 253v-61h165v-102h-165v-90h-182v90h-95v102h95v61h-95v132h95v315h200q156 0 220 -68q51 -57 51 -158q0 -86 -45 -142q-64 -79 -195 -79h-49z" />
    <glyph glyph-name="uni20CC" unicode="&#x20cc;" 
d="M300 568v-183h31q40 0 59 25q17 23 17 67q0 48 -21 71q-19 20 -55 20h-31zM300 253v-61h165v-102h-165v-90h-182v90h-95v102h95v61h-95v132h95v315h200q156 0 220 -68q51 -57 51 -158q0 -86 -45 -142q-64 -79 -195 -79h-49z" />
    <glyph glyph-name="uni20CD" unicode="&#x20cd;" 
d="M300 568v-183h31q40 0 59 25q17 23 17 67q0 48 -21 71q-19 20 -55 20h-31zM300 253v-61h165v-102h-165v-90h-182v90h-95v102h95v61h-95v132h95v315h200q156 0 220 -68q51 -57 51 -158q0 -86 -45 -142q-64 -79 -195 -79h-49z" />
    <glyph glyph-name="uni20CE" unicode="&#x20ce;" 
d="M300 568v-183h31q40 0 59 25q17 23 17 67q0 48 -21 71q-19 20 -55 20h-31zM300 253v-61h165v-102h-165v-90h-182v90h-95v102h95v61h-95v132h95v315h200q156 0 220 -68q51 -57 51 -158q0 -86 -45 -142q-64 -79 -195 -79h-49z" />
    <glyph glyph-name="uni20CF" unicode="&#x20cf;" 
d="M300 568v-183h31q40 0 59 25q17 23 17 67q0 48 -21 71q-19 20 -55 20h-31zM300 253v-61h165v-102h-165v-90h-182v90h-95v102h95v61h-95v132h95v315h200q156 0 220 -68q51 -57 51 -158q0 -86 -45 -142q-64 -79 -195 -79h-49z" />
    <glyph glyph-name="afii61352" unicode="&#x2116;" horiz-adv-x="1070" 
d="M68 0v700h223l219 -479v479h163v-700h-222l-219 479v-479h-164zM745 565q0 60 38 101q44 46 109 46q63 0 105 -42t42 -105t-40 -104q-41 -44 -107 -44q-65 0 -107 45q-40 40 -40 103zM821 565q0 -28 17 -48q22 -24 54 -24q33 0 51 19q20 20 20 53q0 29 -20 51
q-20 20 -51 20q-29 0 -49 -18q-22 -20 -22 -53zM749 290v75h286v-75h-286z" />
    <glyph glyph-name="uni2117" unicode="&#x2117;" horiz-adv-x="800" 
d="M400 -12q-147 0 -254 107t-107 255q0 150 107 257q105 105 254 105q151 0 256 -105t105 -257q0 -149 -105 -255q-107 -107 -256 -107zM400 90q104 0 175 75q72 76 72 185q0 112 -72 187q-69 73 -175 73q-101 0 -174 -73q-73 -76 -73 -187q0 -110 73 -185q72 -75 174 -75z
M276 154v395h150q84 0 117 -29q34 -30 34 -97q0 -57 -29 -88q-34 -36 -92 -36h-84v-145h-96zM372 472v-97h48q33 0 47 13q14 14 14 40q0 21 -17 34q-14 10 -52 10h-40z" />
    <glyph glyph-name="trademark" unicode="&#x2122;" horiz-adv-x="1000" 
d="M155 283v327h-118v90h344v-90h-118v-327h-108zM477 283v417h154l89 -243l89 243h154v-417h-108v273h-2l-89 -273h-88l-89 273h-2v-273h-108z" />
    <glyph glyph-name="Omega" unicode="&#x2126;" horiz-adv-x="800" 
d="M40 0v132h174v23q-74 21 -124 83t-50 171q0 144 94.5 228t265.5 84t265.5 -84t94.5 -228q0 -109 -50 -171t-124 -83v-23h174v-132h-300v243q53 11 80.5 55t27.5 102q0 82 -43.5 132.5t-124.5 50.5t-124.5 -50.5t-43.5 -132.5q0 -58 27.5 -102t80.5 -55v-243h-300z" />
    <glyph glyph-name="arrowright" unicode="&#x2192;" horiz-adv-x="675" 
d="M14 390h470l-61 95l40 29l198 -138v-52l-198 -143l-40 29l61 100h-470v80z" />
    <glyph glyph-name="partialdiff" unicode="&#x2202;" horiz-adv-x="667" 
d="M218 230q0 -51 19 -78q27 -38 79 -38t89 35q48 46 48 130q0 48 -22 74q-24 28 -72 28q-47 0 -82 -29q-27 -21 -43 -54t-16 -68zM212 704l128 82q63 -32 116 -77q100 -84 147 -186q36 -78 36 -171q0 -182 -92 -274q-90 -90 -239 -90q-121 0 -198 62q-78 64 -78 166
q0 137 84 217q78 74 186 74q88 0 143 -62h2q-29 91 -97 159q-56 56 -138 100z" />
    <glyph glyph-name="Delta" unicode="&#x2206;" horiz-adv-x="755" 
d="M356 518l-160 -386h320zM477 700l288 -700h-775l288 700h199z" />
    <glyph glyph-name="product" unicode="&#x220f;" horiz-adv-x="762" 
d="M85 -210v778h-40v132h672v-132h-40v-778h-186v778h-220v-778h-186z" />
    <glyph glyph-name="summation" unicode="&#x2211;" horiz-adv-x="658" 
d="M593 700v-132h-341l254 -314l-268 -332h375v-132h-564v132l268 332l-254 314v132h530z" />
    <glyph glyph-name="minus" unicode="&#x2212;" horiz-adv-x="600" 
d="M47 190v126h506v-126h-506z" />
    <glyph glyph-name="uni2215" unicode="&#x2215;" horiz-adv-x="486" 
d="M-5 -22l387 744h109l-387 -744h-109z" />
    <glyph glyph-name="uni2219" unicode="&#x2219;" horiz-adv-x="306" 
d="M69 191v162h168v-162h-168z" />
    <glyph glyph-name="radical" unicode="&#x221a;" horiz-adv-x="744" 
d="M255 500l112 -357l105 664h222v-106h-123l-129 -771h-165l-155 464h-102v106h235z" />
    <glyph glyph-name="infinity" unicode="&#x221e;" horiz-adv-x="826" 
d="M413 385l57 44q90 70 161 70q74 0 124.5 -54.5t50.5 -148.5t-50.5 -148.5t-124.5 -54.5q-71 0 -161 70l-57 44l-57 -44q-90 -70 -161 -70q-74 0 -124.5 54.5t-50.5 148.5t50.5 148.5t124.5 54.5q71 0 161 -70zM459 300l47 -34q3 -2 14.5 -10.5t15.5 -11t14 -9t16 -9.5
t14.5 -6.5t16.5 -5t15 -1.5q33 0 56 23.5t23 63.5t-23 63.5t-56 23.5q-7 0 -14.5 -1.5t-13 -3t-13.5 -5.5t-12.5 -6t-13 -8t-11.5 -8t-12.5 -9t-12.5 -9zM367 300l-50 37q-3 2 -12.5 9t-12.5 9t-11.5 8t-13 8t-12.5 6t-13.5 5.5t-13 3t-14.5 1.5q-33 0 -56 -23.5t-23 -63.5
t23 -63.5t56 -23.5q7 0 15 1.5t16.5 5t14.5 6.5t16 9.5t14 9t15.5 11t14.5 10.5z" />
    <glyph glyph-name="integral" unicode="&#x222b;" horiz-adv-x="592" 
d="M582 686l-21 -126q-20 25 -58 26q-30 -1 -43 -25q-14 -24 -18 -54l-115 -529q-13 -63 -33 -104q-21 -41 -47 -62q-25 -20 -57 -27q-34 -8 -66 -8q-51 0 -114 26l21 121q20 -19 51 -20q28 2 42 15q12 12 17 33l123 580q15 81 59 131q43 47 132 49q61 1 127 -26z" />
    <glyph glyph-name="approxequal" unicode="&#x2248;" horiz-adv-x="600" 
d="M513 473l40 -97q-26 -43 -51 -61q-35 -26 -90 -26q-21 0 -37 4q-34 7 -66 22l-36 16q-51 23 -85 23q-39 0 -69 -28q-20 -20 -33 -42l-39 98q22 40 56 62q36 24 87 24q13 0 37 -4q38 -9 62 -19l38 -16q38 -16 58 -21q18 -4 29 -4q35 0 60 21t39 48zM513 243l40 -97
q-26 -43 -51 -61q-35 -26 -90 -26q-21 0 -37 4q-34 7 -66 22l-36 16q-51 23 -85 23q-39 0 -69 -28q-20 -20 -33 -42l-39 98q22 40 56 62q36 24 87 24q13 0 37 -4q38 -9 62 -19l38 -16q38 -16 58 -21q18 -4 29 -4q35 0 60 21t39 48z" />
    <glyph glyph-name="notequal" unicode="&#x2260;" horiz-adv-x="600" 
d="M47 305v126h291l51 97h109l-51 -97h106v-126h-171l-55 -104h226v-126h-291l-51 -97h-109l51 97h-106v126h171l55 104h-226z" />
    <glyph glyph-name="lessequal" unicode="&#x2264;" horiz-adv-x="600" 
d="M553 603v-115l-341 -139l341 -139v-115l-506 208v92zM47 0v94h506v-94h-506z" />
    <glyph glyph-name="greaterequal" unicode="&#x2265;" horiz-adv-x="600" 
d="M553 94v-94h-506v94h506zM47 488v115l506 -208v-92l-506 -208v115l341 139z" />
    <glyph glyph-name="dotmath" unicode="&#x22c5;" horiz-adv-x="306" 
d="M69 191v162h168v-162h-168z" />
    <glyph glyph-name="lozenge" unicode="&#x25ca;" horiz-adv-x="626" 
d="M313 180l132 170l-132 169l-132 -169zM584 350l-271 -362l-271 362l271 362z" />
    <glyph glyph-name="uni2606" unicode="&#x2606;" horiz-adv-x="1092" 
d="M319 560v-10q-76 -44 -148 -44q-48 0 -87 15q14 82 55 151q184 69 401 69q227 0 413 -69q41 -69 55 -151q-39 -15 -87 -15q-72 0 -148 44v10q-6 23 -19 36t-64.5 24.5t-143.5 11.5t-143.5 -11.5t-64.5 -24.5t-19 -36zM319 521v-18q0 -51 -29 -81t-113 -30q-61 0 -77 19.5
t-16 65.5v21q52 -16 90 -16q78 0 145 39zM773 503v18q67 -39 145 -39q38 0 90 16v-21q0 -23 -2 -35.5t-11 -25.5t-28.5 -18.5t-51.5 -5.5q-84 0 -113 30t-29 81zM473 494h146v66h108v-91l126 -204q49 -79 49 -151v-114h-712v114q0 72 49 151l126 204v91h108v-66z" />
    <glyph glyph-name="uniF400" unicode="&#xf400;" horiz-adv-x="2" 
d="M-420 585l68 144h187l-129 -144h-126z" />
    <glyph glyph-name="uniF401" unicode="&#xf401;" horiz-adv-x="2" 
d="M-430 735l71 144h196l-135 -144h-132z" />
    <glyph glyph-name="uniF406" unicode="&#xf406;" horiz-adv-x="564" 
d="M282 830q56 0 81 11q25 13 31 39h90q-6 -63 -59 -103q-31 -23 -63.5 -30t-79.5 -7t-79.5 7t-63.5 30q-53 40 -59 103h90q6 -26 31 -39q25 -11 81 -11z" />
    <glyph glyph-name="uniF407" unicode="&#xf407;" horiz-adv-x="333" 
d="M147 0h66l-27 -65q20 5 40 5q48 0 69 -24q17 -19 17 -52q0 -49 -39 -69q-33 -17 -90 -17q-46 0 -83 9q-24 6 -45 14l17 49q52 -24 87 -24q25 0 37 7q15 9 15 28q0 14 -11 23q-11 8 -25 8q-18 0 -33 -6l-37 24z" />
    <glyph glyph-name="uniF408" unicode="&#xf408;" horiz-adv-x="564" 
d="M80 740l119 140h170l115 -140h-132l-68 74l-72 -74h-132z" />
    <glyph glyph-name="uniF409" unicode="&#xf409;" horiz-adv-x="344" 
d="M50 -250l48 200h182l-70 -200h-160z" />
    <glyph glyph-name="uniF40A" unicode="&#xf40a;" horiz-adv-x="395" 
d="M49 450l60 250h170l-90 -250h-140z" />
    <glyph glyph-name="uniF40B" unicode="&#xf40b;" horiz-adv-x="370" 
d="M92 880h186v-140h-186v140z" />
    <glyph glyph-name="uniF40C" unicode="&#xf40c;" horiz-adv-x="396" 
d="M80 828q0 46 35.5 79t82.5 33q49 0 83.5 -33.5t34.5 -78.5t-34.5 -78.5t-83.5 -33.5q-47 0 -82.5 33t-35.5 79zM148 828q0 -20 14 -34t36 -14t36 14t14 34t-14 34t-36 14t-36 -14t-14 -34z" />
    <glyph glyph-name="uniF40D" unicode="&#xf40d;" horiz-adv-x="572" 
d="M416 879h76q-7 -60 -39 -98q-35 -43 -97 -43q-23 0 -52 9l-21 7q-58 20 -76 20q-28 0 -40 -14q-9 -11 -11 -25h-76q7 58 39 98q35 43 95 43q33 0 69 -13l14 -5q4 -1 13.5 -5t16 -6.5t17 -4.5t20.5 -2q46 0 52 39z" />
    <glyph glyph-name="uniF40E" unicode="&#xf40e;" horiz-adv-x="332" 
d="M167 0h69l-29 -24q-30 -25 -44 -49q-13 -17 -13 -42q0 -18 11 -29q12 -12 32 -12q19 0 35 9q16 8 24 16l6 6l34 -22q-29 -46 -73 -63q-31 -13 -74 -13q-50 0 -76 28q-21 23 -21 61q0 32 20 58q18 23 45 43q17 12 42 26z" />
    <glyph glyph-name="uniF43E" unicode="&#xf43e;" horiz-adv-x="556" 
d="M185 0v562h-172v138h530v-138h-172v-562h-46l-27 -65q20 5 40 5q48 0 69 -24q17 -19 17 -52q0 -49 -39 -69q-33 -17 -90 -17q-46 0 -83 9q-24 6 -45 14l17 49q52 -24 87 -24q25 0 37 7q15 9 15 28q0 14 -11 23q-11 8 -25 8q-18 0 -33 -6l-37 24l42 90h-74z" />
    <glyph glyph-name="uniF43F" unicode="&#xf43f;" horiz-adv-x="444" 
d="M10 395v126h106v117l177 55v-172h126v-126h-126v-192q0 -54 17 -74q18 -21 55 -21q7 0 42 5l13 2l6 -117q-52 -10 -95 -10h-36l-22 -53q20 5 40 5q48 0 69 -24q17 -19 17 -52q0 -49 -39 -69q-33 -17 -90 -17q-46 0 -83 9q-24 6 -45 14l17 49q52 -24 87 -24q25 0 37 7
q15 9 15 28q0 14 -11 23q-11 8 -25 8q-18 0 -33 -6l-37 24l40 86q-44 14 -71 37q-22 19 -33 48.5t-13 50t-2 51.5v212h-103z" />
    <glyph glyph-name="uniF47E" unicode="&#xf47e;" horiz-adv-x="738" 
d="M675 700v-434q0 -120 -63 -190q-79 -88 -243 -88t-243 88q-63 70 -63 190v434h186v-403q0 -73 20 -113q29 -58 100 -58t100 58q20 40 20 113v403h186zM276 880h186v-140h-186v140z" />
    <glyph glyph-name="uniF47F" unicode="&#xf47f;" horiz-adv-x="667" 
d="M611 521v-521h-164v96h-2q-27 -56 -82 -84q-47 -24 -108 -24q-93 0 -143 53q-56 56 -56 155v325h180v-252q0 -82 33 -113q19 -18 51 -18q48 0 77 32q34 38 34 131v220h180zM242 738h186v-132h-186v132z" />
    <glyph glyph-name="uniF4C6" unicode="&#xf4c6;" horiz-adv-x="687" 
d="M257 -203v154q36 -17 84 -17q35 0 57 21q38 35 38 133v170q-68 -20 -146 -20q-150 0 -207 74q-38 50 -38 135v253h186v-219q0 -66 20 -86q21 -25 79 -25q50 0 106 17v313h186v-668q0 -129 -61 -191q-61 -63 -172 -63q-48 0 -115 15z" />
    <glyph glyph-name="uniF4C7" unicode="&#xf4c7;" horiz-adv-x="623" 
d="M285 -213l4 116q15 -5 38 -5q37 0 50 30q10 22 10 72v195q-70 -20 -149 -20q-128 0 -175 62q-29 39 -29 119v165h180v-139q0 -37 14 -54q18 -21 69 -21q47 0 90 13v201h180v-526q0 -92 -29 -143q-42 -74 -161 -74q-43 0 -92 9z" />
    <glyph glyph-name="uniF4C8" unicode="&#xf4c8;" horiz-adv-x="667" 
d="M638 162l9 -146q-111 -29 -229 -28l-22 -53q20 5 40 5q48 0 69 -24q17 -19 17 -52q0 -49 -39 -69q-33 -17 -90 -17q-46 0 -83 9q-24 6 -45 14l17 49q52 -24 87 -24q25 0 37 7q15 9 15 28q0 14 -11 23q-11 8 -25 8q-18 0 -33 -6l-37 24l39 83q-126 14 -210 93
q-105 99 -105 263q0 89 32 161t86 117q102 85 282 85q97 0 207 -36l-15 -151q-89 49 -181 49q-96 0 -156 -60q-63 -63 -63 -167q0 -102 63 -162q62 -59 170 -59q85 0 174 36z" />
    <glyph glyph-name="uniF4C9" unicode="&#xf4c9;" horiz-adv-x="501" 
d="M478 504l-13 -132q-48 29 -104 29q-57 0 -94 -30q-49 -41 -49 -111q0 -63 45 -103q42 -37 108 -37q54 0 107 25l4 -134q-37 -13 -78.5 -18.5t-61 -4.5t-29.5 1l-22 -54q20 5 40 5q48 0 69 -24q17 -19 17 -52q0 -49 -39 -69q-33 -17 -90 -17q-46 0 -83 9q-24 6 -45 14
l17 49q52 -24 87 -24q25 0 37 7q15 9 15 28q0 14 -11 23q-11 8 -25 8q-18 0 -33 -6l-37 24l40 87q-52 9 -96.5 37t-71.5 65q-51 70 -51 161q0 146 115 222q77 51 195 51q76 0 137 -29z" />
    <glyph glyph-name="uniF4CC" unicode="&#xf4cc;" horiz-adv-x="692" 
d="M-2 700h214l109 -235l45 -113h3q29 89 53 147l86 201h194l-274 -580q-12 -24 -36 -56.5t-47 -46.5q-45 -29 -119 -29q-57 0 -116 22l13 126q37 -15 67 -15q29 0 46 12q20 14 28 31l12 27zM214 740l72 140h196l-134 -140h-134z" />
    <glyph glyph-name="uniF4CD" unicode="&#xf4cd;" horiz-adv-x="605" 
d="M45 -210l12 137q29 -11 65 -11q43 0 66 21q20 16 31 51l-211 533h194l112 -340h2l107 340h180l-200 -507q-21 -55 -35 -85q-35 -78 -84 -114q-51 -37 -140 -37q-41 0 -99 12zM202 590l70 160h186l-130 -160h-126z" />
    <glyph glyph-name="dollar.fitted" unicode="&#xf5f5;" horiz-adv-x="582" 
d="M251 120v170q-90 14 -156 65q-71 51 -72 147q2 108 72 157q68 50 169 53v85h60v-85q51 0 99 -7q52 -8 86 -24l-12 -135q-79 39 -173 40v-152q50 -11 92 -24q44 -16 74 -40q34 -25 52 -64q18 -40 18 -101q-1 -109 -78 -162q-73 -53 -171 -55v-86h-60v86q-47 0 -109 8
q-58 6 -93 18l13 142q94 -38 189 -36zM264 446v140q-33 -1 -56 -20q-23 -20 -23 -48q0 -34 25 -50q22 -17 54 -22zM311 281v-161q86 5 87 87q-2 37 -27 54q-25 15 -60 20z" />
    <glyph glyph-name="Euro.fitted" unicode="&#xf5f6;" horiz-adv-x="651" 
d="M-25 383l25 80h61q23 102 94 164q97 85 282 85q104 0 214 -39l-45 -138q-73 39 -158 39q-65 0 -113.5 -31t-70.5 -80h320l-26 -80h-317q-5 -31 0 -66h297l-26 -80h-249q55 -111 199 -111q96 0 162 36l9 -146q-89 -28 -200 -28q-163 0 -254.5 72t-116.5 177h-87l25 80h48
q-2 31 0 66h-73z" />
    <glyph glyph-name="cent.fitted" unicode="&#xf5f7;" horiz-adv-x="486" 
d="M254 149l75 251q-56 -2 -92 -38q-38 -38 -38 -105q0 -36 16 -62q16 -30 39 -46zM166 -139l43 142q-191 54 -196 257q2 131 88 201q82 70 215 72q26 0 52 -3l36 116h59l-39 -128q13 -4 35 -14l-13 -132q-35 18 -59 24l-81 -271q23 -5 41 -5q67 0 112 24l4 -133
q-72 -23 -147 -23q-8 0 -24 2q-18 0 -26 1l-40 -130h-60z" />
    <glyph glyph-name="sterling.fitted" unicode="&#xf5f8;" horiz-adv-x="581" 
d="M26 0v132h92v191h-84v90h86v53q4 248 282 246q69 -2 135 -18l-8 -132q-37 12 -83 12q-80 0 -112 -33t-30 -95v-33h152v-90h-152v-191h225v-132h-503z" />
    <glyph glyph-name="yen.fitted" unicode="&#xf5f9;" horiz-adv-x="658" 
d="M239 0v136h-148v85h148v43l-9 19h-139v84h97l-165 333h186l120 -283l118 283h188l-165 -333h97v-84h-138l-10 -19v-43h148v-85h-148v-136h-180z" />
    <glyph glyph-name="florin.fitted" unicode="&#xf5fa;" horiz-adv-x="598" 
d="M117 315v108h128l23 109q15 81 59 131q43 47 132 49q61 1 127 -26l-21 -126q-20 25 -58 26q-30 -1 -43 -25q-14 -24 -18 -54l-18 -84h99v-108h-124l-72 -337q-13 -63 -33 -104q-21 -41 -47 -62q-25 -20 -57 -27q-34 -8 -66 -8q-51 0 -114 26l21 121q20 -19 51 -20
q28 2 42 15q12 12 17 33l77 363h-105z" />
    <glyph glyph-name="uni20B4.fitted" unicode="&#xf5fb;" 
d="M29 221h58q-3 -20 -3 -43q0 -92 65.5 -141t178.5 -49q107 0 203 23l-16 154q-77 -39 -148 -39q-91 0 -91 79q0 11 1 16h306v102h-554v-102zM583 387h-554v102h307v9q0 38 -27 57t-72 19q-58 0 -113 -25l-12 144q81 19 177 19q115 0 177 -54.5t62 -124.5q0 -25 -2 -44h57
v-102z" />
    <glyph glyph-name="uni20B6.fitted" unicode="&#xf5fc;" 
d="M300 568v-183h31q40 0 59 25q17 23 17 67q0 48 -21 71q-19 20 -55 20h-31zM300 253v-61h165v-102h-165v-90h-182v90h-95v102h95v61h-95v132h95v315h200q156 0 220 -68q51 -57 51 -158q0 -86 -45 -142q-64 -79 -195 -79h-49z" />
    <glyph glyph-name="uni20B8.fitted" unicode="&#xf5fd;" horiz-adv-x="570" 
d="M192 0v427h-172v105h530v-105h-172v-427h-186zM550 595h-530v105h530v-105z" />
    <glyph glyph-name="currency.fitted" unicode="&#xf5fe;" horiz-adv-x="578" 
d="M29 151l58 58q-24 26 -35 66q-11 41 -11 75q0 35 11 76t35 65l-58 58l63 62l57 -54q30 22 67 32t73 10q37 0 74 -10q38 -10 66 -32l57 54l63 -62l-58 -58q25 -25 36 -65q10 -37 10 -76q0 -38 -10 -75q-11 -39 -36 -66l58 -58l-63 -62l-57 54q-26 -20 -66 -31
q-41 -11 -74 -11q-32 0 -73 11q-39 11 -67 31l-57 -54zM289 228q52 0 84 35q30 33 32 87q-2 55 -32 88q-31 32 -84 34q-51 -1 -82 -34q-34 -34 -34 -88q0 -53 34 -87q32 -35 82 -35z" />
    <glyph glyph-name="numbersign.fitted" unicode="&#xf5ff;" horiz-adv-x="546" 
d="M24 188v108h99l15 110h-84v109h99l26 185h106l-26 -185h87l25 185h105l-25 -185h69v-109h-84l-15 -110h69v-108h-84l-26 -188h-105l26 188h-87l-26 -188h-106l26 188h-84zM316 296l15 110h-87l-15 -110h87z" />
    <glyph glyph-name="uniF639" unicode="&#xf639;" horiz-adv-x="615" 
d="M308 -12q-168 3 -222 113q-27 50 -38 117q-11 68 -11 132q-3 144 49 250q29 51 83 82q54 29 139 30q86 -2 141 -30q54 -30 82 -82q29 -51 39 -116q9 -64 9 -134q0 -68 -9 -132q-10 -64 -39 -117q-54 -110 -223 -113zM308 114q32 0 51 22q10 12 17 24q5 12 10 31
q14 77 13 159q1 83 -13 161q-6 22 -10 31q-7 12 -17 24q-20 20 -51 20t-49 -20q-9 -10 -15 -24q-7 -13 -12 -31q-3 -12 -7 -36q-4 -26 -5 -40q-3 -42 -3 -85q0 -42 3 -82q3 -43 12 -77q4 -15 12 -31q6 -14 15 -24q18 -22 49 -22z" />
    <glyph glyph-name="uniF63A" unicode="&#xf63a;" horiz-adv-x="583" 
d="M41 0v133q120 103 207 188q45 48 72 88q25 40 27 76q0 47 -28 69q-29 20 -71 20q-104 -3 -183 -48l-7 145q77 28 126 35q51 6 81 6q119 0 193 -50q73 -49 75 -155q-2 -54 -23 -101q-22 -49 -58 -94q-74 -88 -132 -136l-50 -44h276v-132h-505z" />
    <glyph glyph-name="uniF63B" unicode="&#xf63b;" horiz-adv-x="583" 
d="M70 546l-9 137q93 29 203 29q53 0 99 -7q48 -9 87 -31q40 -21 64 -58q22 -37 24 -95q-3 -122 -128 -154v-2q136 -27 139 -159q-3 -126 -101 -173q-42 -23 -98 -34q-57 -11 -106 -11q-123 0 -204 24l9 147q32 -18 79 -26q41 -7 94 -7q45 -2 92 18q24 11 36 29q13 16 13 43
t-13 43q-14 17 -33 24q-21 10 -42 11q-30 2 -39 2q-34 0 -78 -2v124q50 -3 80 -2q15 0 37 5q23 5 37 13q38 18 40 59q0 27 -10 43q-10 15 -29 24q-39 14 -81 14q-99 0 -162 -28z" />
    <glyph glyph-name="uniF63C" unicode="&#xf63c;" horiz-adv-x="626" 
d="M327 0v133h-312v149l280 418h206v-440h99v-127h-99v-133h-174zM339 260v296h-2l-190 -296h192z" />
    <glyph glyph-name="uniF63D" unicode="&#xf63d;" horiz-adv-x="571" 
d="M50 324l5 376h455v-126h-295v-117q33 4 55 4q110 0 187 -50q79 -51 80 -166q-1 -143 -94 -201q-92 -57 -213 -56q-103 2 -187 25l3 151q82 -38 170 -38q26 0 52 6q24 4 45 17q20 14 32 36q12 21 12 54q0 31 -13 50t-36 31q-48 21 -106 21q-75 0 -152 -17z" />
    <glyph glyph-name="uniF63E" unicode="&#xf63e;" horiz-adv-x="597" 
d="M523 680l-11 -137q-23 17 -58 27q-36 10 -89 10q-92 -2 -127 -56q-36 -57 -36 -150h2q48 71 151 71q98 -2 153 -62q54 -60 56 -158q-1 -100 -73 -167q-72 -69 -189 -70q-146 1 -208 100q-62 96 -60 232q-2 165 68 277q71 114 240 115q103 0 181 -32zM210 216
q0 -45 24 -75q23 -32 67 -33q45 2 67 30t22 70q0 44 -20 78q-10 16 -27 25q-18 8 -42 8q-46 -2 -68 -31q-23 -31 -23 -72z" />
    <glyph glyph-name="uniF63F" unicode="&#xf63f;" horiz-adv-x="556" 
d="M86 0l260 568h-312v132h502v-151l-250 -549h-200z" />
    <glyph glyph-name="uniF640" unicode="&#xf640;" horiz-adv-x="614" 
d="M172 360v1q-50 17 -84 57q-35 41 -36 93q2 111 80 157q76 44 182 44q107 0 172 -43q66 -43 68 -136q-1 -66 -34 -104q-15 -19 -36 -33q-21 -15 -45 -24v-2q61 -17 100 -55t41 -117q0 -58 -22 -96q-22 -39 -60 -65q-79 -49 -192 -49q-116 0 -192 46q-78 46 -80 154
q2 76 42 117q38 40 96 55zM400 205q0 25 -9 41t-25 28q-34 23 -71 32q-35 -14 -57 -39q-24 -25 -24 -65t28 -62q26 -26 62 -26q41 0 69 25q25 22 27 66zM220 510q0 -40 28 -59q28 -21 59 -34q38 21 59 44q20 23 20 57q-2 39 -26 56q-25 18 -58 18q-35 0 -57 -22
q-25 -22 -25 -60z" />
    <glyph glyph-name="uniF641" unicode="&#xf641;" horiz-adv-x="597" 
d="M74 20l11 137q46 -36 147 -37q92 2 128 58t35 148h-2q-48 -71 -151 -71q-97 1 -152 64q-56 61 -57 156q1 101 74 168q70 67 188 69q147 -1 209 -99q60 -97 59 -233q1 -162 -67 -276q-69 -113 -241 -116q-103 0 -181 32zM387 484q0 46 -22 77q-24 29 -69 31
q-44 -2 -66 -29q-23 -29 -23 -71q-1 -45 21 -76q20 -33 68 -35q47 2 69 32q22 29 22 71z" />
    <glyph glyph-name="uniF643" unicode="&#xf643;" 
d="M34 260q0 60 12 106t41.5 85.5t84.5 60.5t135 21q79 0 134 -21t84 -60.5t41 -85.5t12 -106q0 -59 -12 -105t-41 -85.5t-84 -60.5t-134 -21q-80 0 -135 21t-84.5 60.5t-41.5 85.5t-12 105zM216 260q0 -68 19.5 -107.5t71.5 -39.5q51 0 70 39.5t19 107.5t-19 107.5
t-70 39.5q-52 0 -71.5 -39.5t-19.5 -107.5z" />
    <glyph glyph-name="uniF644" unicode="&#xf644;" 
d="M256 335l-116 -90l-86 122l229 154h159v-521h-186v335z" />
    <glyph glyph-name="uniF645" unicode="&#xf645;" 
d="M50 0v131q18 10 75.5 39.5t107.5 58.5t80 54q34 29 34 63q0 49 -86 49q-104 0 -186 -48l-7 145q119 41 245 41q118 0 176 -37t58 -117q0 -79 -62.5 -134t-181.5 -110v-3h252v-132h-505z" />
    <glyph glyph-name="uniF646" unicode="&#xf646;" 
d="M64 367l-9 137q93 29 203 29q274 0 274 -191q0 -122 -128 -154v-2q139 -27 139 -159q0 -61 -26.5 -105t-72 -67.5t-96.5 -34.5t-110 -11q-123 0 -204 24l9 147q58 -33 173 -33q22 0 43.5 3.5t45 12.5t38 28t14.5 46q0 80 -127 80q-34 0 -78 -2v124q33 -3 61 -3
q60 0 96.5 19.5t36.5 58.5q0 81 -120 81q-99 0 -162 -28z" />
    <glyph glyph-name="uniF647" unicode="&#xf647;" 
d="M328 -179v179h-312v149l280 372h206v-389h99v-132h-99v-179h-174zM340 127v250h-2l-190 -250h192z" />
    <glyph glyph-name="uniF648" unicode="&#xf648;" 
d="M67 157l5 376h455v-126h-295v-117q33 4 55 4q116 0 191.5 -52.5t75.5 -163.5q0 -71 -26 -123t-71 -80t-97 -41t-114 -13q-101 0 -186 25l3 151q82 -38 170 -38q141 0 141 115q0 38 -25 61.5t-57 31t-73 7.5q-82 0 -152 -17z" />
    <glyph glyph-name="uniF649" unicode="&#xf649;" 
d="M530 680l-11 -137q-51 37 -147 37q-88 0 -125.5 -54t-37.5 -152h2q48 71 151 71q96 0 152.5 -61.5t56.5 -158.5q0 -100 -73 -168.5t-189 -68.5q-72 0 -125 26.5t-83.5 73t-45 102.5t-14.5 123q0 86 16 155.5t50.5 125.5t95.5 87t146 31q103 0 181 -32zM217 216
q0 -45 24 -76t67 -32q43 1 66 29t23 71q0 49 -21 80t-68 31q-44 0 -67.5 -29.5t-23.5 -73.5z" />
    <glyph glyph-name="uniF64A" unicode="&#xf64a;" 
d="M88 -179l260 568h-312v132h502v-151l-250 -549h-200z" />
    <glyph glyph-name="uniF64B" unicode="&#xf64b;" 
d="M171 360v1q-51 16 -85.5 57.5t-34.5 92.5q0 104 72.5 152.5t189.5 48.5q110 0 175 -44.5t65 -134.5q0 -119 -115 -161v-2q66 -19 103.5 -58.5t37.5 -113.5q0 -73 -40 -121.5t-99.5 -68.5t-134.5 -20q-123 0 -197.5 49t-74.5 151q0 71 38 113.5t100 58.5zM399 205
q0 75 -105 101q-81 -32 -81 -104q0 -36 27 -62t63 -26q40 0 68 24t28 67zM219 510q0 -35 23.5 -55.5t63.5 -37.5q41 22 60 44.5t19 56.5q0 36 -24.5 55t-59.5 19t-58.5 -23.5t-23.5 -58.5z" />
    <glyph glyph-name="uniF64C" unicode="&#xf64c;" 
d="M82 -159l11 137q48 -37 147 -37q88 0 125.5 53.5t37.5 152.5h-2q-48 -71 -151 -71q-95 0 -152 62.5t-57 157.5q0 101 73.5 169t188.5 68q72 0 125 -25.5t83.5 -71.5t45 -103t14.5 -126q0 -398 -308 -398q-103 0 -181 32zM395 305q0 48 -23 78t-68 30q-43 0 -66 -28
t-23 -72q0 -47 22.5 -79t66.5 -32t67.5 29.5t23.5 73.5z" />
    <glyph glyph-name="uniF6BA" unicode="&#xf6ba;" horiz-adv-x="480" 
d="M80 440h320v-140h-320v140z" />
    <glyph glyph-name="uniF6BB" unicode="&#xf6bb;" horiz-adv-x="780" 
d="M100 426h580v-110h-580v110z" />
    <glyph glyph-name="uniF6BC" unicode="&#xf6bc;" horiz-adv-x="1000" 
d="M100 426h800v-110h-800v110z" />
    <glyph glyph-name="uniF6C3" unicode="&#xf6c3;" horiz-adv-x="330" 
d="M49 -250l46 200h170l-76 -200h-140z" />
    <glyph glyph-name="uniF6C9" unicode="&#xf6c9;" horiz-adv-x="360" 
d="M72 740l72 140h196l-134 -140h-134z" />
    <glyph glyph-name="uniF6CA" unicode="&#xf6ca;" horiz-adv-x="564" 
d="M484 880l-119 -140h-170l-115 140h132l68 -74l72 74h132z" />
    <glyph glyph-name="uniF6CB" unicode="&#xf6cb;" horiz-adv-x="550" 
d="M320 740v140h150v-140h-150zM80 740v140h150v-140h-150z" />
    <glyph glyph-name="uniF6CC" unicode="&#xf6cc;" horiz-adv-x="616" 
d="M95 907h132v-132h-132v132zM395 907h132v-132h-132v132zM243 907l68 144h187l-129 -144h-126z" />
    <glyph glyph-name="uniF6CE" unicode="&#xf6ce;" horiz-adv-x="360" 
d="M288 740h-134l-134 140h196z" />
    <glyph glyph-name="uniF6CF" unicode="&#xf6cf;" horiz-adv-x="500" 
d="M76 880h180l-138 -140h-114zM320 880h180l-139 -140h-114z" />
    <glyph glyph-name="uniF6D0" unicode="&#xf6d0;" horiz-adv-x="535" 
d="M80 773v84h375v-84h-375z" />
    <glyph glyph-name="uniF6D1" unicode="&#xf6d1;" horiz-adv-x="513" 
d="M355 917l93 -12q2 -65 -42 -107q-51 -48 -149 -48q-97 0 -148 48q-42 40 -44 107l94 12q6 -28 22 -43q23 -22 76 -22t76 22q16 15 22 43z" />
    <glyph glyph-name="uniF6D4" unicode="&#xf6d4;" horiz-adv-x="466" 
d="M324 744l86 -12q2 -64 -39 -104q-47 -46 -138 -46t-138 46q-41 40 -39 104l86 12q4 -25 21 -42q22 -21 70 -21t70 21q17 17 21 42z" />
    <glyph glyph-name="uniF6D7" unicode="&#xf6d7;" horiz-adv-x="611" 
d="M388 585v144h124v-144h-124zM80 585v144h124v-144h-124zM226 729l68 144h187l-129 -144h-126z" />
    <glyph glyph-name="uniF6DC" unicode="&#xf6dc;" horiz-adv-x="453" 
d="M220 514l-132 -95l-83 127l237 154h164v-700h-186v514z" />
    <glyph glyph-name="uniF6DE" unicode="&#xf6de;" horiz-adv-x="690" 
d="M45 207v126h600v-126h-600z" />
    <glyph glyph-name="uniF6E1" unicode="&#xf6e1;" horiz-adv-x="329" 
d="M49 -250l43 190h162l-62 -190h-143z" />
    <glyph glyph-name="uniF6E2" unicode="&#xf6e2;" horiz-adv-x="400" 
d="M59 558l47 192h148l-78 -192h-117z" />
    <glyph glyph-name="uniF730" unicode="&#xf730;" horiz-adv-x="624" 
d="M40 260q0 60 12 106t41.5 85.5t84.5 60.5t135 21q79 0 134 -21t84 -60.5t41 -85.5t12 -106q0 -59 -12 -105t-41 -85.5t-84 -60.5t-134 -21q-80 0 -135 21t-84.5 60.5t-41.5 85.5t-12 105zM222 260q0 -68 19.5 -107.5t71.5 -39.5q51 0 70 39.5t19 107.5t-19 107.5
t-70 39.5q-52 0 -71.5 -39.5t-19.5 -107.5z" />
    <glyph glyph-name="uniF731" unicode="&#xf731;" horiz-adv-x="543" 
d="M237 335l-116 -90l-86 122l229 154h159v-521h-186v335z" />
    <glyph glyph-name="uniF732" unicode="&#xf732;" horiz-adv-x="598" 
d="M40 0v131q18 10 75.5 39.5t107.5 58.5t80 54q34 29 34 63q0 49 -86 49q-104 0 -186 -48l-7 145q119 41 245 41q118 0 176 -37t58 -117q0 -79 -62.5 -134t-181.5 -110v-3h252v-132h-505z" />
    <glyph glyph-name="uniF733" unicode="&#xf733;" horiz-adv-x="564" 
d="M40 367l-9 137q93 29 203 29q274 0 274 -191q0 -122 -128 -154v-2q139 -27 139 -159q0 -61 -26.5 -105t-72 -67.5t-96.5 -34.5t-110 -11q-123 0 -204 24l9 147q58 -33 173 -33q22 0 43.5 3.5t45 12.5t38 28t14.5 46q0 80 -127 80q-34 0 -78 -2v124q33 -3 61 -3
q60 0 96.5 19.5t36.5 58.5q0 81 -120 81q-99 0 -162 -28z" />
    <glyph glyph-name="uniF734" unicode="&#xf734;" horiz-adv-x="642" 
d="M352 -179v179h-312v149l280 372h206v-389h99v-132h-99v-179h-174zM364 127v250h-2l-190 -250h192z" />
    <glyph glyph-name="uniF735" unicode="&#xf735;" horiz-adv-x="599" 
d="M62 157l5 376h455v-126h-295v-117q33 4 55 4q116 0 191.5 -52.5t75.5 -163.5q0 -71 -26 -123t-71 -80t-97 -41t-114 -13q-101 0 -186 25l3 151q82 -38 170 -38q141 0 141 115q0 38 -25 61.5t-57 31t-73 7.5q-82 0 -152 -17z" />
    <glyph glyph-name="uniF736" unicode="&#xf736;" 
d="M530 680l-11 -137q-51 37 -147 37q-88 0 -125.5 -54t-37.5 -152h2q48 71 151 71q96 0 152.5 -61.5t56.5 -158.5q0 -100 -73 -168.5t-189 -68.5q-72 0 -125 26.5t-83.5 73t-45 102.5t-14.5 123q0 86 16 155.5t50.5 125.5t95.5 87t146 31q103 0 181 -32zM217 216
q0 -45 24 -76t67 -32q43 1 66 29t23 71q0 49 -21 80t-68 31q-44 0 -67.5 -29.5t-23.5 -73.5z" />
    <glyph glyph-name="uniF737" unicode="&#xf737;" horiz-adv-x="572" 
d="M72 -179l260 568h-312v132h502v-151l-250 -549h-200z" />
    <glyph glyph-name="uniF738" unicode="&#xf738;" 
d="M171 360v1q-51 16 -85.5 57.5t-34.5 92.5q0 104 72.5 152.5t189.5 48.5q110 0 175 -44.5t65 -134.5q0 -119 -115 -161v-2q66 -19 103.5 -58.5t37.5 -113.5q0 -73 -40 -121.5t-99.5 -68.5t-134.5 -20q-123 0 -197.5 49t-74.5 151q0 71 38 113.5t100 58.5zM399 205
q0 75 -105 101q-81 -32 -81 -104q0 -36 27 -62t63 -26q40 0 68 24t28 67zM219 510q0 -35 23.5 -55.5t63.5 -37.5q41 22 60 44.5t19 56.5q0 36 -24.5 55t-59.5 19t-58.5 -23.5t-23.5 -58.5z" />
    <glyph glyph-name="uniF739" unicode="&#xf739;" horiz-adv-x="600" 
d="M76 -159l11 137q48 -37 147 -37q88 0 125.5 53.5t37.5 152.5h-2q-48 -71 -151 -71q-95 0 -152 62.5t-57 157.5q0 101 73.5 169t188.5 68q72 0 125 -25.5t83.5 -71.5t45 -103t14.5 -126q0 -398 -308 -398q-103 0 -181 32zM389 305q0 48 -23 78t-68 30q-43 0 -66 -28
t-23 -72q0 -47 22.5 -79t66.5 -32t67.5 29.5t23.5 73.5z" />
    <glyph glyph-name="dotlessi1" horiz-adv-x="334" 
d="M77 0v521h180v-521h-180z" />
    </font>
</defs>
</svg>
